<?xml version="1.0" standalone="no"?>
<!DOCTYPE svg PUBLIC "-//W3C//DTD SVG 20010904//EN"
 "http://www.w3.org/TR/2001/REC-SVG-20010904/DTD/svg10.dtd">
<svg version="1.0" xmlns="http://www.w3.org/2000/svg"
 width="379.000000pt" height="379.000000pt" viewBox="0 0 379.000000 379.000000"
 preserveAspectRatio="xMidYMid meet">
<metadata>
Created by potrace 1.11, written by Peter Selinger 2001-2013
</metadata>
<g transform="translate(0.000000,379.000000) scale(0.100000,-0.100000)"
fill="#000000" stroke="none">
<path d="M1424 3186 c-12 -30 7 -36 118 -36 l111 0 -6 -186 c-7 -203 -4 -220
49 -283 109 -130 334 -93 400 66 11 25 12 73 7 217 l-6 186 67 0 67 0 -4 -167
c-2 -93 -8 -183 -12 -200 -6 -29 -5 -33 14 -33 11 0 21 5 21 10 0 6 8 5 20 -2
32 -20 43 1 25 45 -11 27 -15 75 -15 191 0 153 0 155 23 158 14 2 22 10 22 23
0 20 -8 20 -448 23 -385 2 -448 0 -453 -12z m626 -135 l0 -98 -52 0 c-29 0
-69 -7 -88 -15 -31 -13 -39 -13 -70 0 -19 8 -59 15 -87 15 l-53 0 0 98 0 99
175 0 175 0 0 -99z m-225 -161 c49 -25 49 -25 102 1 46 22 104 22 127 -1 16
-16 11 -101 -7 -136 -35 -67 -96 -104 -172 -104 -97 0 -170 61 -189 158 -17
91 47 129 139 82z"/>
<path d="M1729 2517 c-155 -53 -257 -169 -297 -337 l-16 -70 -162 0 c-112 0
-165 -4 -170 -12 -11 -17 25 -38 66 -38 l36 0 15 -215 c16 -214 24 -254 51
-227 9 9 9 56 -1 204 -7 106 -15 203 -18 216 l-5 22 647 0 c611 0 646 -1 641
-17 -2 -10 -10 -107 -17 -216 -10 -152 -10 -200 -1 -209 27 -27 35 13 51 227
l15 215 36 0 c41 0 77 21 66 38 -5 8 -58 12 -170 12 l-163 0 -12 59 c-26 130
-123 266 -230 320 -108 56 -249 66 -362 28z m133 -65 c13 -16 38 2 38 28 0 15
6 16 48 9 53 -10 102 -28 102 -38 0 -4 -33 -40 -74 -80 l-75 -74 -3 44 c-2 36
-7 44 -23 44 -16 0 -21 -8 -23 -44 l-3 -44 -75 74 c-41 40 -74 76 -74 80 0 10
50 28 100 37 37 6 46 5 49 -8 2 -8 8 -21 13 -28z m-2 -239 c0 -8 -13 5 -110
105 l-105 107 108 -105 c59 -57 107 -106 107 -107z m240 204 c0 -1 -48 -50
-107 -107 l-108 -105 105 108 c97 99 110 112 110 104z m-623 -279 c-3 -8 -6
-5 -6 6 -1 11 2 17 5 13 3 -3 4 -12 1 -19z m800 0 c-3 -8 -6 -5 -6 6 -1 11 2
17 5 13 3 -3 4 -12 1 -19z m-194 -25 c-111 -2 -295 -2 -410 0 -114 1 -23 2
202 2 226 0 319 -1 208 -2z"/>
<path d="M1501 1958 c-5 -13 -12 -35 -15 -50 -8 -38 -59 -84 -103 -95 l-38 -9
3 -85 c4 -85 17 -119 42 -104 9 6 11 27 6 76 l-6 69 40 20 c51 26 88 66 102
112 10 35 13 37 57 40 38 3 46 6 46 23 0 18 -8 20 -62 23 -58 3 -64 1 -72 -20z"/>
<path d="M1704 1965 c-13 -32 6 -35 255 -35 l248 0 11 -37 c14 -47 50 -87 102
-113 l40 -20 -6 -69 c-5 -49 -3 -70 6 -76 25 -15 38 19 42 104 l3 85 -38 9
c-44 11 -95 57 -103 95 -3 15 -9 37 -14 50 l-10 22 -265 0 c-223 0 -267 -2
-271 -15z"/>
<path d="M310 1244 c-119 -32 -200 -107 -200 -185 0 -11 39 -60 91 -114 59
-61 90 -100 87 -112 -4 -19 -60 -60 -95 -69 -35 -9 -67 2 -113 41 -24 20 -48
34 -54 32 -6 -2 -12 -20 -14 -39 -3 -30 3 -42 32 -71 111 -111 346 -38 346
107 0 53 -35 110 -109 174 -34 29 -61 60 -61 67 0 19 64 51 147 73 62 16 68
20 65 43 -2 22 -44 70 -60 68 -4 0 -32 -7 -62 -15z"/>
<path d="M490 1212 c0 -46 30 -215 66 -371 21 -92 32 -121 54 -143 18 -18 34
-26 45 -22 9 4 43 63 76 133 33 69 87 179 119 244 64 125 71 154 42 180 -24
22 -45 21 -65 -1 -23 -26 -79 -142 -128 -269 -38 -99 -59 -136 -59 -103 0 36
-33 281 -41 307 -12 37 -61 83 -90 83 -15 0 -19 -7 -19 -38z"/>
<path d="M1142 1230 c-130 -59 -290 -346 -250 -450 20 -54 83 -100 137 -100
45 0 76 15 128 62 l46 43 -7 -35 c-25 -121 -25 -150 0 -150 28 0 94 176 94
252 0 50 -24 96 -57 109 -31 11 -104 2 -130 -16 -17 -13 -17 -14 1 -34 13 -15
31 -21 59 -21 l41 0 -30 -31 c-52 -54 -136 -95 -170 -82 -22 8 -17 89 9 153
53 129 140 210 224 210 24 0 43 4 43 9 0 20 -20 61 -40 81 -25 25 -43 25 -98
0z"/>
<path d="M1466 1238 c-3 -7 -7 -34 -10 -59 -3 -26 -23 -125 -46 -221 -22 -96
-40 -182 -40 -192 0 -22 42 -86 57 -86 16 0 55 121 83 263 7 32 15 56 18 52 3
-3 15 -38 27 -78 16 -56 26 -75 47 -86 38 -22 66 -4 135 86 31 40 58 72 60 69
2 -2 -5 -37 -17 -77 -24 -87 -26 -169 -5 -209 18 -34 30 -38 44 -12 13 24 121
449 121 476 0 31 -43 70 -68 62 -11 -4 -64 -62 -117 -129 -54 -67 -102 -122
-107 -122 -14 0 -44 78 -60 155 -11 56 -18 67 -52 92 -42 30 -64 35 -70 16z"/>
<path d="M2876 1198 c-3 -7 -7 -40 -10 -72 -4 -33 -9 -62 -11 -64 -2 -3 -26
-8 -52 -13 -26 -5 -54 -16 -62 -24 -12 -12 -12 -17 3 -39 12 -20 25 -26 51
-26 19 0 35 -1 35 -3 0 -2 -11 -35 -23 -73 -38 -109 -40 -137 -18 -166 31 -39
71 -52 120 -38 54 14 111 64 111 97 0 16 -5 23 -12 20 -51 -19 -129 -40 -133
-35 -3 3 9 54 27 113 35 114 33 112 113 134 60 16 72 26 56 45 -9 11 -30 16
-61 16 l-48 0 5 43 c5 39 2 46 -27 70 -34 29 -58 34 -64 15z"/>
<path d="M2139 1060 c-51 -27 -105 -92 -145 -175 -39 -80 -42 -115 -13 -156
21 -30 67 -59 92 -59 8 0 38 16 67 35 29 19 53 35 55 35 2 0 12 -16 24 -35 22
-38 36 -44 45 -19 11 28 39 167 41 204 1 19 5 49 9 66 6 25 3 36 -19 63 -30
35 -74 61 -102 61 -10 -1 -34 -10 -54 -20z m88 -116 c-9 -56 -40 -106 -86
-141 -45 -35 -91 -44 -91 -18 0 58 110 195 156 195 25 0 26 -2 21 -36z"/>
<path d="M2572 1069 c-51 -20 -130 -81 -142 -108 -16 -39 -3 -61 65 -111 54
-40 80 -72 68 -84 -12 -12 -114 -6 -150 9 -23 10 -40 12 -46 6 -17 -17 2 -59
35 -79 76 -46 177 -35 236 24 28 28 33 39 27 62 -8 33 -36 65 -93 104 -27 19
-42 36 -40 46 5 24 65 43 121 37 42 -5 47 -4 47 14 0 29 -58 91 -84 90 -11 0
-31 -4 -44 -10z"/>
<path d="M3237 1050 c-53 -33 -123 -131 -133 -187 -24 -129 63 -213 191 -184
56 13 115 52 115 76 0 21 -16 22 -95 7 -40 -8 -85 -12 -99 -8 -23 6 -26 12
-26 47 l0 41 53 -6 c106 -13 218 49 202 113 -17 68 -81 131 -135 131 -14 0
-47 -13 -73 -30z m104 -79 c20 -16 22 -23 13 -38 -8 -13 -26 -19 -68 -21 -31
-2 -56 1 -56 6 0 12 67 72 79 72 5 0 19 -9 32 -19z"/>
<path d="M3537 1073 c-4 -3 -7 -48 -7 -99 0 -64 -6 -112 -20 -156 -11 -34 -20
-73 -20 -84 0 -31 31 -67 52 -59 20 8 51 79 74 170 18 72 34 94 133 176 42 36
33 59 -23 59 -25 0 -56 -9 -80 -24 l-40 -24 -19 24 c-18 24 -37 30 -50 17z"/>
</g>
</svg>
