<?xml version="1.0" encoding="iso-8859-1"?>
<!-- Generator: Adobe Illustrator 19.0.0, SVG Export Plug-In . SVG Version: 6.00 Build 0)  -->
<svg version="1.1" id="Capa_1" xmlns="http://www.w3.org/2000/svg" xmlns:xlink="http://www.w3.org/1999/xlink" x="0px" y="0px"
	 viewBox="0 0 469.998 469.998" style="enable-background:new 0 0 469.998 469.998;" xml:space="preserve">
<g>
	<path style="fill:#F2484B;" d="M127.818,308.611c6.929-21.39,10.772-43.595,11.473-66.11H15.245
		c1.82,53.811,23.207,107.077,64.192,148.063c0.497,0.497,1.005,0.978,1.506,1.47c14.657-17.165,26.837-36.083,36.241-56.345
		c1.729-3.726,6.126-5.357,9.862-3.686c1.967-4.596,3.79-9.263,5.481-13.989C128.661,316.692,126.554,312.512,127.818,308.611z"/>
	<path style="fill:#F2484B;" d="M139.286,227.5c-1.723-54.654-22.236-107.222-58.347-149.53c-0.501,0.492-1.009,0.973-1.506,1.47
		c-40.984,40.984-62.37,94.249-64.188,148.06H139.286z M79.498,134.228c2.661,0,4.988,1.385,6.319,3.468
		c0.747,1.166,1.185,2.549,1.185,4.036c0,4.142-3.358,7.5-7.5,7.5c-1.554,0-2.997-0.473-4.195-1.282
		c-1.996-1.346-3.31-3.628-3.31-6.222C71.998,137.587,75.358,134.228,79.498,134.228z"/>
	<path style="fill:#F2484B;" d="M342.852,137.956c-3.757-1.744-5.389-6.203-3.645-9.96c10.056-21.666,23.096-41.875,38.798-60.188
		c-37.94-32.554-85.265-50.997-135.513-52.667V227.5h73.207c0.705-24.09,4.796-47.851,12.209-70.736
		c1.276-3.94,5.504-6.103,9.446-4.823c0.039,0.013,0.075,0.03,0.114,0.043c1.692-4.726,3.514-9.393,5.482-13.989
		C342.917,137.98,342.884,137.971,342.852,137.956z"/>
	<path style="fill:#F2484B;" d="M315.702,242.5h-73.21v212.357c50.247-1.665,97.57-20.11,135.513-52.674
		C339.35,357.09,317.433,300.916,315.702,242.5z M287.865,371.238c-0.252,0.026-0.508,0.039-0.767,0.039
		c-0.776,0-1.525-0.118-2.23-0.337c-2.097-0.652-3.797-2.201-4.658-4.196c-0.393-0.911-0.613-1.913-0.613-2.967
		c0-0.776,0.118-1.525,0.338-2.23c0.949-3.053,3.797-5.27,7.163-5.27c4.142,0,7.5,3.358,7.5,7.5
		C294.599,367.661,291.647,370.854,287.865,371.238z M317.098,401.277c-0.701,0-1.377-0.104-2.021-0.284
		c-2.141-0.599-3.892-2.121-4.8-4.113c-0.432-0.947-0.679-1.996-0.679-3.104c0-0.841,0.145-1.647,0.401-2.402
		c1.002-2.962,3.799-5.098,7.1-5.098c4.142,0,7.5,3.358,7.5,7.5c0,3.883-2.952,7.078-6.734,7.461
		C317.612,401.264,317.357,401.277,317.098,401.277z"/>
	<path style="fill:#FF6E1D;" d="M91.992,402.188c37.932,32.548,85.252,50.99,135.5,52.667V242.5h-73.195
		c-0.706,24.089-4.796,47.849-12.209,70.733c-1.027,3.172-3.969,5.19-7.133,5.19c-0.766,0-1.544-0.118-2.313-0.367
		c-0.039-0.013-0.076-0.03-0.115-0.044c-1.691,4.726-3.514,9.393-5.481,13.989c0.033,0.015,0.066,0.025,0.098,0.04
		c3.757,1.744,5.389,6.203,3.645,9.96C120.733,363.668,107.694,383.877,91.992,402.188z"/>
	<path style="fill:#FF6E1D;" d="M154.295,227.5h73.197V15.142c-50.243,1.674-97.564,20.118-135.501,52.671
		C130.647,112.908,152.564,169.084,154.295,227.5z"/>
	<path style="fill:#FF6E1D;" d="M330.71,242.5c1.723,54.652,22.236,107.219,58.346,149.525c0.498-0.489,1.004-0.968,1.499-1.463
		c40.986-40.986,62.374-94.252,64.195-148.063H330.71z"/>
	<path style="fill:#FF6E1D;" d="M389.055,77.964c-14.658,17.165-26.837,36.083-36.242,56.346c-1.27,2.735-3.979,4.345-6.808,4.345
		c-1.024,0-2.062-0.216-3.055-0.66c-1.968,4.596-3.79,9.264-5.482,13.989c3.866,1.321,5.974,5.502,4.71,9.403
		c-6.929,21.391-10.773,43.597-11.473,66.113h124.046c-1.817-53.812-23.202-107.079-64.187-148.063
		C390.066,78.939,389.557,78.457,389.055,77.964z"/>
	<path style="fill:#082947;" d="M469.994,235.09c0-0.03,0.005-0.06,0.005-0.09c0-0.03-0.004-0.059-0.004-0.088
		c-0.021-62.739-24.46-121.718-68.823-166.083C356.788,24.448,297.78,0.004,235.014,0.001
		C175.729,0.012,119.85,21.797,76.447,61.555c-0.019,0.017-0.04,0.031-0.06,0.049c-0.031,0.028-0.057,0.059-0.087,0.087
		c-2.532,2.323-5.029,4.697-7.474,7.143C24.451,113.209,0.009,172.207,0,234.962c0.01,62.832,24.453,121.83,68.83,166.208
		c44.378,44.378,103.39,68.821,166.165,68.826c59.246,0,115.123-21.778,158.53-61.533c0.027-0.024,0.057-0.044,0.084-0.069
		c0.041-0.038,0.076-0.079,0.117-0.117c2.519-2.312,5.003-4.674,7.435-7.106C445.526,356.805,469.968,297.827,469.994,235.09z
		 M389.056,392.026c-36.11-42.307-56.623-94.873-58.346-149.525h124.04c-1.821,53.811-23.21,107.077-64.195,148.063
		C390.06,391.058,389.554,391.537,389.056,392.026z M127.144,332.042c-0.032-0.015-0.066-0.025-0.098-0.04
		c-3.736-1.672-8.133-0.04-9.862,3.686c-9.405,20.262-21.584,39.18-36.241,56.345c-0.501-0.492-1.009-0.973-1.506-1.47
		C38.451,349.578,17.064,296.311,15.245,242.5h124.047c-0.701,22.516-4.544,44.721-11.473,66.11
		c-1.264,3.901,0.843,8.081,4.708,9.402c0.039,0.014,0.075,0.031,0.115,0.044c0.769,0.249,1.547,0.367,2.313,0.367
		c3.164,0,6.106-2.019,7.133-5.19c7.413-22.884,11.504-46.645,12.209-70.733h73.195v212.355
		c-50.247-1.677-97.568-20.119-135.5-52.667c15.702-18.312,28.741-38.521,38.797-60.186
		C132.533,338.246,130.901,333.787,127.144,332.042z M80.939,77.971c36.112,42.308,56.625,94.875,58.347,149.53H15.244
		c1.819-53.811,23.205-107.076,64.188-148.06C79.93,78.944,80.438,78.462,80.939,77.971z M227.492,227.5h-73.197
		c-1.731-58.417-23.648-114.592-62.304-159.688c37.937-32.553,85.258-50.997,135.501-52.671V227.5z M242.492,242.5h73.21
		c1.732,58.415,23.648,114.589,62.303,159.684c-37.943,32.563-85.266,51.009-135.513,52.674V242.5z M330.705,227.5
		c0.7-22.517,4.544-44.723,11.473-66.113c1.264-3.901-0.843-8.082-4.71-9.403c-0.039-0.013-0.075-0.03-0.114-0.043
		c-3.942-1.279-8.17,0.883-9.446,4.823c-7.414,22.885-11.504,46.646-12.209,70.736h-73.207V15.141
		c50.248,1.67,97.574,20.113,135.513,52.667c-15.702,18.312-28.742,38.521-38.798,60.188c-1.744,3.757-0.112,8.216,3.645,9.96
		c0.032,0.015,0.065,0.024,0.098,0.039c0.993,0.444,2.031,0.66,3.055,0.66c2.829,0,5.538-1.609,6.808-4.345
		c9.405-20.263,21.585-39.181,36.242-56.346c0.502,0.493,1.011,0.975,1.509,1.473c40.984,40.985,62.37,94.251,64.187,148.063
		H330.705z"/>
	<path style="fill:#082947;" d="M79.502,134.232c-4.142,0-7.5,3.358-7.5,7.5c0,2.588,1.311,4.87,3.305,6.218
		c1.197,0.81,2.641,1.282,4.195,1.282c4.142,0,7.5-3.358,7.5-7.5c0-1.487-0.438-2.87-1.185-4.036
		C84.484,135.615,82.157,134.232,79.502,134.232z"/>
	<path style="fill:#082947;" d="M287.099,356.277c-3.366,0-6.213,2.217-7.163,5.27c-0.219,0.704-0.337,1.453-0.337,2.229
		c0,1.055,0.22,2.057,0.612,2.967c0.861,1.995,2.561,3.543,4.658,4.196c0.705,0.219,1.454,0.337,2.23,0.337
		c0.259,0,0.515-0.013,0.767-0.039c3.782-0.384,6.733-3.578,6.733-7.461C294.599,359.635,291.241,356.277,287.099,356.277z"/>
	<path style="fill:#082947;" d="M324.599,393.777c0-4.142-3.358-7.5-7.5-7.5c-3.301,0-6.098,2.135-7.1,5.098
		c-0.255,0.755-0.4,1.561-0.4,2.402c0,1.108,0.247,2.157,0.678,3.104c0.908,1.992,2.659,3.514,4.8,4.113
		c0.644,0.18,1.32,0.284,2.022,0.284c0.259,0,0.514-0.013,0.766-0.039C321.647,400.855,324.599,397.661,324.599,393.777z"/>
</g>
<g>
</g>
<g>
</g>
<g>
</g>
<g>
</g>
<g>
</g>
<g>
</g>
<g>
</g>
<g>
</g>
<g>
</g>
<g>
</g>
<g>
</g>
<g>
</g>
<g>
</g>
<g>
</g>
<g>
</g>
</svg>
