<?xml version="1.0" encoding="iso-8859-1"?>
<!-- Generator: Adobe Illustrator 19.0.0, SVG Export Plug-In . SVG Version: 6.00 Build 0)  -->
<svg version="1.1" id="Capa_1" xmlns="http://www.w3.org/2000/svg" xmlns:xlink="http://www.w3.org/1999/xlink" x="0px" y="0px"
	 viewBox="0 0 469.73 469.73" style="enable-background:new 0 0 469.73 469.73;" xml:space="preserve">
<g>
	<rect x="64.865" y="348.865" style="fill:#F2EBD9;" width="340" height="40"/>
	<path style="fill:#6DA8D6;" d="M64.865,196.865v69.5c0,4.135,3.364,7.5,7.5,7.5h325c4.136,0,7.5-3.365,7.5-7.5v-69.5H64.865z
		 M340.67,252.865c-4.142,0-7.5-3.358-7.5-7.5s3.358-7.5,7.5-7.5s7.5,3.358,7.5,7.5S344.812,252.865,340.67,252.865z
		 M370.67,232.865c-4.142,0-7.5-3.358-7.5-7.5s3.358-7.5,7.5-7.5s7.5,3.358,7.5,7.5S374.812,232.865,370.67,232.865z"/>
	<path style="fill:#FFCC75;" d="M432.365,80.865h-395C25.033,80.865,15,90.989,15,103.432c0,12.369,10.033,22.433,22.365,22.433
		c4.142,0,7.5,3.358,7.5,7.5v48.5h380v-41h-267.5c-4.142,0-7.5-3.358-7.5-7.5s3.358-7.5,7.5-7.5h275
		c12.332,0,22.365-10.063,22.365-22.433C454.73,90.989,444.697,80.865,432.365,80.865z M127.365,140.865h-60
		c-4.142,0-7.5-3.358-7.5-7.5s3.358-7.5,7.5-7.5h60c4.142,0,7.5,3.358,7.5,7.5S131.507,140.865,127.365,140.865z"/>
	<path style="fill:#082947;" d="M432.365,65.865h-395C16.762,65.865,0,82.718,0,103.432c0,18.068,12.843,33.187,29.865,36.675
		v49.258c0,4.142,3.358,7.5,7.5,7.5h12.5v69.5c0,12.406,10.093,22.5,22.5,22.5h325c12.407,0,22.5-10.094,22.5-22.5v-69.5h12.5
		c4.142,0,7.5-3.358,7.5-7.5v-49.258c17.021-3.488,29.865-18.607,29.865-36.675C469.73,82.718,452.968,65.865,432.365,65.865z
		 M432.365,125.865h-275c-4.142,0-7.5,3.358-7.5,7.5s3.358,7.5,7.5,7.5h267.5v41h-380v-48.5c0-4.142-3.358-7.5-7.5-7.5
		C25.033,125.865,15,115.802,15,103.432c0-12.444,10.033-22.567,22.365-22.567h395c12.332,0,22.365,10.124,22.365,22.567
		C454.73,115.802,444.697,125.865,432.365,125.865z M397.365,273.865h-325c-4.136,0-7.5-3.365-7.5-7.5v-69.5h340v69.5
		C404.865,270.5,401.5,273.865,397.365,273.865z"/>
	<path style="fill:#082947;" d="M127.365,125.865h-60c-4.142,0-7.5,3.358-7.5,7.5s3.358,7.5,7.5,7.5h60c4.142,0,7.5-3.358,7.5-7.5
		S131.507,125.865,127.365,125.865z"/>
	<path style="fill:#082947;" d="M412.365,333.865h-355c-4.142,0-7.5,3.358-7.5,7.5v55c0,4.142,3.358,7.5,7.5,7.5h355
		c4.142,0,7.5-3.358,7.5-7.5v-55C419.865,337.223,416.507,333.865,412.365,333.865z M404.865,388.865h-340v-40h340V388.865z"/>
	<circle style="fill:#082947;" cx="340.67" cy="245.365" r="7.5"/>
	<circle style="fill:#082947;" cx="370.67" cy="225.365" r="7.5"/>
</g>
<g>
</g>
<g>
</g>
<g>
</g>
<g>
</g>
<g>
</g>
<g>
</g>
<g>
</g>
<g>
</g>
<g>
</g>
<g>
</g>
<g>
</g>
<g>
</g>
<g>
</g>
<g>
</g>
<g>
</g>
</svg>
