<?xml version="1.0" encoding="iso-8859-1"?>
<!-- Generator: Adobe Illustrator 19.0.0, SVG Export Plug-In . SVG Version: 6.00 Build 0)  -->
<svg version="1.1" id="Capa_1" xmlns="http://www.w3.org/2000/svg" xmlns:xlink="http://www.w3.org/1999/xlink" x="0px" y="0px"
	 viewBox="0 0 470 470" style="enable-background:new 0 0 470 470;" xml:space="preserve">
<g>
	<rect x="270.12" y="125" style="fill:#F2EBD9;" width="40.24" height="69.172"/>
	<path style="fill:#F2EBD9;" d="M262.62,279.172v15c4.142,0,7.5,3.358,7.5,7.5V395h40.24v-93.328c0-4.142,3.358-7.5,7.5-7.5v-15
		H262.62z"/>
	<path style="fill:#F2EBD9;" d="M151.82,279.172v15c4.143,0,7.501,3.358,7.501,7.5V395h40.453v-93.328
		c0-4.141,3.356-7.498,7.496-7.5v-15H151.82z"/>
	<path style="fill:#F2EBD9;" d="M199.774,15h-40.453v100.345c0.205,0.683,0.318,1.405,0.318,2.155s-0.113,1.472-0.318,2.155v74.517
		h40.453V15z"/>
	<path style="fill:#FFFFFF;" d="M136.369,279.172c-17.92,0-32.5,14.579-32.5,32.5V362.5c0,17.921,14.58,32.5,32.5,32.5h7.952
		v-93.328c0-4.142,3.357-7.499,7.499-7.5v-15H136.369z"/>
	<path style="fill:#FFFFFF;" d="M207.27,279.172v15c4.146,0,7.504,3.358,7.504,7.5V395h40.346v-93.328c0-4.142,3.358-7.5,7.5-7.5
		v-15H207.27z"/>
	<path style="fill:#FFFFFF;" d="M333.631,279.172H317.86v15c4.142,0,7.5,3.358,7.5,7.5V395h8.271c17.92,0,32.5-14.579,32.5-32.5
		v-50.828C366.131,293.751,351.551,279.172,333.631,279.172z"/>
	<rect x="325.36" y="125" style="fill:#FFFFFF;" width="40.771" height="69.172"/>
	<rect x="214.774" y="125" style="fill:#FFFFFF;" width="40.346" height="69.172"/>
	<rect x="103.869" y="125" style="fill:#FFFFFF;" width="40.452" height="69.172"/>
	<path style="fill:#FF6E1D;" d="M121.821,85H96.369c-17.92,0-32.5,14.579-32.5,32.5v76.672h25V117.5c0-4.142,3.358-7.5,7.5-7.5
		h47.952V77.5h-15C129.321,81.642,125.963,85,121.821,85z"/>
	<path style="fill:#FF6E1D;" d="M373.631,110c4.142,0,7.5,3.358,7.5,7.5v76.672h25V117.5c0-17.921-14.58-32.5-32.5-32.5H237.274
		c-4.142,0-7.5-3.358-7.5-7.5h-15V110H373.631z"/>
	<path style="fill:#FFCC75;" d="M33.869,209.172V462.5h402.262V209.172H33.869z M381.131,362.5c0,26.192-21.309,47.5-47.5,47.5
		H136.369c-26.191,0-47.5-21.308-47.5-47.5v-50.828c0-26.192,21.309-47.5,47.5-47.5h197.262c26.191,0,47.5,21.308,47.5,47.5V362.5z"
		/>
	<path style="fill:#082947;" d="M443.631,134.172c-4.142,0-7.5,3.358-7.5,7.5v52.5h-15V117.5c0-26.192-21.309-47.5-47.5-47.5
		H237.274c-4.142,0-7.5,3.358-7.5,7.5s3.358,7.5,7.5,7.5h136.357c17.92,0,32.5,14.579,32.5,32.5v76.672h-25V117.5
		c0-4.142-3.358-7.5-7.5-7.5H214.774V7.5c0-4.142-3.358-7.5-7.5-7.5h-55.453c-4.142,0-7.5,3.358-7.5,7.5V110H96.369
		c-4.142,0-7.5,3.358-7.5,7.5v76.672h-25V117.5c0-17.921,14.58-32.5,32.5-32.5h25.452c4.142,0,7.5-3.358,7.5-7.5s-3.358-7.5-7.5-7.5
		H96.369c-26.191,0-47.5,21.308-47.5,47.5v76.672h-15v-52.5c0-4.142-3.358-7.5-7.5-7.5s-7.5,3.358-7.5,7.5V462.5
		c0,4.142,3.358,7.5,7.5,7.5s7.5-3.358,7.5-7.5V209.172h402.262V462.5c0,4.142,3.358,7.5,7.5,7.5s7.5-3.358,7.5-7.5V141.672
		C451.131,137.53,447.773,134.172,443.631,134.172z M366.131,194.172H325.36V125h40.771V194.172z M270.12,125h40.24v69.172h-40.24
		V125z M255.12,194.172h-40.346V125h40.346V194.172z M159.321,119.655c0.205-0.683,0.318-1.405,0.318-2.155
		s-0.113-1.472-0.318-2.155V15h40.453v179.172h-40.453V119.655z M144.321,194.172h-40.452V125h40.452V194.172z"/>
	<path style="fill:#082947;" d="M333.631,264.172H136.369c-26.191,0-47.5,21.308-47.5,47.5V362.5c0,26.192,21.309,47.5,47.5,47.5
		h197.262c26.191,0,47.5-21.308,47.5-47.5v-50.828C381.131,285.48,359.822,264.172,333.631,264.172z M366.131,362.5
		c0,17.921-14.58,32.5-32.5,32.5h-8.271v-93.328c0-4.142-3.358-7.5-7.5-7.5c-4.142,0-7.5,3.358-7.5,7.5V395h-40.24v-93.328
		c0-4.142-3.358-7.5-7.5-7.5c-4.142,0-7.5,3.358-7.5,7.5V395h-40.346v-93.328c0-4.142-3.358-7.5-7.5-7.5
		c-4.144,0.002-7.5,3.359-7.5,7.5V395h-40.453v-93.328c0-4.142-3.358-7.5-7.5-7.5c-4.143,0.001-7.5,3.358-7.5,7.5V395h-7.952
		c-17.92,0-32.5-14.579-32.5-32.5v-50.828c0-17.921,14.58-32.5,32.5-32.5h197.262c17.92,0,32.5,14.579,32.5,32.5V362.5z"/>
</g>
<g>
</g>
<g>
</g>
<g>
</g>
<g>
</g>
<g>
</g>
<g>
</g>
<g>
</g>
<g>
</g>
<g>
</g>
<g>
</g>
<g>
</g>
<g>
</g>
<g>
</g>
<g>
</g>
<g>
</g>
</svg>
