<?xml version="1.0" encoding="iso-8859-1"?>
<!-- Generator: Adobe Illustrator 19.0.0, SVG Export Plug-In . SVG Version: 6.00 Build 0)  -->
<svg version="1.1" id="Capa_1" xmlns="http://www.w3.org/2000/svg" xmlns:xlink="http://www.w3.org/1999/xlink" x="0px" y="0px"
	 viewBox="0 0 470 470" style="enable-background:new 0 0 470 470;" xml:space="preserve">
<g>
	<path style="fill:#185F8D;" d="M274.314,430H131v25h208v-25h-4.661c-0.053,0-30.025,0-30.025,0c-4.143,0-7.5-3.358-7.5-7.5h-15
		C281.814,426.642,278.457,430,274.314,430z"/>
	<polygon style="fill:#274B6D;" points="293.62,369 279.81,248.481 190.19,248.481 176.381,369 	"/>
	<path style="fill:#185F8D;" d="M187.71,108.354c-1.944,2.163-2.83,5.087-2.493,8.233l5.74,53.595
		c0.028,0.266,0.043,0.532,0.043,0.799v32.5h88v-25h-65.5c-4.143,0-7.5-3.358-7.5-7.5s3.357-7.5,7.5-7.5h66.261l5.022-46.894
		c0.337-3.146-0.548-6.069-2.492-8.232c-1.943-2.164-4.757-3.355-7.921-3.355h-78.74C192.466,105,189.653,106.191,187.71,108.354z"
		/>
	<path style="fill:#6DA8D6;" d="M274.314,415c4.143,0,7.5,3.358,7.5,7.5h15c0-4.142,3.357-7.5,7.5-7.5h20.234l-4.605-17.242
		C317.985,390.429,309.614,384,302.028,384c-0.02,0-134.035,0-134.035,0c-7.606,0-15.977,6.429-17.935,13.758L145.453,415H274.314z"
		/>
	<path style="fill:#6DA8D6;" d="M183.5,233.481h0.08c0.01,0,102.92,0,102.92,0c4.136,0,7.5-3.364,7.5-7.5s-3.364-7.5-7.5-7.5h-103
		c-4.136,0-7.5,3.364-7.5,7.5S179.364,233.481,183.5,233.481z"/>
	<path style="fill:#6DA8D6;" d="M242.5,90v-7.5c0-12.407,10.094-22.5,22.5-22.5h7.5V45H265c-12.406,0-22.5-10.093-22.5-22.5V15h-15
		v7.5c0,12.407-10.094,22.5-22.5,22.5h-7.5v15h7.5c12.406,0,22.5,10.093,22.5,22.5V90H242.5z"/>
	<path style="fill:#082947;" d="M346.5,415h-6.426l-5.639-21.113c-3.14-11.754-13.733-21.361-25.627-24.101l-14.079-122.871
		c8.347-3.292,14.271-11.432,14.271-20.935c0-9.777-6.271-18.114-15-21.21v-33.39l5.697-53.197
		c0.797-7.434-1.423-14.485-6.249-19.856C288.622,92.958,281.847,90,274.37,90H257.5v-7.5c0-4.136,3.364-7.5,7.5-7.5h15
		c4.143,0,7.5-3.358,7.5-7.5v-30c0-4.142-3.357-7.5-7.5-7.5h-15c-4.136,0-7.5-3.364-7.5-7.5v-15c0-4.142-3.357-7.5-7.5-7.5h-30
		c-4.143,0-7.5,3.358-7.5,7.5v15c0,4.136-3.364,7.5-7.5,7.5h-15c-4.143,0-7.5,3.358-7.5,7.5v30c0,4.142,3.357,7.5,7.5,7.5h15
		c4.136,0,7.5,3.364,7.5,7.5V90h-16.87c-7.476,0-14.251,2.958-19.077,8.328s-7.046,12.422-6.25,19.857L176,171.382v33.39
		c-8.729,3.096-15,11.433-15,21.21c0,9.503,5.925,17.642,14.271,20.935l-14.078,122.871c-11.894,2.739-22.488,12.347-25.627,24.101
		L129.927,415H123.5c-4.143,0-7.5,3.358-7.5,7.5v40c0,4.142,3.357,7.5,7.5,7.5h223c4.143,0,7.5-3.358,7.5-7.5v-40
		C354,418.358,350.643,415,346.5,415z M205,60h-7.5V45h7.5c12.406,0,22.5-10.093,22.5-22.5V15h15v7.5
		c0,12.407,10.094,22.5,22.5,22.5h7.5v15H265c-12.406,0-22.5,10.093-22.5,22.5V90h-15v-7.5C227.5,70.093,217.406,60,205,60z
		 M274.37,105c3.164,0,5.978,1.191,7.921,3.355c1.944,2.163,2.829,5.086,2.492,8.232l-5.022,46.894H213.5
		c-4.143,0-7.5,3.358-7.5,7.5s3.357,7.5,7.5,7.5H279v25h-88v-32.5c0-0.267-0.015-0.533-0.043-0.799l-5.74-53.595
		c-0.337-3.146,0.549-6.07,2.493-8.233c1.943-2.163,4.756-3.354,7.92-3.354H274.37z M183.5,218.481h103c4.136,0,7.5,3.364,7.5,7.5
		s-3.364,7.5-7.5,7.5H183.59c-0.01,0-0.09,0-0.09,0c-4.136,0-7.5-3.364-7.5-7.5S179.364,218.481,183.5,218.481z M190.19,248.481
		h89.621L293.62,369H176.381L190.19,248.481z M167.973,384c0.02,0,134.035,0,134.035,0c7.606,0,15.977,6.429,17.935,13.758
		L324.548,415h-20.234c-4.143,0-7.5,3.358-7.5,7.5s3.357,7.5,7.5,7.5h29.972c0.053,0,4.714,0,4.714,0v25H131v-25h143.314
		c4.143,0,7.5-3.358,7.5-7.5s-3.357-7.5-7.5-7.5H145.453l4.605-17.242C152.016,390.429,160.387,384,167.973,384z"/>
</g>
<g>
</g>
<g>
</g>
<g>
</g>
<g>
</g>
<g>
</g>
<g>
</g>
<g>
</g>
<g>
</g>
<g>
</g>
<g>
</g>
<g>
</g>
<g>
</g>
<g>
</g>
<g>
</g>
<g>
</g>
</svg>
