<?xml version="1.0" encoding="iso-8859-1"?>
<!-- Generator: Adobe Illustrator 19.0.0, SVG Export Plug-In . SVG Version: 6.00 Build 0)  -->
<svg version="1.1" id="Capa_1" xmlns="http://www.w3.org/2000/svg" xmlns:xlink="http://www.w3.org/1999/xlink" x="0px" y="0px"
	 viewBox="0 0 470.001 470.001" style="enable-background:new 0 0 470.001 470.001;" xml:space="preserve">
<g>
	
		<rect x="317.116" y="97.886" transform="matrix(-0.7071 0.7071 -0.7071 -0.7071 656.9562 18.6536)" style="fill:#FFFFFF;" width="14.998" height="95.001"/>
	
		<rect x="98.959" y="316.044" transform="matrix(0.7071 -0.7071 0.7071 0.7071 -225.8832 181.7569)" style="fill:#FFFFFF;" width="14.999" height="95"/>
	
		<rect x="137.887" y="97.887" transform="matrix(0.7071 0.7071 -0.7071 0.7071 145.3903 -60.2209)" style="fill:#F2EBD9;" width="15" height="95"/>
	
		<rect x="316.043" y="356.044" transform="matrix(-0.7071 0.7071 -0.7071 -0.7071 877.6703 363.5434)" style="fill:#F2EBD9;" width="94.999" height="14.999"/>
	<path style="fill:#F2484B;" d="M219.09,141.31c-1.464,1.463-3.383,2.196-5.302,2.196c-1.919,0-3.839-0.732-5.303-2.196l-13.6-13.6
		l-67.175,67.175l13.6,13.6c2.929,2.929,2.929,7.676,0.001,10.606l10.606,10.606l77.78-77.78L219.09,141.31z"/>
	<path style="fill:#F2484B;" d="M261.517,328.693l52.528,52.528l67.175-67.174l-52.528-52.527c-2.928-2.93-2.929-7.677-0.001-10.607
		l-10.606-10.606l-77.78,77.78l10.606,10.606C253.841,325.765,258.588,325.765,261.517,328.693z"/>
	
		<rect x="83.777" y="206.965" transform="matrix(0.7071 -0.7071 0.7071 0.7071 -116.8048 226.9392)" style="fill:#185F8D;" width="263.52" height="95"/>
	
		<rect x="23.621" y="371.407" transform="matrix(0.7071 0.7071 -0.7071 0.7071 302.8833 66.5398)" style="fill:#6DA8D6;" width="95" height="54.948"/>
	<path style="fill:#6DA8D6;" d="M446.818,16.567l-81.14,39.068l3.131,3.131c2.929,2.93,2.929,7.678,0,10.607
		c-2.93,2.928-7.678,2.928-10.607,0l-12.374-12.375l-38.891,38.891l67.176,67.176l38.891-38.891l-33.588-33.589
		c-2.929-2.929-2.929-7.677,0.001-10.606c2.929-2.929,7.678-2.927,10.606,0l24.344,24.345l39.068-81.14L446.818,16.567z"/>
	<path style="fill:#FF6E1D;" d="M163.064,95.889l-38.891-38.891L101.192,79.98c-2.929,2.929-7.678,2.927-10.606,0
		c-2.929-2.93-2.929-7.678,0-10.607l13.738-13.738l-81.14-39.068l-6.617,6.617l39.068,81.141l13.738-13.739
		c2.929-2.93,7.678-2.929,10.606-0.001c2.929,2.93,2.929,7.678,0,10.606l-22.981,22.982l38.891,38.89L163.064,95.889z"/>
	
		<rect x="351.38" y="371.407" transform="matrix(0.7071 -0.7071 0.7071 0.7071 -165.2219 398.8811)" style="fill:#FF6E1D;" width="94.999" height="54.947"/>
	<path style="fill:#082947;" d="M141.309,208.485l-13.6-13.6l67.175-67.175l13.6,13.6c1.464,1.464,3.384,2.196,5.303,2.196
		c1.919,0,3.838-0.732,5.302-2.196c2.93-2.93,2.93-7.678,0.001-10.608l-89.614-89.614c-2.928-2.928-7.677-2.928-10.606,0
		l-3.309,3.309L24.896,0.743c-2.872-1.384-6.303-0.8-8.557,1.454L2.197,16.339c-2.254,2.254-2.837,5.686-1.454,8.558l43.654,90.666
		l-3.309,3.309c-2.929,2.929-2.929,7.677,0,10.606l89.614,89.614c1.464,1.464,3.384,2.196,5.303,2.196s3.839-0.732,5.303-2.196
		C144.238,216.161,144.238,211.414,141.309,208.485z M79.979,101.192c2.929-2.929,2.929-7.677,0-10.606
		c-2.929-2.928-7.678-2.929-10.606,0.001l-13.738,13.739L16.566,23.184l6.617-6.617l81.14,39.068L90.586,69.372
		c-2.929,2.93-2.929,7.678,0,10.607c2.928,2.927,7.677,2.929,10.606,0l22.981-22.981l38.891,38.891l-67.175,67.175l-38.891-38.89
		L79.979,101.192z M173.671,106.496l10.606,10.606l-67.175,67.175l-10.606-10.606L173.671,106.496z"/>
	<path style="fill:#082947;" d="M467.804,379.416l-49.451-49.451c-0.019-0.02-79.054-79.054-79.054-79.054
		c-2.93-2.928-7.678-2.928-10.607,0c-2.929,2.93-2.928,7.678,0,10.607l52.528,52.527l-67.175,67.174l-52.528-52.528
		c-2.929-2.927-7.676-2.928-10.606-0.001c-2.93,2.931-2.93,7.679-0.001,10.608l79.039,79.039
		c0.012,0.012,49.467,49.466,49.467,49.466c1.465,1.464,3.385,2.196,5.304,2.196s3.839-0.732,5.304-2.196l77.781-77.781
		C470.733,387.094,470.733,382.346,467.804,379.416z M402.433,335.259l-67.175,67.175l-10.606-10.606l67.175-67.174L402.433,335.259
		z M345.866,413.041l67.175-67.175l38.854,38.854l-67.175,67.175L345.866,413.041z"/>
	<path style="fill:#082947;" d="M428.914,129.478c2.929-2.93,2.929-7.678,0-10.607l-3.309-3.309l43.653-90.665
		c1.382-2.872,0.799-6.304-1.454-8.558L453.663,2.197c-2.255-2.253-5.687-2.836-8.558-1.454L354.44,44.397l-3.309-3.309
		c-1.407-1.406-3.314-2.196-5.304-2.196s-3.896,0.79-5.304,2.196L229.696,151.917l-77.78,77.78L72.873,308.74
		c-0.004,0.004-21.212,21.212-21.212,21.212c-0.005,0.005-49.463,49.463-49.463,49.463c-1.407,1.407-2.197,3.314-2.197,5.304
		s0.79,3.896,2.197,5.304l77.782,77.781c1.464,1.464,3.384,2.196,5.303,2.196s3.839-0.732,5.303-2.196l49.457-49.457
		c0.007-0.007,100.263-100.263,100.263-100.263l77.78-77.78L428.914,129.478z M67.568,335.259l10.606-10.606l67.175,67.175
		l-10.606,10.606L67.568,335.259z M56.961,345.866l67.175,67.175l-38.854,38.854L18.107,384.72L56.961,345.866z M88.781,314.046
		l186.336-186.337l67.176,67.176L155.956,381.221L88.781,314.046z M363.505,173.672L352.9,184.278l-67.176-67.176l10.605-10.605
		L363.505,173.672z M390.023,79.979c-2.929-2.927-7.678-2.929-10.606,0c-2.93,2.93-2.93,7.678-0.001,10.606l33.588,33.589
		l-38.891,38.891l-67.176-67.176l38.891-38.891l12.374,12.375c2.93,2.928,7.678,2.928,10.607,0c2.929-2.93,2.929-7.678,0-10.607
		l-3.131-3.131l81.14-39.068l6.617,6.617l-39.068,81.14L390.023,79.979z"/>
</g>
<g>
</g>
<g>
</g>
<g>
</g>
<g>
</g>
<g>
</g>
<g>
</g>
<g>
</g>
<g>
</g>
<g>
</g>
<g>
</g>
<g>
</g>
<g>
</g>
<g>
</g>
<g>
</g>
<g>
</g>
</svg>
