<?xml version="1.0" encoding="iso-8859-1"?>
<!-- Generator: Adobe Illustrator 19.0.0, SVG Export Plug-In . SVG Version: 6.00 Build 0)  -->
<svg version="1.1" id="Capa_1" xmlns="http://www.w3.org/2000/svg" xmlns:xlink="http://www.w3.org/1999/xlink" x="0px" y="0px"
	 viewBox="0 0 470.001 470.001" style="enable-background:new 0 0 470.001 470.001;" xml:space="preserve">
<g>
	<path style="fill:#F2484B;" d="M153.894,57.007c-2.243,2.243-5.654,2.832-8.519,1.472c-27.603-13.1-59.027-13.011-85.986-1.191
		L195.672,193.58c11.823-26.96,11.912-58.387-1.188-85.991c-1.359-2.865-0.77-6.276,1.473-8.519l38.9-38.901l-42.063-42.062
		L153.894,57.007z"/>
	<path style="fill:#98D9D5;" d="M45.539,64.65c-4.241,2.69-8.313,5.707-12.176,9.045l145.905,145.906
		c3.337-3.861,6.353-7.931,9.042-12.17L45.539,64.65z"/>
	<rect x="247.91" y="384.877" style="fill:#98D9D5;" width="15" height="15"/>
	<path style="fill:#F2484B;" d="M178.149,438.218L172.623,455l254.449,0l-5.527-16.782c-4.167-12.652-18.94-23.341-32.26-23.341
		H210.41C197.089,414.877,182.316,425.566,178.149,438.218z"/>
	<path style="fill:#98D9D5;" d="M401.785,210.203c0-15.164-12.336-27.5-27.5-27.5s-27.5,12.336-27.5,27.5s12.336,27.5,27.5,27.5
		S401.785,225.366,401.785,210.203z M374.29,217.704c-0.659,0-1.294-0.094-1.903-0.254c-3.218-0.844-5.602-3.769-5.602-7.247
		c0-4.135,3.365-7.5,7.5-7.5c0.775,0,1.524,0.118,2.228,0.338c3.051,0.949,5.277,3.799,5.277,7.163
		C381.79,214.334,378.42,217.704,374.29,217.704z"/>
	<path style="fill:#FFCC75;" d="M376.512,203.041c3.051,0.951,5.272,3.802,5.272,7.162c0,4.135-3.365,7.5-7.5,7.5
		c-0.657,0-1.29-0.093-1.898-0.253c0.609,0.16,1.244,0.254,1.903,0.254c4.13,0,7.5-3.37,7.5-7.5
		C381.79,206.839,379.563,203.99,376.512,203.041z"/>
	<path style="fill:#082947;" d="M381.785,210.203c0-3.36-2.221-6.211-5.272-7.162c-0.704-0.219-1.452-0.338-2.228-0.338
		c-4.135,0-7.5,3.365-7.5,7.5c0,3.479,2.385,6.404,5.602,7.247c0.607,0.159,1.241,0.253,1.898,0.253
		C378.42,217.703,381.785,214.338,381.785,210.203z"/>
	<path style="fill:#082947;" d="M447.437,455h-4.574l-7.072-21.474c-5.431-16.494-21.724-29.862-39.007-32.967V246.234
		c11.999-7.52,20-20.855,20-36.031c0-23.435-19.065-42.5-42.5-42.5c-3.294,0-6.498,0.389-9.579,1.102L230.222,34.321
		c6.801-4.694,14.849-7.229,23.29-7.229c10.985,0,21.312,4.278,29.08,12.045c8.986,8.986,13.268,21.386,11.75,34.021
		c-0.495,4.113,2.438,7.847,6.551,8.342c0.304,0.037,0.605,0.054,0.904,0.054c3.742,0,6.979-2.797,7.437-6.606
		c2.072-17.236-3.772-34.155-16.036-46.418c-10.6-10.601-24.694-16.438-39.686-16.438c-12.461,0-24.294,4.045-34.024,11.495
		l-21.39-21.39C196.692,0.79,194.784,0,192.795,0s-3.897,0.79-5.303,2.197l-40.554,40.554c-33.731-14.181-71.775-11.7-103.053,5.486
		c-0.529,0.213-1.036,0.496-1.515,0.834C33.319,54.218,24.855,60.605,17.26,68.2c-2.929,2.929-2.929,7.678,0,10.606l156.897,156.897
		c1.464,1.464,3.384,2.197,5.303,2.197s3.839-0.732,5.303-2.197c7.585-7.585,13.965-16.036,19.108-25.073
		c0.353-0.494,0.644-1.018,0.862-1.566c17.179-31.276,19.657-69.312,5.478-103.038l35.25-35.25l104.561,104.561
		c-4.13,2.882-7.724,6.477-10.606,10.606l-88.644-88.644c-2.929-2.929-7.678-2.929-10.606,0c-2.929,2.929-2.929,7.677,0,10.606
		l92.718,92.718c-0.713,3.081-1.102,6.284-1.102,9.579c0,15.176,8.001,28.511,20,36.031v131.143c0,4.142,3.358,7.5,7.5,7.5
		s7.5-3.358,7.5-7.5v-125.35c2.437,0.436,4.94,0.676,7.5,0.676s5.063-0.24,7.5-0.676v147.85H277.91v-22.5c0-4.142-3.358-7.5-7.5-7.5
		h-30c-4.142,0-7.5,3.358-7.5,7.5v22.5h-22.5c-19.865,0-40.294,14.78-46.507,33.649L156.831,455h-4.574c-4.142,0-7.5,3.358-7.5,7.5
		s3.358,7.5,7.5,7.5h9.859c0.018,0,0.036,0,0.053,0l275.236,0c0.061,0,10.032,0,10.032,0c4.142,0,7.5-3.358,7.5-7.5
		S451.579,455,447.437,455z M195.957,99.07c-2.243,2.243-2.832,5.654-1.473,8.519c13.101,27.605,13.012,59.031,1.188,85.991
		L59.39,57.289c26.959-11.821,58.383-11.909,85.986,1.191c2.865,1.36,6.275,0.771,8.519-1.472l38.9-38.9l42.063,42.062
		L195.957,99.07z M33.363,73.696c3.863-3.338,7.935-6.355,12.176-9.045L188.31,207.431c-2.689,4.239-5.705,8.309-9.042,12.17
		L33.363,73.696z M346.785,210.203c0-15.164,12.336-27.5,27.5-27.5s27.5,12.336,27.5,27.5s-12.336,27.5-27.5,27.5
		S346.785,225.366,346.785,210.203z M262.91,384.877v15h-15v-15H262.91z M389.285,414.877c13.32,0,28.094,10.689,32.26,23.341
		L427.071,455l-254.449,0l5.527-16.783c4.167-12.652,18.94-23.341,32.26-23.341H389.285z"/>
</g>
<g>
</g>
<g>
</g>
<g>
</g>
<g>
</g>
<g>
</g>
<g>
</g>
<g>
</g>
<g>
</g>
<g>
</g>
<g>
</g>
<g>
</g>
<g>
</g>
<g>
</g>
<g>
</g>
<g>
</g>
</svg>
