<?xml version="1.0" encoding="iso-8859-1"?>
<!-- Generator: Adobe Illustrator 19.0.0, SVG Export Plug-In . SVG Version: 6.00 Build 0)  -->
<svg version="1.1" id="Capa_1" xmlns="http://www.w3.org/2000/svg" xmlns:xlink="http://www.w3.org/1999/xlink" x="0px" y="0px"
	 viewBox="0 0 465 465" style="enable-background:new 0 0 465 465;" xml:space="preserve">
<g>
	<path style="fill:#FF6E1D;" d="M232.5,280.526c-12.407,0-22.5,10.093-22.5,22.5s10.093,22.5,22.5,22.5s22.5-10.093,22.5-22.5
		S244.907,280.526,232.5,280.526z"/>
	<path style="fill:#F2EBD9;" d="M317.597,89.474H81.613c-3.165,18.673-17.94,33.449-36.613,36.614v212.825
		c18.673,3.165,33.448,17.94,36.613,36.613h301.774c3.165-18.673,17.94-33.448,36.613-36.613V126.088
		c-18.673-3.165-33.448-17.94-36.613-36.614h-35.79c-4.142,0-7.5-3.358-7.5-7.5c0-0.005-15-0.005-15-0.005
		C325.097,86.116,321.739,89.474,317.597,89.474z M156.58,158.421l23.336-30c1.421-1.827,3.605-2.895,5.92-2.895
		s4.499,1.068,5.92,2.895l17.416,22.389l17.413-22.389c1.421-1.827,3.606-2.896,5.92-2.896s4.5,1.069,5.92,2.896l17.411,22.388
		l17.412-22.388c1.421-1.827,3.606-2.896,5.92-2.896s4.5,1.069,5.92,2.896l23.332,30c2.543,3.27,1.954,7.982-1.316,10.525
		c-3.271,2.542-7.982,1.953-10.525-1.316l-17.411-22.388l-17.412,22.388c-1.421,1.827-3.606,2.896-5.92,2.896s-4.5-1.069-5.92-2.896
		l-17.411-22.388l-17.413,22.388c-1.42,1.827-3.605,2.896-5.92,2.896c-2.314,0-4.499-1.068-5.92-2.895l-17.416-22.39l-17.416,22.39
		c-1.479,1.9-3.69,2.896-5.925,2.896c-1.609,0-3.231-0.516-4.6-1.581C154.625,166.403,154.037,161.691,156.58,158.421z
		 M172.5,310.526h-55.097c-4.142,0-7.5-3.358-7.5-7.5s3.358-7.5,7.5-7.5H172.5c4.142,0,7.5,3.358,7.5,7.5
		S176.642,310.526,172.5,310.526z M232.5,340.526c-20.678,0-37.5-16.822-37.5-37.5s16.822-37.5,37.5-37.5s37.5,16.822,37.5,37.5
		S253.178,340.526,232.5,340.526z M347.598,310.526L292.5,310.53c-4.142,0-7.5-3.357-7.5-7.5s3.357-7.5,7.5-7.5l55.097-0.003
		c4.142,0,7.5,3.357,7.5,7.5S351.74,310.526,347.598,310.526z M347.597,240.526H117.403c-4.142,0-7.5-3.358-7.5-7.5
		s3.358-7.5,7.5-7.5h230.194c4.142,0,7.5,3.358,7.5,7.5S351.739,240.526,347.597,240.526z M377.597,195.526
		c4.142,0,7.5,3.358,7.5,7.5s-3.358,7.5-7.5,7.5H87.403c-4.142,0-7.5-3.358-7.5-7.5s3.358-7.5,7.5-7.5H377.597z"/>
	<path style="fill:#FFCC75;" d="M15,405.526h435V59.474H15V405.526z M30,119.217c0-4.142,3.358-7.5,7.5-7.5
		c16.399,0,29.742-13.342,29.742-29.742c0-4.142,3.358-7.5,7.5-7.5h242.855c4.141,0,7.497,3.355,7.5,7.495h15
		c0.003-4.14,3.359-7.495,7.5-7.495h42.661c4.142,0,7.5,3.358,7.5,7.5c0,16.4,13.342,29.742,29.742,29.742
		c4.142,0,7.5,3.358,7.5,7.5v226.568c0,4.142-3.358,7.5-7.5,7.5c-16.399,0-29.742,13.342-29.742,29.742c0,4.142-3.358,7.5-7.5,7.5
		H74.742c-4.142,0-7.5-3.358-7.5-7.5c0-16.399-13.342-29.742-29.742-29.742c-4.142,0-7.5-3.358-7.5-7.5V119.217z"/>
	<path style="fill:#082947;" d="M457.5,44.474H7.5c-4.142,0-7.5,3.358-7.5,7.5v361.051c0,4.142,3.358,7.5,7.5,7.5h450
		c4.142,0,7.5-3.358,7.5-7.5V51.974C465,47.832,461.642,44.474,457.5,44.474z M450,405.526H15V59.474h435V405.526z"/>
	<path style="fill:#082947;" d="M37.5,353.284c16.399,0,29.742,13.342,29.742,29.742c0,4.142,3.358,7.5,7.5,7.5h315.517
		c4.142,0,7.5-3.358,7.5-7.5c0-16.399,13.342-29.742,29.742-29.742c4.142,0,7.5-3.358,7.5-7.5V119.217c0-4.142-3.358-7.5-7.5-7.5
		c-16.399,0-29.742-13.342-29.742-29.742c0-4.142-3.358-7.5-7.5-7.5h-42.661c-4.141,0-7.497,3.355-7.5,7.495
		c0,4.147,3.358,7.505,7.5,7.505h35.79c3.165,18.673,17.94,33.449,36.613,36.614v212.825c-18.673,3.165-33.448,17.94-36.613,36.613
		H81.613c-3.165-18.673-17.94-33.448-36.613-36.613V126.088c18.673-3.165,33.448-17.94,36.613-36.614h235.984
		c4.142,0,7.5-3.358,7.5-7.5c-0.003-4.145-3.359-7.5-7.5-7.5H74.742c-4.142,0-7.5,3.358-7.5,7.5c0,16.4-13.342,29.742-29.742,29.742
		c-4.142,0-7.5,3.358-7.5,7.5v226.568C30,349.927,33.358,353.284,37.5,353.284z"/>
	<path style="fill:#082947;" d="M157.895,168.946c1.369,1.064,2.99,1.581,4.6,1.581c2.235,0,4.447-0.995,5.925-2.896l17.416-22.39
		l17.416,22.39c1.421,1.827,3.606,2.895,5.92,2.895c2.314,0,4.5-1.069,5.92-2.896l17.413-22.388l17.411,22.388
		c1.421,1.827,3.606,2.896,5.92,2.896s4.5-1.069,5.92-2.896l17.412-22.388l17.411,22.388c2.543,3.269,7.253,3.857,10.525,1.316
		c3.27-2.543,3.859-7.255,1.316-10.525l-23.332-30c-1.421-1.827-3.606-2.896-5.92-2.896s-4.5,1.069-5.92,2.896l-17.412,22.388
		l-17.411-22.388c-1.421-1.827-3.606-2.896-5.92-2.896s-4.5,1.069-5.92,2.896l-17.413,22.389l-17.416-22.389
		c-1.421-1.827-3.605-2.895-5.92-2.895s-4.499,1.068-5.92,2.895l-23.336,30C154.037,161.691,154.625,166.403,157.895,168.946z"/>
	<path style="fill:#082947;" d="M347.597,225.526H117.403c-4.142,0-7.5,3.358-7.5,7.5s3.358,7.5,7.5,7.5h230.194
		c4.142,0,7.5-3.358,7.5-7.5S351.739,225.526,347.597,225.526z"/>
	<path style="fill:#082947;" d="M79.903,203.026c0,4.142,3.358,7.5,7.5,7.5h290.194c4.142,0,7.5-3.358,7.5-7.5s-3.358-7.5-7.5-7.5
		H87.403C83.261,195.526,79.903,198.884,79.903,203.026z"/>
	<path style="fill:#082947;" d="M232.5,265.526c-20.678,0-37.5,16.822-37.5,37.5s16.822,37.5,37.5,37.5s37.5-16.822,37.5-37.5
		S253.178,265.526,232.5,265.526z M232.5,325.526c-12.407,0-22.5-10.093-22.5-22.5s10.093-22.5,22.5-22.5s22.5,10.093,22.5,22.5
		S244.907,325.526,232.5,325.526z"/>
	<path style="fill:#082947;" d="M172.5,295.526h-55.097c-4.142,0-7.5,3.358-7.5,7.5s3.358,7.5,7.5,7.5H172.5
		c4.142,0,7.5-3.358,7.5-7.5S176.642,295.526,172.5,295.526z"/>
	<path style="fill:#082947;" d="M347.597,295.526L292.5,295.53c-4.142,0-7.5,3.358-7.5,7.5s3.358,7.5,7.5,7.5l55.097-0.003
		c4.142,0,7.5-3.358,7.5-7.5S351.739,295.526,347.597,295.526z"/>
</g>
<g>
</g>
<g>
</g>
<g>
</g>
<g>
</g>
<g>
</g>
<g>
</g>
<g>
</g>
<g>
</g>
<g>
</g>
<g>
</g>
<g>
</g>
<g>
</g>
<g>
</g>
<g>
</g>
<g>
</g>
</svg>
