<?xml version="1.0" encoding="iso-8859-1"?>
<!-- Generator: Adobe Illustrator 19.0.0, SVG Export Plug-In . SVG Version: 6.00 Build 0)  -->
<svg version="1.1" id="Capa_1" xmlns="http://www.w3.org/2000/svg" xmlns:xlink="http://www.w3.org/1999/xlink" x="0px" y="0px"
	 viewBox="0 0 469.5 469.5" style="enable-background:new 0 0 469.5 469.5;" xml:space="preserve">
<g>
	<path style="fill:#F2EBD9;" d="M348.75,372.05V37.45c0-8.409,2.798-16.186,7.508-22.45H83.15c-12.561,0-22.4,9.642-22.4,21.95
		v335.1c0,12.655,10.048,22.95,22.4,22.95h73.6v-45.081c-12.53-12.625-19.65-29.762-19.65-47.569c0-37.22,30.28-67.5,67.5-67.5
		s67.5,30.28,67.5,67.5c0,18.179-7.378,35.572-20.35,48.251v44.385l104.626-0.185C351.596,388.47,348.75,380.585,348.75,372.05z
		 M128.681,85.064l23.34-30c1.421-1.826,3.605-2.895,5.919-2.895c2.315,0,4.5,1.069,5.92,2.896l17.411,22.388l17.419-22.39
		c1.421-1.826,3.605-2.895,5.919-2.895c2.315,0,4.5,1.069,5.92,2.896l17.41,22.387l17.41-22.387c1.421-1.827,3.606-2.896,5.92-2.896
		s4.5,1.069,5.92,2.896l23.33,30c2.543,3.27,1.954,7.981-1.316,10.524c-3.27,2.543-7.982,1.953-10.524-1.316l-17.41-22.387
		l-17.41,22.387c-1.421,1.827-3.606,2.896-5.92,2.896s-4.5-1.069-5.92-2.896l-17.411-22.388l-17.419,22.39
		c-1.421,1.826-3.605,2.895-5.919,2.895c-2.315,0-4.5-1.069-5.92-2.896l-17.411-22.388l-17.419,22.39
		c-1.479,1.9-3.69,2.895-5.925,2.895c-1.609,0-3.231-0.516-4.6-1.581C126.726,93.046,126.137,88.334,128.681,85.064z M104.75,122
		h140c4.142,0,7.5,3.358,7.5,7.5s-3.358,7.5-7.5,7.5h-140c-4.142,0-7.5-3.358-7.5-7.5S100.608,122,104.75,122z M274.75,197h-140
		c-4.142,0-7.5-3.358-7.5-7.5s3.358-7.5,7.5-7.5h140c4.142,0,7.5,3.358,7.5,7.5S278.892,197,274.75,197z M304.75,167h-200
		c-4.142,0-7.5-3.358-7.5-7.5s3.358-7.5,7.5-7.5h200c4.142,0,7.5,3.358,7.5,7.5S308.892,167,304.75,167z M304.75,137h-30
		c-4.142,0-7.5-3.358-7.5-7.5s3.358-7.5,7.5-7.5h30c4.142,0,7.5,3.358,7.5,7.5S308.892,137,304.75,137z"/>
	<path style="fill:#C1E8E6;" d="M386.095,15c-12.322,0.052-22.345,10.12-22.345,22.45V82h45V36.95
		C408.75,24.852,398.589,15.008,386.095,15z"/>
	<path style="fill:#C1E8E6;" d="M363.75,372.05c0,12.466,10.019,22.644,22.338,22.7c12.292-0.012,22.662-10.402,22.662-22.7V327h-45
		V372.05z"/>
	<path style="fill:#BD1515;" d="M204.6,249.85c-28.949,0-52.5,23.551-52.5,52.5c0,14.779,6.314,28.973,17.324,38.94
		c9.669,8.743,22.163,13.56,35.176,13.56c12.255,0,24.082-4.302,33.493-12.127c0.677-0.972,1.575-1.777,2.625-2.339
		c10.428-9.909,16.382-23.653,16.382-38.034C257.1,273.401,233.549,249.85,204.6,249.85z M204.6,339.85
		c-20.678,0-37.5-16.822-37.5-37.5s16.822-37.5,37.5-37.5s37.5,16.822,37.5,37.5S225.278,339.85,204.6,339.85z"/>
	<path style="fill:#F2484B;" d="M207.604,435.292l29.146,14.573v-88.183c-9.802,5.324-20.836,8.168-32.15,8.168
		c-11.602,0-22.879-2.98-32.85-8.551v88.566l29.146-14.573C203.007,434.236,205.493,434.236,207.604,435.292z"/>
	<path style="fill:#F2484B;" d="M204.6,279.85c-12.407,0-22.5,10.093-22.5,22.5s10.093,22.5,22.5,22.5s22.5-10.093,22.5-22.5
		S217.007,279.85,204.6,279.85z"/>
	<path style="fill:#082947;" d="M416.25,97c4.142,0,7.5-3.358,7.5-7.5V36.95C423.75,16.576,406.852,0,386.081,0H83.15
		c-20.972,0-37.4,16.23-37.4,36.95v335.1c0,20.926,16.777,37.95,37.4,37.95h73.6v52c0,2.599,1.346,5.013,3.557,6.38
		s4.973,1.491,7.297,0.328l36.646-18.323l36.646,18.323c1.059,0.529,2.208,0.792,3.354,0.792c1.372,0,2.739-0.376,3.943-1.12
		c2.211-1.367,3.557-3.781,3.557-6.38v-52.013l134.33-0.237c20.772,0,37.67-16.912,37.67-37.7V319.5c0-4.142-3.358-7.5-7.5-7.5
		h-52.5V97H416.25z M408.75,372.05c0,12.298-10.369,22.688-22.662,22.7c-12.319-0.056-22.338-10.234-22.338-22.7V327h45V372.05z
		 M240.718,340.384c-1.05,0.562-1.948,1.367-2.625,2.339c-9.411,7.825-21.239,12.127-33.493,12.127
		c-13.013,0-25.507-4.817-35.176-13.56c-11.009-9.967-17.324-24.161-17.324-38.94c0-28.949,23.551-52.5,52.5-52.5
		s52.5,23.551,52.5,52.5C257.1,316.731,251.146,330.475,240.718,340.384z M171.75,449.865v-88.566
		c9.971,5.571,21.248,8.551,32.85,8.551c11.314,0,22.348-2.844,32.15-8.168v88.183l-29.146-14.573c-2.111-1.056-4.597-1.056-6.708,0
		L171.75,449.865z M251.75,350.601c12.972-12.679,20.35-30.072,20.35-48.251c0-37.22-30.28-67.5-67.5-67.5s-67.5,30.28-67.5,67.5
		c0,17.806,7.12,34.943,19.65,47.569V395h-73.6c-12.352,0-22.4-10.295-22.4-22.95V36.95c0-12.309,9.839-21.95,22.4-21.95h273.108
		c-4.71,6.264-7.508,14.041-7.508,22.45v334.6c0,8.535,2.846,16.42,7.626,22.752l-104.626,0.185V350.601z M408.75,82h-45V37.45
		c0-12.33,10.023-22.398,22.345-22.45c12.494,0.008,22.655,9.851,22.655,21.95V82z"/>
	<path style="fill:#082947;" d="M204.6,264.85c-20.678,0-37.5,16.822-37.5,37.5s16.822,37.5,37.5,37.5s37.5-16.822,37.5-37.5
		S225.278,264.85,204.6,264.85z M204.6,324.85c-12.407,0-22.5-10.093-22.5-22.5s10.093-22.5,22.5-22.5s22.5,10.093,22.5,22.5
		S217.007,324.85,204.6,324.85z"/>
	<path style="fill:#082947;" d="M304.75,152h-200c-4.142,0-7.5,3.358-7.5,7.5s3.358,7.5,7.5,7.5h200c4.142,0,7.5-3.358,7.5-7.5
		S308.892,152,304.75,152z"/>
	<path style="fill:#082947;" d="M274.75,182h-140c-4.142,0-7.5,3.358-7.5,7.5s3.358,7.5,7.5,7.5h140c4.142,0,7.5-3.358,7.5-7.5
		S278.892,182,274.75,182z"/>
	<path style="fill:#082947;" d="M304.75,122h-30c-4.142,0-7.5,3.358-7.5,7.5s3.358,7.5,7.5,7.5h30c4.142,0,7.5-3.358,7.5-7.5
		S308.892,122,304.75,122z"/>
	<path style="fill:#082947;" d="M104.75,137h140c4.142,0,7.5-3.358,7.5-7.5s-3.358-7.5-7.5-7.5h-140c-4.142,0-7.5,3.358-7.5,7.5
		S100.608,137,104.75,137z"/>
	<path style="fill:#082947;" d="M129.995,95.589c1.369,1.065,2.991,1.581,4.6,1.581c2.235,0,4.446-0.995,5.925-2.895l17.419-22.39
		l17.411,22.388c1.421,1.827,3.605,2.896,5.919,2.896c2.315,0,4.5-1.068,5.92-2.895l17.419-22.39l17.411,22.388
		c1.421,1.827,3.606,2.896,5.92,2.896s4.5-1.069,5.92-2.896l17.41-22.387l17.41,22.387c2.542,3.27,7.254,3.86,10.524,1.316
		c3.27-2.543,3.859-7.255,1.316-10.524l-23.33-30c-1.421-1.827-3.606-2.896-5.92-2.896s-4.5,1.069-5.92,2.896l-17.41,22.387
		l-17.41-22.387c-1.421-1.827-3.605-2.896-5.919-2.896c-2.315,0-4.5,1.068-5.92,2.895l-17.419,22.39L163.86,55.066
		c-1.421-1.827-3.605-2.896-5.919-2.896c-2.315,0-4.5,1.068-5.92,2.895l-23.34,30C126.137,88.334,126.726,93.046,129.995,95.589z"/>
</g>
<g>
</g>
<g>
</g>
<g>
</g>
<g>
</g>
<g>
</g>
<g>
</g>
<g>
</g>
<g>
</g>
<g>
</g>
<g>
</g>
<g>
</g>
<g>
</g>
<g>
</g>
<g>
</g>
<g>
</g>
</svg>
