<?xml version="1.0" encoding="iso-8859-1"?>
<!-- Generator: Adobe Illustrator 19.0.0, SVG Export Plug-In . SVG Version: 6.00 Build 0)  -->
<svg version="1.1" id="Capa_1" xmlns="http://www.w3.org/2000/svg" xmlns:xlink="http://www.w3.org/1999/xlink" x="0px" y="0px"
	 viewBox="0 0 470 470" style="enable-background:new 0 0 470 470;" xml:space="preserve">
<g>
	<path style="fill:#185F8D;" d="M432.5,105h-40.02c4.719,6.271,7.52,14.064,7.52,22.5v185c0,4.143-3.357,7.5-7.5,7.5v15
		c4.143,0,7.5,3.357,7.5,7.5c0,8.436-2.801,16.229-7.52,22.5h40.02c12.406,0,22.5-10.094,22.5-22.5v-215
		C455,115.094,444.906,105,432.5,105z"/>
	<path style="fill:#6DA8D6;" d="M385,312.5v-185c0-12.406-10.094-22.5-22.5-22.5H240v177.5c0,4.143-3.357,7.5-7.5,7.5v15
		c4.143,0,7.5,3.357,7.5,7.5V365h122.5c12.406,0,22.5-10.094,22.5-22.5c0-4.143,3.357-7.5,7.5-7.5v-15
		C388.357,320,385,316.643,385,312.5z"/>
	<path style="fill:#F2484B;" d="M225,282.5V105H37.5C25.094,105,15,115.094,15,127.5v215c0,12.406,10.094,22.5,22.5,22.5H225v-52.5
		c0-4.143,3.357-7.5,7.5-7.5v-15C228.357,290,225,286.643,225,282.5z M53.452,304.524c-2.072,0-3.947-0.84-5.305-2.198
		c-1.358-1.356-2.198-3.231-2.198-5.307c0-4.14,3.36-7.5,7.5-7.5c2.33,0,4.413,1.065,5.789,2.734
		c0.166,0.206,0.303,0.387,0.43,0.574c0.81,1.198,1.283,2.642,1.283,4.196C60.952,301.167,57.594,304.524,53.452,304.524z
		 M83.452,334.524c-2.072,0-3.947-0.84-5.304-2.198c-1.358-1.356-2.198-3.231-2.198-5.307c0-4.14,3.36-7.5,7.5-7.5
		c2.33,0,4.413,1.065,5.789,2.734c0.028,0.034,0.053,0.072,0.081,0.107c0.121,0.152,0.24,0.306,0.349,0.467
		c0.81,1.198,1.283,2.642,1.283,4.196C90.952,331.167,87.594,334.524,83.452,334.524z M190.5,142.98c0,4.14-3.36,7.5-7.5,7.5
		s-7.5-3.36-7.5-7.5c0-4.147,3.358-7.505,7.5-7.505S190.5,138.833,190.5,142.98z"/>
	<path style="fill:#082947;" d="M89.32,322.361c-0.028-0.035-0.052-0.073-0.081-0.107c-1.376-1.667-3.457-2.729-5.787-2.729
		c-4.142,0-7.5,3.358-7.5,7.5c0,2.07,0.839,3.944,2.196,5.302c1.357,1.358,3.233,2.198,5.304,2.198c4.142,0,7.5-3.357,7.5-7.5
		c0-1.555-0.473-2.998-1.283-4.196C89.56,322.667,89.441,322.514,89.32,322.361z"/>
	<path style="fill:#082947;" d="M59.262,292.285c-1.399-1.698-3.48-2.761-5.81-2.761c-4.142,0-7.5,3.358-7.5,7.5
		c0,2.07,0.839,3.944,2.195,5.302c1.357,1.358,3.233,2.198,5.305,2.198c4.142,0,7.5-3.357,7.5-7.5c0-1.555-0.473-2.998-1.283-4.196
		C59.542,292.641,59.406,292.46,59.262,292.285z"/>
	<path style="fill:#082947;" d="M432.5,90h-395C16.822,90,0,106.822,0,127.5v215C0,363.178,16.822,380,37.5,380h395
		c20.678,0,37.5-16.822,37.5-37.5v-215C470,106.822,453.178,90,432.5,90z M455,342.5c0,12.406-10.094,22.5-22.5,22.5h-40.02
		c4.719-6.271,7.52-14.064,7.52-22.5c0-4.143-3.357-7.5-7.5-7.5s-7.5,3.357-7.5,7.5c0,12.406-10.094,22.5-22.5,22.5H240v-52.5
		c0-4.143-3.357-7.5-7.5-7.5s-7.5,3.357-7.5,7.5V365H37.5C25.094,365,15,354.906,15,342.5v-215c0-12.406,10.094-22.5,22.5-22.5H225
		v177.5c0,4.143,3.357,7.5,7.5,7.5s7.5-3.357,7.5-7.5V105h122.5c12.406,0,22.5,10.094,22.5,22.5v185c0,4.143,3.357,7.5,7.5,7.5
		s7.5-3.357,7.5-7.5v-185c0-8.436-2.801-16.229-7.52-22.5h40.02c12.406,0,22.5,10.094,22.5,22.5V342.5z"/>
	<circle style="fill:#082947;" cx="183" cy="142.976" r="7.5"/>
</g>
<g>
</g>
<g>
</g>
<g>
</g>
<g>
</g>
<g>
</g>
<g>
</g>
<g>
</g>
<g>
</g>
<g>
</g>
<g>
</g>
<g>
</g>
<g>
</g>
<g>
</g>
<g>
</g>
<g>
</g>
</svg>
