<?xml version="1.0" encoding="iso-8859-1"?>
<!-- Generator: Adobe Illustrator 19.0.0, SVG Export Plug-In . SVG Version: 6.00 Build 0)  -->
<svg version="1.1" id="Capa_1" xmlns="http://www.w3.org/2000/svg" xmlns:xlink="http://www.w3.org/1999/xlink" x="0px" y="0px"
	 viewBox="0 0 470 470" style="enable-background:new 0 0 470 470;" xml:space="preserve">
<g>
	<path style="fill:#98D9D5;" d="M426.126,455h2.5V45h-2.5c-4.143,0-7.5-3.357-7.5-7.5h-15v425h15
		C418.626,458.357,421.983,455,426.126,455z"/>
	<path style="fill:#C1E8E6;" d="M308.554,455h80.072V45h-2.5c-4.143,0-7.5-3.357-7.5-7.5h-15v340.934
		c0,2.428-1.093,4.531-2.798,5.905l-78.16,78.161h18.386C301.054,458.357,304.411,455,308.554,455z"/>
	<polygon style="fill:#98D9D5;" points="279.626,386 279.626,444.328 337.953,386 	"/>
	<path style="fill:#FFFFFF;" d="M264.626,378.5c0-4.143,3.357-7.5,7.5-7.5h76.5V45H141.02v52.5c0,15.163-12.337,27.5-27.5,27.5
		s-27.5-12.337-27.5-27.5v-30c0-4.143,3.357-7.5,7.5-7.5s7.5,3.357,7.5,7.5v30c0,6.893,5.607,12.5,12.5,12.5s12.5-5.607,12.5-12.5
		V45H41.374v410h223.252V378.5z M93.874,150.5h202.252c4.143,0,7.5,3.357,7.5,7.5s-3.357,7.5-7.5,7.5H93.874
		c-4.143,0-7.5-3.357-7.5-7.5S89.731,150.5,93.874,150.5z M93.874,195.5h202.252c4.143,0,7.5,3.357,7.5,7.5s-3.357,7.5-7.5,7.5
		H93.874c-4.143,0-7.5-3.357-7.5-7.5S89.731,195.5,93.874,195.5z M93.874,240.5h202.252c4.143,0,7.5,3.357,7.5,7.5
		s-3.357,7.5-7.5,7.5H93.874c-4.143,0-7.5-3.357-7.5-7.5S89.731,240.5,93.874,240.5z M93.874,285.5h202.252
		c4.143,0,7.5,3.357,7.5,7.5s-3.357,7.5-7.5,7.5H93.874c-4.143,0-7.5-3.357-7.5-7.5S89.731,285.5,93.874,285.5z M86.374,338
		c0-4.143,3.357-7.5,7.5-7.5h202.252c4.143,0,7.5,3.357,7.5,7.5s-3.357,7.5-7.5,7.5H93.874C89.731,345.5,86.374,342.143,86.374,338z
		"/>
	<path style="fill:#082947;" d="M363.626,378.5c0-0.066,0-341,0-341c0-4.143-3.357-7.5-7.5-7.5H139.141
		C133.79,12.647,117.605,0,98.52,0C79.742,0,63.311,12.514,57.906,30H33.874c-4.143,0-7.5,3.357-7.5,7.5v425
		c0,4.143,3.357,7.5,7.5,7.5h238.187c2.425,0,4.527-1.092,5.902-2.794l4.706-4.706l78.16-78.161
		C362.533,382.965,363.626,380.861,363.626,378.5z M41.374,45h84.646v52.5c0,6.893-5.607,12.5-12.5,12.5s-12.5-5.607-12.5-12.5v-30
		c0-4.143-3.357-7.5-7.5-7.5s-7.5,3.357-7.5,7.5v30c0,15.163,12.337,27.5,27.5,27.5s27.5-12.337,27.5-27.5V45h207.606v326h-76.5
		c-4.143,0-7.5,3.357-7.5,7.5V455H41.374V45z M279.626,386h58.327l-58.327,58.328V386z M98.52,15c10.663,0,19.922,6.105,24.482,15
		H74.036C78.64,21.052,88.011,15,98.52,15z"/>
	<path style="fill:#082947;" d="M296.126,345.5c4.143,0,7.5-3.357,7.5-7.5s-3.357-7.5-7.5-7.5H93.874c-4.143,0-7.5,3.357-7.5,7.5
		s3.357,7.5,7.5,7.5H296.126z"/>
	<path style="fill:#082947;" d="M93.874,300.5h202.252c4.143,0,7.5-3.357,7.5-7.5s-3.357-7.5-7.5-7.5H93.874
		c-4.143,0-7.5,3.357-7.5,7.5S89.731,300.5,93.874,300.5z"/>
	<path style="fill:#082947;" d="M93.874,255.5h202.252c4.143,0,7.5-3.357,7.5-7.5s-3.357-7.5-7.5-7.5H93.874
		c-4.143,0-7.5,3.357-7.5,7.5S89.731,255.5,93.874,255.5z"/>
	<path style="fill:#082947;" d="M93.874,210.5h202.252c4.143,0,7.5-3.357,7.5-7.5s-3.357-7.5-7.5-7.5H93.874
		c-4.143,0-7.5,3.357-7.5,7.5S89.731,210.5,93.874,210.5z"/>
	<path style="fill:#082947;" d="M93.874,165.5h202.252c4.143,0,7.5-3.357,7.5-7.5s-3.357-7.5-7.5-7.5H93.874
		c-4.143,0-7.5,3.357-7.5,7.5S89.731,165.5,93.874,165.5z"/>
	<path style="fill:#082947;" d="M396.126,30h-10c-4.143,0-7.5,3.357-7.5,7.5s3.357,7.5,7.5,7.5h2.5v410h-80.072
		c-4.143,0-7.5,3.357-7.5,7.5s3.357,7.5,7.5,7.5h87.572c4.143,0,7.5-3.357,7.5-7.5v-425C403.626,33.357,400.269,30,396.126,30z"/>
	<path style="fill:#082947;" d="M436.126,30h-10c-4.143,0-7.5,3.357-7.5,7.5s3.357,7.5,7.5,7.5h2.5v410h-2.5
		c-4.143,0-7.5,3.357-7.5,7.5s3.357,7.5,7.5,7.5h10c4.143,0,7.5-3.357,7.5-7.5v-425C443.626,33.357,440.269,30,436.126,30z"/>
</g>
<g>
</g>
<g>
</g>
<g>
</g>
<g>
</g>
<g>
</g>
<g>
</g>
<g>
</g>
<g>
</g>
<g>
</g>
<g>
</g>
<g>
</g>
<g>
</g>
<g>
</g>
<g>
</g>
<g>
</g>
</svg>
