<?xml version="1.0" encoding="iso-8859-1"?>
<!-- Generator: Adobe Illustrator 19.0.0, SVG Export Plug-In . SVG Version: 6.00 Build 0)  -->
<svg version="1.1" id="Capa_1" xmlns="http://www.w3.org/2000/svg" xmlns:xlink="http://www.w3.org/1999/xlink" x="0px" y="0px"
	 viewBox="0 0 470 470" style="enable-background:new 0 0 470 470;" xml:space="preserve">
<g>
	<path style="fill:#F48205;" d="M30,117.5h15c0-4.143,3.357-7.5,7.5-7.5h101.893l25-25H30V117.5z"/>
	<path style="fill:#F48205;" d="M440,85H290.608l25,25H417.5c4.143,0,7.5,3.357,7.5,7.5h15V85z"/>
	<polygon style="fill:#F48205;" points="200.608,85 175.608,110 294.393,110 269.393,85 	"/>
	<path style="fill:#FFCC75;" d="M309.393,125H160.608L30,255.607V400h410V255.607L309.393,125z M68,339.5
		c-4.142,0-7.5-3.357-7.5-7.5c0-0.338,0.03-0.668,0.073-0.994c0.107-0.803,0.34-1.563,0.679-2.265
		c0.236-0.487,0.52-0.945,0.851-1.366c0.052-0.066,0.103-0.135,0.157-0.199c1.376-1.635,3.435-2.676,5.739-2.676
		c4.142,0,7.5,3.358,7.5,7.5c0,0.347-0.032,0.686-0.077,1.021c-0.124,0.907-0.402,1.765-0.82,2.538
		C73.325,337.913,70.848,339.5,68,339.5z M105.5,362c0,4.143-3.358,7.5-7.5,7.5c-2.458,0-4.633-1.188-6.001-3.016
		c-0.318-0.424-0.592-0.881-0.814-1.368c-0.132-0.287-0.252-0.58-0.347-0.886c-0.219-0.705-0.337-1.454-0.337-2.23
		c0-4.142,3.358-7.5,7.5-7.5S105.5,357.858,105.5,362z"/>
	<path style="fill:#FFCC75;" d="M440,117.5h-15c0,4.143-3.357,7.5-7.5,7.5h-86.893L440,234.393V117.5z"/>
	<path style="fill:#FFCC75;" d="M30,234.393L139.393,125H52.5c-4.143,0-7.5-3.357-7.5-7.5H30V234.393z"/>
	<path style="fill:#082947;" d="M75.423,333.021c0.046-0.334,0.077-0.673,0.077-1.021c0-4.142-3.358-7.5-7.5-7.5
		c-2.304,0-4.363,1.041-5.739,2.676c-0.055,0.064-0.105,0.133-0.157,0.199c-0.331,0.421-0.615,0.879-0.851,1.366
		c-0.339,0.701-0.573,1.462-0.679,2.265c-0.043,0.326-0.073,0.656-0.073,0.994c0,4.143,3.358,7.5,7.5,7.5
		c2.848,0,5.325-1.587,6.595-3.925C75.021,334.785,75.299,333.928,75.423,333.021z"/>
	<path style="fill:#082947;" d="M98,354.5c-4.142,0-7.5,3.358-7.5,7.5c0,0.776,0.118,1.525,0.337,2.23
		c0.095,0.306,0.215,0.599,0.347,0.886c0.223,0.487,0.497,0.944,0.814,1.368c1.368,1.828,3.543,3.016,6.001,3.016
		c4.142,0,7.5-3.357,7.5-7.5C105.5,357.858,102.142,354.5,98,354.5z"/>
	<path style="fill:#082947;" d="M467.804,262.196L455,249.393V77.5c0-4.143-3.357-7.5-7.5-7.5H275.608l-12.804-12.804
		c-2.93-2.928-7.678-2.928-10.607,0c-2.929,2.93-2.929,7.678,0,10.607L254.393,70h-38.785l2.196-2.196
		c2.929-2.93,2.929-7.678,0-10.607c-2.93-2.928-7.678-2.928-10.607,0L194.393,70H22.5c-4.143,0-7.5,3.357-7.5,7.5v171.893
		L2.197,262.196c-2.929,2.93-2.929,7.678,0,10.607C3.661,274.268,5.581,275,7.5,275s3.839-0.732,5.304-2.196L15,270.607V407.5
		c0,4.143,3.357,7.5,7.5,7.5h425c4.143,0,7.5-3.357,7.5-7.5V270.607l2.196,2.196c1.465,1.464,3.385,2.196,5.304,2.196
		s3.839-0.732,5.304-2.196C470.733,269.874,470.733,265.126,467.804,262.196z M30,400V255.607L160.608,125h148.785L440,255.607V400
		H30z M175.608,110l25-25h68.785l25,25H175.608z M154.393,110H52.5c-4.143,0-7.5,3.357-7.5,7.5s3.357,7.5,7.5,7.5h86.893L30,234.393
		V85h149.393L154.393,110z M330.608,125H417.5c4.143,0,7.5-3.357,7.5-7.5s-3.357-7.5-7.5-7.5H315.608l-25-25H440v149.393
		L330.608,125z"/>
</g>
<g>
</g>
<g>
</g>
<g>
</g>
<g>
</g>
<g>
</g>
<g>
</g>
<g>
</g>
<g>
</g>
<g>
</g>
<g>
</g>
<g>
</g>
<g>
</g>
<g>
</g>
<g>
</g>
<g>
</g>
</svg>
