<?xml version="1.0" encoding="iso-8859-1"?>
<!-- Generator: Adobe Illustrator 19.0.0, SVG Export Plug-In . SVG Version: 6.00 Build 0)  -->
<svg version="1.1" id="Capa_1" xmlns="http://www.w3.org/2000/svg" xmlns:xlink="http://www.w3.org/1999/xlink" x="0px" y="0px"
	 viewBox="0 0 470 470" style="enable-background:new 0 0 470 470;" xml:space="preserve">
<g>
	<path style="fill:#C1E8E6;" d="M191.637,307.106l-15.714,15.714c-1.465,1.464-3.385,2.197-5.304,2.197s-3.839-0.732-5.304-2.197
		c-2.929-2.929-2.929-7.678,0-10.606l15.554-15.554c-14.395-10.917-35.333-17.809-58.615-17.809
		c-43.307,0-78.539,23.821-78.539,53.101c0,27.609,14.333,51.919,35.936,65.927l64.452-64.451c2.931-2.929,7.679-2.929,10.607,0
		c2.929,2.929,2.929,7.678,0,10.606l-61.046,61.045c8.867,3.479,18.504,5.411,28.59,5.411c43.306,0,78.538-35.232,78.538-78.539
		C200.792,322.979,197.471,314.525,191.637,307.106z M147.415,308.903l-63.483,63.482c-1.465,1.464-3.385,2.197-5.304,2.197
		c-1.92,0-3.839-0.732-5.304-2.197c-2.929-2.929-2.929-7.678,0-10.606l63.483-63.482c2.931-2.93,7.679-2.929,10.607,0
		S150.344,305.974,147.415,308.903z"/>
	<path style="fill:#C1E8E6;" d="M426.285,331.951c0-8.972-3.321-17.426-9.155-24.845l-15.714,15.714
		c-1.465,1.464-3.385,2.197-5.304,2.197s-3.839-0.732-5.304-2.197c-2.929-2.929-2.929-7.678,0-10.606l15.554-15.554
		c-14.395-10.917-35.333-17.809-58.615-17.809c-43.307,0-78.539,23.821-78.539,53.101c0,27.609,14.333,51.919,35.936,65.927
		l64.451-64.451c2.93-2.929,7.678-2.929,10.607,0c2.929,2.929,2.929,7.678,0,10.606l-61.045,61.045
		c8.867,3.479,18.504,5.411,28.59,5.411C391.053,410.49,426.285,375.257,426.285,331.951z M372.907,308.903l-63.482,63.482
		c-1.465,1.464-3.385,2.197-5.304,2.197s-3.839-0.732-5.304-2.197c-2.929-2.929-2.929-7.678,0-10.606l63.482-63.482
		c2.93-2.929,7.678-2.929,10.607,0C375.836,301.225,375.836,305.974,372.907,308.903z"/>
	<path style="fill:#6DA8D6;" d="M28.715,331.951c0-4.001,0.465-7.941,1.37-11.791h-7.506c-4.179,0-7.579,3.4-7.579,7.579v5.281
		c0,4.179,3.4,7.58,7.579,7.58h6.539C28.856,337.75,28.715,334.867,28.715,331.951z"/>
	<path style="fill:#6DA8D6;" d="M447.421,340.599c4.179,0,7.579-3.4,7.579-7.58v-5.281c0-4.179-3.4-7.579-7.579-7.579h-7.506
		c0.905,3.85,1.37,7.79,1.37,11.791c0,2.916-0.141,5.8-0.404,8.648H447.421z"/>
	<path style="fill:#FFFFFF;" d="M136.808,298.296l-63.483,63.482c-2.929,2.929-2.929,7.678,0,10.606
		c1.465,1.465,3.384,2.197,5.304,2.197c1.919,0,3.839-0.732,5.304-2.197l63.483-63.482c2.929-2.929,2.929-7.678,0-10.606
		S139.738,295.366,136.808,298.296z"/>
	<path style="fill:#FFFFFF;" d="M77.721,414.192c-0.396-0.215-0.787-0.439-1.18-0.66C76.918,413.791,77.313,414.009,77.721,414.192z
		"/>
	<path style="fill:#FFFFFF;" d="M154.71,333.427c-2.929-2.929-7.677-2.929-10.607,0L79.65,397.878
		c4.391,2.847,9.08,5.265,14.013,7.2l61.046-61.045C157.639,341.105,157.639,336.356,154.71,333.427z"/>
	<path style="fill:#FFFFFF;" d="M165.315,322.82c1.465,1.464,3.385,2.197,5.304,2.197s3.839-0.732,5.304-2.197l15.714-15.714
		c-2.969-3.776-6.592-7.28-10.767-10.447l-15.554,15.554C162.387,315.142,162.387,319.891,165.315,322.82z"/>
	<path style="fill:#FFFFFF;" d="M362.3,298.296l-63.482,63.482c-2.929,2.929-2.929,7.678,0,10.606
		c1.465,1.464,3.385,2.197,5.304,2.197s3.839-0.732,5.304-2.197l63.482-63.482c2.929-2.929,2.929-7.678,0-10.606
		C369.978,295.367,365.229,295.367,362.3,298.296z"/>
	<path style="fill:#FFFFFF;" d="M303.208,414.189c-0.394-0.214-0.782-0.436-1.173-0.656
		C302.41,413.79,302.803,414.007,303.208,414.189z"/>
	<path style="fill:#FFFFFF;" d="M380.202,333.427c-2.93-2.929-7.678-2.929-10.607,0l-64.451,64.451
		c4.391,2.847,9.08,5.265,14.013,7.2l61.045-61.045C383.131,341.105,383.131,336.356,380.202,333.427z"/>
	<path style="fill:#FFFFFF;" d="M390.809,322.82c1.465,1.464,3.385,2.197,5.304,2.197s3.839-0.732,5.304-2.197l15.714-15.714
		c-2.969-3.776-6.592-7.28-10.767-10.447l-15.554,15.554C387.88,315.142,387.88,319.891,390.809,322.82z"/>
	<path style="fill:#082947;" d="M469.36,322.416c-0.01-0.045-0.015-0.09-0.026-0.135l-61.053-245.66
		c-4.699-18.906-21.602-32.11-41.104-32.11c-4.143,0-7.5,3.358-7.5,7.5s3.357,7.5,7.5,7.5c12.598,0,23.514,8.524,26.548,20.729
		l55.926,225.032c-0.734-0.072-1.477-0.111-2.23-0.111h-13.537c-4.806-8.249-11.875-15.778-20.98-22.192
		c-17.504-12.328-40.644-19.118-65.157-19.118c-24.515,0-47.654,6.79-65.158,19.118c-13.962,9.834-23.131,22.291-26.698,35.946
		c-6.365-3.133-13.488-4.8-20.891-4.8s-14.525,1.667-20.891,4.8c-3.567-13.655-12.737-26.111-26.698-35.946
		c-17.504-12.328-40.644-19.118-65.157-19.118c-24.515,0-47.654,6.79-65.158,19.118c-9.105,6.414-16.174,13.943-20.98,22.192H22.579
		c-0.752,0-1.496,0.039-2.23,0.111L76.275,80.239c3.034-12.205,13.95-20.729,26.548-20.729c4.143,0,7.5-3.358,7.5-7.5
		s-3.357-7.5-7.5-7.5c-19.503,0-36.405,13.204-41.104,32.11L0.666,322.281c-0.011,0.045-0.016,0.09-0.026,0.135
		C0.225,324.124,0,325.906,0,327.739v5.281c0,12.45,10.129,22.58,22.579,22.58h9.167c6.488,24.812,22.935,45.635,44.795,57.933
		c0.393,0.221,0.784,0.445,1.18,0.66c13.249,7.203,28.422,11.298,44.533,11.298c50.396,0,91.604-40.064,93.465-90.014
		c5.387-4.12,12.125-6.362,19.281-6.362s13.894,2.241,19.281,6.362c1.248,33.504,20.199,62.556,47.755,78.057
		c0.39,0.22,0.779,0.442,1.173,0.656c13.25,7.205,28.425,11.301,44.539,11.301c43.41,0,80.005-29.726,90.507-69.89h9.167
		c12.45,0,22.579-10.129,22.579-22.58v-5.281C470,325.906,469.775,324.124,469.36,322.416z M122.254,410.49
		c-10.086,0-19.723-1.932-28.59-5.411c-4.933-1.936-9.623-4.353-14.013-7.2c-21.603-14.009-35.936-38.318-35.936-65.927
		c0-29.28,35.232-53.101,78.539-53.101c23.283,0,44.221,6.892,58.615,17.809c4.176,3.167,7.798,6.671,10.767,10.447
		c5.835,7.418,9.155,15.873,9.155,24.845C200.792,375.257,165.56,410.49,122.254,410.49z M15,333.02v-5.281
		c0-4.179,3.4-7.579,7.579-7.579h7.506c-0.905,3.85-1.37,7.79-1.37,11.791c0,2.916,0.141,5.8,0.404,8.648h-6.539
		C18.4,340.599,15,337.199,15,333.02z M319.157,405.079c-4.933-1.936-9.623-4.353-14.013-7.2
		c-21.603-14.009-35.936-38.318-35.936-65.927c0-29.28,35.232-53.101,78.539-53.101c23.283,0,44.221,6.892,58.615,17.809
		c4.176,3.167,7.798,6.671,10.767,10.447c5.835,7.418,9.155,15.873,9.155,24.845c0,43.306-35.232,78.539-78.538,78.539
		C337.661,410.49,328.024,408.558,319.157,405.079z M439.915,320.16h7.506c4.179,0,7.579,3.4,7.579,7.579v5.281
		c0,4.179-3.4,7.58-7.579,7.58h-6.539c0.262-2.849,0.404-5.732,0.404-8.648C441.285,327.95,440.82,324.01,439.915,320.16z"/>
</g>
<g>
</g>
<g>
</g>
<g>
</g>
<g>
</g>
<g>
</g>
<g>
</g>
<g>
</g>
<g>
</g>
<g>
</g>
<g>
</g>
<g>
</g>
<g>
</g>
<g>
</g>
<g>
</g>
<g>
</g>
</svg>
