<?xml version="1.0" encoding="iso-8859-1"?>
<!-- Generator: Adobe Illustrator 19.0.0, SVG Export Plug-In . SVG Version: 6.00 Build 0)  -->
<svg version="1.1" id="Capa_1" xmlns="http://www.w3.org/2000/svg" xmlns:xlink="http://www.w3.org/1999/xlink" x="0px" y="0px"
	 viewBox="0 0 470 470" style="enable-background:new 0 0 470 470;" xml:space="preserve">
<g>
	<path style="fill:#FFFFFF;" d="M407.5,362.5v-255c0-4.143,3.357-7.5,7.5-7.5h22.5V15h-145v85H315c4.143,0,7.5,3.357,7.5,7.5V185
		c0,4.143-3.357,7.5-7.5,7.5H155c-4.143,0-7.5-3.357-7.5-7.5v-77.5c0-4.143,3.357-7.5,7.5-7.5h22.5V15h-145v85H55
		c4.143,0,7.5,3.357,7.5,7.5v255c0,4.143-3.357,7.5-7.5,7.5H32.5v85h145v-85H155c-4.143,0-7.5-3.357-7.5-7.5V285
		c0-4.143,3.357-7.5,7.5-7.5h160c4.143,0,7.5,3.357,7.5,7.5v77.5c0,4.143-3.357,7.5-7.5,7.5h-22.5v85h145v-85H415
		C410.857,370,407.5,366.643,407.5,362.5z M422.5,392.5v40c0,4.143-3.357,7.5-7.5,7.5H315c-4.143,0-7.5-3.357-7.5-7.5v-40
		c0-4.143,3.357-7.5,7.5-7.5h22.5V262.5h-205V385H155c4.143,0,7.5,3.357,7.5,7.5v40c0,4.143-3.357,7.5-7.5,7.5H55
		c-4.143,0-7.5-3.357-7.5-7.5v-40c0-4.143,3.357-7.5,7.5-7.5h22.5V85H55c-4.143,0-7.5-3.357-7.5-7.5v-40c0-4.143,3.357-7.5,7.5-7.5
		h100c4.143,0,7.5,3.357,7.5,7.5v40c0,4.143-3.357,7.5-7.5,7.5h-22.5v122.5H155c4.143,0,7.5,3.357,7.5,7.5h15
		c0-4.143,3.357-7.5,7.5-7.5h152.5V85H315c-4.143,0-7.5-3.357-7.5-7.5v-40c0-4.143,3.357-7.5,7.5-7.5h100c4.143,0,7.5,3.357,7.5,7.5
		v40c0,4.143-3.357,7.5-7.5,7.5h-22.5v247.5c0,4.143-3.357,7.5-7.5,7.5v15c4.143,0,7.5,3.357,7.5,7.5V385H415
		C419.143,385,422.5,388.357,422.5,392.5z"/>
	<path style="fill:#082947;" d="M445,115c4.143,0,7.5-3.357,7.5-7.5V7.5c0-4.143-3.357-7.5-7.5-7.5H285c-4.143,0-7.5,3.357-7.5,7.5
		v100c0,4.143,3.357,7.5,7.5,7.5h22.5v62.5h-145V115H185c4.143,0,7.5-3.357,7.5-7.5V7.5c0-4.143-3.357-7.5-7.5-7.5H25
		c-4.143,0-7.5,3.357-7.5,7.5v100c0,4.143,3.357,7.5,7.5,7.5h22.5v240H25c-4.143,0-7.5,3.357-7.5,7.5v100c0,4.143,3.357,7.5,7.5,7.5
		h160c4.143,0,7.5-3.357,7.5-7.5v-100c0-4.143-3.357-7.5-7.5-7.5h-22.5v-62.5h145V355H285c-4.143,0-7.5,3.357-7.5,7.5v100
		c0,4.143,3.357,7.5,7.5,7.5h160c4.143,0,7.5-3.357,7.5-7.5v-100c0-4.143-3.357-7.5-7.5-7.5h-22.5V115H445z M437.5,455h-145v-85H315
		c4.143,0,7.5-3.357,7.5-7.5V285c0-4.143-3.357-7.5-7.5-7.5H155c-4.143,0-7.5,3.357-7.5,7.5v77.5c0,4.143,3.357,7.5,7.5,7.5h22.5v85
		h-145v-85H55c4.143,0,7.5-3.357,7.5-7.5v-255c0-4.143-3.357-7.5-7.5-7.5H32.5V15h145v85H155c-4.143,0-7.5,3.357-7.5,7.5V185
		c0,4.143,3.357,7.5,7.5,7.5h160c4.143,0,7.5-3.357,7.5-7.5v-77.5c0-4.143-3.357-7.5-7.5-7.5h-22.5V15h145v85H415
		c-4.143,0-7.5,3.357-7.5,7.5v255c0,4.143,3.357,7.5,7.5,7.5h22.5V455z"/>
	<path style="fill:#FFCC75;" d="M155,222.5h-30c-4.143,0-7.5-3.357-7.5-7.5V77.5c0-4.143,3.357-7.5,7.5-7.5h22.5V45h-85v25H85
		c4.143,0,7.5,3.357,7.5,7.5v315c0,4.143-3.357,7.5-7.5,7.5H62.5v25h85v-25H125c-4.143,0-7.5-3.357-7.5-7.5V255
		c0-4.143,3.357-7.5,7.5-7.5h220c4.143,0,7.5,3.357,7.5,7.5v137.5c0,4.143-3.357,7.5-7.5,7.5h-22.5v25h85v-25H385
		c-4.143,0-7.5-3.357-7.5-7.5v-30c0-4.143,3.357-7.5,7.5-7.5v-15c-4.143,0-7.5-3.357-7.5-7.5v-255c0-4.143,3.357-7.5,7.5-7.5h22.5
		V45h-85v25H345c4.143,0,7.5,3.357,7.5,7.5V215c0,4.143-3.357,7.5-7.5,7.5H185c-4.143,0-7.5-3.357-7.5-7.5h-15
		C162.5,219.143,159.143,222.5,155,222.5z"/>
	<path style="fill:#082947;" d="M185,222.5h160c4.143,0,7.5-3.357,7.5-7.5V77.5c0-4.143-3.357-7.5-7.5-7.5h-22.5V45h85v25H385
		c-4.143,0-7.5,3.357-7.5,7.5v255c0,4.143,3.357,7.5,7.5,7.5s7.5-3.357,7.5-7.5V85H415c4.143,0,7.5-3.357,7.5-7.5v-40
		c0-4.143-3.357-7.5-7.5-7.5H315c-4.143,0-7.5,3.357-7.5,7.5v40c0,4.143,3.357,7.5,7.5,7.5h22.5v122.5H185
		c-4.143,0-7.5,3.357-7.5,7.5S180.857,222.5,185,222.5z"/>
	<path style="fill:#082947;" d="M392.5,385v-22.5c0-4.143-3.357-7.5-7.5-7.5s-7.5,3.357-7.5,7.5v30c0,4.143,3.357,7.5,7.5,7.5h22.5
		v25h-85v-25H345c4.143,0,7.5-3.357,7.5-7.5V255c0-4.143-3.357-7.5-7.5-7.5H125c-4.143,0-7.5,3.357-7.5,7.5v137.5
		c0,4.143,3.357,7.5,7.5,7.5h22.5v25h-85v-25H85c4.143,0,7.5-3.357,7.5-7.5v-315c0-4.143-3.357-7.5-7.5-7.5H62.5V45h85v25H125
		c-4.143,0-7.5,3.357-7.5,7.5V215c0,4.143,3.357,7.5,7.5,7.5h30c4.143,0,7.5-3.357,7.5-7.5s-3.357-7.5-7.5-7.5h-22.5V85H155
		c4.143,0,7.5-3.357,7.5-7.5v-40c0-4.143-3.357-7.5-7.5-7.5H55c-4.143,0-7.5,3.357-7.5,7.5v40c0,4.143,3.357,7.5,7.5,7.5h22.5v300
		H55c-4.143,0-7.5,3.357-7.5,7.5v40c0,4.143,3.357,7.5,7.5,7.5h100c4.143,0,7.5-3.357,7.5-7.5v-40c0-4.143-3.357-7.5-7.5-7.5h-22.5
		V262.5h205V385H315c-4.143,0-7.5,3.357-7.5,7.5v40c0,4.143,3.357,7.5,7.5,7.5h100c4.143,0,7.5-3.357,7.5-7.5v-40
		c0-4.143-3.357-7.5-7.5-7.5H392.5z"/>
</g>
<g>
</g>
<g>
</g>
<g>
</g>
<g>
</g>
<g>
</g>
<g>
</g>
<g>
</g>
<g>
</g>
<g>
</g>
<g>
</g>
<g>
</g>
<g>
</g>
<g>
</g>
<g>
</g>
<g>
</g>
</svg>
