<?xml version="1.0" encoding="iso-8859-1"?>
<!-- Generator: Adobe Illustrator 19.0.0, SVG Export Plug-In . SVG Version: 6.00 Build 0)  -->
<svg version="1.1" id="Capa_1" xmlns="http://www.w3.org/2000/svg" xmlns:xlink="http://www.w3.org/1999/xlink" x="0px" y="0px"
	 viewBox="0 0 470 470" style="enable-background:new 0 0 470 470;" xml:space="preserve">
<g>
	<path style="fill:#FFCC75;" d="M204.444,252.688c10.023,0,19.15-4.483,24.415-11.993c1.404-2.002,3.696-3.194,6.141-3.194
		s4.737,1.192,6.141,3.194c5.265,7.51,14.392,11.993,24.415,11.993c3.346,0,6.628-0.52,9.729-1.505L250.833,192.5h-31.667
		l-24.451,58.683C197.816,252.168,201.098,252.688,204.444,252.688z"/>
	<polygon style="fill:#274B6D;" points="225.417,177.5 244.583,177.5 235,154.5 	"/>
	<path style="fill:#F2484B;" d="M277.5,280v-13.842c-3.862,1.008-7.878,1.53-11.944,1.53c-8.316,0-16.254-2.147-23.056-6.036V327.5
		h35V310c0-4.143,3.358-7.5,7.5-7.5v-15C280.858,287.5,277.5,284.143,277.5,280z"/>
	<path style="fill:#F2484B;" d="M204.444,267.688c-4.067,0-8.082-0.522-11.944-1.53V327.5h35v-65.849
		C220.699,265.54,212.76,267.688,204.444,267.688z"/>
	<path style="fill:#6DA8D6;" d="M97.5,90h275V37.5c0-12.406-10.093-22.5-22.5-22.5H120c-12.407,0-22.5,10.094-22.5,22.5V90z
		 M210,44.997c0.001,0,50.001,0.006,50.001,0.006c4.142,0.001,7.5,3.358,7.499,7.501c0,4.142-3.358,7.499-7.5,7.499
		c-0.001,0-50.001-0.006-50.001-0.006c-4.142-0.001-7.5-3.358-7.499-7.501C202.5,48.354,205.858,44.997,210,44.997z"/>
	<path style="fill:#6DA8D6;" d="M372.5,380h-275v52.5c0,12.406,10.093,22.5,22.5,22.5h230c12.407,0,22.5-10.094,22.5-22.5V380z
		 M235,440c-12.407,0-22.5-10.094-22.5-22.5S222.593,395,235,395s22.5,10.094,22.5,22.5S247.407,440,235,440z"/>
	<path style="fill:#F2EBD9;" d="M372.5,365V105h-275v260H372.5z M177.517,254.662c0.04-0.875,0.223-1.737,0.56-2.547l29.161-69.988
		c0.012-0.028,0.023-0.056,0.035-0.083l20.804-49.929c1.164-2.795,3.895-4.615,6.923-4.615s5.759,1.82,6.923,4.615l20.804,49.929
		c0.012,0.027,0.023,0.056,0.035,0.083l29.161,69.988c0.337,0.81,0.521,1.672,0.56,2.546c0.005,0.094,0.012,0.188,0.014,0.281
		c0,0.019,0.003,0.038,0.003,0.058v25c0,4.143-3.358,7.5-7.5,7.5v15c4.142,0,7.5,3.357,7.5,7.5v25c0,4.143-3.358,7.5-7.5,7.5H185
		c-4.142,0-7.5-3.357-7.5-7.5v-80c0-0.02,0.003-0.039,0.003-0.058C177.504,254.849,177.512,254.755,177.517,254.662z"/>
	<path style="fill:#082947;" d="M350,0H120C99.322,0,82.5,16.822,82.5,37.5v395c0,20.678,16.822,37.5,37.5,37.5h230
		c20.678,0,37.5-16.822,37.5-37.5v-395C387.5,16.822,370.678,0,350,0z M350,455H120c-12.407,0-22.5-10.094-22.5-22.5V380h275v52.5
		C372.5,444.906,362.407,455,350,455z M120,15h230c12.407,0,22.5,10.094,22.5,22.5V90h-275V37.5C97.5,25.094,107.593,15,120,15z
		 M372.5,105v260h-275V105H372.5z"/>
	<path style="fill:#082947;" d="M209.999,59.997l50,0.006c4.143,0,7.5-3.357,7.501-7.499c0-4.143-3.357-7.5-7.499-7.501l-50-0.006
		c-4.143,0-7.5,3.357-7.501,7.499C202.5,56.639,205.857,59.996,209.999,59.997z"/>
	<path style="fill:#185F8D;" d="M235,410c-4.136,0-7.5,3.364-7.5,7.5s3.364,7.5,7.5,7.5s7.5-3.364,7.5-7.5S239.136,410,235,410z"/>
	<path style="fill:#082947;" d="M235,395c-12.407,0-22.5,10.094-22.5,22.5S222.593,440,235,440s22.5-10.094,22.5-22.5
		S247.407,395,235,395z M235,425c-4.136,0-7.5-3.364-7.5-7.5s3.364-7.5,7.5-7.5s7.5,3.364,7.5,7.5S239.136,425,235,425z"/>
	<path style="fill:#082947;" d="M177.5,335c0,4.143,3.358,7.5,7.5,7.5h100c4.142,0,7.5-3.357,7.5-7.5v-25c0-4.143-3.358-7.5-7.5-7.5
		s-7.5,3.357-7.5,7.5v17.5h-35v-65.849c6.801,3.889,14.74,6.036,23.056,6.036c4.067,0,8.082-0.522,11.944-1.53V280
		c0,4.143,3.358,7.5,7.5,7.5s7.5-3.357,7.5-7.5v-25c0-0.02-0.003-0.039-0.003-0.058c-0.001-0.094-0.009-0.188-0.014-0.281
		c-0.04-0.874-0.223-1.736-0.56-2.546l-29.161-69.988c-0.012-0.028-0.023-0.056-0.035-0.083l-20.804-49.929
		c-1.164-2.795-3.895-4.615-6.923-4.615s-5.759,1.82-6.923,4.615l-20.804,49.929c-0.012,0.027-0.023,0.056-0.035,0.083
		l-29.161,69.988c-0.337,0.81-0.521,1.672-0.56,2.547c-0.005,0.093-0.012,0.187-0.014,0.28c0,0.019-0.003,0.038-0.003,0.058V335z
		 M219.167,192.5h31.667l24.451,58.683c-3.101,0.985-6.383,1.505-9.729,1.505c-10.023,0-19.15-4.483-24.415-11.993
		c-1.404-2.002-3.696-3.194-6.141-3.194s-4.737,1.192-6.141,3.194c-5.265,7.51-14.392,11.993-24.415,11.993
		c-3.346,0-6.628-0.52-9.729-1.505L219.167,192.5z M225.417,177.5l9.583-23l9.583,23H225.417z M192.5,327.5v-61.342
		c3.862,1.008,7.878,1.53,11.944,1.53c8.316,0,16.254-2.147,23.056-6.036V327.5H192.5z"/>
</g>
<g>
</g>
<g>
</g>
<g>
</g>
<g>
</g>
<g>
</g>
<g>
</g>
<g>
</g>
<g>
</g>
<g>
</g>
<g>
</g>
<g>
</g>
<g>
</g>
<g>
</g>
<g>
</g>
<g>
</g>
</svg>
