<?xml version="1.0" encoding="iso-8859-1"?>
<!-- Generator: Adobe Illustrator 19.0.0, SVG Export Plug-In . SVG Version: 6.00 Build 0)  -->
<svg version="1.1" id="Capa_1" xmlns="http://www.w3.org/2000/svg" xmlns:xlink="http://www.w3.org/1999/xlink" x="0px" y="0px"
	 viewBox="0 0 470 470" style="enable-background:new 0 0 470 470;" xml:space="preserve">
<g>
	<path style="fill:#6DA8D6;" d="M214.167,227.5c4.136,0,7.5-3.365,7.5-7.5s-3.364-7.5-7.5-7.5s-7.5,3.365-7.5,7.5
		S210.031,227.5,214.167,227.5z"/>
	<path style="fill:#185F8D;" d="M365.834,227.5c4.136,0,7.5-3.365,7.5-7.5s-3.364-7.5-7.5-7.5s-7.5,3.365-7.5,7.5
		S361.698,227.5,365.834,227.5z"/>
	<path style="fill:#185F8D;" d="M62.5,227.5c4.136,0,7.5-3.365,7.5-7.5s-3.364-7.5-7.5-7.5S55,215.865,55,220
		S58.365,227.5,62.5,227.5z"/>
	<path style="fill:#185F8D;" d="M310.834,85c-4.143,0-7.5-3.358-7.5-7.5V15H166.667v287.5c0,4.142-3.358,7.5-7.5,7.5
		c-0.002,0-0.002,15-0.002,15c4.144,0,7.502,3.358,7.502,7.5V425h136.667V107.5c0-4.142,3.357-7.5,7.5-7.5
		C310.835,100,310.835,85,310.834,85z M270.834,400h-71.667c-4.142,0-7.5-3.358-7.5-7.5s3.358-7.5,7.5-7.5h71.667
		c4.143,0,7.5,3.358,7.5,7.5S274.976,400,270.834,400z M270.834,370h-71.667c-4.142,0-7.5-3.358-7.5-7.5s3.358-7.5,7.5-7.5h71.667
		c4.143,0,7.5,3.358,7.5,7.5S274.976,370,270.834,370z M270.834,340h-71.667c-4.142,0-7.5-3.358-7.5-7.5s3.358-7.5,7.5-7.5h71.667
		c4.143,0,7.5,3.358,7.5,7.5S274.976,340,270.834,340z M191.667,220c0-12.406,10.093-22.5,22.5-22.5s22.5,10.094,22.5,22.5
		s-10.093,22.5-22.5,22.5S191.667,232.406,191.667,220z M270.834,115h-71.667c-4.142,0-7.5-3.358-7.5-7.5s3.358-7.5,7.5-7.5h71.667
		c4.143,0,7.5,3.358,7.5,7.5S274.976,115,270.834,115z M270.834,85h-71.667c-4.142,0-7.5-3.358-7.5-7.5s3.358-7.5,7.5-7.5h71.667
		c4.143,0,7.5,3.358,7.5,7.5S274.976,85,270.834,85z M270.834,55h-71.667c-4.142,0-7.5-3.358-7.5-7.5s3.358-7.5,7.5-7.5h71.667
		c4.143,0,7.5,3.358,7.5,7.5S274.976,55,270.834,55z"/>
	<path style="fill:#6DA8D6;" d="M455,425V15H318.334v62.5c0,4.142-3.357,7.499-7.499,7.5v15c4.142,0.001,7.499,3.358,7.499,7.5V425
		H455z M350.834,40H422.5c4.143,0,7.5,3.358,7.5,7.5s-3.357,7.5-7.5,7.5h-71.666c-4.143,0-7.5-3.358-7.5-7.5S346.691,40,350.834,40z
		 M350.834,70H422.5c4.143,0,7.5,3.358,7.5,7.5s-3.357,7.5-7.5,7.5h-71.666c-4.143,0-7.5-3.358-7.5-7.5S346.691,70,350.834,70z
		 M350.834,100H422.5c4.143,0,7.5,3.358,7.5,7.5s-3.357,7.5-7.5,7.5h-71.666c-4.143,0-7.5-3.358-7.5-7.5S346.691,100,350.834,100z
		 M365.834,197.5c12.406,0,22.5,10.094,22.5,22.5s-10.094,22.5-22.5,22.5s-22.5-10.094-22.5-22.5S353.427,197.5,365.834,197.5z
		 M350.834,325H422.5c4.143,0,7.5,3.358,7.5,7.5s-3.357,7.5-7.5,7.5h-71.666c-4.143,0-7.5-3.358-7.5-7.5S346.691,325,350.834,325z
		 M350.834,355H422.5c4.143,0,7.5,3.358,7.5,7.5s-3.357,7.5-7.5,7.5h-71.666c-4.143,0-7.5-3.358-7.5-7.5S346.691,355,350.834,355z
		 M350.834,385H422.5c4.143,0,7.5,3.358,7.5,7.5s-3.357,7.5-7.5,7.5h-71.666c-4.143,0-7.5-3.358-7.5-7.5S346.691,385,350.834,385z"
		/>
	<path style="fill:#6DA8D6;" d="M151.667,302.5V15H15v410h136.667v-92.5c0-4.142,3.357-7.499,7.498-7.5v-15
		C155.024,309.999,151.667,306.642,151.667,302.5z M119.167,400H47.5c-4.142,0-7.5-3.358-7.5-7.5s3.358-7.5,7.5-7.5h71.667
		c4.142,0,7.5,3.358,7.5,7.5S123.309,400,119.167,400z M119.167,370H47.5c-4.142,0-7.5-3.358-7.5-7.5s3.358-7.5,7.5-7.5h71.667
		c4.142,0,7.5,3.358,7.5,7.5S123.309,370,119.167,370z M119.167,340H47.5c-4.142,0-7.5-3.358-7.5-7.5s3.358-7.5,7.5-7.5h71.667
		c4.142,0,7.5,3.358,7.5,7.5S123.309,340,119.167,340z M40,220c0-12.406,10.093-22.5,22.5-22.5S85,207.594,85,220
		s-10.093,22.5-22.5,22.5S40,232.406,40,220z M119.167,115H47.5c-4.142,0-7.5-3.358-7.5-7.5s3.358-7.5,7.5-7.5h71.667
		c4.142,0,7.5,3.358,7.5,7.5S123.309,115,119.167,115z M119.167,85H47.5c-4.142,0-7.5-3.358-7.5-7.5s3.358-7.5,7.5-7.5h71.667
		c4.142,0,7.5,3.358,7.5,7.5S123.309,85,119.167,85z M119.167,55H47.5c-4.142,0-7.5-3.358-7.5-7.5s3.358-7.5,7.5-7.5h71.667
		c4.142,0,7.5,3.358,7.5,7.5S123.309,55,119.167,55z"/>
	<path style="fill:#082947;" d="M119.167,40H47.5c-4.142,0-7.5,3.358-7.5,7.5s3.358,7.5,7.5,7.5h71.667c4.142,0,7.5-3.358,7.5-7.5
		S123.309,40,119.167,40z"/>
	<path style="fill:#082947;" d="M119.167,70H47.5c-4.142,0-7.5,3.358-7.5,7.5s3.358,7.5,7.5,7.5h71.667c4.142,0,7.5-3.358,7.5-7.5
		S123.309,70,119.167,70z"/>
	<path style="fill:#082947;" d="M119.167,100H47.5c-4.142,0-7.5,3.358-7.5,7.5s3.358,7.5,7.5,7.5h71.667c4.142,0,7.5-3.358,7.5-7.5
		S123.309,100,119.167,100z"/>
	<path style="fill:#082947;" d="M119.167,325H47.5c-4.142,0-7.5,3.358-7.5,7.5s3.358,7.5,7.5,7.5h71.667c4.142,0,7.5-3.358,7.5-7.5
		S123.309,325,119.167,325z"/>
	<path style="fill:#082947;" d="M119.167,355H47.5c-4.142,0-7.5,3.358-7.5,7.5s3.358,7.5,7.5,7.5h71.667c4.142,0,7.5-3.358,7.5-7.5
		S123.309,355,119.167,355z"/>
	<path style="fill:#082947;" d="M119.167,385H47.5c-4.142,0-7.5,3.358-7.5,7.5s3.358,7.5,7.5,7.5h71.667c4.142,0,7.5-3.358,7.5-7.5
		S123.309,385,119.167,385z"/>
	<path style="fill:#082947;" d="M62.5,242.5c12.407,0,22.5-10.094,22.5-22.5s-10.093-22.5-22.5-22.5S40,207.594,40,220
		S50.094,242.5,62.5,242.5z M62.5,212.5c4.136,0,7.5,3.365,7.5,7.5s-3.364,7.5-7.5,7.5S55,224.135,55,220S58.365,212.5,62.5,212.5z"
		/>
	<path style="fill:#082947;" d="M270.834,40h-71.667c-4.142,0-7.5,3.358-7.5,7.5s3.358,7.5,7.5,7.5h71.667
		c4.143,0,7.5-3.358,7.5-7.5S274.976,40,270.834,40z"/>
	<path style="fill:#082947;" d="M270.834,70h-71.667c-4.142,0-7.5,3.358-7.5,7.5s3.358,7.5,7.5,7.5h71.667
		c4.143,0,7.5-3.358,7.5-7.5S274.976,70,270.834,70z"/>
	<path style="fill:#082947;" d="M270.834,100h-71.667c-4.142,0-7.5,3.358-7.5,7.5s3.358,7.5,7.5,7.5h71.667
		c4.143,0,7.5-3.358,7.5-7.5S274.976,100,270.834,100z"/>
	<path style="fill:#082947;" d="M270.834,325h-71.667c-4.142,0-7.5,3.358-7.5,7.5s3.358,7.5,7.5,7.5h71.667
		c4.143,0,7.5-3.358,7.5-7.5S274.976,325,270.834,325z"/>
	<path style="fill:#082947;" d="M270.834,355h-71.667c-4.142,0-7.5,3.358-7.5,7.5s3.358,7.5,7.5,7.5h71.667
		c4.143,0,7.5-3.358,7.5-7.5S274.976,355,270.834,355z"/>
	<path style="fill:#082947;" d="M270.834,385h-71.667c-4.142,0-7.5,3.358-7.5,7.5s3.358,7.5,7.5,7.5h71.667
		c4.143,0,7.5-3.358,7.5-7.5S274.976,385,270.834,385z"/>
	<path style="fill:#082947;" d="M214.167,242.5c12.407,0,22.5-10.094,22.5-22.5s-10.093-22.5-22.5-22.5s-22.5,10.094-22.5,22.5
		S201.76,242.5,214.167,242.5z M214.167,212.5c4.136,0,7.5,3.365,7.5,7.5s-3.364,7.5-7.5,7.5s-7.5-3.365-7.5-7.5
		S210.031,212.5,214.167,212.5z"/>
	<path style="fill:#082947;" d="M350.834,55H422.5c4.143,0,7.5-3.358,7.5-7.5s-3.357-7.5-7.5-7.5h-71.666
		c-4.143,0-7.5,3.358-7.5,7.5S346.691,55,350.834,55z"/>
	<path style="fill:#082947;" d="M350.834,85H422.5c4.143,0,7.5-3.358,7.5-7.5s-3.357-7.5-7.5-7.5h-71.666
		c-4.143,0-7.5,3.358-7.5,7.5S346.691,85,350.834,85z"/>
	<path style="fill:#082947;" d="M350.834,115H422.5c4.143,0,7.5-3.358,7.5-7.5s-3.357-7.5-7.5-7.5h-71.666
		c-4.143,0-7.5,3.358-7.5,7.5S346.691,115,350.834,115z"/>
	<path style="fill:#082947;" d="M350.834,340H422.5c4.143,0,7.5-3.358,7.5-7.5s-3.357-7.5-7.5-7.5h-71.666
		c-4.143,0-7.5,3.358-7.5,7.5S346.691,340,350.834,340z"/>
	<path style="fill:#082947;" d="M350.834,370H422.5c4.143,0,7.5-3.358,7.5-7.5s-3.357-7.5-7.5-7.5h-71.666
		c-4.143,0-7.5,3.358-7.5,7.5S346.691,370,350.834,370z"/>
	<path style="fill:#082947;" d="M350.834,400H422.5c4.143,0,7.5-3.358,7.5-7.5s-3.357-7.5-7.5-7.5h-71.666
		c-4.143,0-7.5,3.358-7.5,7.5S346.691,400,350.834,400z"/>
	<path style="fill:#082947;" d="M365.834,242.5c12.406,0,22.5-10.094,22.5-22.5s-10.094-22.5-22.5-22.5s-22.5,10.094-22.5,22.5
		S353.427,242.5,365.834,242.5z M365.834,212.5c4.136,0,7.5,3.365,7.5,7.5s-3.364,7.5-7.5,7.5s-7.5-3.365-7.5-7.5
		S361.698,212.5,365.834,212.5z"/>
	<path style="fill:#082947;" d="M462.5,0H7.5C3.358,0,0,3.358,0,7.5v455c0,4.142,3.358,7.5,7.5,7.5s7.5-3.358,7.5-7.5V440h136.667
		v22.5c0,4.142,3.358,7.5,7.5,7.5s7.5-3.358,7.5-7.5V440h136.667v22.5c0,4.142,3.357,7.5,7.5,7.5s7.5-3.358,7.5-7.5V440H455v22.5
		c0,4.142,3.357,7.5,7.5,7.5s7.5-3.358,7.5-7.5V7.5C470,3.358,466.642,0,462.5,0z M310.835,100c-4.144,0-7.501,3.358-7.501,7.5V425
		H166.667v-92.5c0-4.142-3.358-7.5-7.5-7.5c-4.143,0.001-7.5,3.358-7.5,7.5V425H15V15h136.667v287.5c0,4.142,3.357,7.499,7.498,7.5
		c4.144,0,7.502-3.358,7.502-7.5V15h136.667v62.5c0,4.142,3.357,7.5,7.5,7.5c4.143-0.001,7.5-3.358,7.5-7.5V15H455v410H318.334
		V107.5C318.334,103.358,314.977,100.001,310.835,100z"/>
</g>
<g>
</g>
<g>
</g>
<g>
</g>
<g>
</g>
<g>
</g>
<g>
</g>
<g>
</g>
<g>
</g>
<g>
</g>
<g>
</g>
<g>
</g>
<g>
</g>
<g>
</g>
<g>
</g>
<g>
</g>
</svg>
