<?xml version="1.0" encoding="iso-8859-1"?>
<!-- Generator: Adobe Illustrator 19.0.0, SVG Export Plug-In . SVG Version: 6.00 Build 0)  -->
<svg version="1.1" id="Capa_1" xmlns="http://www.w3.org/2000/svg" xmlns:xlink="http://www.w3.org/1999/xlink" x="0px" y="0px"
	 viewBox="0 0 470 470" style="enable-background:new 0 0 470 470;" xml:space="preserve">
<g>
	<path style="fill:#FFCC75;" d="M431.294,219.628c-4.136,0-7.5,3.364-7.5,7.5s3.364,7.5,7.5,7.5s7.5-3.364,7.5-7.5
		S435.43,219.628,431.294,219.628z"/>
	<rect x="438.794" y="70.248" style="fill:#185F8D;" width="16.206" height="15"/>
	<rect x="15" y="70.248" style="fill:#185F8D;" width="408.794" height="15"/>
	<path style="fill:#082947;" d="M306.421,158.888c-0.013-0.02-0.024-0.042-0.037-0.062c-1.348-1.996-3.631-3.309-6.219-3.309
		c-4.14,0-7.5,3.36-7.5,7.5c0,0.26,0.013,0.516,0.039,0.769c0.384,3.782,3.578,6.734,7.461,6.734c4.142,0,7.5-3.358,7.5-7.5
		c0-0.518-0.053-1.025-0.153-1.513c-0.006-0.031-0.017-0.061-0.024-0.093c-0.046-0.211-0.097-0.421-0.161-0.625
		c-0.034-0.108-0.077-0.21-0.115-0.315c-0.011-0.031-0.022-0.062-0.034-0.092c-0.035-0.093-0.064-0.19-0.103-0.281
		c-0.048-0.115-0.107-0.223-0.161-0.334c-0.017-0.035-0.033-0.07-0.051-0.105c-0.036-0.071-0.066-0.146-0.104-0.216
		C306.655,159.253,306.54,159.069,306.421,158.888z"/>
	<path style="fill:#082947;" d="M286.421,188.888c-0.013-0.02-0.024-0.042-0.037-0.062c-1.348-1.996-3.631-3.309-6.219-3.309
		c-4.14,0-7.5,3.36-7.5,7.5c0,0.26,0.013,0.516,0.039,0.769c0.384,3.782,3.578,6.734,7.461,6.734c4.142,0,7.5-3.358,7.5-7.5
		c0-0.518-0.053-1.025-0.153-1.513c-0.006-0.031-0.017-0.061-0.024-0.093c-0.046-0.211-0.097-0.421-0.161-0.625
		c-0.034-0.108-0.077-0.21-0.115-0.315c-0.011-0.031-0.022-0.062-0.034-0.092c-0.035-0.093-0.064-0.19-0.103-0.281
		c-0.048-0.115-0.107-0.223-0.161-0.334c-0.017-0.035-0.033-0.07-0.051-0.105c-0.036-0.071-0.066-0.146-0.104-0.216
		C286.655,189.253,286.54,189.069,286.421,188.888z"/>
	<path style="fill:#6DA8D6;" d="M133.766,218.623c12.448-5.076,25.853-7.723,39.367-7.723c22.26,0,44,7.192,61.867,20.366
		c17.867-13.173,39.607-20.366,61.867-20.366c13.515,0,26.919,2.647,39.368,7.723v-95.875c0-4.142,3.356-7.499,7.498-7.5v-15
		H133.766V218.623z M300.164,155.517c2.847,0,5.325,1.589,6.595,3.927c0.038,0.07,0.068,0.145,0.104,0.216
		c0.073,0.145,0.148,0.289,0.212,0.439c0.039,0.091,0.068,0.188,0.103,0.281c0.051,0.135,0.106,0.269,0.149,0.408
		c0.063,0.204,0.115,0.414,0.161,0.625c0.007,0.031,0.017,0.061,0.024,0.093c0.1,0.489,0.153,0.995,0.153,1.513
		c0,4.142-3.358,7.5-7.5,7.5c-3.884,0-7.078-2.952-7.461-6.734c-0.026-0.253-0.039-0.509-0.039-0.769
		C292.664,158.877,296.024,155.517,300.164,155.517z M280.164,185.517c2.847,0,5.325,1.589,6.595,3.927
		c0.038,0.07,0.068,0.145,0.104,0.216c0.073,0.145,0.148,0.289,0.212,0.439c0.039,0.091,0.068,0.188,0.103,0.281
		c0.051,0.135,0.106,0.269,0.149,0.408c0.063,0.204,0.115,0.414,0.161,0.625c0.007,0.031,0.017,0.061,0.024,0.093
		c0.1,0.489,0.153,0.995,0.153,1.513c0,4.142-3.358,7.5-7.5,7.5c-3.884,0-7.078-2.952-7.461-6.734
		c-0.026-0.253-0.039-0.509-0.039-0.769C272.664,188.877,276.024,185.517,280.164,185.517z"/>
	<path style="fill:#C1E8E6;" d="M336.235,315.268c0-21.708-17.66-39.368-39.368-39.368c-21.707,0-39.367,17.66-39.367,39.368
		c0,21.707,17.66,39.367,39.367,39.367C318.575,354.635,336.235,336.975,336.235,315.268z"/>
	<path style="fill:#C1E8E6;" d="M173.133,275.9c-21.707,0-39.367,17.66-39.367,39.368c0,21.707,17.66,39.367,39.367,39.367
		s39.367-17.66,39.367-39.367C212.5,293.56,194.84,275.9,173.133,275.9z"/>
	<path style="fill:#082947;" d="M296.867,260.9c-27.488,0-50.261,20.509-53.858,47.026h-16.019
		c-3.597-26.517-26.37-47.026-53.858-47.026c-29.979,0-54.367,24.389-54.367,54.368c0,29.978,24.389,54.367,54.367,54.367
		c27.378,0,50.083-20.345,53.817-46.708h16.1c3.735,26.363,26.439,46.708,53.817,46.708c29.979,0,54.368-24.389,54.368-54.367
		C351.235,285.289,326.846,260.9,296.867,260.9z M257.5,315.268c0-21.708,17.66-39.368,39.367-39.368
		c21.708,0,39.368,17.66,39.368,39.368c0,21.707-17.66,39.367-39.368,39.367C275.16,354.635,257.5,336.975,257.5,315.268z
		 M173.133,354.635c-21.707,0-39.367-17.66-39.367-39.367c0-21.708,17.66-39.368,39.367-39.368s39.367,17.66,39.367,39.368
		C212.5,336.975,194.84,354.635,173.133,354.635z"/>
	<path style="fill:#082947;" d="M462.5,55.248h-23.706v-2.5c0-4.142-3.357-7.5-7.5-7.5s-7.5,3.358-7.5,7.5v2.5H7.5
		c-4.143,0-7.5,3.358-7.5,7.5v30c0,4.142,3.357,7.5,7.5,7.5h111.266v130.271c0,2.657,1.406,5.116,3.695,6.463
		c2.29,1.348,5.122,1.384,7.445,0.094c13.169-7.311,28.116-11.176,43.227-11.176c20.795,0,41.063,7.335,57.07,20.655
		c1.39,1.157,3.094,1.735,4.797,1.735s3.407-0.578,4.797-1.735c16.008-13.319,36.275-20.655,57.07-20.655
		c15.111,0,30.059,3.865,43.228,11.176c2.321,1.29,5.154,1.254,7.445-0.094c2.289-1.348,3.695-3.806,3.695-6.463V122.748
		c0-4.142-3.357-7.5-7.5-7.5c-4.144,0.001-7.5,3.358-7.5,7.5v95.875c-12.449-5.076-25.854-7.723-39.368-7.723
		c-22.26,0-44,7.192-61.867,20.366c-17.867-13.173-39.607-20.366-61.867-20.366c-13.515,0-26.919,2.647-39.367,7.723V100.248
		h290.028v105.67c-8.729,3.096-15,11.432-15,21.21c0,4.897,1.577,9.43,4.244,13.128c-8.591,5.855-14.244,15.715-14.244,26.872
		v150.124c0,4.142,3.357,7.5,7.5,7.5s7.5-3.358,7.5-7.5V267.128c0-6.963,4.098-12.972,10-15.787v165.911c0,4.142,3.357,7.5,7.5,7.5
		s7.5-3.358,7.5-7.5V251.341c5.902,2.816,10,8.824,10,15.787v150.124c0,4.142,3.357,7.5,7.5,7.5s7.5-3.358,7.5-7.5V267.128
		c0-11.157-5.653-21.018-14.244-26.872c2.667-3.698,4.244-8.231,4.244-13.128c0-9.777-6.271-18.114-15-21.21v-105.67H462.5
		c4.143,0,7.5-3.358,7.5-7.5v-30C470,58.606,466.643,55.248,462.5,55.248z M431.294,234.628c-4.136,0-7.5-3.364-7.5-7.5
		s3.364-7.5,7.5-7.5s7.5,3.364,7.5,7.5S435.43,234.628,431.294,234.628z M455,85.248h-16.206v-15H455V85.248z M15,85.248v-15
		h408.794v15H15z"/>
	<path style="fill:#FFCC75;" d="M438.794,251.341v165.911h10V267.128C448.794,260.165,444.696,254.156,438.794,251.341z"/>
	<path style="fill:#FFCC75;" d="M413.794,267.128v150.124h10V251.341C417.892,254.156,413.794,260.165,413.794,267.128z"/>
</g>
<g>
</g>
<g>
</g>
<g>
</g>
<g>
</g>
<g>
</g>
<g>
</g>
<g>
</g>
<g>
</g>
<g>
</g>
<g>
</g>
<g>
</g>
<g>
</g>
<g>
</g>
<g>
</g>
<g>
</g>
</svg>
