<?xml version="1.0" encoding="iso-8859-1"?>
<!-- Generator: Adobe Illustrator 19.0.0, SVG Export Plug-In . SVG Version: 6.00 Build 0)  -->
<svg version="1.1" id="Capa_1" xmlns="http://www.w3.org/2000/svg" xmlns:xlink="http://www.w3.org/1999/xlink" x="0px" y="0px"
	 viewBox="0 0 470 470" style="enable-background:new 0 0 470 470;" xml:space="preserve">
<g>
	<path style="fill:#FFFFFF;" d="M90.596,111.313C60.998,145.745,44.698,189.671,44.698,235c0,104.766,85.233,190,190,190
		c104.767,0,190-85.234,190-190s-85.233-190-190-190c-45.329,0-89.255,16.3-123.687,45.898c-3.051,2.623-7.6,2.353-10.334-0.543
		c-3.67,3.411-7.21,6.957-10.613,10.634C92.949,103.724,93.216,108.266,90.596,111.313z M227.5,90.192V67.5
		c0-4.142,3.358-7.5,7.5-7.5c4.143,0,7.5,3.358,7.5,7.5v22.712c21.669,1.129,42.939,7.119,61.937,17.524
		c3.633,1.99,4.965,6.548,2.976,10.181c-0.034,0.063-0.075,0.119-0.111,0.18c5.075,3.15,9.931,6.619,14.539,10.382l20.934-11.431
		c2.922-1.595,6.544-1.075,8.898,1.279c2.354,2.354,2.874,5.977,1.279,8.897l-11.431,20.935c3.764,4.608,7.232,9.465,10.382,14.54
		c0.061-0.036,0.118-0.077,0.181-0.111c3.637-1.99,8.192-0.656,10.181,2.976c10.404,18.998,16.394,40.268,17.524,61.936H402.5
		c4.143,0,7.5,3.358,7.5,7.5s-3.357,7.5-7.5,7.5h-22.692c-3.789,73.997-63.311,133.519-137.308,137.308V402.5
		c0,4.142-3.357,7.5-7.5,7.5c-4.142,0-7.5-3.358-7.5-7.5v-22.712c-21.669-1.129-42.938-7.12-61.936-17.524
		c-3.633-1.99-4.965-6.548-2.976-10.181c0.034-0.062,0.074-0.118,0.11-0.178c-5.075-3.15-9.932-6.619-14.541-10.383l-20.932,11.43
		c-1.13,0.617-2.366,0.917-3.592,0.917c-1.943,0-3.863-0.754-5.306-2.197c-2.354-2.354-2.875-5.977-1.279-8.897l11.429-20.932
		c-3.764-4.608-7.233-9.465-10.384-14.541c-0.06,0.035-0.116,0.076-0.177,0.109c-1.143,0.626-2.378,0.923-3.596,0.923
		c-2.652,0-5.221-1.409-6.585-3.899c-10.405-18.998-16.394-40.268-17.524-61.936H67.5c-4.142,0-7.5-3.358-7.5-7.5s3.358-7.5,7.5-7.5
		h22.692C93.981,153.503,153.503,93.981,227.5,90.192z"/>
	<path style="fill:#F2EBD9;" d="M297.231,120.892C278.248,110.496,256.729,105,235,105c-71.682,0-130,58.318-130,130
		c0,21.729,5.496,43.248,15.892,62.231c1.956,3.571,0.697,8.031-2.798,10.071c3.151,5.076,6.62,9.933,10.384,14.541l67.171-123.016
		c0.008-0.016,0.017-0.031,0.026-0.047l0.042-0.076c0.013-0.023,0.03-0.043,0.043-0.066c0.14-0.25,0.296-0.491,0.467-0.727
		c0.045-0.063,0.09-0.125,0.137-0.187c0.193-0.25,0.398-0.494,0.627-0.724c0.241-0.24,0.485-0.445,0.734-0.638
		c0.062-0.048,0.125-0.093,0.188-0.139c0.234-0.169,0.475-0.325,0.723-0.464c0.024-0.014,0.045-0.031,0.069-0.044l0.079-0.043
		c0.042-0.023,123.056-67.193,123.056-67.193c-4.608-3.764-9.464-7.232-14.539-10.382
		C305.26,121.589,300.804,122.848,297.231,120.892z"/>
	<path style="fill:#F2EBD9;" d="M274.329,271.214l-0.045,0.082c-0.013,0.024-0.031,0.046-0.045,0.07
		c-0.139,0.248-0.295,0.489-0.465,0.724c-0.045,0.062-0.089,0.124-0.136,0.185c-0.195,0.252-0.401,0.499-0.633,0.73
		c-0.231,0.231-0.477,0.438-0.729,0.632c-0.062,0.048-0.125,0.093-0.189,0.139c-0.232,0.168-0.471,0.323-0.717,0.461
		c-0.026,0.015-0.048,0.034-0.074,0.048l-0.087,0.047c-0.031,0.017-123.052,67.19-123.052,67.19
		c4.608,3.764,9.465,7.233,14.541,10.383c2.041-3.493,6.5-4.753,10.071-2.797C191.752,359.504,213.271,365,235,365
		c71.683,0,130-58.318,130-130c0-21.728-5.495-43.247-15.892-62.23c-1.955-3.57-0.697-8.028,2.795-10.069
		c-3.15-5.075-6.619-9.932-10.382-14.54C341.521,148.16,274.35,271.176,274.329,271.214z"/>
	<polygon style="fill:#98D9D5;" points="255.313,265.92 204.08,214.686 142.455,327.545 	"/>
	<polygon style="fill:#F2484B;" points="265.92,255.313 327.546,142.455 214.687,204.08 	"/>
	<path style="fill:#F2484B;" d="M235,15C113.691,15,15,113.691,15,235s98.691,220,220,220s220-98.691,220-220S356.309,15,235,15z
		 M234.698,440c-113.038,0-205-91.962-205-205c0-48.915,17.588-96.314,49.523-133.465c2.701-3.141,7.436-3.498,10.577-0.798
		c0.094,0.081,0.177,0.169,0.266,0.253c3.403-3.677,6.943-7.224,10.613-10.634c-0.081-0.085-0.166-0.166-0.243-0.255
		c-2.7-3.141-2.343-7.876,0.798-10.577C138.384,47.587,185.783,30,234.698,30c113.038,0,205,91.962,205,205S347.735,440,234.698,440
		z"/>
	<path style="fill:#082947;" d="M401.17,68.83C356.784,24.444,297.771,0,235,0S113.216,24.444,68.83,68.83
		C24.444,113.215,0,172.229,0,235c0,62.771,24.444,121.784,68.83,166.17S172.229,470,235,470s121.784-24.444,166.17-68.83
		S470,297.771,470,235C470,172.229,445.556,113.215,401.17,68.83z M235,455c-121.309,0-220-98.691-220-220S113.691,15,235,15
		s220,98.691,220,220S356.309,455,235,455z"/>
	<path style="fill:#082947;" d="M234.698,30c-48.915,0-96.313,17.587-133.465,49.523c-3.141,2.7-3.499,7.436-0.798,10.577
		c0.077,0.09,0.162,0.17,0.243,0.255c2.734,2.896,7.283,3.166,10.334,0.543C145.443,61.3,189.369,45,234.698,45
		c104.767,0,190,85.234,190,190s-85.233,190-190,190c-104.767,0-190-85.234-190-190c0-45.329,16.3-89.255,45.898-123.687
		c2.62-3.047,2.353-7.589-0.532-10.324c-0.089-0.084-0.172-0.172-0.266-0.253c-3.141-2.699-7.876-2.342-10.577,0.798
		C47.286,138.686,29.698,186.085,29.698,235c0,113.038,91.962,205,205,205s205-91.962,205-205S347.735,30,234.698,30z"/>
	<path style="fill:#082947;" d="M349.108,172.77C359.505,191.753,365,213.272,365,235c0,71.682-58.317,130-130,130
		c-21.729,0-43.248-5.496-62.231-15.892c-3.571-1.956-8.03-0.696-10.071,2.797c-0.035,0.061-0.076,0.116-0.11,0.178
		c-1.99,3.633-0.657,8.191,2.976,10.181c18.998,10.404,40.267,16.395,61.936,17.524V402.5c0,4.142,3.358,7.5,7.5,7.5
		c4.143,0,7.5-3.358,7.5-7.5v-22.692c73.997-3.789,133.519-63.311,137.308-137.308H402.5c4.143,0,7.5-3.358,7.5-7.5
		s-3.357-7.5-7.5-7.5h-22.712c-1.13-21.668-7.12-42.938-17.524-61.936c-1.988-3.632-6.544-4.965-10.181-2.976
		c-0.063,0.034-0.119,0.075-0.181,0.111C348.412,164.741,347.154,169.199,349.108,172.77z"/>
	<path style="fill:#082947;" d="M198.784,195.672l-0.079,0.043c-0.024,0.013-0.045,0.031-0.069,0.044
		c-0.248,0.139-0.489,0.295-0.723,0.464c-0.063,0.046-0.127,0.091-0.188,0.139c-0.25,0.193-0.493,0.397-0.723,0.626
		c-0.241,0.241-0.445,0.485-0.638,0.735c-0.047,0.061-0.092,0.124-0.137,0.187c-0.17,0.235-0.327,0.477-0.467,0.727
		c-0.013,0.023-0.03,0.043-0.043,0.066l-0.042,0.076c-0.008,0.016-0.017,0.031-0.026,0.047l-67.171,123.016l-11.429,20.932
		c-1.595,2.921-1.074,6.544,1.279,8.897c1.443,1.443,3.363,2.197,5.306,2.197c1.226,0,2.462-0.3,3.592-0.917l20.932-11.43
		l123.021-67.173c0.031-0.017,0.118-0.064,0.118-0.064c0.026-0.014,0.049-0.033,0.074-0.048c0.246-0.138,0.484-0.292,0.717-0.461
		c0.063-0.045,0.127-0.091,0.189-0.139c0.252-0.194,0.498-0.401,0.729-0.632c0.232-0.231,0.438-0.478,0.633-0.73
		c0.047-0.061,0.091-0.123,0.136-0.185c0.17-0.234,0.326-0.476,0.465-0.724c0.014-0.024,0.032-0.046,0.045-0.07l0.045-0.082
		c0.021-0.039,67.192-123.054,67.192-123.054l11.431-20.935c1.595-2.921,1.074-6.544-1.279-8.897
		c-2.354-2.354-5.977-2.874-8.898-1.279l-20.934,11.431C321.84,128.479,198.826,195.649,198.784,195.672z M255.313,265.92
		l-112.859,61.625l61.625-112.859L255.313,265.92z M265.92,255.313l-51.234-51.234l112.859-61.625L265.92,255.313z"/>
	<path style="fill:#082947;" d="M67.5,227.5c-4.142,0-7.5,3.358-7.5,7.5s3.358,7.5,7.5,7.5h22.712
		c1.13,21.668,7.12,42.938,17.524,61.936c1.364,2.49,3.933,3.899,6.585,3.899c1.217,0,2.453-0.297,3.596-0.923
		c0.062-0.034,0.117-0.074,0.177-0.109c3.495-2.041,4.754-6.5,2.798-10.071C110.496,278.248,105,256.729,105,235
		c0-71.682,58.318-130,130-130c21.729,0,43.248,5.496,62.231,15.892c3.572,1.956,8.029,0.697,10.07-2.795
		c0.036-0.061,0.077-0.118,0.111-0.18c1.989-3.633,0.657-8.191-2.976-10.181c-18.997-10.405-40.267-16.395-61.937-17.524V67.5
		c0-4.142-3.357-7.5-7.5-7.5c-4.142,0-7.5,3.358-7.5,7.5v22.692C153.503,93.981,93.981,153.503,90.192,227.5H67.5z"/>
</g>
<g>
</g>
<g>
</g>
<g>
</g>
<g>
</g>
<g>
</g>
<g>
</g>
<g>
</g>
<g>
</g>
<g>
</g>
<g>
</g>
<g>
</g>
<g>
</g>
<g>
</g>
<g>
</g>
<g>
</g>
</svg>
