<?xml version="1.0" encoding="iso-8859-1"?>
<!-- Generator: Adobe Illustrator 19.0.0, SVG Export Plug-In . SVG Version: 6.00 Build 0)  -->
<svg version="1.1" id="Capa_1" xmlns="http://www.w3.org/2000/svg" xmlns:xlink="http://www.w3.org/1999/xlink" x="0px" y="0px"
	 viewBox="0 0 470 470" style="enable-background:new 0 0 470 470;" xml:space="preserve">
<g>
	<path style="fill:#6DA8D6;" d="M284.962,378.767c3.352-2.435,8.042-1.692,10.476,1.659l13.049,17.961
		c14.607-12.165,26.161-27.873,33.332-45.793l-21.164-6.877c-3.939-1.28-6.096-5.511-4.815-9.45c1.28-3.94,5.518-6.095,9.45-4.815
		l21.175,6.88C348.771,329.265,350,319.774,350,310c0-9.774-1.229-19.265-3.535-28.331l-21.175,6.88
		c-0.77,0.25-1.551,0.369-2.319,0.369c-3.161,0-6.102-2.015-7.131-5.184c-1.28-3.939,0.876-8.171,4.815-9.45l21.164-6.877
		c-7.171-17.92-18.726-33.629-33.332-45.794l-13.049,17.961c-1.467,2.02-3.755,3.092-6.073,3.092c-1.529,0-3.071-0.466-4.402-1.433
		c-3.352-2.435-4.094-7.125-1.659-10.476l13.06-17.976c-15.783-9.997-34.154-16.256-53.862-17.531V217.5c0,4.142-3.357,7.5-7.5,7.5
		s-7.5-3.358-7.5-7.5v-22.249c-19.709,1.275-38.08,7.534-53.863,17.531l13.06,17.975c2.435,3.351,1.692,8.041-1.659,10.476
		c-1.331,0.967-2.874,1.433-4.402,1.433c-2.319,0-4.605-1.072-6.073-3.092l-13.05-17.961
		c-14.606,12.165-26.161,27.873-33.332,45.793l21.163,6.876c3.939,1.28,6.096,5.511,4.815,9.45c-1.029,3.169-3.97,5.184-7.131,5.184
		c-0.769,0-1.55-0.119-2.319-0.369l-21.174-6.88C121.229,290.735,120,300.226,120,310c0,9.774,1.229,19.265,3.535,28.331
		l21.174-6.88c3.937-1.28,8.171,0.875,9.45,4.815c1.28,3.939-0.876,8.171-4.815,9.45l-21.163,6.876
		c7.171,17.92,18.726,33.628,33.332,45.793l13.049-17.961c2.435-3.352,7.127-4.093,10.476-1.659
		c3.352,2.435,4.094,7.125,1.659,10.476l-13.059,17.975c15.783,9.997,34.153,16.256,53.862,17.531V402.5c0-4.142,3.357-7.5,7.5-7.5
		s7.5,3.358,7.5,7.5v22.249c19.709-1.275,38.08-7.534,53.863-17.531l-13.059-17.975C280.868,385.891,281.61,381.201,284.962,378.767
		z M251.801,377.949c-0.604,0.15-1.211,0.221-1.807,0.221c-3.368,0-6.43-2.284-7.274-5.701c-0.037-0.15-0.06-0.3-0.087-0.45
		c-2.503,0.306-5.046,0.483-7.63,0.483c-2.586,0-5.13-0.176-7.635-0.483c-0.028,0.15-0.05,0.3-0.088,0.45
		c-0.994,4.021-5.058,6.475-9.081,5.48C186.876,370.202,165,342.26,165,310c0-38.598,31.402-70,70-70s70,31.402,70,70
		C305,342.26,283.124,370.202,251.801,377.949z"/>
	<path style="fill:#185F8D;" d="M248.199,363.388C272.811,357.301,290,335.347,290,310c0-30.327-24.673-55-55-55s-55,24.673-55,55
		c0,25.347,17.189,47.301,41.801,53.388c3.87,0.957,6.28,4.761,5.567,8.631c2.505,0.307,5.048,0.483,7.635,0.483
		c2.584,0,5.127-0.176,7.63-0.483C241.919,368.149,244.329,364.345,248.199,363.388z"/>
	<path style="fill:#F2EBD9;" d="M380,310c0-79.953-65.047-145-145-145S90,230.047,90,310s65.047,145,145,145S380,389.953,380,310z
		 M311.411,415.172c-0.186,0.135-0.384,0.237-0.577,0.352c-21.358,15.392-47.551,24.474-75.829,24.475
		c-28.287-0.002-54.478-9.082-75.834-24.471c-0.195-0.116-0.396-0.22-0.583-0.356c-0.245-0.178-0.471-0.371-0.688-0.572
		C125.835,390.903,105,352.841,105,310c0-42.841,20.835-80.903,52.9-104.601c0.217-0.201,0.443-0.394,0.688-0.572
		c0.238-0.173,0.483-0.325,0.733-0.466C180.652,189.037,206.789,180,235,180c28.212,0,54.35,9.038,75.682,24.364
		c0.249,0.14,0.493,0.292,0.73,0.464c0.243,0.177,0.469,0.369,0.685,0.568C344.163,229.093,365,267.157,365,310
		c0,42.843-20.836,80.906-52.903,104.603C311.881,414.803,311.655,414.995,311.411,415.172z"/>
	<path style="fill:#98D9D5;" d="M155.504,171.183c7.169-4.121,14.69-7.694,22.499-10.681v-16.377
		c-4.142-0.001-7.499-3.358-7.499-7.5V94.496C170.504,58.933,199.437,30,235,30c35.563,0,64.495,28.933,64.495,64.496v42.129
		c0,4.142-3.357,7.5-7.5,7.5c-0.003,0-0.003,16.375-0.003,16.375c7.81,2.987,15.333,6.56,22.503,10.682V94.496
		C314.495,50.662,278.834,15,235,15s-79.496,35.662-79.496,79.496V171.183z"/>
	<path style="fill:#082947;" d="M329.495,180.97V94.496C329.495,42.391,287.104,0,235,0c-52.105,0-94.496,42.391-94.496,94.496
		v86.475C100.816,210.116,75,257.096,75,310c0,88.224,71.775,160,160,160s160-71.776,160-160
		C395,257.096,369.184,210.115,329.495,180.97z M90,310c0-79.953,65.047-145,145-145s145,65.047,145,145s-65.047,145-145,145
		S90,389.953,90,310z M235,15c43.834,0,79.495,35.662,79.495,79.496v76.686c-7.17-4.122-14.693-7.695-22.503-10.682
		C274.278,153.724,255.067,150,235,150c-20.069,0-39.282,3.725-56.998,10.502c-7.808,2.987-15.33,6.559-22.499,10.681V94.496
		C155.504,50.662,191.166,15,235,15z"/>
	<path style="fill:#082947;" d="M365,310c0-42.843-20.837-80.907-52.904-104.604c-0.216-0.199-0.441-0.391-0.685-0.568
		c-0.236-0.172-0.481-0.324-0.73-0.464C289.35,189.038,263.212,180,235,180c-28.211,0-54.348,9.037-75.679,24.362
		c-0.25,0.141-0.496,0.293-0.733,0.466c-0.245,0.178-0.471,0.371-0.688,0.572C125.835,229.097,105,267.159,105,310
		c0,42.841,20.835,80.903,52.9,104.601c0.217,0.201,0.443,0.394,0.688,0.572c0.188,0.136,0.388,0.24,0.583,0.356
		c21.356,15.389,47.547,24.47,75.821,24.471c28.291-0.001,54.484-9.083,75.842-24.475c0.193-0.115,0.391-0.217,0.577-0.352
		c0.244-0.177,0.47-0.369,0.686-0.569C344.164,390.906,365,352.843,365,310z M283.303,389.242l13.059,17.975
		c-15.783,9.997-34.154,16.256-53.863,17.531V402.5c0-4.142-3.357-7.5-7.5-7.5s-7.5,3.358-7.5,7.5v22.249
		c-19.708-1.275-38.079-7.534-53.862-17.531l13.059-17.975c2.435-3.351,1.692-8.041-1.659-10.476
		c-3.349-2.433-8.041-1.692-10.476,1.659l-13.049,17.961c-14.606-12.165-26.161-27.873-33.332-45.793l21.163-6.876
		c3.939-1.28,6.096-5.511,4.815-9.45c-1.279-3.94-5.514-6.095-9.45-4.815l-21.174,6.88C121.229,329.265,120,319.774,120,310
		c0-9.774,1.229-19.265,3.535-28.331l21.174,6.88c0.77,0.25,1.551,0.369,2.319,0.369c3.161,0,6.102-2.015,7.131-5.184
		c1.28-3.939-0.876-8.171-4.815-9.45l-21.163-6.876c7.171-17.92,18.725-33.628,33.332-45.793l13.05,17.961
		c1.468,2.02,3.754,3.092,6.073,3.092c1.528,0,3.071-0.466,4.402-1.433c3.352-2.435,4.094-7.125,1.659-10.476l-13.06-17.975
		c15.783-9.997,34.154-16.256,53.863-17.531V217.5c0,4.142,3.357,7.5,7.5,7.5s7.5-3.358,7.5-7.5v-22.249
		c19.708,1.275,38.079,7.534,53.862,17.531l-13.06,17.976c-2.435,3.351-1.692,8.041,1.659,10.476
		c1.331,0.967,2.873,1.433,4.402,1.433c2.318,0,4.606-1.073,6.073-3.092l13.049-17.961c14.607,12.165,26.161,27.873,33.332,45.794
		l-21.164,6.877c-3.939,1.28-6.096,5.511-4.815,9.45c1.029,3.169,3.97,5.184,7.131,5.184c0.769,0,1.55-0.119,2.319-0.369
		l21.175-6.88C348.771,290.735,350,300.226,350,310c0,9.774-1.229,19.265-3.535,28.332l-21.175-6.88
		c-3.933-1.28-8.17,0.875-9.45,4.815c-1.28,3.939,0.876,8.171,4.815,9.45l21.164,6.877c-7.171,17.92-18.726,33.629-33.332,45.793
		l-13.049-17.961c-2.434-3.351-7.124-4.094-10.476-1.659C281.61,381.201,280.868,385.891,283.303,389.242z"/>
	<path style="fill:#082947;" d="M185.504,136.625V94.496C185.504,67.204,207.708,45,235,45s49.495,22.204,49.495,49.496v42.129
		c0,4.141,3.356,7.498,7.497,7.5c4.145,0,7.503-3.358,7.503-7.5V94.496C299.495,58.933,270.563,30,235,30
		c-35.563,0-64.496,28.933-64.496,64.496v42.129c0,4.142,3.356,7.499,7.499,7.5C182.146,144.125,185.504,140.767,185.504,136.625z"
		/>
	<path style="fill:#082947;" d="M305,310c0-38.598-31.402-70-70-70s-70,31.402-70,70c0,32.26,21.876,60.202,53.199,67.949
		c4.023,0.995,8.087-1.459,9.081-5.48c0.037-0.15,0.06-0.3,0.088-0.45c0.713-3.87-1.697-7.674-5.567-8.631
		C197.189,357.301,180,335.347,180,310c0-30.327,24.673-55,55-55s55,24.673,55,55c0,25.347-17.189,47.301-41.801,53.388
		c-3.871,0.957-6.28,4.761-5.567,8.632c0.028,0.15,0.05,0.3,0.087,0.45c0.845,3.417,3.906,5.701,7.274,5.701
		c0.596,0,1.202-0.072,1.807-0.221C283.124,370.202,305,342.26,305,310z"/>
</g>
<g>
</g>
<g>
</g>
<g>
</g>
<g>
</g>
<g>
</g>
<g>
</g>
<g>
</g>
<g>
</g>
<g>
</g>
<g>
</g>
<g>
</g>
<g>
</g>
<g>
</g>
<g>
</g>
<g>
</g>
</svg>
