<?xml version="1.0" encoding="iso-8859-1"?>
<!-- Generator: Adobe Illustrator 19.0.0, SVG Export Plug-In . SVG Version: 6.00 Build 0)  -->
<svg version="1.1" id="Capa_1" xmlns="http://www.w3.org/2000/svg" xmlns:xlink="http://www.w3.org/1999/xlink" x="0px" y="0px"
	 viewBox="0 0 470.021 470.021" style="enable-background:new 0 0 470.021 470.021;" xml:space="preserve">
<g>
	<path style="fill:#98D9D5;" d="M229.699,137.793l-28.284,28.284c-1.465,1.464-3.385,2.196-5.304,2.196s-3.839-0.732-5.304-2.196
		c-2.929-2.93-2.929-7.678,0-10.607l22.98-22.98l-20.058-20.058l-22.98,22.98c-1.465,1.464-3.385,2.196-5.304,2.196
		s-3.839-0.732-5.304-2.196c-2.929-2.93-2.929-7.678,0-10.607l22.98-22.98l-20.057-20.058l-22.981,22.98
		c-1.465,1.464-3.385,2.196-5.304,2.196s-3.839-0.732-5.304-2.196c-2.929-2.93-2.929-7.678,0-10.607l22.981-22.98L99.425,18.126
		L18.108,99.443l119.667,119.666c2.929,2.93,2.929,7.678,0,10.607l10.606,10.605l91.924-91.924L229.699,137.793z M101.194,101.211
		c-4.251,4.25-9.901,6.59-15.91,6.591c-6.01-0.001-11.66-2.341-15.91-6.59c-8.772-8.773-8.772-23.048-0.001-31.82
		c4.25-4.25,9.901-6.59,15.91-6.59c6.01-0.001,11.66,2.34,15.91,6.589C109.965,78.164,109.965,92.438,101.194,101.211z"/>
	<path style="fill:#98D9D5;" d="M250.912,332.246l119.666,119.667l81.317-81.317l-53.033-53.032l-22.981,22.98
		c-1.465,1.464-3.385,2.196-5.304,2.196s-3.839-0.732-5.304-2.196c-2.929-2.93-2.929-7.678,0-10.607l22.981-22.98l-20.058-20.058
		l-22.98,22.98c-1.465,1.464-3.385,2.196-5.304,2.196s-3.839-0.732-5.304-2.196c-2.929-2.93-2.929-7.678,0-10.607l22.98-22.98
		l-20.058-20.058l-22.98,22.98c-1.465,1.464-3.385,2.196-5.304,2.196s-3.839-0.732-5.304-2.196c-2.929-2.93-2.929-7.678,0-10.607
		l28.284-28.284l-10.606-10.606l-91.924,91.925l10.606,10.605C243.234,329.318,247.982,329.318,250.912,332.246z M368.809,368.828
		c4.251-4.25,9.901-6.59,15.911-6.59c6.009,0,11.659,2.34,15.909,6.589c8.772,8.773,8.772,23.048,0.001,31.82
		c-4.251,4.25-9.901,6.591-15.91,6.591c-6.01,0-11.66-2.341-15.91-6.59C360.038,391.875,360.038,377.601,368.809,368.828z"/>
	<path style="fill:#082947;" d="M85.284,62.802c-6.01,0-11.661,2.34-15.911,6.59c-8.771,8.772-8.771,23.047,0.001,31.82
		c4.25,4.249,9.9,6.589,15.91,6.59c6.009-0.001,11.659-2.341,15.91-6.591c8.771-8.772,8.771-23.047-0.001-31.82
		C96.943,65.142,91.293,62.801,85.284,62.802z M90.587,90.604c-1.417,1.417-3.301,2.197-5.304,2.197
		c-2.004,0-3.888-0.78-5.304-2.196c-2.924-2.925-2.924-7.684-0.001-10.607c1.417-1.417,3.301-2.196,5.305-2.196
		c2.003,0,3.887,0.779,5.303,2.195C93.51,82.922,93.51,87.681,90.587,90.604z"/>
	<path style="fill:#082947;" d="M384.72,407.238c6.009,0,11.659-2.341,15.91-6.591c8.771-8.772,8.771-23.047-0.001-31.82
		c-4.25-4.249-9.9-6.589-15.909-6.589c-6.01,0-11.66,2.34-15.911,6.59c-8.771,8.772-8.771,23.047,0.001,31.82
		C373.06,404.897,378.711,407.238,384.72,407.238z M379.416,379.435c1.417-1.417,3.301-2.196,5.305-2.196
		c2.003,0,3.887,0.779,5.303,2.195c2.924,2.925,2.924,7.684,0.001,10.607c-1.417,1.417-3.301,2.197-5.304,2.197
		c-2.004,0-3.888-0.78-5.304-2.196C376.493,387.117,376.493,382.358,379.416,379.435z"/>
	<path style="fill:#082947;" d="M137.775,219.109L18.108,99.443l81.317-81.317l53.032,53.033l-22.981,22.98
		c-2.929,2.93-2.929,7.678,0,10.607c1.465,1.464,3.385,2.196,5.304,2.196s3.839-0.732,5.304-2.196l22.981-22.98l20.057,20.058
		l-22.98,22.98c-2.929,2.93-2.929,7.678,0,10.607c1.465,1.464,3.385,2.196,5.304,2.196s3.839-0.732,5.304-2.196l22.98-22.98
		l20.058,20.058l-22.98,22.98c-2.929,2.93-2.929,7.678,0,10.607c1.465,1.464,3.385,2.196,5.304,2.196s3.839-0.732,5.304-2.196
		l28.284-28.284c2.928-2.93,2.928-7.678,0-10.607L104.729,2.216c-2.93-2.928-7.678-2.928-10.607,0L2.198,94.14
		c-2.929,2.93-2.929,7.678,0,10.607l124.97,124.97c1.465,1.464,3.385,2.196,5.304,2.196s3.839-0.732,5.304-2.196
		C140.704,226.787,140.704,222.039,137.775,219.109z"/>
	<path style="fill:#082947;" d="M342.836,240.322c-2.93-2.928-7.677-2.928-10.607,0l-28.284,28.284
		c-2.929,2.93-2.929,7.678,0,10.607c1.465,1.464,3.385,2.196,5.304,2.196s3.839-0.732,5.304-2.196l22.98-22.98l20.058,20.058
		l-22.98,22.98c-2.929,2.93-2.929,7.678,0,10.607c1.465,1.464,3.385,2.196,5.304,2.196s3.839-0.732,5.304-2.196l22.98-22.98
		l20.058,20.058l-22.981,22.98c-2.929,2.93-2.929,7.678,0,10.607c1.465,1.464,3.385,2.196,5.304,2.196s3.839-0.732,5.304-2.196
		l22.981-22.98l53.033,53.032l-81.317,81.317L250.912,332.246c-2.93-2.928-7.677-2.928-10.607,0c-2.929,2.93-2.929,7.678,0,10.607
		l124.97,124.97c1.465,1.464,3.385,2.196,5.304,2.196s3.839-0.732,5.304-2.196l91.924-91.924c2.929-2.93,2.929-7.678,0-10.607
		L342.836,240.322z"/>
	<path style="fill:#6DA8D6;" d="M356.689,123.939l-30.052,30.052c-1.465,1.464-3.385,2.196-5.304,2.196s-3.839-0.732-5.304-2.196
		c-2.929-2.93-2.929-7.678,0-10.607l30.052-30.052l-24.748-24.748L70.192,339.726c3.443,2.019,6.652,4.489,9.528,7.364
		c5.88,5.88,9.975,13.012,12.035,20.57l195.992-195.992c2.93-2.928,7.678-2.928,10.607,0c2.929,2.93,2.929,7.678,0,10.607
		L102.361,378.268c7.558,2.06,14.69,6.154,20.57,12.034c2.875,2.876,5.346,6.084,7.364,9.527l251.142-251.142L356.689,123.939z"/>
	
		<rect x="358.732" y="57.656" transform="matrix(0.7071 -0.7071 0.7071 0.7071 37.5098 290.8692)" style="fill:#F2EBD9;" width="22.266" height="85"/>
	<polygon style="fill:#274B6D;" points="30.776,425.692 21.29,448.731 44.328,439.245 	"/>
	<path style="fill:#FFCC75;" d="M112.324,400.909c-7.087-7.087-16.71-10.372-25.742-8.784c-2.408,0.424-4.873-0.354-6.603-2.083
		c-1.729-1.729-2.507-4.193-2.083-6.603c1.588-9.031-1.696-18.655-8.784-25.742c-2.366-2.367-5.054-4.32-7.942-5.816l-24.206,58.785
		l22.392,22.391l58.784-24.205C116.644,405.963,114.69,403.275,112.324,400.909z"/>
	<path style="fill:#F2484B;" d="M418.396,111.729l30.052-30.053c8.772-8.772,8.772-23.047,0-31.819l-28.284-28.284
		c-8.773-8.772-23.047-8.772-31.82,0l-14.143,14.144c-2.93,2.928-7.678,2.928-10.607,0l-10.605,10.605L418.396,111.729z"/>
	<path style="fill:#082947;" d="M397.34,153.999c0.016-0.016,61.715-61.716,61.715-61.716c14.62-14.621,14.62-38.412,0-53.033
		l-28.284-28.284c-14.621-14.619-38.411-14.623-53.034,0l-14.144,14.144c-2.929,2.93-2.929,7.678,0,10.607
		c2.93,2.928,7.678,2.928,10.607,0l14.143-14.144c8.773-8.772,23.047-8.772,31.82,0l28.284,28.284
		c8.772,8.772,8.772,23.047,0,31.819l-30.052,30.053l-65.408-65.407c-2.93-2.928-7.677-2.928-10.607,0l-26.342,26.342
		c-0.018,0.018-75.734,75.734-75.734,75.734l-91.924,91.924l-96.686,96.686c-0.015,0.015-0.027,0.031-0.042,0.047
		c-0.063,0.064-0.121,0.133-0.181,0.2c-0.592,0.647-1.073,1.388-1.408,2.201l-28.872,70.116c-0.01,0.024-0.02,0.048-0.029,0.071
		L0.565,459.665c-1.152,2.8-0.509,6.018,1.632,8.159c1.436,1.435,3.354,2.196,5.306,2.196c0.961,0,1.93-0.185,2.854-0.564
		l50.027-20.6c0.019-0.008,0.038-0.016,0.058-0.023l70.124-28.875c0.817-0.337,1.561-0.821,2.211-1.417
		c0.063-0.057,0.127-0.111,0.188-0.17c0.016-0.016,0.034-0.029,0.05-0.045l96.686-96.686l91.924-91.925L397.34,153.999z
		 M59.356,433.057l-22.392-22.391l24.206-58.785c2.888,1.496,5.576,3.449,7.942,5.816c7.088,7.087,10.372,16.711,8.784,25.742
		c-0.424,2.409,0.354,4.873,2.083,6.603c1.729,1.729,4.194,2.507,6.603,2.083c9.032-1.588,18.655,1.697,25.742,8.784
		c2.367,2.366,4.32,5.054,5.816,7.942L59.356,433.057z M122.931,390.302c-5.88-5.88-13.012-9.975-20.57-12.034l195.992-195.992
		c2.929-2.93,2.929-7.678,0-10.607c-2.93-2.928-7.678-2.928-10.607,0L91.754,367.66c-2.06-7.559-6.155-14.69-12.035-20.57
		c-2.876-2.875-6.084-5.346-9.528-7.364L321.334,88.584l24.748,24.748l-30.052,30.052c-2.929,2.93-2.929,7.678,0,10.607
		c1.465,1.464,3.385,2.196,5.304,2.196s3.839-0.732,5.304-2.196l30.052-30.052l24.749,24.748L130.295,399.829
		C128.277,396.386,125.807,393.178,122.931,390.302z M392.045,138.08l-60.104-60.104l15.744-15.744l60.104,60.104L392.045,138.08z
		 M30.776,425.692l13.552,13.553l-23.039,9.486L30.776,425.692z"/>
</g>
<g>
</g>
<g>
</g>
<g>
</g>
<g>
</g>
<g>
</g>
<g>
</g>
<g>
</g>
<g>
</g>
<g>
</g>
<g>
</g>
<g>
</g>
<g>
</g>
<g>
</g>
<g>
</g>
<g>
</g>
</svg>
