<?xml version="1.0" encoding="iso-8859-1"?>
<!-- Generator: Adobe Illustrator 19.0.0, SVG Export Plug-In . SVG Version: 6.00 Build 0)  -->
<svg version="1.1" id="Capa_1" xmlns="http://www.w3.org/2000/svg" xmlns:xlink="http://www.w3.org/1999/xlink" x="0px" y="0px"
	 viewBox="0 0 470 470" style="enable-background:new 0 0 470 470;" xml:space="preserve">
<g>
	<rect x="368.75" y="415.001" style="fill:#6DA8D6;" width="15" height="25"/>
	<polygon style="fill:#F2EBD9;" points="86.25,418.75 65.25,427.5 86.25,436.25 	"/>
	<rect x="101.25" y="415.001" style="fill:#FFCC75;" width="252.5" height="25"/>
	<path style="fill:#F2484B;" d="M412.25,415.001h-13.5v25h13.5c2.439,0,4.5-2.062,4.5-4.502v-16
		C416.75,417.061,414.689,415.001,412.25,415.001z"/>
	<path style="fill:#082947;" d="M412.25,400.001H93.75c-0.25,0-0.499,0.013-0.747,0.038c-0.197,0.02-0.39,0.052-0.583,0.087
		c-0.048,0.009-0.098,0.012-0.146,0.022c-0.238,0.047-0.471,0.107-0.7,0.176c-0.271,0.082-0.525,0.174-0.771,0.28l-47.937,19.972
		c-2.795,1.165-4.616,3.896-4.616,6.923c0,3.028,1.82,5.759,4.615,6.923l47.933,19.974c0.469,0.201,0.963,0.356,1.476,0.458
		c0.046,0.009,0.094,0.013,0.14,0.021c0.194,0.035,0.389,0.068,0.588,0.088c0.248,0.025,0.497,0.038,0.747,0.038h318.5
		c10.752,0,19.5-8.749,19.5-19.502v-16C431.75,408.748,423.002,400.001,412.25,400.001z M416.75,435.499
		c0,2.44-2.061,4.502-4.5,4.502h-13.5v-25h13.5c2.439,0,4.5,2.06,4.5,4.498V435.499z M86.25,418.75v17.5l-21-8.751L86.25,418.75z
		 M101.25,415.001h252.5v25h-252.5V415.001z M368.75,415.001h15v25h-15V415.001z"/>
	<polygon style="fill:#FFCC75;" points="380,284.999 380,349.393 444.394,284.999 	"/>
	<path style="fill:#F2EBD9;" d="M365,327.499h-15c0,4.142-3.358,7.5-7.5,7.5h-295c-4.142,0-7.5-3.358-7.5-7.5v-265
		c0-4.142,3.358-7.5,7.5-7.5h30c4.142,0,7.5,3.358,7.5,7.5h15c0-4.142,3.358-7.5,7.5-7.5h315c4.142,0,7.5,3.358,7.5,7.5v185
		c0,4.142-3.358,7.5-7.5,7.5v15H455v-240H15v330h350V327.499z"/>
	<rect x="55" y="134.215" style="fill:#FFFFFF;" width="110" height="185.784"/>
	<rect x="180" y="134.215" style="fill:#FFFFFF;" width="110" height="185.784"/>
	<path style="fill:#FFFFFF;" d="M415,247.499V134.215H305v185.784h37.5c4.142,0,7.5,3.358,7.5,7.5h15v-50c0-4.142,3.358-7.5,7.5-7.5
		h50v-15C418.358,254.999,415,251.641,415,247.499z"/>
	<path style="fill:#082947;" d="M468.733,281.669c0.032-0.047,0.058-0.097,0.088-0.145c0.101-0.159,0.201-0.319,0.291-0.486
		c0.02-0.036,0.035-0.075,0.054-0.112c0.093-0.181,0.183-0.364,0.261-0.552c0.011-0.027,0.019-0.054,0.03-0.081
		c0.08-0.199,0.155-0.401,0.218-0.608c0.009-0.03,0.015-0.061,0.023-0.091c0.059-0.203,0.113-0.409,0.155-0.619
		c0.013-0.063,0.018-0.128,0.029-0.191c0.031-0.177,0.062-0.355,0.08-0.537C469.987,278,470,277.75,470,277.499v-255
		c0-4.142-3.358-7.5-7.5-7.5H7.5c-4.142,0-7.5,3.358-7.5,7.5v345c0,4.142,3.358,7.5,7.5,7.5h365c0.251,0,0.501-0.013,0.749-0.038
		c0.182-0.018,0.359-0.049,0.537-0.08c0.063-0.011,0.128-0.016,0.191-0.029c0.21-0.042,0.416-0.096,0.619-0.156
		c0.03-0.009,0.061-0.014,0.091-0.023c0.207-0.063,0.409-0.138,0.608-0.218c0.027-0.011,0.055-0.019,0.081-0.03
		c0.189-0.078,0.372-0.168,0.552-0.261c0.037-0.019,0.075-0.034,0.112-0.054c0.167-0.09,0.327-0.189,0.486-0.291
		c0.048-0.031,0.098-0.057,0.145-0.088c0.151-0.101,0.295-0.212,0.438-0.324c0.05-0.039,0.102-0.073,0.151-0.113
		c0.189-0.156,0.371-0.32,0.545-0.493l89.997-89.998c0.173-0.173,0.338-0.355,0.493-0.545c0.04-0.049,0.074-0.101,0.113-0.151
		C468.52,281.964,468.632,281.821,468.733,281.669z M15,29.999h440v240h-82.5c-4.142,0-7.5,3.358-7.5,7.5v82.5H15V29.999z
		 M380,284.999h64.394L380,349.393V284.999z"/>
	<path style="fill:#FF6E1D;" d="M77.5,69.999H55v49.216h360V69.999H107.5c-4.142,0-7.5-3.358-7.5-7.5H85
		C85,66.641,81.642,69.999,77.5,69.999z"/>
	<path style="fill:#082947;" d="M342.5,319.999H305V134.215h110v113.284c0,4.142,3.358,7.5,7.5,7.5s7.5-3.358,7.5-7.5v-185
		c0-4.142-3.358-7.5-7.5-7.5h-315c-4.142,0-7.5,3.358-7.5,7.5s3.358,7.5,7.5,7.5H415v49.216H55V69.999h22.5
		c4.142,0,7.5-3.358,7.5-7.5s-3.358-7.5-7.5-7.5h-30c-4.142,0-7.5,3.358-7.5,7.5v265c0,4.142,3.358,7.5,7.5,7.5h295
		c4.142,0,7.5-3.358,7.5-7.5S346.642,319.999,342.5,319.999z M290,319.999H180V134.215h110V319.999z M55,134.215h110v185.784H55
		V134.215z"/>
</g>
<g>
</g>
<g>
</g>
<g>
</g>
<g>
</g>
<g>
</g>
<g>
</g>
<g>
</g>
<g>
</g>
<g>
</g>
<g>
</g>
<g>
</g>
<g>
</g>
<g>
</g>
<g>
</g>
<g>
</g>
</svg>
