<?xml version="1.0" encoding="iso-8859-1"?>
<!-- Generator: Adobe Illustrator 19.0.0, SVG Export Plug-In . SVG Version: 6.00 Build 0)  -->
<svg version="1.1" id="Capa_1" xmlns="http://www.w3.org/2000/svg" xmlns:xlink="http://www.w3.org/1999/xlink" x="0px" y="0px"
	 viewBox="0 0 470 470" style="enable-background:new 0 0 470 470;" xml:space="preserve">
<g>
	<path style="fill:#185F8D;" d="M82.5,308C67.337,308,55,320.336,55,335.5S67.337,363,82.5,363s27.5-12.336,27.5-27.5
		S97.663,308,82.5,308z"/>
	<path style="fill:#185F8D;" d="M397.5,308c-15.163,0-27.5,12.336-27.5,27.5s12.337,27.5,27.5,27.5s27.5-12.336,27.5-27.5
		S412.663,308,397.5,308z"/>
	<rect x="340" y="137" style="fill:#98D9D5;" width="15" height="56.961"/>
	<rect x="275" y="137" style="fill:#98D9D5;" width="50" height="56.961"/>
	<path style="fill:#98D9D5;" d="M260,137h-50v34.461c0,4.142-3.357,7.5-7.5,7.5s-7.5-3.358-7.5-7.5V137h-50v34.461
		c0,4.142-3.357,7.5-7.5,7.5s-7.5-3.358-7.5-7.5V137H80v34.461c0,4.142-3.357,7.5-7.5,7.5s-7.5-3.358-7.5-7.5V137H15v56.961h245V137
		z"/>
	<rect x="275" y="208.961" style="fill:#98D9D5;" width="50" height="119.039"/>
	<path style="fill:#FFCC75;" d="M147.5,328H260V208.961H15V328h25.676c3.554-19.868,20.949-35,41.824-35
		c23.435,0,42.5,19.065,42.5,42.5h15C140,331.358,143.357,328,147.5,328z M72.5,238.961h-35c-4.143,0-7.5-3.358-7.5-7.5
		s3.357-7.5,7.5-7.5h35c4.143,0,7.5,3.358,7.5,7.5S76.643,238.961,72.5,238.961z M102.5,238.961c-4.143,0-7.5-3.358-7.5-7.5
		s3.357-7.5,7.5-7.5h135c4.143,0,7.5,3.358,7.5,7.5s-3.357,7.5-7.5,7.5H102.5z"/>
	<path style="fill:#FFCC75;" d="M442.5,276.31H455v-15h-12.5c-4.143,0-7.5-3.358-7.5-7.5s3.357-7.5,7.5-7.5h11.359
		c-3.079-10.281-12.032-19.435-22.272-21.724l-69.914-15.625H340V328h15.676c3.554-19.868,20.949-35,41.824-35
		s38.27,15.132,41.824,35H455v-36.69h-12.5c-4.143,0-7.5-3.358-7.5-7.5S438.357,276.31,442.5,276.31z"/>
	<path style="fill:#FFCC75;" d="M353.71,122c-3.096-8.729-11.433-15-21.21-15h-295c-9.777,0-18.114,6.271-21.21,15H353.71z"/>
	<path style="fill:#082947;" d="M434.858,209.947L370,195.452V129.5c0-20.677-16.822-37.5-37.5-37.5h-295
		C16.822,92,0,108.823,0,129.5v206c0,4.142,3.357,7.5,7.5,7.5h33.176c3.554,19.868,20.949,35,41.824,35
		c23.435,0,42.5-19.065,42.5-42.5S105.935,293,82.5,293c-20.875,0-38.27,15.132-41.824,35H15V208.961h245V328H147.5
		c-4.143,0-7.5,3.358-7.5,7.5s3.357,7.5,7.5,7.5h208.176c3.554,19.868,20.949,35,41.824,35s38.27-15.132,41.824-35H462.5
		c4.143,0,7.5-3.358,7.5-7.5v-81.69C470,233.955,454.235,214.278,434.858,209.947z M442.5,291.31H455V328h-15.676
		c-3.554-19.868-20.949-35-41.824-35s-38.27,15.132-41.824,35H340V208.961h21.673l69.914,15.625
		c10.24,2.289,19.193,11.443,22.272,21.724H442.5c-4.143,0-7.5,3.358-7.5,7.5s3.357,7.5,7.5,7.5H455v15h-12.5
		c-4.143,0-7.5,3.358-7.5,7.5S438.357,291.31,442.5,291.31z M397.5,363c-15.163,0-27.5-12.336-27.5-27.5s12.337-27.5,27.5-27.5
		s27.5,12.336,27.5,27.5S412.663,363,397.5,363z M37.5,107h295c9.777,0,18.114,6.271,21.21,15H16.29
		C19.386,113.271,27.723,107,37.5,107z M355,137v56.961h-15V137H355z M15,137h50v34.461c0,4.142,3.357,7.5,7.5,7.5
		s7.5-3.358,7.5-7.5V137h50v34.461c0,4.142,3.357,7.5,7.5,7.5s7.5-3.358,7.5-7.5V137h50v34.461c0,4.142,3.357,7.5,7.5,7.5
		s7.5-3.358,7.5-7.5V137h50v56.961H15V137z M275,137h50v56.961h-50V137z M325,208.961V328h-50V208.961H325z M82.5,363
		C67.337,363,55,350.664,55,335.5S67.337,308,82.5,308s27.5,12.336,27.5,27.5S97.663,363,82.5,363z"/>
	<path style="fill:#082947;" d="M245,231.461c0-4.142-3.357-7.5-7.5-7.5h-135c-4.143,0-7.5,3.358-7.5,7.5s3.357,7.5,7.5,7.5h135
		C241.643,238.961,245,235.603,245,231.461z"/>
	<path style="fill:#082947;" d="M72.5,223.961h-35c-4.143,0-7.5,3.358-7.5,7.5s3.357,7.5,7.5,7.5h35c4.143,0,7.5-3.358,7.5-7.5
		S76.643,223.961,72.5,223.961z"/>
</g>
<g>
</g>
<g>
</g>
<g>
</g>
<g>
</g>
<g>
</g>
<g>
</g>
<g>
</g>
<g>
</g>
<g>
</g>
<g>
</g>
<g>
</g>
<g>
</g>
<g>
</g>
<g>
</g>
<g>
</g>
</svg>
