<?xml version="1.0" encoding="iso-8859-1"?>
<!-- Generator: Adobe Illustrator 19.0.0, SVG Export Plug-In . SVG Version: 6.00 Build 0)  -->
<svg version="1.1" id="Capa_1" xmlns="http://www.w3.org/2000/svg" xmlns:xlink="http://www.w3.org/1999/xlink" x="0px" y="0px"
	 viewBox="0 0 470 470" style="enable-background:new 0 0 470 470;" xml:space="preserve">
<g>
	<path style="fill:#BD1515;" d="M172.019,332.5c0,16.576,5.604,31.859,15,44.086V15h-15V332.5z"/>
	<path style="fill:#6DA8D6;" d="M202.019,15v376.184c4.622,3.356,9.649,6.182,15,8.384v-49.588c0-4.143,3.358-7.5,7.5-7.5
		c0.001,0,0.001-15,0.001-15c-4.143,0-7.501-3.357-7.501-7.5V15H202.019z"/>
	<path style="fill:#98D9D5;" d="M232.019,349.979v53.92c4.064,0.709,8.236,1.101,12.5,1.101c39.977,0,72.5-32.523,72.5-72.5V15h-85
		v304.979c0,4.143-3.357,7.499-7.499,7.5v15C228.662,342.48,232.019,345.837,232.019,349.979z M272.768,182.257
		c4.139-0.238,7.697,2.877,7.959,7.011c0.03,0.472,0.01,0.935-0.045,1.388c1.173,0.38,2.304,0.856,3.371,1.437
		c4.469,2.428,7.9,6.513,9.49,11.427c0.453-0.057,0.915-0.077,1.387-0.049c4.134,0.263,7.272,3.826,7.01,7.96
		c-0.915,14.438-12.959,25.748-27.42,25.748c-15.164,0-27.5-12.337-27.5-27.5C247.02,195.217,258.33,183.172,272.768,182.257z"/>
	<path style="fill:#F2484B;" d="M401.087,343.919c-68.581-74.65-72.342-188.669-8.821-267.576L390.243,15h-58.224v317.5
		c0,48.248-39.252,87.5-87.5,87.5c-7.398,0-14.583-0.927-21.448-2.663c-0.292-0.058-0.578-0.132-0.857-0.223
		c-11.779-3.107-22.594-8.613-31.887-15.965c-0.322-0.218-0.62-0.465-0.904-0.729c-19.756-16.057-32.403-40.538-32.403-67.921V15
		H79.757l-2.022,61.343c63.521,78.907,59.76,192.926-8.821,267.576L65.251,455h339.497L401.087,343.919z"/>
	<path style="fill:#082947;" d="M415.986,340.616c-0.061-1.829-0.787-3.572-2.043-4.902c-65.915-69.793-69.489-178.14-8.312-252.023
		c1.168-1.411,1.779-3.2,1.719-5.03l-2.354-71.407C404.863,3.209,401.546,0,397.5,0h-325c-4.046,0-7.363,3.209-7.496,7.253
		L62.65,78.66c-0.06,1.83,0.551,3.619,1.719,5.03c61.177,73.884,57.603,182.23-8.312,252.023c-1.256,1.33-1.983,3.073-2.043,4.902
		l-4.01,121.637c-0.067,2.031,0.693,4.002,2.106,5.462c1.413,1.461,3.358,2.285,5.39,2.285h355c2.032,0,3.977-0.824,5.39-2.285
		c1.413-1.46,2.173-3.431,2.106-5.462L415.986,340.616z M68.913,343.919c68.581-74.65,72.342-188.669,8.821-267.576L79.757,15
		h77.262v317.5c0,27.383,12.647,51.864,32.403,67.921c0.284,0.264,0.582,0.511,0.904,0.729c9.293,7.352,20.108,12.857,31.887,15.965
		c0.279,0.091,0.565,0.165,0.857,0.223c6.866,1.736,14.051,2.663,21.448,2.663c48.248,0,87.5-39.252,87.5-87.5V15h58.224
		l2.022,61.343c-63.521,78.907-59.76,192.926,8.821,267.576L404.749,455H65.251L68.913,343.919z M224.519,327.479
		c4.143-0.001,7.5-3.357,7.5-7.5V15h85v317.5c0,39.977-32.523,72.5-72.5,72.5c-4.264,0-8.436-0.392-12.5-1.101v-53.92
		c0-4.143-3.357-7.499-7.499-7.5c-4.143,0-7.501,3.357-7.501,7.5v49.588c-5.351-2.202-10.378-5.027-15-8.384V15h15v304.979
		C217.019,324.122,220.377,327.479,224.519,327.479z M187.019,376.586c-9.396-12.227-15-27.51-15-44.086V15h15V376.586z"/>
	<path style="fill:#6DA8D6;" d="M273.716,197.228c-6.559,0.415-11.697,5.885-11.697,12.45c0,6.893,5.608,12.5,12.5,12.5
		c6.565,0,12.034-5.138,12.45-11.697c0.232-3.663,3.054-6.528,6.573-6.962c-1.59-4.914-5.021-8.999-9.49-11.427
		c-1.067-0.58-2.197-1.057-3.371-1.437C280.254,194.171,277.378,196.995,273.716,197.228z"/>
	<path style="fill:#082947;" d="M274.52,237.178c14.46,0,26.505-11.31,27.42-25.748c0.262-4.134-2.876-7.697-7.01-7.96
		c-0.472-0.028-0.934-0.008-1.387,0.049c-3.519,0.434-6.341,3.299-6.573,6.962c-0.416,6.56-5.885,11.697-12.45,11.697
		c-6.893,0-12.5-5.607-12.5-12.5c0-6.565,5.138-12.035,11.697-12.45c3.662-0.232,6.538-3.057,6.965-6.572
		c0.055-0.453,0.075-0.916,0.045-1.388c-0.262-4.134-3.82-7.249-7.959-7.011c-14.438,0.915-25.748,12.96-25.749,27.421
		C247.019,224.841,259.356,237.178,274.52,237.178z"/>
</g>
<g>
</g>
<g>
</g>
<g>
</g>
<g>
</g>
<g>
</g>
<g>
</g>
<g>
</g>
<g>
</g>
<g>
</g>
<g>
</g>
<g>
</g>
<g>
</g>
<g>
</g>
<g>
</g>
<g>
</g>
</svg>
