<?xml version="1.0" encoding="iso-8859-1"?>
<!-- Generator: Adobe Illustrator 19.0.0, SVG Export Plug-In . SVG Version: 6.00 Build 0)  -->
<svg version="1.1" id="Capa_1" xmlns="http://www.w3.org/2000/svg" xmlns:xlink="http://www.w3.org/1999/xlink" x="0px" y="0px"
	 viewBox="0 0 468.74 468.74" style="enable-background:new 0 0 468.74 468.74;" xml:space="preserve">
<g>
	<path style="fill:#F2EBD9;" d="M196.87,424.495h75v-34.404c0-4.142,3.357-7.5,7.5-7.5v-15h-82.5V424.495z"/>
	<path style="fill:#FFFFFF;" d="M44.37,44.245v243.14h380V44.245H263.104c-9.057,0-17.463,4.514-22.486,12.074
		c-1.391,2.092-3.735,3.349-6.247,3.349s-4.856-1.257-6.246-3.349c-5.025-7.561-13.431-12.075-22.486-12.075H44.37z
		 M134.982,262.385H77.5c-4.143,0-7.5-3.358-7.5-7.5s3.357-7.5,7.5-7.5h57.482c4.143,0,7.5,3.358,7.5,7.5
		S139.125,262.385,134.982,262.385z M192.465,226.757H77.5c-4.143,0-7.5-3.358-7.5-7.5s3.357-7.5,7.5-7.5h114.965
		c4.143,0,7.5,3.358,7.5,7.5S196.607,226.757,192.465,226.757z M192.465,191.129H77.5c-4.143,0-7.5-3.358-7.5-7.5s3.357-7.5,7.5-7.5
		h114.965c4.143,0,7.5,3.358,7.5,7.5S196.607,191.129,192.465,191.129z M70,148.001c0-4.142,3.357-7.5,7.5-7.5h57.482
		c4.143,0,7.5,3.358,7.5,7.5s-3.357,7.5-7.5,7.5H77.5C73.357,155.501,70,152.143,70,148.001z M192.465,119.873H77.5
		c-4.143,0-7.5-3.358-7.5-7.5s3.357-7.5,7.5-7.5h114.965c4.143,0,7.5,3.358,7.5,7.5S196.607,119.873,192.465,119.873z
		 M192.465,84.245H77.5c-4.143,0-7.5-3.358-7.5-7.5s3.357-7.5,7.5-7.5h114.965c4.143,0,7.5,3.358,7.5,7.5
		S196.607,84.245,192.465,84.245z M276.275,69.245h114.964c4.143,0,7.5,3.358,7.5,7.5s-3.357,7.5-7.5,7.5H276.275
		c-4.143,0-7.5-3.358-7.5-7.5S272.133,69.245,276.275,69.245z M276.275,104.873h114.964c4.143,0,7.5,3.358,7.5,7.5
		s-3.357,7.5-7.5,7.5H276.275c-4.143,0-7.5-3.358-7.5-7.5S272.133,104.873,276.275,104.873z M276.275,140.501h57.481
		c4.143,0,7.5,3.358,7.5,7.5s-3.357,7.5-7.5,7.5h-57.481c-4.143,0-7.5-3.358-7.5-7.5S272.133,140.501,276.275,140.501z
		 M276.275,176.129h114.964c4.143,0,7.5,3.358,7.5,7.5s-3.357,7.5-7.5,7.5H276.275c-4.143,0-7.5-3.358-7.5-7.5
		S272.133,176.129,276.275,176.129z M276.275,211.757h114.964c4.143,0,7.5,3.358,7.5,7.5s-3.357,7.5-7.5,7.5H276.275
		c-4.143,0-7.5-3.358-7.5-7.5S272.133,211.757,276.275,211.757z M276.275,247.385h57.481c4.143,0,7.5,3.358,7.5,7.5
		s-3.357,7.5-7.5,7.5h-57.481c-4.143,0-7.5-3.358-7.5-7.5S272.133,247.385,276.275,247.385z M226.87,82.168
		c0-4.142,3.357-7.5,7.5-7.5s7.5,3.358,7.5,7.5v182.716c0,4.142-3.357,7.5-7.5,7.5s-7.5-3.358-7.5-7.5V82.168z"/>
	<rect x="15" y="74.245" style="fill:#F2EBD9;" width="14.37" height="213.14"/>
	<rect x="439.37" y="74.245" style="fill:#F2EBD9;" width="14.37" height="213.14"/>
	<path style="fill:#98D9D5;" d="M453.74,302.385H15v27.707c0,12.407,10.094,22.5,22.5,22.5h393.74c12.406,0,22.5-10.093,22.5-22.5
		V302.385z"/>
	<path style="fill:#082947;" d="M461.24,59.245h-21.87v-22.5c0-4.142-3.357-7.5-7.5-7.5H263.104
		c-10.817,0-21.035,4.134-28.733,11.373c-7.698-7.238-17.917-11.373-28.732-11.373H36.87c-4.143,0-7.5,3.358-7.5,7.5v22.5H7.5
		c-4.143,0-7.5,3.358-7.5,7.5v263.346c0,20.678,16.822,37.5,37.5,37.5h144.37v56.904h-32.5c-4.143,0-7.5,3.358-7.5,7.5
		s3.357,7.5,7.5,7.5h170c4.143,0,7.5-3.358,7.5-7.5s-3.357-7.5-7.5-7.5h-32.5v-34.404c0-4.142-3.357-7.5-7.5-7.5s-7.5,3.358-7.5,7.5
		v34.404h-75v-56.904h234.37c20.678,0,37.5-16.822,37.5-37.5V66.745C468.74,62.603,465.383,59.245,461.24,59.245z M431.24,352.591
		H37.5c-12.406,0-22.5-10.093-22.5-22.5v-27.707h438.74v27.707C453.74,342.498,443.646,352.591,431.24,352.591z M228.124,56.32
		c1.39,2.092,3.734,3.349,6.246,3.349s4.856-1.257,6.247-3.349c5.023-7.561,13.43-12.074,22.486-12.074H424.37v243.14h-380V44.245
		h161.268C214.693,44.245,223.099,48.759,228.124,56.32z M453.74,287.385h-14.37V74.245h14.37V287.385z M29.37,287.385H15V74.245
		h14.37V287.385z"/>
	<path style="fill:#082947;" d="M234.37,272.385c4.143,0,7.5-3.358,7.5-7.5V82.168c0-4.142-3.357-7.5-7.5-7.5s-7.5,3.358-7.5,7.5
		v182.716C226.87,269.027,230.228,272.385,234.37,272.385z"/>
	<path style="fill:#082947;" d="M192.465,69.245H77.5c-4.143,0-7.5,3.358-7.5,7.5s3.357,7.5,7.5,7.5h114.965
		c4.143,0,7.5-3.358,7.5-7.5S196.607,69.245,192.465,69.245z"/>
	<path style="fill:#082947;" d="M192.465,104.873H77.5c-4.143,0-7.5,3.358-7.5,7.5s3.357,7.5,7.5,7.5h114.965
		c4.143,0,7.5-3.358,7.5-7.5S196.607,104.873,192.465,104.873z"/>
	<path style="fill:#082947;" d="M77.5,155.501h57.482c4.143,0,7.5-3.358,7.5-7.5s-3.357-7.5-7.5-7.5H77.5
		c-4.143,0-7.5,3.358-7.5,7.5S73.357,155.501,77.5,155.501z"/>
	<path style="fill:#082947;" d="M192.465,176.129H77.5c-4.143,0-7.5,3.358-7.5,7.5s3.357,7.5,7.5,7.5h114.965
		c4.143,0,7.5-3.358,7.5-7.5S196.607,176.129,192.465,176.129z"/>
	<path style="fill:#082947;" d="M192.465,211.757H77.5c-4.143,0-7.5,3.358-7.5,7.5s3.357,7.5,7.5,7.5h114.965
		c4.143,0,7.5-3.358,7.5-7.5S196.607,211.757,192.465,211.757z"/>
	<path style="fill:#082947;" d="M134.982,247.385H77.5c-4.143,0-7.5,3.358-7.5,7.5s3.357,7.5,7.5,7.5h57.482
		c4.143,0,7.5-3.358,7.5-7.5S139.125,247.385,134.982,247.385z"/>
	<path style="fill:#082947;" d="M276.275,84.245h114.964c4.143,0,7.5-3.358,7.5-7.5s-3.357-7.5-7.5-7.5H276.275
		c-4.143,0-7.5,3.358-7.5,7.5S272.133,84.245,276.275,84.245z"/>
	<path style="fill:#082947;" d="M276.275,119.873h114.964c4.143,0,7.5-3.358,7.5-7.5s-3.357-7.5-7.5-7.5H276.275
		c-4.143,0-7.5,3.358-7.5,7.5S272.133,119.873,276.275,119.873z"/>
	<path style="fill:#082947;" d="M276.275,155.501h57.481c4.143,0,7.5-3.358,7.5-7.5s-3.357-7.5-7.5-7.5h-57.481
		c-4.143,0-7.5,3.358-7.5,7.5S272.133,155.501,276.275,155.501z"/>
	<path style="fill:#082947;" d="M276.275,191.129h114.964c4.143,0,7.5-3.358,7.5-7.5s-3.357-7.5-7.5-7.5H276.275
		c-4.143,0-7.5,3.358-7.5,7.5S272.133,191.129,276.275,191.129z"/>
	<path style="fill:#082947;" d="M276.275,226.757h114.964c4.143,0,7.5-3.358,7.5-7.5s-3.357-7.5-7.5-7.5H276.275
		c-4.143,0-7.5,3.358-7.5,7.5S272.133,226.757,276.275,226.757z"/>
	<path style="fill:#082947;" d="M276.275,262.385h57.481c4.143,0,7.5-3.358,7.5-7.5s-3.357-7.5-7.5-7.5h-57.481
		c-4.143,0-7.5,3.358-7.5,7.5S272.133,262.385,276.275,262.385z"/>
</g>
<g>
</g>
<g>
</g>
<g>
</g>
<g>
</g>
<g>
</g>
<g>
</g>
<g>
</g>
<g>
</g>
<g>
</g>
<g>
</g>
<g>
</g>
<g>
</g>
<g>
</g>
<g>
</g>
<g>
</g>
</svg>
