<?xml version="1.0" encoding="iso-8859-1"?>
<!-- Generator: Adobe Illustrator 19.0.0, SVG Export Plug-In . SVG Version: 6.00 Build 0)  -->
<svg version="1.1" id="Capa_1" xmlns="http://www.w3.org/2000/svg" xmlns:xlink="http://www.w3.org/1999/xlink" x="0px" y="0px"
	 viewBox="0 0 470 470" style="enable-background:new 0 0 470 470;" xml:space="preserve">
<g>
	<path style="fill:#6DA8D6;" d="M39.395,418.043c1.414-1.913,3.652-3.043,6.031-3.043s4.617,1.128,6.032,3.041
		c7.488,10.129,19.4,16.176,31.864,16.176c12.512,0,24.449-6.046,31.932-16.174c1.414-1.914,3.653-3.043,6.032-3.043
		c2.389,0.002,4.628,1.136,6.04,3.054c7.45,10.121,19.358,16.163,31.854,16.163c12.642,0,24.271-5.899,31.904-16.187
		c1.415-1.906,3.649-3.03,6.023-3.03c2.394,0.005,4.629,1.138,6.04,3.054c7.45,10.121,19.358,16.163,31.855,16.163
		c12.488,0,24.412-6.047,31.896-16.174c1.414-1.914,3.652-3.043,6.031-3.043c2.379,0,4.617,1.129,6.032,3.042
		c7.599,10.279,19.212,16.175,31.863,16.175c12.488,0,24.412-6.047,31.896-16.174c1.414-1.914,3.652-3.043,6.032-3.043
		s4.618,1.129,6.032,3.043c7.484,10.128,19.407,16.174,31.896,16.174c12.496,0,24.404-6.042,31.854-16.163
		c1.412-1.918,3.651-3.052,6.033-3.054c2.386,0,4.625,1.129,6.039,3.043c7.596,10.278,19.221,16.174,31.896,16.174V385
		c-14.165,0-27.795-5.628-37.919-15.378C414.479,379.373,400.856,385,386.679,385c-14.17,0-27.804-5.631-37.928-15.386
		C338.626,379.369,324.993,385,310.824,385c-14.387,0-27.792-5.511-37.915-15.366c-5.716,5.502-12.549,9.688-19.964,12.292
		c-0.371,0.159-0.761,0.281-1.16,0.379c-5.375,1.754-11.032,2.696-16.782,2.696c-5.76,0-11.423-0.943-16.801-2.7
		c-0.391-0.097-0.772-0.216-1.136-0.371c-7.417-2.603-14.247-6.791-19.954-12.295C186.967,379.489,173.556,385,159.18,385
		c-14.178,0-27.801-5.628-37.903-15.379c-5.732,5.52-12.591,9.714-20.036,12.319c-0.348,0.147-0.713,0.26-1.086,0.354
		C94.766,384.055,89.091,385,83.322,385c-5.76,0-11.427-0.948-16.812-2.712c-0.386-0.096-0.763-0.214-1.123-0.367
		c-7.412-2.607-14.244-6.798-19.96-12.307C35.304,379.369,21.67,385,7.5,385v49.217C20.175,434.217,31.8,428.321,39.395,418.043z"/>
	<path style="fill:#98D9D5;" d="M209.533,52.786c-14.606-11.123-32.025-17.003-50.373-17.003c-45.953,0-83.338,37.385-83.338,83.338
		v81.662h15v-81.662c0-37.682,30.656-68.338,68.338-68.338c16.457,0,32.375,5.971,44.821,16.812c3.124,2.72,3.45,7.458,0.73,10.581
		c-0.099,0.114-0.206,0.216-0.31,0.322c4.546,5.057,8.257,10.876,10.918,17.241c2.941-12.013,8.092-23.166,15.001-33.002
		c-3.176-4-6.684-7.722-10.477-11.135C217.289,54.681,212.742,55.232,209.533,52.786z"/>
	<rect x="75.822" y="245.783" style="fill:#98D9D5;" width="15" height="30"/>
	<path style="fill:#98D9D5;" d="M90.822,369.259v-48.476h-15v48.471c2.456,0.483,4.965,0.746,7.5,0.746
		C85.857,370,88.366,369.74,90.822,369.259z"/>
	<rect x="75.822" y="215.783" style="fill:#C1E8E6;" width="136.68" height="15"/>
	<rect x="75.822" y="290.783" style="fill:#C1E8E6;" width="136.68" height="15"/>
	<path style="fill:#C1E8E6;" d="M227.502,369.257c2.455,0.481,4.964,0.743,7.5,0.743c2.535,0,5.044-0.262,7.5-0.743V119.121
		c0-37.682,30.656-68.338,68.338-68.338c37.682,0,68.338,30.656,68.338,68.338c0,4.136,3.364,7.5,7.5,7.5c4.135,0,7.5-3.364,7.5-7.5
		c0-45.953-37.385-83.338-83.338-83.338c-45.953,0-83.338,37.385-83.338,83.338V369.257z"/>
	<path style="fill:#082947;" d="M462.5,434.217c-12.674,0-24.3-5.896-31.896-16.174c-1.414-1.914-3.652-3.043-6.032-3.043
		c-2.389,0.002-4.628,1.136-6.04,3.054c-7.45,10.121-19.358,16.163-31.854,16.163c-12.489,0-24.412-6.046-31.896-16.174
		c-1.414-1.914-3.652-3.043-6.032-3.043s-4.618,1.129-6.032,3.043c-7.484,10.127-19.408,16.174-31.896,16.174
		c-12.65,0-24.264-5.896-31.863-16.175c-1.415-1.913-3.653-3.042-6.032-3.042c-2.379,0-4.617,1.129-6.031,3.043
		c-7.484,10.127-19.408,16.174-31.896,16.174c-12.497,0-24.405-6.042-31.855-16.163c-1.411-1.916-3.646-3.049-6.025-3.054
		c-2.389,0-4.623,1.124-6.038,3.03c-7.633,10.287-19.262,16.187-31.904,16.187c-12.496,0-24.405-6.042-31.854-16.163
		c-1.412-1.918-3.651-3.052-6.033-3.054c-2.386,0-4.625,1.129-6.039,3.043c-7.483,10.128-19.42,16.174-31.932,16.174
		c-12.464,0-24.375-6.047-31.864-16.176c-1.415-1.913-3.652-3.041-6.032-3.041s-4.617,1.13-6.031,3.043
		C31.8,428.321,20.175,434.217,7.5,434.217c-4.142,0-7.5,3.357-7.5,7.5s3.358,7.5,7.5,7.5c14.17,0,27.804-5.631,37.928-15.386
		c10.123,9.756,23.744,15.386,37.894,15.386c14.186,0,27.828-5.627,37.955-15.379c10.102,9.751,23.725,15.379,37.903,15.379
		c14.375,0,27.787-5.511,37.932-15.366c10.101,9.743,23.719,15.366,37.891,15.366c14.16,0,27.784-5.622,37.906-15.366
		c10.123,9.855,23.528,15.366,37.915,15.366c14.169,0,27.803-5.631,37.927-15.386c10.124,9.755,23.757,15.386,37.928,15.386
		c14.178,0,27.8-5.627,37.902-15.378c10.124,9.75,23.754,15.378,37.919,15.378c4.142,0,7.5-3.357,7.5-7.5
		S466.642,434.217,462.5,434.217z"/>
	<path style="fill:#082947;" d="M65.387,381.921c0.36,0.153,0.737,0.271,1.123,0.367C71.894,384.052,77.562,385,83.322,385
		c5.769,0,11.444-0.945,16.833-2.706c0.373-0.094,0.738-0.207,1.086-0.354c7.445-2.604,14.304-6.799,20.036-12.319
		C131.379,379.372,145.002,385,159.18,385c14.375,0,27.787-5.511,37.932-15.366c5.706,5.504,12.536,9.692,19.954,12.295
		c0.364,0.155,0.745,0.274,1.136,0.371c5.378,1.757,11.041,2.7,16.801,2.7c5.75,0,11.407-0.942,16.782-2.696
		c0.399-0.098,0.789-0.22,1.16-0.379c7.415-2.604,14.248-6.789,19.964-12.292C283.032,379.489,296.437,385,310.824,385
		c14.169,0,27.803-5.631,37.927-15.386C358.875,379.369,372.508,385,386.679,385c14.178,0,27.8-5.627,37.902-15.378
		C434.705,379.372,448.335,385,462.5,385c4.142,0,7.5-3.357,7.5-7.5s-3.358-7.5-7.5-7.5c-12.674,0-24.3-5.896-31.896-16.174
		c-1.414-1.914-3.652-3.043-6.032-3.043c-2.389,0.002-4.628,1.136-6.04,3.054C411.083,363.958,399.175,370,386.679,370
		c-12.489,0-24.412-6.046-31.896-16.174c-1.414-1.914-3.652-3.043-6.032-3.043s-4.618,1.129-6.032,3.043
		C335.235,363.953,323.312,370,310.824,370c-12.65,0-24.264-5.896-31.863-16.175c-1.415-1.913-3.653-3.042-6.032-3.042
		c-2.379,0-4.617,1.129-6.031,3.043c-2.635,3.566-5.829,6.613-9.396,9.081V119.121c0-29.41,23.927-53.338,53.338-53.338
		s53.338,23.928,53.338,53.338c0,12.406,10.093,22.5,22.5,22.5s22.5-10.094,22.5-22.5c0-54.224-44.114-98.338-98.338-98.338
		c-33.262,0-62.716,16.603-80.521,41.954c-6.909,9.836-12.06,20.99-15.001,33.002c-1.836,7.498-2.816,15.327-2.816,23.382v81.662
		h-106.68v-81.662c0-29.41,23.927-53.338,53.338-53.338c12.835,0,25.254,4.66,34.97,13.122c3.009,2.624,7.513,2.407,10.271-0.407
		c0.104-0.106,0.211-0.208,0.31-0.322c2.72-3.123,2.394-7.861-0.73-10.581c-12.447-10.841-28.365-16.812-44.821-16.812
		c-37.682,0-68.338,30.656-68.338,68.338v81.662h-15v-81.662c0-45.953,37.385-83.338,83.338-83.338
		c18.348,0,35.767,5.88,50.373,17.003c3.21,2.446,7.756,1.895,10.309-1.185c0.067-0.08,0.138-0.154,0.201-0.238
		c2.509-3.295,1.873-8.001-1.423-10.511c-17.24-13.13-37.802-20.069-59.461-20.069c-54.224,0-98.338,44.114-98.338,98.338v243.764
		c-3.552-2.465-6.735-5.504-9.364-9.061c-1.415-1.913-3.652-3.041-6.032-3.041s-4.617,1.13-6.031,3.043
		C31.8,364.104,20.175,370,7.5,370c-4.142,0-7.5,3.357-7.5,7.5s3.358,7.5,7.5,7.5c14.17,0,27.804-5.631,37.928-15.386
		C51.144,375.123,57.975,379.314,65.387,381.921z M212.502,215.783v15H75.822v-15H212.502z M310.84,35.783
		c45.953,0,83.338,37.385,83.338,83.338c0,4.136-3.365,7.5-7.5,7.5c-4.136,0-7.5-3.364-7.5-7.5
		c0-37.682-30.656-68.338-68.338-68.338c-37.682,0-68.338,30.656-68.338,68.338v250.136c-2.456,0.481-4.965,0.743-7.5,0.743
		c-2.536,0-5.045-0.261-7.5-0.743V119.121C227.502,73.168,264.887,35.783,310.84,35.783z M197.107,350.783
		c-2.374,0-4.608,1.124-6.023,3.03C183.451,364.101,171.822,370,159.18,370c-12.496,0-24.405-6.042-31.854-16.163
		c-1.412-1.918-3.651-3.052-6.033-3.054c-2.386,0-4.625,1.129-6.039,3.043c-2.643,3.577-5.849,6.632-9.432,9.104v-42.146h106.68
		v42.12c-3.555-2.465-6.735-5.507-9.354-9.066C201.737,351.921,199.501,350.788,197.107,350.783z M212.502,275.783h-106.68v-30
		h106.68V275.783z M90.822,245.783v30h-15v-30H90.822z M212.502,290.783v15H75.822v-15H212.502z M75.822,320.783h15v48.476
		c-2.456,0.48-4.965,0.741-7.5,0.741c-2.535,0-5.044-0.263-7.5-0.746V320.783z"/>
</g>
<g>
</g>
<g>
</g>
<g>
</g>
<g>
</g>
<g>
</g>
<g>
</g>
<g>
</g>
<g>
</g>
<g>
</g>
<g>
</g>
<g>
</g>
<g>
</g>
<g>
</g>
<g>
</g>
<g>
</g>
</svg>
