<?xml version="1.0" encoding="iso-8859-1"?>
<!-- Generator: Adobe Illustrator 19.0.0, SVG Export Plug-In . SVG Version: 6.00 Build 0)  -->
<svg version="1.1" id="Capa_1" xmlns="http://www.w3.org/2000/svg" xmlns:xlink="http://www.w3.org/1999/xlink" x="0px" y="0px"
	 viewBox="0 0 470 470" style="enable-background:new 0 0 470 470;" xml:space="preserve">
<g>
	<path style="fill:#6DA8D6;" d="M430.273,109.083l-42.989-8.129l-27.674,17.641v136.685c0,68.71-55.9,124.61-124.61,124.61
		c-68.71,0-124.61-55.9-124.61-124.61V118.596l-27.675-17.642l-43.009,8.133c-10.868,2.087-20.066,13.22-20.066,24.307v302.455
		c0,10.56,8.591,19.151,19.151,19.151h392.418c10.561,0,19.151-8.591,19.151-19.151V133.394
		C450.36,122.307,441.161,111.174,430.273,109.083z M370,398.97c-4.142,0-7.5-3.358-7.5-7.5c0-4.142,3.358-7.5,7.5-7.5
		s7.5,3.358,7.5,7.5C377.5,395.612,374.142,398.97,370,398.97z M400,368.97c-4.142,0-7.5-3.358-7.5-7.5c0-4.142,3.358-7.5,7.5-7.5
		s7.5,3.358,7.5,7.5C407.5,365.612,404.142,368.97,400,368.97z"/>
	<path style="fill:#F2EBD9;" d="M186.853,353.733l2.467-16.212c-4.097-0.623-6.912-4.448-6.289-8.543l22.833-150.068l-17.545-43.163
		l-10.712,16.804c-2.226,3.492-6.863,4.52-10.356,2.292l-41.862-26.686v127.123C125.39,298.456,150.485,335.876,186.853,353.733z"/>
	<path style="fill:#FFFFFF;" d="M91.741,37.5v51.419l77.25,49.244l30.701-48.16l-72.425-46.177
		c-3.493-2.227-4.519-6.863-2.292-10.356c2.227-3.492,6.863-4.518,10.356-2.292l76.904,49.033h45.529l76.91-49.036
		c3.493-2.228,8.129-1.202,10.356,2.292c2.227,3.493,1.2,8.129-2.292,10.356l-72.431,46.18l30.701,48.16l77.25-49.244V37.5
		c0-12.407-10.094-22.5-22.5-22.5H114.241C101.834,15,91.741,25.093,91.741,37.5z"/>
	<path style="fill:#F2EBD9;" d="M344.61,255.281V128.157l-41.863,26.686c-1.249,0.796-2.645,1.177-4.024,1.177
		c-2.477,0-4.901-1.226-6.331-3.469l-10.711-16.803l-17.544,43.162l22.834,150.068c0.623,4.095-2.191,7.92-6.287,8.543
		c-0.002,0,2.464,16.212,2.464,16.212C319.515,335.876,344.61,298.456,344.61,255.281z"/>
	<path style="fill:#F2484B;" d="M235,364.891c17.264,0,33.605-4.017,48.147-11.158l-2.467-16.212
		c-0.381,0.058-0.76,0.086-1.134,0.086c-3.645,0-6.841-2.66-7.406-6.373l-22.175-145.737h-29.93L197.86,331.235
		c-0.565,3.712-3.762,6.373-7.405,6.373c-0.375,0-0.754-0.028-1.135-0.086l-2.467,16.212
		C201.395,360.874,217.736,364.891,235,364.891z"/>
	<polygon style="fill:#F2484B;" points="218.637,170.498 251.363,170.498 271.792,120.238 255.839,95.212 214.161,95.212 
		198.207,120.237 	"/>
	<path style="fill:#082947;" d="M433.081,94.348l-39.822-7.53V37.5c0-20.678-16.822-37.5-37.5-37.5H114.241
		c-20.678,0-37.5,16.822-37.5,37.5v49.318l-39.843,7.535C19.111,97.768,4.64,115.282,4.64,133.394v302.455
		C4.64,454.68,19.959,470,38.791,470h392.418c18.831,0,34.151-15.32,34.151-34.151V133.394
		C465.36,115.282,450.89,97.768,433.081,94.348z M450.36,435.849c0,10.56-8.591,19.151-19.151,19.151H38.791
		c-10.56,0-19.151-8.591-19.151-19.151V133.394c0-11.087,9.199-22.22,20.066-24.307l43.009-8.133l27.675,17.642v136.685
		c0,68.71,55.9,124.61,124.61,124.61c68.71,0,124.61-55.9,124.61-124.61V118.595l27.674-17.641l42.989,8.129
		c10.888,2.091,20.087,13.224,20.087,24.311V435.849z M355.759,15c12.406,0,22.5,10.093,22.5,22.5v51.419l-77.25,49.244
		l-30.701-48.16l72.431-46.18c3.492-2.227,4.519-6.864,2.292-10.356c-2.228-3.493-6.863-4.519-10.356-2.292l-76.91,49.036h-45.529
		l-76.904-49.033c-3.494-2.226-8.129-1.2-10.356,2.292c-2.227,3.493-1.201,8.129,2.292,10.356l72.425,46.177l-30.701,48.16
		l-77.25-49.244V37.5c0-12.407,10.093-22.5,22.5-22.5H355.759z M125.39,128.158l41.862,26.686c3.493,2.227,8.13,1.2,10.356-2.292
		l10.712-16.804l17.545,43.163l-22.833,150.068c-0.623,4.095,2.191,7.92,6.287,8.543c0.384,0.058,0.762,0.086,1.137,0.086
		c3.644,0,6.84-2.66,7.405-6.373l22.175-145.737h29.93l22.175,145.737c0.565,3.712,3.762,6.373,7.406,6.373
		c0.374,0,0.753-0.028,1.134-0.086c4.098-0.623,6.913-4.448,6.29-8.543L264.136,178.91l17.544-43.162l10.711,16.803
		c1.43,2.243,3.854,3.469,6.331,3.469c1.38,0,2.775-0.38,4.024-1.177l41.863-26.686v127.123c0,43.176-25.096,80.595-61.464,98.453
		c-14.542,7.14-30.883,11.158-48.147,11.158s-33.605-4.017-48.147-11.158c-36.368-17.857-61.464-55.277-61.464-98.453V128.158z
		 M255.839,95.212l15.954,25.026l-20.43,50.26h-32.726l-20.43-50.261l15.953-25.026H255.839z"/>
	<circle style="fill:#082947;" cx="400" cy="361.47" r="7.5"/>
	<circle style="fill:#082947;" cx="370" cy="391.47" r="7.5"/>
</g>
<g>
</g>
<g>
</g>
<g>
</g>
<g>
</g>
<g>
</g>
<g>
</g>
<g>
</g>
<g>
</g>
<g>
</g>
<g>
</g>
<g>
</g>
<g>
</g>
<g>
</g>
<g>
</g>
<g>
</g>
</svg>
