<?xml version="1.0" encoding="iso-8859-1"?>
<!-- Generator: Adobe Illustrator 19.0.0, SVG Export Plug-In . SVG Version: 6.00 Build 0)  -->
<svg version="1.1" id="Capa_1" xmlns="http://www.w3.org/2000/svg" xmlns:xlink="http://www.w3.org/1999/xlink" x="0px" y="0px"
	 viewBox="0 0 470 470" style="enable-background:new 0 0 470 470;" xml:space="preserve">
<g>
	<path style="fill:#C1E8E6;" d="M432.5,302.5v-15c-4.143,0-7.5-3.358-7.5-7.5V260.39c0-6.956-2.963-18.39-6.341-24.47l-40.572-73.03
		H91.913l-40.571,73.03C47.963,242,45,253.434,45,260.39V280c0,4.142-3.357,7.5-7.5,7.5v15H432.5z M277.5,252.89h-85
		c-4.143,0-7.5-3.358-7.5-7.5s3.357-7.5,7.5-7.5h85c4.143,0,7.5,3.358,7.5,7.5S281.643,252.89,277.5,252.89z M115.152,177.89
		h239.695c4.143,0,7.5,3.358,7.5,7.5s-3.357,7.5-7.5,7.5H115.152c-4.143,0-7.5-3.358-7.5-7.5S111.01,177.89,115.152,177.89z
		 M98.485,207.89h273.029c4.143,0,7.5,3.358,7.5,7.5s-3.357,7.5-7.5,7.5H98.485c-4.143,0-7.5-3.358-7.5-7.5
		S94.343,207.89,98.485,207.89z"/>
	<path style="fill:#185F8D;" d="M100,125.39v-22.5H87.5c-6.893,0-12.5,5.607-12.5,12.5v20c0,6.893,5.607,12.5,12.5,12.5h20v-15
		C103.357,132.89,100,129.532,100,125.39z"/>
	<path style="fill:#185F8D;" d="M395,135.39v-20c0-6.893-5.607-12.5-12.5-12.5H370v22.5c0,4.142-3.357,7.5-7.5,7.5v15h20
		C389.393,147.89,395,142.282,395,135.39z"/>
	<path style="fill:#FFFFFF;" d="M332.5,102.89c-4.143,0-7.5-3.358-7.5-7.5V17.5H145V95.39c0,4.142-3.357,7.5-7.5,7.5v15h195V102.89z
		"/>
	<rect x="145" y="132.89" style="fill:#FFFFFF;" width="180" height="15"/>
	<path style="fill:#082947;" d="M145,95.39V17.5h180V95.39c0,4.142,3.357,7.5,7.5,7.5s7.5-3.358,7.5-7.5V10
		c0-4.142-3.357-7.5-7.5-7.5h-195c-4.143,0-7.5,3.358-7.5,7.5V95.39c0,4.142,3.357,7.5,7.5,7.5S145,99.532,145,95.39z"/>
	<path style="fill:#082947;" d="M45,280V260.39c0-6.956,2.963-18.39,6.342-24.47l40.571-73.03h286.174l40.572,73.03
		C422.037,242,425,253.434,425,260.39V280c0,4.142,3.357,7.5,7.5,7.5s7.5-3.358,7.5-7.5V260.39c0-9.501-3.614-23.45-8.229-31.754
		l-37.898-68.218C403.375,156.082,410,146.498,410,135.39v-20c0-15.164-12.337-27.5-27.5-27.5h-20c-4.143,0-7.5,3.358-7.5,7.5
		c0,0.805,0.13,1.578,0.365,2.305C355.13,98.421,355,99.195,355,100v25.39c0,4.142,3.357,7.5,7.5,7.5s7.5-3.358,7.5-7.5v-22.5h12.5
		c6.893,0,12.5,5.607,12.5,12.5v20c0,6.893-5.607,12.5-12.5,12.5H340v-22.5c0-4.142-3.357-7.5-7.5-7.5h-195
		c-4.143,0-7.5,3.358-7.5,7.5v22.5H87.5c-6.893,0-12.5-5.607-12.5-12.5v-20c0-6.893,5.607-12.5,12.5-12.5H100v22.5
		c0,4.142,3.357,7.5,7.5,7.5s7.5-3.358,7.5-7.5v-30c0-4.142-3.357-7.5-7.5-7.5h-20c-15.163,0-27.5,12.336-27.5,27.5v20
		c0,11.108,6.625,20.692,16.127,25.028l-37.897,68.217C33.614,236.94,30,250.888,30,260.39V280c0,4.142,3.357,7.5,7.5,7.5
		S45,284.143,45,280z M325,132.89v15H145v-15H325z"/>
	<path style="fill:#082947;" d="M115.152,192.89h239.695c4.143,0,7.5-3.358,7.5-7.5s-3.357-7.5-7.5-7.5H115.152
		c-4.143,0-7.5,3.358-7.5,7.5S111.01,192.89,115.152,192.89z"/>
	<path style="fill:#082947;" d="M98.485,222.89h273.029c4.143,0,7.5-3.358,7.5-7.5s-3.357-7.5-7.5-7.5H98.485
		c-4.143,0-7.5,3.358-7.5,7.5S94.343,222.89,98.485,222.89z"/>
	<path style="fill:#082947;" d="M277.5,237.89h-85c-4.143,0-7.5,3.358-7.5,7.5s3.357,7.5,7.5,7.5h85c4.143,0,7.5-3.358,7.5-7.5
		S281.643,237.89,277.5,237.89z"/>
	<rect x="15" y="317.5" style="fill:#6DA8D6;" width="45" height="135"/>
	<rect x="75" y="317.5" style="fill:#FFCC75;" width="15" height="135"/>
	<path style="fill:#6DA8D6;" d="M305,340v-22.5H105v135h200V370c0-4.142,3.357-7.5,7.5-7.5v-15C308.357,347.5,305,344.143,305,340z
		 M263.466,399.545c-1.476,1.937-3.711,2.956-5.972,2.956c-1.584,0-3.182-0.5-4.539-1.535l-21.707-16.537l-21.707,16.537
		c-2.684,2.046-6.405,2.046-9.091,0l-21.703-16.537l-21.701,16.536c-3.298,2.51-8.001,1.874-10.512-1.419
		c-2.51-3.295-1.874-8.001,1.42-10.511l26.247-20c2.686-2.046,6.406-2.046,9.092,0l21.703,16.537l21.707-16.537
		c2.684-2.046,6.406-2.046,9.09,0l26.252,20C265.34,391.545,265.977,396.25,263.466,399.545z"/>
	<path style="fill:#FFCC75;" d="M320,317.5V340c0,4.142-3.357,7.5-7.5,7.5v15c4.143,0,7.5,3.358,7.5,7.5v82.5h15v-135H320z"/>
	<path style="fill:#6DA8D6;" d="M410,440c0,4.142-3.357,7.5-7.5,7.5s-7.5-3.358-7.5-7.5V330c0-4.142,3.357-7.5,7.5-7.5
		s7.5,3.358,7.5,7.5v2.5h45v-15H350v135h105v-15h-45V440z"/>
	<path style="fill:#082947;" d="M262.045,389.035l-26.252-20c-2.684-2.046-6.406-2.046-9.09,0l-21.707,16.537l-21.703-16.537
		c-2.686-2.046-6.406-2.045-9.092,0l-26.247,20c-3.294,2.51-3.93,7.216-1.42,10.511c2.511,3.293,7.214,3.93,10.512,1.419
		l21.701-16.536l21.703,16.537c2.686,2.046,6.407,2.046,9.091,0l21.707-16.537l21.707,16.537c1.357,1.035,2.955,1.535,4.539,1.535
		c2.261,0,4.496-1.019,5.972-2.956C265.977,396.25,265.34,391.545,262.045,389.035z"/>
	<path style="fill:#082947;" d="M462.5,347.5c4.143,0,7.5-3.358,7.5-7.5v-30c0-4.142-3.357-7.5-7.5-7.5H7.5
		c-4.143,0-7.5,3.358-7.5,7.5v150c0,4.142,3.357,7.5,7.5,7.5h455c4.143,0,7.5-3.358,7.5-7.5v-30c0-4.142-3.357-7.5-7.5-7.5H410v-15
		h52.5c4.143,0,7.5-3.358,7.5-7.5s-3.357-7.5-7.5-7.5H410v-15h52.5c4.143,0,7.5-3.358,7.5-7.5s-3.357-7.5-7.5-7.5H410v-15H462.5z
		 M320,452.5V370c0-4.142-3.357-7.5-7.5-7.5s-7.5,3.358-7.5,7.5v82.5H105v-135h200V340c0,4.142,3.357,7.5,7.5,7.5s7.5-3.358,7.5-7.5
		v-22.5h15v135H320z M75,452.5v-135h15v135H75z M15,317.5h45v135H15V317.5z M455,452.5H350v-135h105v15h-45V330
		c0-4.142-3.357-7.5-7.5-7.5s-7.5,3.358-7.5,7.5v110c0,4.142,3.357,7.5,7.5,7.5s7.5-3.358,7.5-7.5v-2.5h45V452.5z"/>
</g>
<g>
</g>
<g>
</g>
<g>
</g>
<g>
</g>
<g>
</g>
<g>
</g>
<g>
</g>
<g>
</g>
<g>
</g>
<g>
</g>
<g>
</g>
<g>
</g>
<g>
</g>
<g>
</g>
<g>
</g>
</svg>
