<?xml version="1.0" encoding="iso-8859-1"?>
<!-- Generator: Adobe Illustrator 19.0.0, SVG Export Plug-In . SVG Version: 6.00 Build 0)  -->
<svg version="1.1" id="Capa_1" xmlns="http://www.w3.org/2000/svg" xmlns:xlink="http://www.w3.org/1999/xlink" x="0px" y="0px"
	 viewBox="0 0 470 470" style="enable-background:new 0 0 470 470;" xml:space="preserve">
<g>
	<path style="fill:#F2EBD9;" d="M61.782,375h346.437V15H61.782V375z M76.782,37.5c0-4.142,3.358-7.5,7.5-7.5h301.437
		c4.142,0,7.5,3.358,7.5,7.5v315c0,4.142-3.358,7.5-7.5,7.5H84.282c-4.142,0-7.5-3.358-7.5-7.5V37.5z"/>
	<path style="fill:#98D9D5;" d="M119.492,328.449c-0.053-0.041-0.109-0.075-0.161-0.118c-3.22-2.605-3.719-7.327-1.114-10.548
		C146.892,282.332,189.458,262,235,262s88.108,20.332,116.784,55.783c2.605,3.221,2.106,7.943-1.114,10.548
		c-0.053,0.043-0.113,0.072-0.168,0.113c3.818,5.26,7.284,10.789,10.367,16.556h17.349V45H91.782v300h17.348
		C112.211,339.235,115.676,333.707,119.492,328.449z M235,70c48.799,0,88.5,39.701,88.5,88.5S283.799,247,235,247
		s-88.5-39.701-88.5-88.5S186.201,70,235,70z"/>
	<path style="fill:#6DA8D6;" d="M190.864,329.898c-0.417,0.069-0.833,0.103-1.243,0.103c-3.6,0-6.777-2.599-7.389-6.267
		c-0.485-2.91-0.731-5.892-0.731-8.864v-26.874c-19.849,8.55-37.586,21.868-51.622,39.22c-2.563,3.168-7.172,3.695-10.386,1.232
		c-3.816,5.258-7.28,10.786-10.362,16.551h91.126c-3.838-4.42-6.836-9.581-8.771-15.238
		C191.28,329.814,191.075,329.863,190.864,329.898z"/>
	<path style="fill:#6DA8D6;" d="M345.958,330c-2.186,0-4.354-0.952-5.835-2.784c-14.036-17.353-31.773-30.669-51.622-39.22v26.874
		c0,2.97-0.247,5.952-0.732,8.864c-0.612,3.668-3.79,6.267-7.389,6.267c-0.41,0-0.825-0.034-1.243-0.103
		c-0.211-0.035-0.417-0.084-0.62-0.136c-1.936,5.657-4.934,10.818-8.771,15.238h91.125c-3.083-5.767-6.549-11.296-10.367-16.556
		C349.147,329.481,347.55,330,345.958,330z"/>
	<path style="fill:#FFFFFF;" d="M272.973,321.266c0.35-2.098,0.528-4.25,0.528-6.395v-32.304c-9.994-2.958-20.384-4.779-31-5.36
		v2.293c0,4.142-3.358,7.5-7.5,7.5s-7.5-3.358-7.5-7.5v-2.293c-10.617,0.581-21.006,2.402-31,5.36v32.304
		c0,2.147,0.177,4.299,0.527,6.395c0.646,3.874-1.804,7.545-5.543,8.496c1.936,5.657,4.934,10.818,8.771,15.238h69.489
		c3.838-4.42,6.836-9.581,8.771-15.238C274.777,328.811,272.326,325.14,272.973,321.266z M242.5,322.5c0,4.142-3.358,7.5-7.5,7.5
		s-7.5-3.358-7.5-7.5v-13c0-4.142,3.358-7.5,7.5-7.5s7.5,3.358,7.5,7.5V322.5z"/>
	<path style="fill:#F2EBD9;" d="M235,232c40.528,0,73.5-32.972,73.5-73.5S275.528,85,235,85s-73.5,32.972-73.5,73.5
		S194.472,232,235,232z M216.096,156.433c3.902-1.385,8.191,0.652,9.579,4.555c1.399,3.936,5.146,6.58,9.325,6.58
		c4.178,0,7.926-2.645,9.325-6.581c1.388-3.903,5.677-5.94,9.579-4.555c3.903,1.388,5.942,5.676,4.555,9.579
		c-3.521,9.903-12.948,16.556-23.459,16.556c-10.512,0-19.939-6.653-23.459-16.557C210.154,162.109,212.193,157.82,216.096,156.433z
		"/>
	<path style="fill:#082947;" d="M415.718,415H54.282c-4.142,0-7.5,3.358-7.5,7.5s3.358,7.5,7.5,7.5h361.437
		c4.142,0,7.5-3.358,7.5-7.5S419.86,415,415.718,415z"/>
	<path style="fill:#082947;" d="M235,455H54.282c-4.142,0-7.5,3.358-7.5,7.5s3.358,7.5,7.5,7.5H235c4.142,0,7.5-3.358,7.5-7.5
		S239.142,455,235,455z"/>
	<path style="fill:#082947;" d="M235,247c48.799,0,88.5-39.701,88.5-88.5S283.799,70,235,70s-88.5,39.701-88.5,88.5
		S186.201,247,235,247z M235,85c40.528,0,73.5,32.972,73.5,73.5S275.528,232,235,232s-73.5-32.972-73.5-73.5S194.472,85,235,85z"/>
	<path style="fill:#082947;" d="M129.878,327.217c14.036-17.353,31.773-30.67,51.622-39.22v26.874c0,2.972,0.246,5.954,0.731,8.864
		c0.612,3.668,3.79,6.267,7.389,6.267c0.41,0,0.826-0.034,1.243-0.103c0.211-0.035,0.417-0.084,0.62-0.136
		c3.739-0.951,6.19-4.622,5.543-8.496c-0.35-2.096-0.527-4.248-0.527-6.395v-32.304c9.994-2.958,20.383-4.779,31-5.36v2.293
		c0,4.142,3.358,7.5,7.5,7.5s7.5-3.358,7.5-7.5v-2.293c10.617,0.581,21.007,2.402,31,5.36v32.304c0,2.146-0.178,4.297-0.528,6.395
		c-0.646,3.874,1.804,7.545,5.543,8.496c0.204,0.052,0.409,0.101,0.62,0.136c0.418,0.069,0.833,0.103,1.243,0.103
		c3.6,0,6.777-2.599,7.389-6.267c0.485-2.912,0.732-5.894,0.732-8.864v-26.874c19.849,8.551,37.585,21.867,51.622,39.22
		c1.482,1.832,3.649,2.784,5.835,2.784c1.593,0,3.19-0.519,4.545-1.556c0.054-0.042,0.114-0.07,0.168-0.113
		c3.22-2.605,3.719-7.327,1.114-10.548C323.108,282.332,280.542,262,235,262s-88.108,20.332-116.784,55.783
		c-2.605,3.221-2.106,7.943,1.114,10.548c0.052,0.042,0.108,0.077,0.161,0.118C122.706,330.912,127.315,330.385,129.878,327.217z"/>
	<path style="fill:#082947;" d="M235,182.568c10.511,0,19.938-6.653,23.459-16.556c1.387-3.903-0.652-8.191-4.555-9.579
		c-3.902-1.386-8.191,0.651-9.579,4.555c-1.399,3.936-5.147,6.581-9.325,6.581c-4.179,0-7.926-2.645-9.325-6.58
		c-1.387-3.903-5.676-5.94-9.579-4.555c-3.903,1.387-5.942,5.676-4.555,9.579C215.061,175.915,224.488,182.568,235,182.568z"/>
	<path style="fill:#082947;" d="M415.718,0H54.282c-4.142,0-7.5,3.358-7.5,7.5v375c0,4.142,3.358,7.5,7.5,7.5h361.437
		c4.142,0,7.5-3.358,7.5-7.5V7.5C423.218,3.358,419.86,0,415.718,0z M408.218,375H61.782V15h346.437V375z"/>
	<path style="fill:#082947;" d="M84.282,360h301.437c4.142,0,7.5-3.358,7.5-7.5v-315c0-4.142-3.358-7.5-7.5-7.5H84.282
		c-4.142,0-7.5,3.358-7.5,7.5v315C76.782,356.642,80.14,360,84.282,360z M91.782,45h286.437v300H91.782V45z"/>
	<path style="fill:#082947;" d="M235,302c-4.142,0-7.5,3.358-7.5,7.5v13c0,4.142,3.358,7.5,7.5,7.5s7.5-3.358,7.5-7.5v-13
		C242.5,305.358,239.142,302,235,302z"/>
</g>
<g>
</g>
<g>
</g>
<g>
</g>
<g>
</g>
<g>
</g>
<g>
</g>
<g>
</g>
<g>
</g>
<g>
</g>
<g>
</g>
<g>
</g>
<g>
</g>
<g>
</g>
<g>
</g>
<g>
</g>
</svg>
