<?xml version="1.0" encoding="utf-8"?>
<!-- Generator: Adobe Illustrator 19.1.0, SVG Export Plug-In . SVG Version: 6.00 Build 0)  -->
<svg version="1.1" id="Capa_1" xmlns="http://www.w3.org/2000/svg" xmlns:xlink="http://www.w3.org/1999/xlink" x="0px" y="0px"
	 viewBox="-62 185.9 470 470" style="enable-background:new -62 185.9 470 470;" xml:space="preserve">
<style type="text/css">
	.st0{fill:#FFFFFF;}
	.st1{fill:none;}
	.st2{fill:#FF6E1D;}
	.st3{fill:#F2484B;}
	.st4{fill:#082947;}
</style>
<g>
	<path class="st0" d="M-36.9,475.8c-1.4,5.8-2.7,11.6-3.8,17.4l141.3,141.3c5.9-1.1,11.7-2.4,17.4-3.8L-36.9,475.8z"/>
	<path class="st1" d="M359.3,342.4l23.6,23.6c1.4-5.8,2.7-11.6,3.8-17.4L245.4,207.3c-5.9,1.1-11.7,2.4-17.5,3.8l110.2,110.2
		c2.9,2.9,2.9,7.7,0,10.6c3.5,3.5,7.1,7.1,10.6,10.6C351.7,339.5,356.4,339.5,359.3,342.4z"/>
	<g id="topPart">
		<path class="st2" d="M326.6,267.3l10.6-10.6c-2.9-2.9-2.9-7.7,0-10.6l14-14c2.9-2.9,7.7-2.9,10.6,0l10.6-10.6
			c-2.9-2.9-2.9-7.7,0-10.6l4.4-4.4c-20.9-3.7-42.2-5.6-63.5-5.6c-16.8,0-33.4,1.2-49.7,3.4L326.6,267.3z"/>
		<path class="st2" d="M61.8,521.5l14-14c2.9-2.9,7.7-2.9,10.6,0L97,496.9c-2.9-2.9-2.9-7.7,0-10.6l1.8-1.8l-15.9-15.9
			c-2.9-2.9-2.9-7.7,0-10.6c2.9-2.9,7.7-2.9,10.6,0l15.9,15.9l31.8-31.8l-15.9-15.9c-2.9-2.9-2.9-7.7,0-10.6c2.9-2.9,7.7-2.9,10.6,0
			l15.9,15.9l31.8-31.8l-15.9-15.9c-2.9-2.9-2.9-7.7,0-10.6c2.9-2.9,7.7-2.9,10.6,0l15.9,15.9l31.8-31.8l-15.9-15.9
			c-2.9-2.9-2.9-7.7,0-10.6c2.9-2.9,7.7-2.9,10.6,0l15.9,15.9l1.8-1.8c2.9-2.9,7.7-2.9,10.6,0l10.6-10.6c-2.9-2.9-2.9-7.7,0-10.6
			l14-14c2.9-2.9,7.7-2.9,10.6,0l10.6-10.6l-83.6-83.6c-57.1,16.8-109.4,47.7-152.7,90.9c-43.4,43.4-74.2,95.9-90.9,152.7l83.6,83.6
			l10.6-10.6C58.9,529.2,58.9,524.4,61.8,521.5z M29.4,467.1c-2.9,2.9-7.7,2.9-10.6,0c-2.9-2.9-2.9-7.7,0-10.6s7.7-2.9,10.6,0
			c2.7,2.7,2.9,7.1,0.5,10c-0.1,0.1-0.1,0.1-0.2,0.2C29.6,466.9,29.5,467,29.4,467.1z M29.4,424.7c-2.9,2.9-7.7,2.9-10.6,0
			c-2.9-2.9-2.9-7.7,0-10.6c2.9-2.9,7.7-2.9,10.6,0S32.3,421.8,29.4,424.7z"/>
		<path class="st2" d="M-15.8,599.1l14-14c2.9-2.9,7.7-2.9,10.6,0l10.6-10.6l-63.1-63.1c-5.1,37.1-4.5,75.3,2.3,113.2l4.4-4.4
			c2.9-2.9,7.7-2.9,10.6,0l10.6-10.6C-18.7,606.8-18.7,602-15.8,599.1z"/>
	</g>
	<g id="bottomPart">
		<path class="st3" d="M361.8,232.1c2.9,2.9,2.9,7.7,0,10.6l-14,14c-1.5,1.5-3.4,2.2-5.3,2.2s-3.8-0.7-5.3-2.2l-10.6,10.6l63.1,63.1
			c5.1-37.1,4.5-75.3-2.3-113.2l-4.4,4.4c-1.5,1.5-3.4,2.2-5.3,2.2s-3.8-0.7-5.3-2.2L361.8,232.1z"/>
		<path class="st3" d="M19.4,574.5L8.8,585.1c2.9,2.9,2.9,7.7,0,10.6l-14,14c-1.5,1.5-3.4,2.2-5.3,2.2s-3.8-0.7-5.3-2.2l-10.6,10.6
			c2.9,2.9,2.9,7.7,0,10.6l-4.4,4.4c20.9,3.7,42.2,5.6,63.5,5.6c16.8,0,33.4-1.2,49.7-3.4L19.4,574.5z"/>
		<path class="st3" d="M348.7,353c-2.9-2.9-2.9-7.7,0-10.6c-3.5-3.5-7.1-7.1-10.6-10.6c-1.5,1.5-3.4,2.2-5.3,2.2
			c-1.9,0-3.8-0.7-5.3-2.2l-32.7-32.7l-10.6,10.6c2.9,2.9,2.9,7.7,0,10.6l-14,14c-1.5,1.5-3.4,2.2-5.3,2.2s-3.8-0.7-5.3-2.2
			L249,344.9c2.9,2.9,2.9,7.7,0,10.6l-1.8,1.8l15.9,15.9c2.9,2.9,2.9,7.7,0,10.6c-1.5,1.5-3.4,2.2-5.3,2.2s-3.8-0.7-5.3-2.2
			l-15.9-15.9l-31.8,31.8l15.9,15.9c2.9,2.9,2.9,7.7,0,10.6c-1.5,1.5-3.4,2.2-5.3,2.2s-3.8-0.7-5.3-2.2l-15.9-15.9l-31.8,31.8
			l15.9,15.9c2.9,2.9,2.9,7.7,0,10.6c-1.5,1.5-3.4,2.2-5.3,2.2s-3.8-0.7-5.3-2.2l-15.9-15.9L120,484.5l15.9,15.9
			c2.9,2.9,2.9,7.7,0,10.6c-1.5,1.5-3.4,2.2-5.3,2.2s-3.8-0.7-5.3-2.2l-15.9-15.9l-1.8,1.8c-1.5,1.5-3.4,2.2-5.3,2.2
			s-3.8-0.7-5.3-2.2l-10.6,10.6c2.9,2.9,2.9,7.7,0,10.6l-14,14c-1.5,1.5-3.4,2.2-5.3,2.2c-1.9,0-3.8-0.7-5.3-2.2l-10.6,10.6
			l83.6,83.6c57.1-16.8,109.4-47.7,152.7-90.9c43.4-43.4,74.2-95.9,90.9-152.7L348.7,353z"/>
	</g>
	<path class="st0" d="M238.4,344.9l-1.8,1.8l-15.9-15.9c-2.9-2.9-7.7-2.9-10.6,0c-2.9,2.9-2.9,7.7,0,10.6l15.9,15.9l-31.8,31.8
		l-15.9-15.9c-2.9-2.9-7.7-2.9-10.6,0c-2.9,2.9-2.9,7.7,0,10.6l15.9,15.9l-31.8,31.8l-15.9-15.9c-2.9-2.9-7.7-2.9-10.6,0
		c-2.9,2.9-2.9,7.7,0,10.6l15.9,15.9l-31.8,31.8L93.5,458c-2.9-2.9-7.7-2.9-10.6,0c-2.9,2.9-2.9,7.7,0,10.6l15.9,15.9l-1.8,1.8
		c-2.9,2.9-2.9,7.7,0,10.6c1.5,1.5,3.4,2.2,5.3,2.2s3.8-0.7,5.3-2.2l1.8-1.8l15.9,15.9c1.5,1.5,3.4,2.2,5.3,2.2s3.8-0.7,5.3-2.2
		c2.9-2.9,2.9-7.7,0-10.6L120,484.5l31.8-31.8l15.9,15.9c1.5,1.5,3.4,2.2,5.3,2.2s3.8-0.7,5.3-2.2c2.9-2.9,2.9-7.7,0-10.6
		l-15.9-15.9l31.8-31.8l15.9,15.9c1.5,1.5,3.4,2.2,5.3,2.2s3.8-0.7,5.3-2.2c2.9-2.9,2.9-7.7,0-10.6l-15.9-15.9l31.8-31.8l15.9,15.9
		c1.5,1.5,3.4,2.2,5.3,2.2s3.8-0.7,5.3-2.2c2.9-2.9,2.9-7.7,0-10.6l-15.9-15.9l1.8-1.8c2.9-2.9,2.9-7.7,0-10.6
		C246.1,341.9,241.3,341.9,238.4,344.9z"/>
	<circle class="st4" cx="24.1" cy="419.4" r="7.5"/>
	<path class="st4" d="M29.4,456.5c-2.9-2.9-7.7-2.9-10.6,0c-2.9,2.9-2.9,7.7,0,10.6s7.7,2.9,10.6,0c0.1-0.1,0.2-0.3,0.4-0.4
		c0.1-0.1,0.1-0.1,0.2-0.2C32.3,463.6,32.1,459.3,29.4,456.5z"/>
	<path class="st4" d="M393.9,382.6c3.2-11.5,5.9-23.2,8-35c0-0.2,0.1-0.4,0.1-0.5c8.6-48.4,7.8-98.4-2.7-146.6c0-0.1,0-0.1,0-0.2
		c0,0,0-0.1,0-0.1c-0.1-0.3-0.1-0.6-0.2-0.8c0-0.1,0-0.1-0.1-0.2c-0.1-0.3-0.3-0.6-0.4-0.9c0,0,0-0.1-0.1-0.1
		c-0.1-0.2-0.3-0.5-0.5-0.7c0-0.1-0.1-0.1-0.1-0.2c-0.2-0.3-0.4-0.5-0.6-0.7c-0.2-0.2-0.5-0.4-0.7-0.6c-0.1,0-0.1-0.1-0.2-0.1
		c-0.2-0.2-0.5-0.3-0.7-0.4c0,0-0.1-0.1-0.1-0.1c-0.3-0.2-0.6-0.3-0.9-0.4c-0.1,0-0.1,0-0.2-0.1c-0.3-0.1-0.5-0.2-0.8-0.2
		c0,0-0.1,0-0.1,0c-26.3-5.7-53.3-8.6-80.3-8.6c-48.7,0-96.3,9.2-141.2,27.5c-46.6,18.9-88.3,46.6-124.2,82.4
		C2.7,341.1-30.4,397.4-47.8,458.6c-0.1,0.2-0.1,0.4-0.2,0.6c-3.3,11.6-5.9,23.2-8.1,35c0,0.2-0.1,0.4-0.1,0.5
		c-8.6,48.4-7.8,98.4,2.7,146.6c0,0.1,0,0.1,0,0.2c0,0,0,0.1,0,0.1c0.1,0.3,0.1,0.6,0.2,0.8c0,0.1,0,0.1,0.1,0.2
		c0.1,0.3,0.3,0.6,0.4,0.9c0,0,0,0.1,0.1,0.1c0.1,0.2,0.3,0.5,0.5,0.7c0,0.1,0.1,0.1,0.1,0.2c0.2,0.3,0.4,0.5,0.6,0.7
		c0.2,0.2,0.5,0.4,0.7,0.6c0.1,0,0.1,0.1,0.2,0.1c0.2,0.2,0.5,0.3,0.7,0.4c0,0,0.1,0.1,0.1,0.1c0.3,0.2,0.6,0.3,0.9,0.4
		c0.1,0,0.1,0,0.2,0.1c0.3,0.1,0.5,0.2,0.8,0.2c0,0,0.1,0,0.1,0c26.3,5.7,53.3,8.6,80.3,8.6c48.7,0,96.3-9.2,141.2-27.5
		c46.6-18.9,88.3-46.6,124.2-82.4c45.3-45.3,78.4-101.6,95.7-162.8C393.8,383,393.9,382.8,393.9,382.6z M-30.8,635.3l4.4-4.4
		c2.9-2.9,2.9-7.7,0-10.6c-2.9-2.9-7.7-2.9-10.6,0l-4.4,4.4c-6.8-38-7.4-76.1-2.3-113.2L82.4,637.5c-16.3,2.2-32.9,3.4-49.7,3.4
		C11.4,640.9-9.9,639-30.8,635.3z M100.6,634.5L-40.7,493.2c1.1-5.8,2.4-11.7,3.8-17.4l155,155C112.3,632.1,106.5,633.4,100.6,634.5
		z M134.8,626.3L-32.4,459.1c16.7-56.7,47.5-109.3,90.9-152.7c43.3-43.3,95.6-74.1,152.7-90.9l83.6,83.6l32.7,32.7
		c1.5,1.5,3.4,2.2,5.3,2.2c1.9,0,3.8-0.7,5.3-2.2c2.9-2.9,2.9-7.7,0-10.6L228,211c5.8-1.4,11.6-2.6,17.5-3.8l141.3,141.3
		c-1.1,5.8-2.4,11.7-3.8,17.4l-23.6-23.6c-2.9-2.9-7.7-2.9-10.6,0c-2.9,2.9-2.9,7.7,0,10.6l29.7,29.7
		c-16.7,56.7-47.5,109.3-90.9,152.7C244.2,578.6,191.9,609.5,134.8,626.3z M376.8,206.5l-4.4,4.4c-2.9,2.9-2.9,7.7,0,10.6
		c1.5,1.5,3.4,2.2,5.3,2.2s3.8-0.7,5.3-2.2l4.4-4.4c6.8,38,7.4,76.1,2.3,113.2L263.6,204.3c16.3-2.2,32.9-3.4,49.7-3.4
		C334.6,200.9,355.9,202.8,376.8,206.5z"/>
	<path class="st4" d="M75.8,507.5l-14,14c-2.9,2.9-2.9,7.7,0,10.6c1.5,1.5,3.4,2.2,5.3,2.2c1.9,0,3.8-0.7,5.3-2.2l14-14
		c2.9-2.9,2.9-7.7,0-10.6C83.4,504.6,78.7,504.6,75.8,507.5z"/>
	<path class="st4" d="M-1.8,585.1l-14,14c-2.9,2.9-2.9,7.7,0,10.6c1.5,1.5,3.4,2.2,5.3,2.2s3.8-0.7,5.3-2.2l14-14
		c2.9-2.9,2.9-7.7,0-10.6C5.8,582.2,1.1,582.2-1.8,585.1z"/>
	<path class="st4" d="M273.6,309.7l-14,14c-2.9,2.9-2.9,7.7,0,10.6c1.5,1.5,3.4,2.2,5.3,2.2s3.8-0.7,5.3-2.2l14-14
		c2.9-2.9,2.9-7.7,0-10.6C281.3,306.8,276.5,306.8,273.6,309.7z"/>
	<path class="st4" d="M342.5,258.9c1.9,0,3.8-0.7,5.3-2.2l14-14c2.9-2.9,2.9-7.7,0-10.6c-2.9-2.9-7.7-2.9-10.6,0l-14,14
		c-2.9,2.9-2.9,7.7,0,10.6C338.7,258.1,340.6,258.9,342.5,258.9z"/>
</g>
</svg>
