<?xml version="1.0" encoding="iso-8859-1"?>
<!-- Generator: Adobe Illustrator 19.0.0, SVG Export Plug-In . SVG Version: 6.00 Build 0)  -->
<svg version="1.1" id="Capa_1" xmlns="http://www.w3.org/2000/svg" xmlns:xlink="http://www.w3.org/1999/xlink" x="0px" y="0px"
	 viewBox="0 0 470 470" style="enable-background:new 0 0 470 470;" xml:space="preserve">
<g>
	<path style="fill:#98D9D5;" d="M301.398,69.012l10.606-10.606c-2.929-2.93-2.928-7.677,0.001-10.606l32.091-32.092
		C340.684,15.241,337.238,15,333.773,15c-20.247,0-39.278,7.881-53.589,22.192c-17,17-24.722,40.619-21.496,63.923l32.103-32.104
		C293.721,66.084,298.47,66.084,301.398,69.012z"/>
	<path style="fill:#6DA8D6;" d="M301.398,69.012c2.929,2.93,2.929,7.678,0,10.607l-32.092,32.092
		c3.412,0.465,6.859,0.707,10.323,0.707c20.246,0,39.277-7.882,53.588-22.193c16.999-16.999,24.721-40.618,21.496-63.922
		l-32.103,32.104c-1.464,1.464-3.384,2.196-5.303,2.196s-3.839-0.732-5.303-2.196C312.004,58.405,301.398,69.012,301.398,69.012z"/>
	<path style="fill:#F2484B;" d="M334.737,169.144c-11.444-4.74-23.47-7.144-35.742-7.144c-21.508,0-42.551,7.506-59.253,21.134
		c-0.343,0.273-0.68,0.501-1.033,0.702c-0.027,0.016-0.052,0.033-0.079,0.048c-0.335,0.186-0.688,0.341-1.051,0.474
		c-0.057,0.021-0.113,0.043-0.17,0.063c-0.348,0.118-0.706,0.211-1.075,0.277c-0.066,0.012-0.132,0.02-0.198,0.03
		c-0.367,0.056-0.739,0.093-1.121,0.094c-0.411-0.001-0.784-0.038-1.15-0.094c-0.066-0.011-0.132-0.019-0.198-0.03
		c-0.369-0.066-0.727-0.159-1.075-0.277c-0.057-0.02-0.113-0.041-0.17-0.063c-0.364-0.133-0.716-0.288-1.051-0.474
		c-0.027-0.015-0.052-0.032-0.079-0.048c-0.353-0.201-0.69-0.429-1.004-0.683C213.556,169.506,192.513,162,171.005,162
		c-12.272,0-24.298,2.403-35.742,7.144c-46.278,19.17-69.206,71.054-52.198,118.12c4.922,13.623,48.232,98.476,70.446,141.439
		C161.912,444.922,178.508,455,196.82,455c6.4,0,12.673-1.254,18.646-3.728c5.359-2.22,10.219-5.325,14.444-9.229
		c1.437-1.327,3.264-1.991,5.09-1.991c1.827,0,3.653,0.664,5.09,1.991c4.225,3.904,9.084,7.01,14.444,9.229
		c5.972,2.474,12.245,3.728,18.646,3.728c18.314,0,34.912-10.08,43.315-26.308c22.21-42.957,65.518-127.804,70.44-141.425
		C403.944,240.199,381.016,188.313,334.737,169.144z M119.128,241.493c-0.043,0.001-0.085,0.007-0.128,0.007
		c-4.142,0-7.5-3.357-7.5-7.5c0-0.043,0.006-0.085,0.006-0.128c0.065-3.874,3.065-7.029,6.875-7.341
		c0.204-0.017,0.409-0.031,0.618-0.031c0.189,0,0.374,0.015,0.559,0.028c3.695,0.272,6.64,3.218,6.913,6.913
		c0.014,0.186,0.028,0.37,0.028,0.559c0,0.209-0.015,0.414-0.031,0.618C126.157,238.428,123.002,241.428,119.128,241.493z
		 M156.5,204c0,0.02-0.003,0.039-0.003,0.06c-0.03,3.843-2.948,6.996-6.692,7.396c-0.265,0.028-0.533,0.045-0.805,0.045
		c-0.199,0-0.394-0.015-0.588-0.029c-3.598-0.28-6.483-3.094-6.866-6.661c-0.029-0.267-0.045-0.536-0.045-0.81
		s0.017-0.543,0.045-0.81c0.402-3.741,3.554-6.657,7.395-6.688c0.02,0,0.039-0.003,0.059-0.003
		C153.142,196.5,156.5,199.857,156.5,204z M301.001,384.5c-0.357,0-0.706-0.033-1.049-0.082c-2.659-0.373-4.872-2.133-5.873-4.531
		c-0.372-0.889-0.578-1.863-0.578-2.887c0-0.894,0.165-1.748,0.452-2.543c0.938-2.599,3.265-4.527,6.088-4.889
		c0.315-0.04,0.634-0.068,0.96-0.068c0.108,0,0.214,0.012,0.321,0.017c3.992,0.169,7.179,3.449,7.179,7.483
		C308.5,381.143,305.143,384.5,301.001,384.5z"/>
	<path style="fill:#082947;" d="M340.477,155.286c-13.273-5.498-27.23-8.286-41.482-8.286c-20.212,0-40.065,5.717-57.176,16.288
		c-3.18-32.589-17.41-62.813-40.868-86.27c-2.929-2.928-7.678-2.929-10.606,0.001c-2.929,2.929-2.929,7.678,0,10.606
		c20.396,20.396,32.986,46.514,36.281,74.732C209.871,152.39,190.61,147,171.005,147c-14.252,0-28.209,2.788-41.482,8.286
		c-53.7,22.243-80.303,82.454-60.565,137.075c6.481,17.938,68.588,138.123,71.231,143.235C151.181,456.817,172.88,470,196.82,470
		c8.38,0,16.584-1.639,24.385-4.869c4.941-2.047,9.56-4.672,13.794-7.836c4.234,3.164,8.853,5.789,13.793,7.835
		c7.801,3.231,16.005,4.87,24.386,4.87c23.941,0,45.645-13.187,56.637-34.414c2.641-5.107,64.744-125.284,71.225-143.221
		C420.782,237.742,394.179,177.529,340.477,155.286z M386.934,287.268c-4.922,13.621-48.23,98.468-70.44,141.425
		c-8.403,16.228-25,26.308-43.315,26.308c-6.4,0-12.673-1.254-18.646-3.728c-5.359-2.22-10.219-5.325-14.444-9.229
		c-1.437-1.327-3.263-1.991-5.09-1.991c-1.826,0-3.653,0.664-5.09,1.991c-4.226,3.904-9.085,7.01-14.444,9.229
		C209.494,453.746,203.22,455,196.82,455c-18.313,0-34.909-10.078-43.31-26.297c-22.213-42.964-65.523-127.816-70.446-141.439
		c-17.008-47.066,5.92-98.95,52.198-118.12c11.444-4.74,23.47-7.144,35.742-7.144c21.508,0,42.551,7.506,59.254,21.134
		c0.343,0.273,0.68,0.501,1.033,0.702c0.027,0.016,0.052,0.033,0.079,0.048c0.335,0.186,0.688,0.341,1.051,0.474
		c0.057,0.021,0.113,0.043,0.17,0.063c0.348,0.118,0.706,0.211,1.075,0.277c0.066,0.012,0.132,0.02,0.198,0.03
		c0.367,0.056,0.739,0.093,1.121,0.094c0.411-0.001,0.784-0.038,1.15-0.094c0.066-0.011,0.132-0.019,0.198-0.03
		c0.369-0.066,0.727-0.159,1.075-0.277c0.057-0.02,0.113-0.041,0.17-0.063c0.364-0.133,0.716-0.288,1.051-0.474
		c0.027-0.015,0.052-0.032,0.079-0.048c0.353-0.201,0.69-0.429,1.004-0.683C256.444,169.506,277.487,162,298.995,162
		c12.272,0,24.298,2.403,35.742,7.144C381.016,188.313,403.944,240.199,386.934,287.268z"/>
	<path style="fill:#082947;" d="M126.472,233.441c-0.273-3.695-3.218-6.641-6.913-6.913c-0.185-0.014-0.37-0.028-0.559-0.028
		c-0.209,0-0.414,0.015-0.618,0.031c-3.81,0.312-6.81,3.467-6.875,7.341c-0.001,0.043-0.006,0.085-0.006,0.128
		c0,4.143,3.358,7.5,7.5,7.5c0.043,0,0.085-0.006,0.128-0.007c3.875-0.065,7.029-3.065,7.341-6.875
		c0.017-0.204,0.031-0.409,0.031-0.618C126.5,233.812,126.485,233.626,126.472,233.441z"/>
	<path style="fill:#082947;" d="M149,196.5c-0.02,0-0.039,0.003-0.06,0.003c-3.841,0.03-6.993,2.946-7.395,6.688
		c-0.029,0.267-0.045,0.536-0.045,0.81s0.017,0.543,0.045,0.81c0.383,3.567,3.268,6.381,6.866,6.661
		c0.195,0.015,0.39,0.029,0.588,0.029c0.272,0,0.541-0.017,0.805-0.045c3.744-0.399,6.661-3.553,6.692-7.396
		c0-0.021,0.003-0.04,0.003-0.06C156.5,199.857,153.142,196.5,149,196.5z"/>
	<path style="fill:#082947;" d="M301.321,369.517c-0.107-0.005-0.212-0.017-0.321-0.017c-0.326,0-0.645,0.028-0.96,0.068
		c-2.824,0.361-5.15,2.29-6.088,4.889c-0.287,0.795-0.452,1.648-0.452,2.543c0,1.023,0.206,1.998,0.578,2.887
		c1.002,2.398,3.214,4.158,5.873,4.531c0.344,0.049,0.692,0.082,1.049,0.082c4.142,0,7.5-3.357,7.5-7.5
		C308.5,372.966,305.313,369.686,301.321,369.517z"/>
	<path style="fill:#082947;" d="M247.212,118.208c0.008,0.026,0.015,0.053,0.023,0.079c0.013,0.041,0.032,0.078,0.045,0.118
		c0.072,0.214,0.152,0.425,0.243,0.633c0.032,0.072,0.065,0.143,0.099,0.213c0.088,0.186,0.185,0.367,0.289,0.546
		c0.041,0.07,0.081,0.141,0.124,0.209c0.111,0.177,0.232,0.348,0.359,0.517c0.044,0.059,0.084,0.119,0.129,0.176
		c0.172,0.216,0.355,0.425,0.554,0.624c0.207,0.207,0.416,0.39,0.632,0.563c0.058,0.046,0.121,0.088,0.181,0.133
		c0.167,0.125,0.336,0.245,0.511,0.354c0.07,0.044,0.143,0.085,0.215,0.127c0.176,0.103,0.356,0.198,0.538,0.285
		c0.073,0.035,0.145,0.069,0.219,0.102c0.206,0.091,0.415,0.17,0.627,0.241c0.041,0.014,0.08,0.033,0.122,0.047
		c0.026,0.008,0.052,0.015,0.078,0.023c0.034,0.01,0.069,0.021,0.104,0.03c8.84,2.777,18.032,4.19,27.325,4.19
		c24.252,0,47.052-9.442,64.195-26.586c24.024-24.023,32.594-59.079,22.394-91.525c-0.009-0.033-0.019-0.065-0.029-0.098
		c-0.008-0.026-0.015-0.053-0.023-0.079c-0.013-0.04-0.032-0.077-0.045-0.117c-0.072-0.215-0.153-0.427-0.244-0.635
		c-0.031-0.071-0.064-0.141-0.098-0.211c-0.089-0.186-0.186-0.368-0.291-0.548c-0.041-0.069-0.08-0.14-0.123-0.207
		c-0.112-0.178-0.233-0.351-0.361-0.521c-0.043-0.057-0.082-0.116-0.127-0.172c-0.173-0.218-0.358-0.429-0.559-0.63
		c-0.201-0.201-0.412-0.385-0.629-0.559c-0.056-0.045-0.116-0.084-0.173-0.127c-0.169-0.128-0.341-0.249-0.519-0.36
		c-0.069-0.044-0.14-0.083-0.21-0.124c-0.178-0.104-0.358-0.2-0.542-0.288c-0.072-0.034-0.144-0.068-0.218-0.101
		c-0.205-0.09-0.413-0.169-0.624-0.24c-0.043-0.014-0.082-0.034-0.125-0.048c-0.027-0.009-0.054-0.016-0.08-0.023
		c-0.033-0.01-0.065-0.02-0.098-0.029C352.26,1.412,343.067,0,333.773,0c-24.253,0-47.051,9.441-64.195,26.586
		c-24.024,24.024-32.595,59.079-22.395,91.524C247.193,118.144,247.203,118.176,247.212,118.208z M280.185,37.192
		C294.496,22.881,313.527,15,333.773,15c3.465,0,6.911,0.241,10.322,0.707l-32.091,32.092c-2.929,2.93-2.929,7.677-0.001,10.606
		c1.465,1.465,3.384,2.197,5.304,2.197s3.839-0.732,5.303-2.196l32.103-32.104c3.225,23.304-4.497,46.923-21.496,63.922
		c-14.312,14.312-33.343,22.193-53.588,22.193c-3.465,0-6.911-0.242-10.323-0.707l32.092-32.092c2.929-2.93,2.929-7.678,0-10.607
		c-2.928-2.928-7.677-2.928-10.606,0l-32.103,32.104C255.463,77.812,263.185,54.192,280.185,37.192z"/>
</g>
<g>
</g>
<g>
</g>
<g>
</g>
<g>
</g>
<g>
</g>
<g>
</g>
<g>
</g>
<g>
</g>
<g>
</g>
<g>
</g>
<g>
</g>
<g>
</g>
<g>
</g>
<g>
</g>
<g>
</g>
</svg>
