<?xml version="1.0" encoding="utf-8"?>
<!-- Generator: Adobe Illustrator 19.1.0, SVG Export Plug-In . SVG Version: 6.00 Build 0)  -->
<svg version="1.1" xmlns="http://www.w3.org/2000/svg" xmlns:xlink="http://www.w3.org/1999/xlink" x="0px" y="0px" width="800px"
	 height="800px" viewBox="0 0 800 800" style="enable-background:new 0 0 800 800;" xml:space="preserve">
<style type="text/css">
	.st0{fill:#FFFFFF;}
	.st1{fill:#59CAEA;}
	.st2{fill:#01AAB5;}
	.st3{fill:#F37326;}
	.st4{fill:#F37029;}
	.st5{fill:#B02C9F;}
	.st6{fill:#F8931D;}
	.st7{fill:#F7991E;}
	.st8{fill:#068CA9;}
	.st9{fill:#DA3420;}
	.st10{fill:#01B7D4;}
	.st11{fill:#A360B9;}
	.st12{fill:#00A7B0;}
	.st13{fill:#D61E41;}
	.st14{fill:#C2349B;}
	.st15{fill:#EF4136;}
	.st16{fill:#F36F26;}
	.st17{fill:#D60EB1;}
	.st18{fill:#FCB315;}
	.st19{fill:#00A8CB;}
	.st20{fill:#08ACB7;}
	.st21{fill:#008A9F;}
	.st22{fill:#FFC20E;}
	.st23{fill:#2F7888;}
	.st24{fill:#FD9F13;}
	.st25{fill:#8E1D83;}
	.st26{fill:#8C1670;}
	.st27{fill:#B911D1;}
	.st28{fill:#38C5ED;}
	.st29{fill:#039BB1;}
	.st30{fill:#B7059A;}
	.st31{fill:#F5821F;}
	.st32{fill:#FAA21C;}
	.st33{fill:#F9A01C;}
	.st34{fill:#8E002F;}
	.st35{fill:#EE1B39;}
	.st36{fill:#F89B1D;}
	.st37{fill:#EF474A;}
	.st38{fill:#F58120;}
	.st39{fill:#A20994;}
	.st40{fill:#DB3BBF;}
	.st41{fill:#CF2BAD;}
	.st42{fill:#771F80;}
	.st43{fill:#E26EC2;}
	.st44{fill:#04769F;}
	.st45{fill:#0181B5;}
	.st46{fill:#911A92;}
	.st47{fill:#CA50B4;}
	.st48{fill:#920479;}
	.st49{fill:#B92E96;}
	.st50{fill:#ED4456;}
	.st51{fill:#D61E42;}
	.st52{fill:#EE1C36;}
	.st53{fill:#EE1748;}
	.st54{fill:#EE5A2F;}
	.st55{fill:#E91B3B;}
	.st56{fill:#C40F3F;}
	.st57{fill:#058EA4;}
	.st58{fill:#D950B5;}
	.st59{fill:#6C0570;}
	.st60{fill:#43075E;}
	.st61{fill:#ED1A43;}
</style>
<g id="Background">
	<rect x="0" class="st0" width="800" height="800"/>
</g>
<g id="Object">
	<g>
		<g>
			<polygon class="st1" points="590.5,498 634.8,667 670.8,443 			"/>
			<polygon class="st2" points="492.8,565 634.8,667 590.5,498 			"/>
			<polygon class="st3" points="381.4,530.1 306.8,577 492.8,565 			"/>
			<polygon class="st4" points="320.7,661.6 328.8,711 634.8,667 492.8,565 			"/>
			<polygon class="st5" points="718.3,370.1 704.5,391.3 704.5,391.3 732.9,372.8 			"/>
			<polygon class="st4" points="232.8,711 328.8,711 320.7,661.6 			"/>
			<polygon class="st6" points="492.8,565 306.8,577 320.7,661.6 			"/>
			<polygon class="st7" points="306.8,577 216.4,694.7 232.8,711 320.7,661.6 			"/>
			<polygon class="st8" points="723,579.1 708.6,433.2 670.8,443 			"/>
			<polygon class="st9" points="332.8,514.8 306.8,577 381.4,530.1 			"/>
			<polygon class="st5" points="704.5,391.3 800,385.3 732.9,372.8 			"/>
			<polygon class="st10" points="723,579.1 634.8,667 766.7,692.9 723,579.1 723,579.1 			"/>
			<polygon class="st11" points="670.8,443 708.6,433.2 704.5,391.3 704.5,391.3 704.5,391.3 			"/>
			<polygon class="st12" points="634.8,667 723,579.1 723,579.1 670.8,443 			"/>
			<rect x="723" y="579.1" class="st13" width="0" height="0"/>
			<polygon class="st14" points="800,385.3 800,385.3 776.2,344.7 732.9,372.8 			"/>
			<polygon class="st13" points="723,579.1 723,579.1 723,579.1 			"/>
			<polygon class="st15" points="149.8,516.9 108.8,587 306.8,577 			"/>
			<polygon class="st6" points="515.1,760.5 634.8,667 328.8,711 			"/>
			<path class="st16" d="M222.8,791.4c52.8-39.8,106-80.4,106-80.4h-96L222.8,791.4z"/>
			<polygon class="st13" points="800,385.3 800,385.3 800,385.3 			"/>
			<polygon class="st17" points="799.1,246.1 740.8,284.4 756.6,311.3 			"/>
			<polygon class="st18" points="108.8,587 216.4,694.7 306.8,577 			"/>
			<polygon class="st19" points="590.5,498 670.8,443 568.1,412.7 			"/>
			<polygon class="st20" points="670.8,443 704.5,391.3 564.8,400 568.1,412.7 			"/>
			<polygon class="st21" points="718.3,370.1 634.2,354.4 564.8,400 704.5,391.3 			"/>
			<polygon class="st7" points="381.4,530.1 492.8,565 466.1,476.8 			"/>
			<polygon class="st22" points="634.8,667 515.1,760.5 663.8,800 758.9,800 			"/>
			<polygon class="st23" points="723,579.1 800,614 800,502.4 723,579.1 			"/>
			<polygon class="st13" points="800,385.3 800,385.3 800,385.3 			"/>
			<polygon class="st19" points="723,579.1 723,579.1 800,502.4 800,409.7 708.6,433.2 			"/>
			<polygon class="st24" points="634.8,667 758.9,800 800,800 800,779.8 766.7,692.9 			"/>
			<polygon class="st1" points="800,779.8 800,699.5 766.7,692.9 			"/>
			<polygon class="st20" points="766.7,692.9 800,699.5 800,614 723,579.1 			"/>
			<polygon class="st25" points="800,385.3 800,385.3 800,329.2 776.2,344.7 			"/>
			<polygon class="st26" points="756.6,311.3 776.2,344.7 800,329.2 800,245.5 799.1,246.1 			"/>
			<polygon class="st13" points="799.1,246.1 800,245.5 800,244.7 			"/>
			<polygon class="st14" points="740.8,284.4 799.1,246.1 800,244.7 800,229 718.8,247 			"/>
			<polygon class="st27" points="718.3,370.1 756.6,311.3 740.8,284.4 634.2,354.4 			"/>
			<polygon class="st28" points="313.7,391.3 300,348.9 262.7,381.1 			"/>
			<polygon class="st28" points="546.2,320.5 547.4,295.3 521.2,304.9 			"/>
			<polygon class="st28" points="424.2,312.2 411.7,327.4 433.6,339.6 			"/>
			<polygon class="st28" points="84.7,238.4 67.1,229.5 60.1,253.6 			"/>
			<polygon class="st28" points="201.8,108.1 181,99 178.8,125.2 			"/>
			<polygon class="st29" points="331.4,379.2 328.6,363.1 320.9,375.3 			"/>
			<polygon class="st30" points="732.9,372.8 776.2,344.7 756.6,311.3 718.3,370.1 			"/>
			<path class="st31" d="M222.8,791.4l-1.1,8.6h118l-11-89C328.8,711,275.7,751.6,222.8,791.4z"/>
			<polygon class="st31" points="464.6,800 663.8,800 515.1,760.5 			"/>
			<path class="st32" d="M232.8,711l-16.3-16.3L135.5,800h75.9c3.8-2.8,7.6-5.7,11.4-8.6L232.8,711z"/>
			<path class="st31" d="M211.4,800h10.3l1.1-8.6C219,794.3,215.2,797.2,211.4,800z"/>
			<polygon class="st33" points="328.8,711 339.8,800 464.6,800 515.1,760.5 			"/>
			<polygon class="st34" points="0,459.5 0,591.7 122.3,506.3 			"/>
			<polygon class="st35" points="149.8,516.9 122.3,506.3 0,591.7 0,707.8 108.8,587 			"/>
			<polygon class="st36" points="216.4,694.7 108.8,587 135.5,800 			"/>
			<polygon class="st37" points="108.8,587 0,707.8 0,800 			"/>
			<polygon class="st38" points="135.5,800 108.8,587 0,800 			"/>
			<polygon class="st39" points="768,114.2 800,96 800,0 745.5,95.5 			"/>
			<polygon class="st40" points="700.6,58.2 690.8,97 718.8,142.2 745.5,95.5 			"/>
			<polygon class="st41" points="768,114.2 745.5,95.5 718.8,142.2 718.8,142.2 			"/>
			<polygon class="st42" points="715.3,0 630.6,0 700.6,58.2 			"/>
			<polygon class="st43" points="718.8,142.2 690.8,97 670.8,142.5 718.8,142.2 			"/>
			<polygon class="st13" points="718.8,142.2 718.8,142.2 718.8,142.2 			"/>
			<polygon class="st39" points="628.7,45.6 544.9,48.7 610.8,116 			"/>
			<polygon class="st17" points="695.4,197.3 703.4,212.1 724.4,195.6 			"/>
			<polygon class="st44" points="616.1,170.1 624.2,184.9 634.2,171 			"/>
			<polygon class="st45" points="545.7,227.9 456.8,258.5 538.1,267.1 			"/>
			<polygon class="st46" points="800,174 718.8,247 800,229 			"/>
			<polygon class="st47" points="718.8,142.2 718.8,142.2 754.3,168.4 800,158.3 800,154 			"/>
			<polygon class="st48" points="800,140.8 800,96 768,114.2 			"/>
			<polygon class="st39" points="718.8,142.2 800,154 800,140.8 768,114.2 			"/>
			<polygon class="st49" points="740.8,284.4 718.8,247 634.2,354.4 			"/>
			<polygon class="st50" points="77.1,378.3 179.2,466.6 200.6,359.6 			"/>
			<polygon class="st15" points="211.6,326.1 148.7,272.5 150.9,328.6 			"/>
			<polygon class="st15" points="251.9,325.9 268.4,335.5 273.8,320.1 			"/>
			<polygon class="st17" points="640,328.4 612,287.4 604.5,320.3 			"/>
			<polygon class="st28" points="477.1,65.8 447,42 435.7,82.8 			"/>
			<polygon class="st28" points="424.5,126.4 428.5,141.8 446.9,133.2 			"/>
			<polygon class="st45" points="425.8,51.1 391.5,76.8 427.9,69.2 			"/>
			<polygon class="st17" points="498.2,0.9 458.1,0 476.1,20.4 			"/>
			<polygon class="st51" points="200.6,359.6 179.2,466.6 265.1,411.4 			"/>
			<polygon class="st51" points="122.3,506.3 149.8,516.9 179.2,466.6 			"/>
			<polygon class="st52" points="149.8,516.9 306.8,577 179.2,466.6 			"/>
			<polygon class="st53" points="77.1,378.3 60.5,364 60.5,364 5.6,412.2 179.2,466.6 77.1,378.3 			"/>
			<polygon class="st51" points="60.5,364 60.5,364 0,311.6 0,410.4 5.6,412.2 			"/>
			<polygon class="st54" points="306.8,577 332.8,514.8 179.2,466.6 			"/>
			<polygon class="st51" points="0,410.4 0,417.1 5.6,412.2 			"/>
			<polygon class="st55" points="5.6,412.2 0,417.1 0,459.5 122.3,506.3 179.2,466.6 			"/>
			<polygon class="st51" points="104.6,303.6 49.6,305.3 66.1,319.6 			"/>
			
				<rect x="57.9" y="371.1" transform="matrix(0.7562 0.6543 -0.6543 0.7562 259.5929 45.4365)" class="st51" width="21.9" height="0"/>
			
				<rect x="-9.8" y="337.8" transform="matrix(0.7562 0.6543 -0.6543 0.7562 228.3774 62.5275)" class="st56" width="80.1" height="0"/>
			<polygon class="st19" points="564.8,400 434.4,372.2 466.1,476.8 568.1,412.7 			"/>
			<polygon class="st29" points="367.6,424.5 332.8,514.8 434.4,372.2 			"/>
			<polygon class="st10" points="564.8,400 634.2,354.4 434.4,372.2 			"/>
			<polygon class="st28" points="434.4,372.2 634.2,354.4 511,331.5 			"/>
			<polygon class="st57" points="492.8,565 590.5,498 466.1,476.8 			"/>
			<polygon class="st10" points="466.1,476.8 590.5,498 568.1,412.7 			"/>
			<polygon class="st5" points="800,409.7 800,385.3 708.6,433.2 			"/>
			<polygon class="st58" points="704.5,391.3 708.6,433.2 800,385.3 704.5,391.3 			"/>
			<polygon class="st59" points="745.5,95.5 800,0 702.6,59.8 			"/>
			<polygon class="st60" points="700.6,58.2 702.6,59.8 800,0 715.3,0 			"/>
			<polygon class="st15" points="101.5,143.6 174.1,143.6 174.1,243.5 			"/>
			<polygon class="st18" points="101.5,143.6 40.4,189.6 142.5,200 			"/>
			<polygon class="st61" points="179.2,466.6 332.8,514.8 265.1,411.4 			"/>
			<polygon class="st20" points="265.1,411.4 332.8,514.8 367.6,424.5 			"/>
			<polygon class="st10" points="434.4,372.2 332.8,514.8 466.1,476.8 			"/>
			<polygon class="st2" points="332.8,514.8 381.4,530.1 466.1,476.8 			"/>
			<polygon class="st43" points="194.3,123.7 196.7,131.9 187,129.1 			"/>
		</g>
	</g>
</g>
</svg>
