<?xml version="1.0" encoding="iso-8859-1"?>
<!-- Generator: Adobe Illustrator 19.0.0, SVG Export Plug-In . SVG Version: 6.00 Build 0)  -->
<svg version="1.1" id="Capa_1" xmlns="http://www.w3.org/2000/svg" xmlns:xlink="http://www.w3.org/1999/xlink" x="0px" y="0px"
	 viewBox="0 0 470 470" style="enable-background:new 0 0 470 470;" xml:space="preserve">
<g>
	<path style="fill:#A7CBE6;" d="M341.796,82.839c19.8-24.11,48.399-39.424,79.803-42.322c0.071-0.008,0.143-0.013,0.214-0.019
		C425.344,40.179,428.907,40,432.5,40c2.736,0,5.123,1.47,6.433,3.657c5.576-1.456,11.526-3.011,16.055-4.194
		C454.989,38.809,455,38.155,455,37.5c0-12.406-10.094-22.5-22.5-22.5c-42.764,0-82.854,19.273-109.672,51.557
		C329.598,71.455,335.943,76.903,341.796,82.839z"/>
	<path style="fill:#6DA8D6;" d="M440,47.5c0,4.143-3.357,7.5-7.5,7.5c-0.895,0-1.786,0.023-2.677,0.046
		c-1.588,80.43-14.137,159.943-37.323,236.471v76.617c41.248-104.546,62.248-214.92,62.488-328.671l-16.054,4.196
		C439.606,44.783,440,46.094,440,47.5z"/>
	<path style="fill:#082947;" d="M470,37.5C470,16.822,453.178,0,432.5,0c-47.861,0-92.701,21.831-122.336,58.326
		c4.366,2.533,8.591,5.283,12.664,8.23C349.646,34.273,389.736,15,432.5,15c12.406,0,22.5,10.094,22.5,22.5
		c0,0.655-0.011,1.309-0.012,1.963c-0.239,113.751-21.24,224.125-62.488,328.671v-76.617
		c23.186-76.527,35.735-156.041,37.323-236.471C430.714,55.023,431.605,55,432.5,55c4.143,0,7.5-3.357,7.5-7.5
		c0-1.406-0.394-2.717-1.067-3.841C437.623,41.47,435.236,40,432.5,40c-3.593,0-7.156,0.179-10.686,0.498
		c-0.072,0.006-0.143,0.011-0.214,0.019c-31.404,2.898-60.003,18.212-79.803,42.322c3.564,3.613,6.943,7.407,10.128,11.365
		c15.618-19.921,37.958-33.331,62.865-37.675c-1.305,59.829-8.783,119.129-22.289,177.022v-14.741c0-18.541-3.23-36.34-9.141-52.876
		c-14.079-39.384-43.415-71.571-80.859-89.407V67.5c0-4.822-0.518-9.524-1.484-14.063C294.527,22.946,267.397,0,235,0
		s-59.527,22.946-66.016,53.438c-0.966,4.538-1.484,9.24-1.484,14.063v9.027c-37.444,17.836-66.78,50.023-80.859,89.407
		C80.73,182.471,77.5,200.27,77.5,218.811v14.739C63.994,175.657,56.516,116.358,55.211,56.529
		c24.907,4.344,47.247,17.754,62.865,37.675c3.185-3.958,6.564-7.752,10.128-11.365c-19.8-24.11-48.399-39.425-79.804-42.322
		c-0.071-0.008-0.143-0.013-0.215-0.019C44.655,40.179,41.093,40,37.5,40c-2.736,0-5.124,1.471-6.433,3.659
		C30.394,44.783,30,46.094,30,47.5c0,4.143,3.358,7.5,7.5,7.5c0.895,0,1.785,0.023,2.676,0.046
		c1.59,80.431,14.138,159.943,37.324,236.471v76.618C36.253,263.588,15.252,153.213,15.012,39.463C15.011,38.809,15,38.155,15,37.5
		C15,25.094,25.093,15,37.5,15c42.763,0,82.854,19.273,109.672,51.557c4.073-2.947,8.297-5.697,12.664-8.23
		C130.201,21.831,85.361,0,37.5,0C16.822,0,0,16.822,0,37.5c0,128.542,26.079,252.871,77.5,369.568V432.5
		c0,20.678,16.822,37.5,37.5,37.5h240c20.678,0,37.5-16.822,37.5-37.5v-25.43C443.92,290.373,470,166.043,470,37.5z M235,15
		c28.948,0,52.5,23.552,52.5,52.5v2.819c-4.908-1.74-9.926-3.243-15.042-4.496C271.577,45.921,255.115,30,235,30
		s-36.577,15.921-37.458,35.823c-5.116,1.253-10.135,2.756-15.042,4.496V67.5C182.5,38.552,206.051,15,235,15z M235,45
		c10.815,0,19.87,7.671,22.016,17.856c-7.197-1.011-14.544-1.546-22.016-1.546s-14.819,0.535-22.016,1.546
		C215.13,52.671,224.185,45,235,45z M355,455H115c-12.407,0-22.5-10.094-22.5-22.5V218.811c0-78.575,63.925-142.5,142.5-142.5
		c78.575,0,142.5,63.925,142.5,142.5V432.5C377.5,444.906,367.406,455,355,455z"/>
	<path style="fill:#A7CBE6;" d="M147.172,66.557C120.354,34.273,80.263,15,37.5,15C25.093,15,15,25.094,15,37.5
		c0,0.655,0.011,1.309,0.012,1.963l16.054,4.196C32.376,41.471,34.764,40,37.5,40c3.593,0,7.155,0.179,10.686,0.498
		c0.072,0.006,0.144,0.011,0.215,0.019c31.405,2.897,60.004,18.212,79.804,42.322C134.058,76.903,140.402,71.455,147.172,66.557z"/>
	<path style="fill:#6DA8D6;" d="M77.5,368.135v-76.618c-23.185-76.527-35.734-156.04-37.324-236.471
		C39.285,55.023,38.395,55,37.5,55c-4.142,0-7.5-3.357-7.5-7.5c0-1.406,0.394-2.717,1.067-3.841l-16.054-4.196
		C15.252,153.213,36.253,263.588,77.5,368.135z"/>
	<path style="fill:#FFCC75;" d="M115,431.845h240c8.939,0,16.992-3.967,22.5-10.222V218.811c0-78.575-63.925-142.5-142.5-142.5
		c-78.575,0-142.5,63.925-142.5,142.5v202.813C98.008,427.878,106.061,431.845,115,431.845z M362.5,222.458V237.5
		c0,4.143-3.357,7.5-7.5,7.5s-7.5-3.357-7.5-7.5v-15.042c0-4.143,3.357-7.5,7.5-7.5S362.5,218.315,362.5,222.458z M345.668,171.808
		c3.905-1.383,8.191,0.662,9.572,4.568c1.772,5.008,3.242,10.181,4.369,15.373c0.878,4.048-1.692,8.041-5.74,8.92
		c-0.535,0.115-1.07,0.172-1.597,0.172c-3.454,0-6.561-2.399-7.322-5.912c-0.993-4.576-2.288-9.135-3.851-13.549
		C339.718,177.476,341.763,173.189,345.668,171.808z M321.162,135.035c3.142-2.7,7.878-2.338,10.576,0.803
		c3.458,4.026,6.696,8.309,9.625,12.729c2.288,3.453,1.344,8.106-2.109,10.395c-1.274,0.845-2.713,1.249-4.136,1.249
		c-2.431,0-4.815-1.18-6.259-3.358c-2.587-3.903-5.446-7.686-8.5-11.241C317.66,142.469,318.021,137.733,321.162,135.035z
		 M285.09,109.513c1.963-3.647,6.512-5.012,10.159-3.05c4.668,2.513,9.229,5.35,13.555,8.431c3.374,2.403,4.161,7.087,1.759,10.46
		c-1.464,2.055-3.772,3.15-6.116,3.15c-1.505,0-3.024-0.452-4.344-1.392c-3.819-2.721-7.845-5.224-11.963-7.44
		C284.492,117.708,283.127,113.16,285.09,109.513z M242.236,98.791c0.504-4.111,4.252-7.029,8.356-6.532
		c5.27,0.646,10.547,1.633,15.687,2.934c4.016,1.016,6.447,5.095,5.431,9.11c-0.859,3.398-3.913,5.662-7.265,5.662
		c-0.609,0-1.229-0.075-1.846-0.231c-4.531-1.146-9.185-2.017-13.831-2.586C244.657,106.644,241.732,102.902,242.236,98.791z
		 M310,260c12.406,0,22.5,10.094,22.5,22.5v60c0,4.143-3.357,7.5-7.5,7.5v15c4.143,0,7.5,3.357,7.5,7.5v15
		c0,12.406-10.094,22.5-22.5,22.5H160c-12.407,0-22.5-10.094-22.5-22.5v-105c0-12.406,10.093-22.5,22.5-22.5H310z M203.836,95.163
		c5.138-1.295,10.419-2.277,15.697-2.92c4.114-0.487,7.851,2.429,8.351,6.539c0.5,4.112-2.428,7.851-6.54,8.352
		c-4.655,0.566-9.312,1.433-13.842,2.574c-0.615,0.155-1.232,0.229-1.838,0.229c-3.355,0-6.41-2.268-7.267-5.669
		C197.384,100.252,199.82,96.176,203.836,95.163z M161.285,114.831c4.33-3.078,8.894-5.912,13.565-8.421
		c3.648-1.96,8.196-0.591,10.156,3.059s0.59,8.196-3.059,10.156c-4.122,2.214-8.149,4.714-11.971,7.431
		c-1.319,0.938-2.836,1.389-4.34,1.389c-2.346,0-4.656-1.098-6.119-3.155C157.118,121.913,157.909,117.231,161.285,114.831z
		 M128.712,148.455c2.928-4.411,6.166-8.684,9.621-12.699c2.701-3.14,7.436-3.497,10.577-0.793c3.14,2.701,3.495,7.437,0.793,10.576
		c-3.051,3.546-5.91,7.318-8.495,11.213c-1.444,2.175-3.827,3.353-6.255,3.353c-1.425,0-2.865-0.405-4.142-1.253
		C127.361,156.561,126.42,151.906,128.712,148.455z M110.421,191.61c1.132-5.188,2.607-10.355,4.383-15.357
		c1.386-3.903,5.676-5.942,9.577-4.558c3.903,1.386,5.944,5.674,4.558,9.577c-1.565,4.408-2.865,8.962-3.863,13.535
		c-0.766,3.509-3.871,5.903-7.32,5.903c-0.53,0-1.067-0.057-1.606-0.175C112.103,199.653,109.538,195.657,110.421,191.61z
		 M107.5,222.332c0-4.143,3.358-7.5,7.5-7.5s7.5,3.357,7.5,7.5v15.028c0,4.143-3.358,7.5-7.5,7.5s-7.5-3.357-7.5-7.5V222.332z"/>
	<path style="fill:#FFCC75;" d="M302.5,76.527c37.444,17.836,66.78,50.023,80.859,89.407c-3.996-26.905-15.139-51.477-31.435-71.73
		c-3.185-3.958-6.564-7.752-10.128-11.365c-5.854-5.936-12.198-11.384-18.968-16.282c-4.073-2.947-8.297-5.697-12.664-8.23
		c-2.985-1.732-6.037-3.361-9.148-4.889c0.966,4.538,1.484,9.24,1.484,14.063V76.527z"/>
	<path style="fill:#FFCC75;" d="M257.016,62.856C254.87,52.671,245.815,45,235,45c-10.815,0-19.87,7.671-22.016,17.856
		c7.197-1.011,14.544-1.546,22.016-1.546S249.819,61.846,257.016,62.856z"/>
	<path style="fill:#FFCC75;" d="M147.172,66.557c-6.77,4.898-13.114,10.347-18.968,16.282c-3.563,3.613-6.943,7.407-10.128,11.365
		c-16.296,20.254-27.439,44.824-31.435,71.73c14.079-39.384,43.415-71.571,80.859-89.407V67.5c0-4.822,0.518-9.524,1.484-14.063
		c-3.111,1.527-6.163,3.156-9.148,4.889C155.469,60.859,151.245,63.609,147.172,66.557z"/>
	<path style="fill:#FFFFFF;" d="M160,275c-4.136,0-7.5,3.364-7.5,7.5V300h165v-17.5c0-4.136-3.364-7.5-7.5-7.5H160z"/>
	<path style="fill:#F2484B;" d="M317.5,342.5V315h-15v22.5c0,4.143-3.357,7.5-7.5,7.5s-7.5-3.357-7.5-7.5V315h-135v72.5
		c0,4.136,3.364,7.5,7.5,7.5h150c4.136,0,7.5-3.364,7.5-7.5v-15c0-4.143,3.357-7.5,7.5-7.5v-15
		C320.857,350,317.5,346.643,317.5,342.5z"/>
	<path style="fill:#6DA8D6;" d="M197.542,65.823C198.423,45.921,214.885,30,235,30s36.577,15.921,37.458,35.823
		c5.116,1.253,10.135,2.756,15.042,4.496V67.5c0-28.948-23.552-52.5-52.5-52.5c-28.949,0-52.5,23.552-52.5,52.5v2.819
		C187.408,68.579,192.426,67.076,197.542,65.823z"/>
	<path style="fill:#F2484B;" d="M115,244.86c4.142,0,7.5-3.357,7.5-7.5v-15.028c0-4.143-3.358-7.5-7.5-7.5s-7.5,3.357-7.5,7.5
		v15.028C107.5,241.503,110.858,244.86,115,244.86z"/>
	<path style="fill:#F2484B;" d="M116.15,200.536c0.539,0.118,1.076,0.175,1.606,0.175c3.449,0,6.555-2.395,7.32-5.903
		c0.998-4.573,2.297-9.127,3.863-13.535c1.386-3.903-0.654-8.191-4.558-9.577c-3.901-1.385-8.191,0.654-9.577,4.558
		c-1.776,5.002-3.251,10.169-4.383,15.357C109.538,195.657,112.103,199.653,116.15,200.536z"/>
	<path style="fill:#F2484B;" d="M130.812,158.852c1.276,0.848,2.716,1.253,4.142,1.253c2.428,0,4.811-1.178,6.255-3.353
		c2.585-3.895,5.444-7.667,8.495-11.213c2.702-3.14,2.347-7.875-0.793-10.576c-3.141-2.704-7.876-2.347-10.577,0.793
		c-3.456,4.016-6.693,8.288-9.621,12.699C126.42,151.906,127.361,156.561,130.812,158.852z"/>
	<path style="fill:#F2484B;" d="M165.637,128.444c1.503,0,3.021-0.451,4.34-1.389c3.821-2.717,7.849-5.217,11.971-7.431
		c3.649-1.96,5.019-6.507,3.059-10.156s-6.508-5.019-10.156-3.059c-4.671,2.509-9.235,5.343-13.565,8.421
		c-3.375,2.4-4.167,7.082-1.766,10.458C160.981,127.347,163.292,128.444,165.637,128.444z"/>
	<path style="fill:#F2484B;" d="M205.664,109.938c0.606,0,1.224-0.074,1.838-0.229c4.53-1.142,9.188-2.008,13.842-2.574
		c4.112-0.501,7.04-4.239,6.54-8.352c-0.5-4.11-4.237-7.026-8.351-6.539c-5.278,0.643-10.559,1.625-15.697,2.92
		c-4.017,1.013-6.452,5.089-5.439,9.105C199.254,107.67,202.309,109.938,205.664,109.938z"/>
	<path style="fill:#F2484B;" d="M248.769,107.147c4.646,0.569,9.3,1.439,13.831,2.586c0.617,0.156,1.236,0.231,1.846,0.231
		c3.352,0,6.405-2.264,7.265-5.662c1.017-4.016-1.415-8.095-5.431-9.11c-5.14-1.301-10.417-2.288-15.687-2.934
		c-4.104-0.497-7.853,2.421-8.356,6.532S244.657,106.644,248.769,107.147z"/>
	<path style="fill:#F2484B;" d="M288.14,119.672c4.118,2.217,8.144,4.72,11.963,7.44c1.319,0.939,2.839,1.392,4.344,1.392
		c2.344,0,4.652-1.096,6.116-3.15c2.402-3.373,1.615-8.057-1.759-10.46c-4.326-3.081-8.887-5.918-13.555-8.431
		c-3.647-1.962-8.196-0.598-10.159,3.05S284.492,117.708,288.14,119.672z"/>
	<path style="fill:#F2484B;" d="M328.859,156.853c1.443,2.179,3.828,3.358,6.259,3.358c1.423,0,2.861-0.404,4.136-1.249
		c3.453-2.288,4.397-6.941,2.109-10.395c-2.929-4.421-6.167-8.703-9.625-12.729c-2.698-3.141-7.435-3.503-10.576-0.803
		c-3.142,2.698-3.502,7.434-0.803,10.576C323.413,149.167,326.272,152.949,328.859,156.853z"/>
	<path style="fill:#F2484B;" d="M341.1,181.38c1.563,4.414,2.857,8.973,3.851,13.549c0.762,3.513,3.868,5.912,7.322,5.912
		c0.526,0,1.062-0.057,1.597-0.172c4.048-0.879,6.618-4.872,5.74-8.92c-1.127-5.192-2.597-10.365-4.369-15.373
		c-1.381-3.906-5.667-5.951-9.572-4.568C341.763,173.189,339.718,177.476,341.1,181.38z"/>
	<path style="fill:#F2484B;" d="M347.5,222.458V237.5c0,4.143,3.357,7.5,7.5,7.5s7.5-3.357,7.5-7.5v-15.042
		c0-4.143-3.357-7.5-7.5-7.5S347.5,218.315,347.5,222.458z"/>
	<path style="fill:#082947;" d="M137.5,282.5v105c0,12.406,10.093,22.5,22.5,22.5h150c12.406,0,22.5-10.094,22.5-22.5v-15
		c0-4.143-3.357-7.5-7.5-7.5s-7.5,3.357-7.5,7.5v15c0,4.136-3.364,7.5-7.5,7.5H160c-4.136,0-7.5-3.364-7.5-7.5V315h135v22.5
		c0,4.143,3.357,7.5,7.5,7.5s7.5-3.357,7.5-7.5V315h15v27.5c0,4.143,3.357,7.5,7.5,7.5s7.5-3.357,7.5-7.5v-60
		c0-12.406-10.094-22.5-22.5-22.5H160C147.593,260,137.5,270.094,137.5,282.5z M317.5,282.5V300h-165v-17.5
		c0-4.136,3.364-7.5,7.5-7.5h150C314.136,275,317.5,278.364,317.5,282.5z"/>
</g>
<g>
</g>
<g>
</g>
<g>
</g>
<g>
</g>
<g>
</g>
<g>
</g>
<g>
</g>
<g>
</g>
<g>
</g>
<g>
</g>
<g>
</g>
<g>
</g>
<g>
</g>
<g>
</g>
<g>
</g>
</svg>
