<?xml version="1.0" encoding="iso-8859-1"?>
<!-- Generator: Adobe Illustrator 19.0.0, SVG Export Plug-In . SVG Version: 6.00 Build 0)  -->
<svg version="1.1" id="Capa_1" xmlns="http://www.w3.org/2000/svg" xmlns:xlink="http://www.w3.org/1999/xlink" x="0px" y="0px"
	 viewBox="0 0 470.091 470.091" style="enable-background:new 0 0 470.091 470.091;" xml:space="preserve">
<g>
	<path style="fill:#FFCC75;" d="M277.546,138.703c-3.862,1.008-7.878,1.53-11.944,1.53c-8.316,0-16.254-2.147-23.056-6.036v268.348
		c0,4.142-3.358,7.5-7.5,7.5s-7.5-3.358-7.5-7.5V134.197c-6.801,3.888-14.74,6.036-23.056,6.036c-4.067,0-8.082-0.521-11.944-1.53
		v323.842h35v-30c0-4.142,3.358-7.5,7.5-7.5s7.5,3.358,7.5,7.5v30h35V138.703z"/>
	<polygon style="fill:#274B6D;" points="225.462,50.046 244.629,50.046 235.046,27.046 	"/>
	<path style="fill:#F2EBD9;" d="M265.601,125.233c3.346,0,6.628-0.52,9.729-1.505l-24.451-58.683h-31.667l-24.451,58.683
		c3.1,0.985,6.383,1.504,9.729,1.504c10.023,0,19.15-4.483,24.415-11.993c1.404-2.002,3.696-3.195,6.141-3.195
		s4.737,1.192,6.141,3.195C246.451,120.75,255.578,125.233,265.601,125.233z"/>
	<path style="fill:#082947;" d="M235.046,425.046c-4.142,0-7.5,3.358-7.5,7.5v30c0,4.142,3.358,7.5,7.5,7.5s7.5-3.358,7.5-7.5v-30
		C242.546,428.404,239.188,425.046,235.046,425.046z"/>
	<path style="fill:#98D9D5;" d="M394.099,175.479l48.655-48.656c-6.067-1.11-12.231-1.684-18.438-1.684
		c-27.19,0-52.748,10.584-71.967,29.804c-23.943,23.943-34.182,57.662-28.129,90.416l48.666-48.666c2.929-2.929,7.677-2.93,10.606,0
		l10.607-10.607C391.17,183.156,391.17,178.408,394.099,175.479z"/>
	<path style="fill:#6DA8D6;" d="M399.403,188.282c-1.919,0-3.839-0.732-5.303-2.197c0,0-10.607,10.606-10.607,10.606
		c2.93,2.929,2.93,7.678,0,10.607l-48.656,48.656c6.067,1.111,12.231,1.684,18.439,1.684c27.189,0,52.748-10.584,71.967-29.803
		c23.943-23.943,34.182-57.663,28.129-90.417l-48.666,48.667C403.241,187.55,401.322,188.282,399.403,188.282z"/>
	<path style="fill:#082947;" d="M464.64,120.663c-0.01-0.035-0.02-0.069-0.031-0.103c-0.008-0.025-0.015-0.051-0.023-0.076
		c-0.012-0.039-0.031-0.074-0.043-0.113c-0.072-0.217-0.154-0.431-0.247-0.642c-0.03-0.069-0.063-0.137-0.095-0.205
		c-0.09-0.188-0.188-0.373-0.294-0.554c-0.039-0.068-0.078-0.136-0.119-0.202c-0.113-0.181-0.237-0.356-0.367-0.529
		c-0.041-0.054-0.078-0.111-0.121-0.164c-0.174-0.218-0.359-0.43-0.56-0.631c-0.202-0.202-0.414-0.387-0.632-0.561
		c-0.052-0.041-0.106-0.078-0.159-0.117c-0.174-0.132-0.352-0.257-0.535-0.372c-0.064-0.041-0.13-0.078-0.196-0.116
		c-0.184-0.107-0.37-0.207-0.56-0.297c-0.067-0.032-0.133-0.063-0.201-0.093c-0.213-0.094-0.43-0.177-0.649-0.25
		c-0.037-0.012-0.071-0.03-0.108-0.042c-0.023-0.007-0.046-0.013-0.069-0.021c-0.04-0.012-0.08-0.024-0.121-0.036
		c-11.385-3.583-23.224-5.403-35.194-5.403c-31.196,0-60.521,12.145-82.574,34.197c-29.87,29.87-41.163,72.995-30.036,113.536
		l-19.161,19.16V127.546c0-0.02-0.003-0.039-0.003-0.058c-0.001-0.094-0.009-0.188-0.014-0.281c-0.04-0.874-0.223-1.736-0.56-2.546
		l-29.162-69.989c-0.011-0.027-0.022-0.054-0.034-0.081l-20.804-49.93c-1.165-2.795-3.895-4.615-6.923-4.615
		s-5.758,1.82-6.923,4.615l-20.804,49.93c-0.011,0.027-0.022,0.054-0.034,0.081l-29.162,69.989c-0.337,0.808-0.52,1.668-0.56,2.541
		c-0.005,0.096-0.013,0.191-0.014,0.288c0,0.019-0.003,0.038-0.003,0.056v239.486l-19.161-19.161
		c11.127-40.54-0.167-83.666-30.036-113.535c-22.052-22.052-51.377-34.197-82.574-34.197c-11.969,0-23.809,1.82-35.194,5.403
		c-0.04,0.012-0.08,0.023-0.121,0.036c-0.023,0.007-0.046,0.013-0.069,0.021c-0.037,0.012-0.071,0.029-0.108,0.042
		c-0.219,0.073-0.436,0.156-0.649,0.25c-0.068,0.03-0.134,0.062-0.201,0.093c-0.19,0.09-0.376,0.189-0.56,0.297
		c-0.066,0.039-0.132,0.076-0.197,0.116c-0.183,0.115-0.36,0.239-0.534,0.371c-0.053,0.04-0.108,0.076-0.16,0.118
		c-0.218,0.174-0.43,0.359-0.632,0.561c-0.202,0.202-0.386,0.414-0.56,0.631c-0.042,0.053-0.08,0.11-0.121,0.164
		c-0.13,0.173-0.254,0.348-0.367,0.529c-0.042,0.066-0.08,0.134-0.119,0.202c-0.106,0.182-0.204,0.366-0.294,0.554
		c-0.033,0.068-0.065,0.137-0.096,0.206c-0.093,0.211-0.174,0.424-0.246,0.641c-0.013,0.039-0.031,0.074-0.044,0.113
		c-0.008,0.025-0.015,0.05-0.023,0.076c-0.01,0.034-0.021,0.068-0.031,0.103c-13.144,41.751-2.123,86.865,28.791,117.779
		c22.053,22.052,51.378,34.197,82.574,34.197c10.494,0,20.889-1.398,30.966-4.157l29.763,29.763v74.301c0,4.142,3.358,7.5,7.5,7.5
		s7.5-3.358,7.5-7.5V138.703c3.862,1.008,7.878,1.53,11.944,1.53c8.316,0,16.254-2.147,23.056-6.036v268.348
		c0,4.142,3.358,7.5,7.5,7.5s7.5-3.358,7.5-7.5V134.197c6.801,3.888,14.74,6.036,23.056,6.036c4.067,0,8.082-0.522,11.944-1.53
		v323.842c0,4.142,3.358,7.5,7.5,7.5s7.5-3.358,7.5-7.5V298.245l29.763-29.763c10.076,2.759,20.471,4.157,30.966,4.157
		c31.195,0,60.523-12.146,82.574-34.197C466.763,207.528,477.784,162.414,464.64,120.663z M44.849,317.836
		c-23.943-23.943-34.182-57.663-28.129-90.417l118.536,118.536c-6.067,1.111-12.231,1.684-18.439,1.684
		C89.627,347.639,64.068,337.054,44.849,317.836z M117.742,244.943c23.942,23.943,34.182,57.662,28.129,90.416L27.337,216.823
		c6.067-1.11,12.231-1.684,18.438-1.684C72.965,215.139,98.523,225.723,117.742,244.943z M241.187,113.24
		c-1.404-2.002-3.696-3.195-6.141-3.195s-4.737,1.192-6.141,3.195c-5.265,7.509-14.392,11.993-24.415,11.993
		c-3.346,0-6.628-0.52-9.729-1.504l24.451-58.683h31.667l24.451,58.683c-3.101,0.985-6.383,1.505-9.729,1.505
		C255.578,125.233,246.451,120.75,241.187,113.24z M225.462,50.046l9.583-23l9.583,23H225.462z M425.242,227.836
		c-19.22,19.219-44.778,29.804-71.967,29.803c-6.208,0-12.372-0.573-18.439-1.684l48.656-48.656c2.929-2.929,2.929-7.678,0-10.606
		c-2.929-2.93-7.678-2.929-10.606,0l-48.666,48.666c-6.053-32.754,4.187-66.473,28.129-90.416
		c19.219-19.219,44.777-29.804,71.967-29.804c6.207,0,12.372,0.574,18.438,1.684l-48.655,48.656c-2.929,2.929-2.929,7.677,0,10.606
		c1.465,1.465,3.384,2.197,5.304,2.197s3.839-0.732,5.303-2.197l48.666-48.667C459.425,170.173,449.185,203.892,425.242,227.836z"/>
	<path style="fill:#98D9D5;" d="M145.872,335.358c6.053-32.754-4.187-66.473-28.129-90.416
		c-19.219-19.219-44.777-29.804-71.967-29.804c-6.207,0-12.372,0.574-18.438,1.684L145.872,335.358z"/>
	<path style="fill:#6DA8D6;" d="M16.72,227.419c-6.053,32.754,4.186,66.474,28.129,90.417
		c19.219,19.219,44.778,29.803,71.968,29.803c6.208,0,12.372-0.573,18.439-1.684L16.72,227.419z"/>
</g>
<g>
</g>
<g>
</g>
<g>
</g>
<g>
</g>
<g>
</g>
<g>
</g>
<g>
</g>
<g>
</g>
<g>
</g>
<g>
</g>
<g>
</g>
<g>
</g>
<g>
</g>
<g>
</g>
<g>
</g>
</svg>
