<?xml version="1.0" encoding="iso-8859-1"?>
<!-- Generator: Adobe Illustrator 19.0.0, SVG Export Plug-In . SVG Version: 6.00 Build 0)  -->
<svg version="1.1" id="Capa_1" xmlns="http://www.w3.org/2000/svg" xmlns:xlink="http://www.w3.org/1999/xlink" x="0px" y="0px"
	 viewBox="0 0 470 470" style="enable-background:new 0 0 470 470;" xml:space="preserve">
<g>
	<path style="fill:#185F8D;" d="M382.394,252.362c-4.036,0.934-8.064-1.581-8.998-5.616c-4.896,1.033-9.797,2.032-14.705,2.988
		c0.003,0.019,0.009,0.035,0.013,0.054c0.745,4.074-1.955,7.981-6.029,8.727c-25.948,4.742-52.402,7.916-78.746,9.488v43.688
		c0,4.143-3.358,7.5-7.5,7.5h-60c-4.142,0-7.5-3.357-7.5-7.5v-43.498c-58.949-3.248-116.839-14.39-172.5-33.175v140.307
		c42.276,3.606,76.069,37.398,79.675,79.675h260.65c3.606-42.276,37.399-76.068,79.675-79.675V234.036
		C425.454,241.213,403.995,247.364,382.394,252.362z"/>
	<path style="fill:#6DA8D6;" d="M379.013,237.749c25.737-5.955,51.275-13.57,75.987-22.657V107.5c0-12.406-10.093-22.5-22.5-22.5
		h-395C25.093,85,15,95.094,15,107.5v107.592c2.037,0.75,4.078,1.487,6.122,2.215c0.097,0.03,0.19,0.067,0.285,0.101
		c57.117,20.323,116.738,32.332,177.523,35.759v-31.475c0-4.143,3.358-7.5,7.5-7.5h60c4.142,0,7.5,3.357,7.5,7.5v31.287
		c25.445-1.555,50.989-4.639,76.049-9.22c4.055-0.737,7.944,1.931,8.714,5.976c4.908-0.956,9.809-1.955,14.698-3.026
		C372.481,242.686,374.99,238.68,379.013,237.749z M52.999,160.477c-4.142,0-7.5-3.357-7.5-7.5c0-4.142,3.358-7.5,7.5-7.5
		c4.142,0,7.5,3.357,7.5,7.5C60.499,157.119,57.141,160.477,52.999,160.477z M82.999,130.477c-4.142,0-7.5-3.357-7.5-7.5
		c0-4.143,3.358-7.5,7.5-7.5c4.142,0,7.5,3.357,7.5,7.5C90.499,127.118,87.141,130.477,82.999,130.477z"/>
	<path style="fill:#FFCC75;" d="M167.5,70V37.5c0-4.143,3.358-7.5,7.5-7.5h120c4.142,0,7.5,3.357,7.5,7.5V70h15V22.5
		c0-4.136-3.364-7.5-7.5-7.5H160c-4.136,0-7.5,3.364-7.5,7.5V70H167.5z"/>
	<rect x="213.929" y="289.191" style="fill:#FF6E1D;" width="45" height="15"/>
	<rect x="213.929" y="229.191" style="fill:#FFCC75;" width="45" height="45"/>
	<path style="fill:#082947;" d="M432.5,70h-100V22.5C332.5,10.094,322.407,0,310,0H160c-12.407,0-22.5,10.094-22.5,22.5V70h-100
		C16.822,70,0,86.822,0,107.5v112.802c0,3.121,1.933,5.916,4.853,7.018c2.188,0.825,4.381,1.636,6.576,2.438V432.5
		c0,20.678,16.822,37.5,37.5,37.5h375c20.678,0,37.5-16.822,37.5-37.5V228.686c1.238-0.458,2.484-0.9,3.718-1.366
		c2.92-1.102,4.853-3.896,4.853-7.018V107.5C470,86.822,453.178,70,432.5,70z M423.929,455h-42.113
		c3.51-34,30.613-61.102,64.613-64.612V432.5C446.429,444.906,436.336,455,423.929,455z M366.754,455h-260.65
		c-3.606-42.276-37.399-76.068-79.675-79.675V235.019c55.661,18.785,113.551,29.927,172.5,33.175v43.498c0,4.143,3.358,7.5,7.5,7.5
		h60c4.142,0,7.5-3.357,7.5-7.5v-43.688c26.344-1.572,52.799-4.746,78.746-9.488c4.075-0.745,6.774-4.652,6.029-8.727
		c-0.003-0.019-0.009-0.035-0.013-0.054c-0.77-4.045-4.659-6.713-8.714-5.976c-25.06,4.581-50.604,7.665-76.049,9.22v-31.287
		c0-4.143-3.358-7.5-7.5-7.5h-60c-4.142,0-7.5,3.357-7.5,7.5v31.475c-60.785-3.427-120.406-15.436-177.523-35.759
		c-0.095-0.033-0.188-0.07-0.285-0.101c-2.044-0.728-4.085-1.465-6.122-2.215V107.5C15,95.094,25.093,85,37.5,85h395
		c12.407,0,22.5,10.094,22.5,22.5v107.592c-24.712,9.087-50.25,16.702-75.987,22.657c-4.023,0.931-6.533,4.937-5.624,8.959
		c0.94,4.073,4.969,6.588,9.004,5.654c21.601-4.998,43.06-11.149,64.035-18.326v141.289C404.153,378.932,370.36,412.724,366.754,455
		z M213.929,304.191v-15h45v15H213.929z M258.929,274.191h-45v-45h45V274.191z M26.429,390.388
		c34,3.511,61.102,30.612,64.613,64.612H48.929c-12.407,0-22.5-10.094-22.5-22.5V390.388z M160,15h150c4.136,0,7.5,3.364,7.5,7.5V70
		h-15V37.5c0-4.143-3.358-7.5-7.5-7.5H175c-4.142,0-7.5,3.357-7.5,7.5V70h-15V22.5C152.5,18.364,155.864,15,160,15z M287.5,70h-105
		V45h105V70z"/>
	<circle style="fill:#082947;" cx="82.999" cy="122.977" r="7.5"/>
	<circle style="fill:#082947;" cx="52.999" cy="152.977" r="7.5"/>
	<path style="fill:#FFCC75;" d="M48.929,455h42.113c-3.51-34-30.613-61.102-64.613-64.612V432.5
		C26.429,444.906,36.522,455,48.929,455z"/>
	<path style="fill:#FFCC75;" d="M446.429,390.388c-34,3.511-61.102,30.612-64.613,64.612h42.113c12.407,0,22.5-10.094,22.5-22.5
		V390.388z"/>
</g>
<g>
</g>
<g>
</g>
<g>
</g>
<g>
</g>
<g>
</g>
<g>
</g>
<g>
</g>
<g>
</g>
<g>
</g>
<g>
</g>
<g>
</g>
<g>
</g>
<g>
</g>
<g>
</g>
<g>
</g>
</svg>
