<?xml version="1.0" encoding="iso-8859-1"?>
<!-- Generator: Adobe Illustrator 19.0.0, SVG Export Plug-In . SVG Version: 6.00 Build 0)  -->
<svg version="1.1" id="Capa_1" xmlns="http://www.w3.org/2000/svg" xmlns:xlink="http://www.w3.org/1999/xlink" x="0px" y="0px"
	 viewBox="0 0 470 470" style="enable-background:new 0 0 470 470;" xml:space="preserve">
<g>
	<path style="fill:#FFCC75;" d="M264.41,87.197c-1.465,1.464-3.385,2.196-5.304,2.196s-3.839-0.732-5.304-2.196
		c-2.929-2.93-2.929-7.678,0-10.607L275.393,55h-38.785l-75,75h38.786l32.197-32.197c2.928-2.927,7.677-2.928,10.607,0
		c2.929,2.93,2.929,7.678,0,10.607L221.607,130H349.75V55h-53.143L264.41,87.197z"/>
	<polygon style="fill:#FFCC75;" points="121,55 121,130 140.393,130 215.393,55 	"/>
	<rect x="302.75" y="225" style="fill:#F2484B;" width="47" height="15"/>
	<path style="fill:#185F8D;" d="M349.75,342.5V285h-47v130h47v-42.5c0-4.143,3.357-7.5,7.5-7.5v-15
		C353.107,350,349.75,346.643,349.75,342.5z"/>
	<rect x="211.5" y="285" style="fill:#185F8D;" width="46.25" height="42.5"/>
	<rect x="120.25" y="285" style="fill:#185F8D;" width="46.25" height="42.5"/>
	<rect x="211.5" y="372.5" style="fill:#185F8D;" width="46.25" height="42.5"/>
	<rect x="120.25" y="372.5" style="fill:#185F8D;" width="46.25" height="42.5"/>
	<path style="fill:#6DA8D6;" d="M367.25,15h-264.5c-12.407,0-22.5,10.094-22.5,22.5v395c0,12.406,10.093,22.5,22.5,22.5h264.5
		c12.406,0,22.5-10.094,22.5-22.5v-395C389.75,25.094,379.656,15,367.25,15z M181.5,422.5c0,4.143-3.358,7.5-7.5,7.5h-61.25
		c-4.142,0-7.5-3.357-7.5-7.5V365c0-4.143,3.358-7.5,7.5-7.5H174c4.142,0,7.5,3.357,7.5,7.5V422.5z M181.5,335
		c0,4.143-3.358,7.5-7.5,7.5h-61.25c-4.142,0-7.5-3.357-7.5-7.5v-57.5c0-4.143,3.358-7.5,7.5-7.5H174c4.142,0,7.5,3.357,7.5,7.5V335
		z M174,185h-60.5c-4.142,0-7.5-3.357-7.5-7.5s3.358-7.5,7.5-7.5H174c4.142,0,7.5,3.357,7.5,7.5S178.142,185,174,185z M272.75,422.5
		c0,4.143-3.357,7.5-7.5,7.5H204c-4.142,0-7.5-3.357-7.5-7.5V365c0-4.143,3.358-7.5,7.5-7.5h61.25c4.143,0,7.5,3.357,7.5,7.5V422.5z
		 M272.75,335c0,4.143-3.357,7.5-7.5,7.5H204c-4.142,0-7.5-3.357-7.5-7.5v-57.5c0-4.143,3.358-7.5,7.5-7.5h61.25
		c4.143,0,7.5,3.357,7.5,7.5V335z M364.75,342.5c0,4.143-3.357,7.5-7.5,7.5v15c4.143,0,7.5,3.357,7.5,7.5v50
		c0,4.143-3.357,7.5-7.5,7.5h-62c-4.143,0-7.5-3.357-7.5-7.5v-145c0-4.143,3.357-7.5,7.5-7.5h62c4.143,0,7.5,3.357,7.5,7.5V342.5z
		 M364.75,247.5c0,4.143-3.357,7.5-7.5,7.5h-62c-4.143,0-7.5-3.357-7.5-7.5v-30c0-4.143,3.357-7.5,7.5-7.5h62
		c4.143,0,7.5,3.357,7.5,7.5V247.5z M357.25,185H204c-4.142,0-7.5-3.357-7.5-7.5s3.358-7.5,7.5-7.5h153.25
		c4.143,0,7.5,3.357,7.5,7.5S361.393,185,357.25,185z M364.75,137.5c0,4.143-3.357,7.5-7.5,7.5H113.5c-4.142,0-7.5-3.357-7.5-7.5
		v-90c0-4.143,3.358-7.5,7.5-7.5h243.75c4.143,0,7.5,3.357,7.5,7.5V137.5z"/>
	<path style="fill:#082947;" d="M357.25,210h-62c-4.143,0-7.5,3.357-7.5,7.5v30c0,4.143,3.357,7.5,7.5,7.5h62
		c4.143,0,7.5-3.357,7.5-7.5v-30C364.75,213.357,361.393,210,357.25,210z M349.75,240h-47v-15h47V240z"/>
	<path style="fill:#082947;" d="M174,357.5h-61.25c-4.142,0-7.5,3.357-7.5,7.5v57.5c0,4.143,3.358,7.5,7.5,7.5H174
		c4.142,0,7.5-3.357,7.5-7.5V365C181.5,360.857,178.142,357.5,174,357.5z M166.5,415h-46.25v-42.5h46.25V415z"/>
	<path style="fill:#082947;" d="M265.25,357.5H204c-4.142,0-7.5,3.357-7.5,7.5v57.5c0,4.143,3.358,7.5,7.5,7.5h61.25
		c4.143,0,7.5-3.357,7.5-7.5V365C272.75,360.857,269.393,357.5,265.25,357.5z M257.75,415H211.5v-42.5h46.25V415z"/>
	<path style="fill:#082947;" d="M174,270h-61.25c-4.142,0-7.5,3.357-7.5,7.5V335c0,4.143,3.358,7.5,7.5,7.5H174
		c4.142,0,7.5-3.357,7.5-7.5v-57.5C181.5,273.357,178.142,270,174,270z M166.5,327.5h-46.25V285h46.25V327.5z"/>
	<path style="fill:#082947;" d="M265.25,270H204c-4.142,0-7.5,3.357-7.5,7.5V335c0,4.143,3.358,7.5,7.5,7.5h61.25
		c4.143,0,7.5-3.357,7.5-7.5v-57.5C272.75,273.357,269.393,270,265.25,270z M257.75,327.5H211.5V285h46.25V327.5z"/>
	<path style="fill:#082947;" d="M357.25,270h-62c-4.143,0-7.5,3.357-7.5,7.5v145c0,4.143,3.357,7.5,7.5,7.5h62
		c4.143,0,7.5-3.357,7.5-7.5v-50c0-4.143-3.357-7.5-7.5-7.5s-7.5,3.357-7.5,7.5V415h-47V285h47v57.5c0,4.143,3.357,7.5,7.5,7.5
		s7.5-3.357,7.5-7.5v-65C364.75,273.357,361.393,270,357.25,270z"/>
	<path style="fill:#082947;" d="M367.25,0h-264.5c-20.678,0-37.5,16.822-37.5,37.5v395c0,20.678,16.822,37.5,37.5,37.5h264.5
		c20.678,0,37.5-16.822,37.5-37.5v-395C404.75,16.822,387.928,0,367.25,0z M389.75,432.5c0,12.406-10.094,22.5-22.5,22.5h-264.5
		c-12.407,0-22.5-10.094-22.5-22.5v-395c0-12.406,10.093-22.5,22.5-22.5h264.5c12.406,0,22.5,10.094,22.5,22.5V432.5z"/>
	<polygon style="fill:#FFFFFF;" points="215.393,55 140.393,130 161.607,130 236.607,55 	"/>
	<path style="fill:#FFFFFF;" d="M253.803,87.197c1.465,1.464,3.385,2.196,5.304,2.196s3.839-0.732,5.304-2.196L296.607,55h-21.215
		l-21.59,21.59C250.874,79.52,250.874,84.268,253.803,87.197z"/>
	<path style="fill:#FFFFFF;" d="M243.197,97.803c-2.93-2.928-7.679-2.927-10.607,0L200.393,130h21.214l21.59-21.59
		C246.126,105.48,246.126,100.732,243.197,97.803z"/>
	<path style="fill:#082947;" d="M357.25,40H113.5c-4.142,0-7.5,3.357-7.5,7.5v90c0,4.143,3.358,7.5,7.5,7.5h243.75
		c4.143,0,7.5-3.357,7.5-7.5v-90C364.75,43.357,361.393,40,357.25,40z M349.75,130H121V55h228.75V130z"/>
	<path style="fill:#082947;" d="M357.25,170H204c-4.142,0-7.5,3.357-7.5,7.5s3.358,7.5,7.5,7.5h153.25c4.143,0,7.5-3.357,7.5-7.5
		S361.393,170,357.25,170z"/>
	<path style="fill:#082947;" d="M174,170h-60.5c-4.142,0-7.5,3.357-7.5,7.5s3.358,7.5,7.5,7.5H174c4.142,0,7.5-3.357,7.5-7.5
		S178.142,170,174,170z"/>
</g>
<g>
</g>
<g>
</g>
<g>
</g>
<g>
</g>
<g>
</g>
<g>
</g>
<g>
</g>
<g>
</g>
<g>
</g>
<g>
</g>
<g>
</g>
<g>
</g>
<g>
</g>
<g>
</g>
<g>
</g>
</svg>
