<?xml version="1.0" encoding="iso-8859-1"?>
<!-- Generator: Adobe Illustrator 19.0.0, SVG Export Plug-In . SVG Version: 6.00 Build 0)  -->
<svg version="1.1" id="Capa_1" xmlns="http://www.w3.org/2000/svg" xmlns:xlink="http://www.w3.org/1999/xlink" x="0px" y="0px"
	 viewBox="0 0 470 470" style="enable-background:new 0 0 470 470;" xml:space="preserve">
<g>
	<path style="fill:#FFFFFF;" d="M15,137.3V395h440V137.3H15z M88,349.8H58c-4.142,0-7.5-3.358-7.5-7.5s3.358-7.5,7.5-7.5h30
		c4.142,0,7.5,3.358,7.5,7.5S92.142,349.8,88,349.8z M88,295.8H58c-4.142,0-7.5-3.358-7.5-7.5s3.358-7.5,7.5-7.5h30
		c4.142,0,7.5,3.358,7.5,7.5S92.142,295.8,88,295.8z M88,241.8H58c-4.142,0-7.5-3.358-7.5-7.5s3.358-7.5,7.5-7.5h30
		c4.142,0,7.5,3.358,7.5,7.5S92.142,241.8,88,241.8z M88,187.8H58c-4.142,0-7.5-3.358-7.5-7.5s3.358-7.5,7.5-7.5h30
		c4.142,0,7.5,3.358,7.5,7.5S92.142,187.8,88,187.8z M169,349.8h-30c-4.142,0-7.5-3.358-7.5-7.5s3.358-7.5,7.5-7.5h30
		c4.142,0,7.5,3.358,7.5,7.5S173.142,349.8,169,349.8z M169,295.8h-30c-4.142,0-7.5-3.358-7.5-7.5s3.358-7.5,7.5-7.5h30
		c4.142,0,7.5,3.358,7.5,7.5S173.142,295.8,169,295.8z M169,241.8h-30c-4.142,0-7.5-3.358-7.5-7.5s3.358-7.5,7.5-7.5h30
		c4.142,0,7.5,3.358,7.5,7.5S173.142,241.8,169,241.8z M169,187.8h-30c-4.142,0-7.5-3.358-7.5-7.5s3.358-7.5,7.5-7.5h30
		c4.142,0,7.5,3.358,7.5,7.5S173.142,187.8,169,187.8z M250,349.8h-30c-4.142,0-7.5-3.358-7.5-7.5s3.358-7.5,7.5-7.5h30
		c4.143,0,7.5,3.358,7.5,7.5S254.143,349.8,250,349.8z M250,295.8h-30c-4.142,0-7.5-3.358-7.5-7.5s3.358-7.5,7.5-7.5h30
		c4.143,0,7.5,3.358,7.5,7.5S254.143,295.8,250,295.8z M250,241.8h-30c-4.142,0-7.5-3.358-7.5-7.5s3.358-7.5,7.5-7.5h30
		c4.143,0,7.5,3.358,7.5,7.5S254.143,241.8,250,241.8z M250,187.8h-30c-4.142,0-7.5-3.358-7.5-7.5s3.358-7.5,7.5-7.5h30
		c4.143,0,7.5,3.358,7.5,7.5S254.143,187.8,250,187.8z M331,349.8h-30c-4.143,0-7.5-3.358-7.5-7.5s3.357-7.5,7.5-7.5h30
		c4.143,0,7.5,3.358,7.5,7.5S335.143,349.8,331,349.8z M331,295.8h-30c-4.143,0-7.5-3.358-7.5-7.5s3.357-7.5,7.5-7.5h30
		c4.143,0,7.5,3.358,7.5,7.5S335.143,295.8,331,295.8z M331,241.8h-30c-4.143,0-7.5-3.358-7.5-7.5s3.357-7.5,7.5-7.5h30
		c4.143,0,7.5,3.358,7.5,7.5S335.143,241.8,331,241.8z M331,187.8h-30c-4.143,0-7.5-3.358-7.5-7.5s3.357-7.5,7.5-7.5h30
		c4.143,0,7.5,3.358,7.5,7.5S335.143,187.8,331,187.8z M412,349.8h-30c-4.143,0-7.5-3.358-7.5-7.5s3.357-7.5,7.5-7.5h30
		c4.143,0,7.5,3.358,7.5,7.5S416.143,349.8,412,349.8z M412,295.8h-30c-4.143,0-7.5-3.358-7.5-7.5s3.357-7.5,7.5-7.5h30
		c4.143,0,7.5,3.358,7.5,7.5S416.143,295.8,412,295.8z M412,241.8h-30c-4.143,0-7.5-3.358-7.5-7.5s3.357-7.5,7.5-7.5h30
		c4.143,0,7.5,3.358,7.5,7.5S416.143,241.8,412,241.8z M412,187.8h-30c-4.143,0-7.5-3.358-7.5-7.5s3.357-7.5,7.5-7.5h30
		c4.143,0,7.5,3.358,7.5,7.5S416.143,187.8,412,187.8z"/>
	<path style="fill:#98D9D5;" d="M407.5,22.5v30c0,4.136,3.364,7.5,7.5,7.5s7.5-3.364,7.5-7.5v-30c0-4.136-3.364-7.5-7.5-7.5
		S407.5,18.364,407.5,22.5z"/>
	<path style="fill:#98D9D5;" d="M287.5,22.5v30c0,4.136,3.364,7.5,7.5,7.5s7.5-3.364,7.5-7.5v-30c0-4.136-3.364-7.5-7.5-7.5
		S287.5,18.364,287.5,22.5z"/>
	<path style="fill:#98D9D5;" d="M167.5,22.5v30c0,4.136,3.364,7.5,7.5,7.5s7.5-3.364,7.5-7.5v-30c0-4.136-3.364-7.5-7.5-7.5
		S167.5,18.364,167.5,22.5z"/>
	<path style="fill:#98D9D5;" d="M47.5,22.5v30c0,4.136,3.364,7.5,7.5,7.5s7.5-3.364,7.5-7.5v-30c0-4.136-3.364-7.5-7.5-7.5
		S47.5,18.364,47.5,22.5z"/>
	<path style="fill:#F2484B;" d="M15,45v77.3h440V45h-17.5v7.5c0,12.407-10.094,22.5-22.5,22.5s-22.5-10.093-22.5-22.5V45h-75v7.5
		c0,12.407-10.094,22.5-22.5,22.5s-22.5-10.093-22.5-22.5V45h-75v7.5c0,12.407-10.093,22.5-22.5,22.5s-22.5-10.093-22.5-22.5V45h-75
		v7.5C77.5,64.907,67.407,75,55,75S32.5,64.907,32.5,52.5V45H15z"/>
	<rect x="7.5" y="440" style="fill:#98D9D5;" width="455" height="15"/>
	<rect x="7.5" y="410" style="fill:#C1E8E6;" width="455" height="15"/>
	<path style="fill:#082947;" d="M0,432.5c0,4.142,3.358,7.5,7.5,7.5h455c4.143,0,7.5-3.358,7.5-7.5s-3.357-7.5-7.5-7.5H7.5
		C3.358,425,0,428.358,0,432.5z"/>
	<path style="fill:#082947;" d="M0,462.5c0,4.142,3.358,7.5,7.5,7.5h455c4.143,0,7.5-3.358,7.5-7.5s-3.357-7.5-7.5-7.5H7.5
		C3.358,455,0,458.358,0,462.5z"/>
	<path style="fill:#082947;" d="M462.5,30h-25v-7.5C437.5,10.093,427.406,0,415,0s-22.5,10.093-22.5,22.5V30h-75v-7.5
		C317.5,10.093,307.406,0,295,0s-22.5,10.093-22.5,22.5V30h-75v-7.5C197.5,10.093,187.407,0,175,0s-22.5,10.093-22.5,22.5V30h-75
		v-7.5C77.5,10.093,67.407,0,55,0S32.5,10.093,32.5,22.5V30h-25C3.358,30,0,33.358,0,37.5v365c0,4.142,3.358,7.5,7.5,7.5h455
		c4.143,0,7.5-3.358,7.5-7.5v-365C470,33.358,466.643,30,462.5,30z M62.5,22.5v30c0,4.136-3.364,7.5-7.5,7.5s-7.5-3.364-7.5-7.5v-30
		c0-4.136,3.364-7.5,7.5-7.5S62.5,18.364,62.5,22.5z M55,75c12.407,0,22.5-10.093,22.5-22.5V45h75v7.5
		c0,12.407,10.093,22.5,22.5,22.5s22.5-10.093,22.5-22.5V45h75v7.5c0,12.407,10.094,22.5,22.5,22.5s22.5-10.093,22.5-22.5V45h75v7.5
		c0,12.407,10.094,22.5,22.5,22.5s22.5-10.093,22.5-22.5V45H455v77.3H15V45h17.5v7.5C32.5,64.907,42.593,75,55,75z M182.5,22.5v30
		c0,4.136-3.364,7.5-7.5,7.5s-7.5-3.364-7.5-7.5v-30c0-4.136,3.364-7.5,7.5-7.5S182.5,18.364,182.5,22.5z M302.5,22.5v30
		c0,4.136-3.364,7.5-7.5,7.5s-7.5-3.364-7.5-7.5v-30c0-4.136,3.364-7.5,7.5-7.5S302.5,18.364,302.5,22.5z M422.5,22.5v30
		c0,4.136-3.364,7.5-7.5,7.5s-7.5-3.364-7.5-7.5v-30c0-4.136,3.364-7.5,7.5-7.5S422.5,18.364,422.5,22.5z M15,395V137.3h440V395H15z
		"/>
	<path style="fill:#F2484B;" d="M412,226.8h-30c-4.143,0-7.5,3.358-7.5,7.5s3.357,7.5,7.5,7.5h30c4.143,0,7.5-3.358,7.5-7.5
		S416.143,226.8,412,226.8z"/>
	<path style="fill:#082947;" d="M331,226.8h-30c-4.143,0-7.5,3.358-7.5,7.5s3.357,7.5,7.5,7.5h30c4.143,0,7.5-3.358,7.5-7.5
		S335.143,226.8,331,226.8z"/>
	<path style="fill:#082947;" d="M250,226.8h-30c-4.142,0-7.5,3.358-7.5,7.5s3.358,7.5,7.5,7.5h30c4.143,0,7.5-3.358,7.5-7.5
		S254.143,226.8,250,226.8z"/>
	<path style="fill:#082947;" d="M169,226.8h-30c-4.142,0-7.5,3.358-7.5,7.5s3.358,7.5,7.5,7.5h30c4.142,0,7.5-3.358,7.5-7.5
		S173.142,226.8,169,226.8z"/>
	<path style="fill:#082947;" d="M88,226.8H58c-4.142,0-7.5,3.358-7.5,7.5s3.358,7.5,7.5,7.5h30c4.142,0,7.5-3.358,7.5-7.5
		S92.142,226.8,88,226.8z"/>
	<path style="fill:#082947;" d="M331,280.8h-30c-4.143,0-7.5,3.358-7.5,7.5s3.357,7.5,7.5,7.5h30c4.143,0,7.5-3.358,7.5-7.5
		S335.143,280.8,331,280.8z"/>
	<path style="fill:#082947;" d="M250,280.8h-30c-4.142,0-7.5,3.358-7.5,7.5s3.358,7.5,7.5,7.5h30c4.143,0,7.5-3.358,7.5-7.5
		S254.143,280.8,250,280.8z"/>
	<path style="fill:#082947;" d="M169,280.8h-30c-4.142,0-7.5,3.358-7.5,7.5s3.358,7.5,7.5,7.5h30c4.142,0,7.5-3.358,7.5-7.5
		S173.142,280.8,169,280.8z"/>
	<path style="fill:#082947;" d="M88,280.8H58c-4.142,0-7.5,3.358-7.5,7.5s3.358,7.5,7.5,7.5h30c4.142,0,7.5-3.358,7.5-7.5
		S92.142,280.8,88,280.8z"/>
	<path style="fill:#082947;" d="M331,334.8h-30c-4.143,0-7.5,3.358-7.5,7.5s3.357,7.5,7.5,7.5h30c4.143,0,7.5-3.358,7.5-7.5
		S335.143,334.8,331,334.8z"/>
	<path style="fill:#F2484B;" d="M412,280.8h-30c-4.143,0-7.5,3.358-7.5,7.5s3.357,7.5,7.5,7.5h30c4.143,0,7.5-3.358,7.5-7.5
		S416.143,280.8,412,280.8z"/>
	<path style="fill:#F2484B;" d="M412,334.8h-30c-4.143,0-7.5,3.358-7.5,7.5s3.357,7.5,7.5,7.5h30c4.143,0,7.5-3.358,7.5-7.5
		S416.143,334.8,412,334.8z"/>
	<path style="fill:#082947;" d="M250,334.8h-30c-4.142,0-7.5,3.358-7.5,7.5s3.358,7.5,7.5,7.5h30c4.143,0,7.5-3.358,7.5-7.5
		S254.143,334.8,250,334.8z"/>
	<path style="fill:#082947;" d="M169,334.8h-30c-4.142,0-7.5,3.358-7.5,7.5s3.358,7.5,7.5,7.5h30c4.142,0,7.5-3.358,7.5-7.5
		S173.142,334.8,169,334.8z"/>
	<path style="fill:#082947;" d="M88,334.8H58c-4.142,0-7.5,3.358-7.5,7.5s3.358,7.5,7.5,7.5h30c4.142,0,7.5-3.358,7.5-7.5
		S92.142,334.8,88,334.8z"/>
	<path style="fill:#F2484B;" d="M412,172.8h-30c-4.143,0-7.5,3.358-7.5,7.5s3.357,7.5,7.5,7.5h30c4.143,0,7.5-3.358,7.5-7.5
		S416.143,172.8,412,172.8z"/>
	<path style="fill:#082947;" d="M331,172.8h-30c-4.143,0-7.5,3.358-7.5,7.5s3.357,7.5,7.5,7.5h30c4.143,0,7.5-3.358,7.5-7.5
		S335.143,172.8,331,172.8z"/>
	<path style="fill:#082947;" d="M250,172.8h-30c-4.142,0-7.5,3.358-7.5,7.5s3.358,7.5,7.5,7.5h30c4.143,0,7.5-3.358,7.5-7.5
		S254.143,172.8,250,172.8z"/>
	<path style="fill:#082947;" d="M169,172.8h-30c-4.142,0-7.5,3.358-7.5,7.5s3.358,7.5,7.5,7.5h30c4.142,0,7.5-3.358,7.5-7.5
		S173.142,172.8,169,172.8z"/>
	<path style="fill:#082947;" d="M88,172.8H58c-4.142,0-7.5,3.358-7.5,7.5s3.358,7.5,7.5,7.5h30c4.142,0,7.5-3.358,7.5-7.5
		S92.142,172.8,88,172.8z"/>
</g>
<g>
</g>
<g>
</g>
<g>
</g>
<g>
</g>
<g>
</g>
<g>
</g>
<g>
</g>
<g>
</g>
<g>
</g>
<g>
</g>
<g>
</g>
<g>
</g>
<g>
</g>
<g>
</g>
<g>
</g>
</svg>
