<?xml version="1.0" encoding="iso-8859-1"?>
<!-- Generator: Adobe Illustrator 19.0.0, SVG Export Plug-In . SVG Version: 6.00 Build 0)  -->
<svg version="1.1" id="Capa_1" xmlns="http://www.w3.org/2000/svg" xmlns:xlink="http://www.w3.org/1999/xlink" x="0px" y="0px"
	 viewBox="0 0 470 470" style="enable-background:new 0 0 470 470;" xml:space="preserve">
<g>
	<path style="fill:#FFCC75;" d="M388.56,339.749l-22.199-62.056h-74.605L239.059,425h179.998l-20.393-57.004
		c-1.396-3.9,0.635-8.192,4.534-9.588l-5.052-14.124C394.247,345.681,389.956,343.649,388.56,339.749z"/>
	<path style="fill:#F2EBD9;" d="M369.744,198.085c-0.29-0.811-0.438-1.666-0.438-2.526V105h-80.494v90.559
		c0,0.861-0.148,1.715-0.438,2.526L204.575,432.33c-2.266,6.334-1.907,12.104,1.01,16.247S213.814,455,220.542,455h217.033
		c6.728,0,12.04-2.281,14.957-6.423s3.275-9.912,1.01-16.247L369.744,198.085z M290.144,237.667l13.667-38.205V127.5
		c0-4.142,3.357-7.5,7.5-7.5s7.5,3.358,7.5,7.5v73.264c0,0.861-0.148,1.715-0.438,2.526l-14.105,39.43
		c-1.097,3.065-3.982,4.976-7.062,4.976c-0.839,0-1.691-0.142-2.526-0.44C290.779,245.86,288.749,241.567,290.144,237.667z
		 M435.838,436.819c-1.405,1.995-3.692,3.181-6.132,3.181H228.411c-2.439,0-4.727-1.187-6.132-3.181
		c-1.404-1.995-1.752-4.548-0.93-6.845l58.063-162.307c1.066-2.983,3.894-4.974,7.062-4.974h85.17c3.168,0,5.995,1.991,7.062,4.974
		l23.979,67.029c1.396,3.9-0.635,8.193-4.535,9.588c-0.001,0,5.051,14.124,5.051,14.124c3.902-1.395,8.193,0.634,9.589,4.535
		l23.979,67.03C437.59,432.271,437.243,434.824,435.838,436.819z"/>
	<path style="fill:#6DA8D6;" d="M219.518,300.192c0,4.142-3.358,7.5-7.5,7.5l-164.964-0.003c-1.356,6.511-2.042,13.152-2.042,19.811
		c0,53.762,43.738,97.5,97.5,97.5c7.544,0,15.06-0.869,22.339-2.582c3.938-0.927,7.872,1.439,8.939,5.305
		c6.816-2.133,13.34-4.931,19.485-8.339l42.64-119.194C235.916,300.19,219.518,300.19,219.518,300.192z"/>
	<path style="fill:#C1E8E6;" d="M190.452,427.277l2.824-7.894c-6.145,3.409-12.669,6.207-19.485,8.339
		c0.026,0.093,0.058,0.182,0.08,0.277c0.949,4.032-1.551,8.07-5.582,9.019c-8.405,1.979-17.077,2.981-25.776,2.981
		c-62.032,0-112.5-50.467-112.5-112.5c0-9.881,1.308-19.729,3.887-29.268c0.885-3.271,3.853-5.542,7.24-5.542l170.879,0.003
		c4.142,0,7.499,3.356,7.5,7.498h16.397l17.667-49.386c-3.457-4.998-7.246-9.746-11.328-14.224
		c-1.448,1.388-3.313,2.092-5.185,2.092c-1.897,0-3.796-0.715-5.256-2.15c-10.905-10.713-23.476-19.29-37.36-25.491
		c-2.702-1.207-4.441-3.889-4.441-6.848V15h-95v189.182c0,2.959-1.739,5.641-4.441,6.848c-45.9,20.503-75.559,66.221-75.559,116.471
		c0,70.304,57.196,127.5,127.5,127.5c8.527,0,17.05-0.846,25.331-2.515c3.989-0.804,7.866,1.72,8.78,5.656
		c4.949-1.289,9.79-2.846,14.502-4.667C187.411,445.893,187.122,436.584,190.452,427.277z M110.012,37.5c0-4.142,3.357-7.5,7.5-7.5
		s7.5,3.358,7.5,7.5v60c0,4.142-3.357,7.5-7.5,7.5s-7.5-3.358-7.5-7.5V37.5z M48.273,266.096
		c11.865-18.217,28.606-32.522,48.416-41.371l13.323-5.951V127.5c0-4.142,3.357-7.5,7.5-7.5s7.5,3.358,7.5,7.5v96.138
		c0,2.959-1.739,5.641-4.441,6.848l-17.765,7.936c-17.167,7.668-31.679,20.068-41.965,35.861c-1.438,2.207-3.84,3.408-6.291,3.408
		c-1.403,0-2.823-0.394-4.087-1.216C46.993,274.213,46.012,269.566,48.273,266.096z"/>
	<path style="fill:#082947;" d="M467.665,427.277l-83.359-233.02V105h2.5c4.143,0,7.5-3.358,7.5-7.5s-3.357-7.5-7.5-7.5H271.311
		c-4.143,0-7.5,3.358-7.5,7.5s3.357,7.5,7.5,7.5h2.5v89.258l-20.229,56.546l-17.667,49.386l-42.64,119.194l-2.824,7.894
		c-3.33,9.307-3.041,18.616,0.673,26.198c0.636,1.298,1.36,2.551,2.196,3.739C199.044,465.34,208.966,470,220.542,470h217.033
		c11.576,0,21.498-4.66,27.221-12.786C470.518,449.088,471.564,438.177,467.665,427.277z M452.532,448.577
		c-2.917,4.142-8.229,6.423-14.957,6.423H220.542c-6.728,0-12.04-2.281-14.957-6.423s-3.275-9.912-1.01-16.247l83.798-234.245
		c0.29-0.811,0.438-1.666,0.438-2.526V105h80.494v90.559c0,0.861,0.148,1.715,0.438,2.526l83.798,234.245
		C455.807,438.665,455.449,444.435,452.532,448.577z"/>
	<path style="fill:#FFFFFF;" d="M294.679,247.255c0.835,0.299,1.688,0.44,2.526,0.44c3.079,0,5.965-1.911,7.062-4.976l14.105-39.43
		c0.29-0.811,0.438-1.666,0.438-2.526V127.5c0-4.142-3.357-7.5-7.5-7.5s-7.5,3.358-7.5,7.5v71.962l-13.667,38.205
		C288.749,241.567,290.779,245.86,294.679,247.255z"/>
	<path style="fill:#082947;" d="M412.788,362.943c-1.396-3.901-5.687-5.93-9.588-4.535c-3.901,1.396-5.931,5.688-4.535,9.588
		L419.057,425H239.059l52.696-147.307h74.605l22.199,62.056c1.395,3.9,5.687,5.932,9.586,4.536c3.902-1.396,5.932-5.688,4.537-9.588
		l-23.979-67.029c-1.066-2.983-3.894-4.974-7.062-4.974h-85.17c-3.168,0-5.995,1.991-7.062,4.974l-58.063,162.307
		c-0.822,2.297-0.475,4.851,0.93,6.845c1.405,1.995,3.692,3.181,6.132,3.181h201.295c2.439,0,4.727-1.187,6.132-3.181
		s1.752-4.548,0.93-6.845L412.788,362.943z"/>
	<path style="fill:#FFFFFF;" d="M50.464,276.474c1.264,0.823,2.684,1.216,4.087,1.216c2.451,0,4.854-1.201,6.291-3.408
		c10.286-15.792,24.798-28.193,41.965-35.861l17.765-7.936c2.702-1.207,4.441-3.889,4.441-6.848V127.5c0-4.142-3.357-7.5-7.5-7.5
		s-7.5,3.358-7.5,7.5v91.274l-13.323,5.951c-19.81,8.848-36.551,23.154-48.416,41.371C46.012,269.566,46.993,274.213,50.464,276.474
		z"/>
	<path style="fill:#FFFFFF;" d="M117.512,105c4.143,0,7.5-3.358,7.5-7.5v-60c0-4.142-3.357-7.5-7.5-7.5s-7.5,3.358-7.5,7.5v60
		C110.012,101.642,113.37,105,117.512,105z"/>
	<path style="fill:#082947;" d="M167.844,452.485c-8.281,1.668-16.804,2.515-25.331,2.515c-70.304,0-127.5-57.196-127.5-127.5
		c0-50.25,29.658-95.967,75.559-116.471c2.702-1.207,4.441-3.889,4.441-6.848V15h95v189.182c0,2.959,1.739,5.641,4.441,6.848
		c13.885,6.202,26.455,14.778,37.36,25.491c1.46,1.435,3.358,2.15,5.256,2.15c1.871,0,3.737-0.703,5.185-2.092
		c0.055-0.052,0.113-0.098,0.166-0.152c2.902-2.955,2.86-7.704-0.095-10.606c-11.012-10.817-23.545-19.687-37.313-26.412V15h2.5
		c4.143,0,7.5-3.358,7.5-7.5s-3.357-7.5-7.5-7.5h-130c-4.143,0-7.5,3.358-7.5,7.5s3.357,7.5,7.5,7.5h2.5v184.41
		c-48.759,23.822-80,73.569-80,128.09c0,78.575,63.925,142.5,142.5,142.5c9.521,0,19.04-0.945,28.294-2.811
		c4.061-0.818,6.689-4.773,5.871-8.833c-0.015-0.073-0.038-0.142-0.054-0.214C175.709,454.206,171.832,451.681,167.844,452.485z"/>
	<path style="fill:#082947;" d="M164.851,422.418c-7.279,1.713-14.795,2.582-22.339,2.582c-53.762,0-97.5-43.738-97.5-97.5
		c0-6.658,0.686-13.299,2.042-19.811l164.964,0.003c4.142,0,7.5-3.358,7.5-7.5c-0.001-4.144-3.358-7.5-7.5-7.5l-170.879-0.003
		c-3.388,0-6.355,2.272-7.24,5.542c-2.579,9.54-3.887,19.387-3.887,29.268c0,62.033,50.468,112.5,112.5,112.5
		c8.699,0,17.371-1.003,25.776-2.981c4.031-0.949,6.531-4.987,5.582-9.019c-0.022-0.095-0.054-0.184-0.08-0.277
		C172.723,423.857,168.79,421.491,164.851,422.418z"/>
</g>
<g>
</g>
<g>
</g>
<g>
</g>
<g>
</g>
<g>
</g>
<g>
</g>
<g>
</g>
<g>
</g>
<g>
</g>
<g>
</g>
<g>
</g>
<g>
</g>
<g>
</g>
<g>
</g>
<g>
</g>
</svg>
