<?xml version="1.0" encoding="iso-8859-1"?>
<!-- Generator: Adobe Illustrator 19.0.0, SVG Export Plug-In . SVG Version: 6.00 Build 0)  -->
<svg version="1.1" id="Capa_1" xmlns="http://www.w3.org/2000/svg" xmlns:xlink="http://www.w3.org/1999/xlink" x="0px" y="0px"
	 viewBox="0 0 470 470" style="enable-background:new 0 0 470 470;" xml:space="preserve">
<g>
	<path style="fill:#F2EBD9;" d="M382.491,75.001C382.469,75,147.5,75,147.5,75c-4.142,0-7.5-3.357-7.5-7.5s3.358-7.5,7.5-7.5
		h226.146l-7.5-45H103.854l-7.5,45H117.5c4.142,0,7.5,3.357,7.5,7.5s-3.358,7.5-7.5,7.5H75v25h320V75
		C395,75,382.502,75,382.491,75.001z"/>
	<path style="fill:#98D9D5;" d="M89.941,195l10.704,190h268.709l10.704-190H89.941z M290.317,336.073c-4.142,0-7.5-3.358-7.5-7.5
		s3.358-7.5,7.5-7.5s7.5,3.358,7.5,7.5S294.459,336.073,290.317,336.073z M320.317,316.073c-4.142,0-7.5-3.358-7.5-7.5
		s3.358-7.5,7.5-7.5s7.5,3.358,7.5,7.5S324.459,316.073,320.317,316.073z"/>
	<polygon style="fill:#FFCC75;" points="111.491,400 114.589,455 355.411,455 358.509,400 	"/>
	<path style="fill:#FFCC75;" d="M88.769,130.012c4.136-0.231,7.676,2.931,7.909,7.066L99.096,180h271.807l2.418-42.922
		c0.233-4.135,3.778-7.301,7.909-7.066L382.077,115H87.923L88.769,130.012z"/>
	<path style="fill:#082947;" d="M402.5,60h-13.646l-8.956-53.733C379.295,2.65,376.167,0,372.5,0h-275
		c-3.667,0-6.795,2.65-7.398,6.267L81.146,60H67.5c-4.142,0-7.5,3.357-7.5,7.5v40c0,4.143,3.358,7.5,7.5,7.5h335
		c4.142,0,7.5-3.357,7.5-7.5v-40C410,63.357,406.642,60,402.5,60z M395,100H75V75h42.5c4.142,0,7.5-3.357,7.5-7.5
		s-3.358-7.5-7.5-7.5H96.354l7.5-45h262.293l7.5,45H147.5c-4.142,0-7.5,3.357-7.5,7.5s3.358,7.5,7.5,7.5h234.969
		C382.502,75,395,75,395,75V100z"/>
	<path style="fill:#082947;" d="M373.322,137.078L370.904,180H99.096l-2.418-42.922c-0.233-4.135-3.773-7.297-7.909-7.066
		c-4.137,0.233-7.3,3.774-7.067,7.91L84.072,180h-2.065c-2.063,0-4.034,0.85-5.45,2.348c-1.417,1.499-2.154,3.515-2.038,5.574
		l11.549,205c0.224,3.972,3.51,7.078,7.488,7.078h2.911l3.545,62.922c0.224,3.972,3.51,7.078,7.488,7.078h255
		c3.978,0,7.264-3.106,7.488-7.078L373.533,400h2.91c3.978,0,7.264-3.106,7.488-7.078l11.549-205
		c0.116-2.06-0.621-4.075-2.038-5.574c-1.417-1.498-3.388-2.348-5.45-2.348h-2.065l2.371-42.078c0.233-4.136-2.931-7.677-7.066-7.91
		C377.1,129.777,373.555,132.943,373.322,137.078z M114.589,455l-3.099-55h247.019l-3.099,55H114.589z M369.354,385H100.646
		L89.941,195h290.117L369.354,385z"/>
	<circle style="fill:#082947;" cx="320.317" cy="308.573" r="7.5"/>
	<circle style="fill:#082947;" cx="290.317" cy="328.573" r="7.5"/>
</g>
<g>
</g>
<g>
</g>
<g>
</g>
<g>
</g>
<g>
</g>
<g>
</g>
<g>
</g>
<g>
</g>
<g>
</g>
<g>
</g>
<g>
</g>
<g>
</g>
<g>
</g>
<g>
</g>
<g>
</g>
</svg>
