<?xml version="1.0" encoding="iso-8859-1"?>
<!-- Generator: Adobe Illustrator 19.0.0, SVG Export Plug-In . SVG Version: 6.00 Build 0)  -->
<svg version="1.1" id="Capa_1" xmlns="http://www.w3.org/2000/svg" xmlns:xlink="http://www.w3.org/1999/xlink" x="0px" y="0px"
	 viewBox="0 0 470 470" style="enable-background:new 0 0 470 470;" xml:space="preserve">
<g>
	<path style="fill:#FFFFFF;" d="M128.762,44.977h-22.5L106.239,395h257.523V44.999l-205.001-0.022c-4.14,0-7.496-3.355-7.499-7.495
		l-15-0.001C136.26,41.621,132.903,44.977,128.762,44.977z M235.012,370h-96.25c-4.142,0-7.5-3.358-7.5-7.5s3.358-7.5,7.5-7.5h96.25
		c4.143,0,7.5,3.358,7.5,7.5S239.155,370,235.012,370z M331.262,334.372h-192.5c-4.142,0-7.5-3.358-7.5-7.5s3.358-7.5,7.5-7.5h192.5
		c4.143,0,7.5,3.358,7.5,7.5S335.405,334.372,331.262,334.372z M331.262,298.744h-192.5c-4.142,0-7.5-3.358-7.5-7.5
		s3.358-7.5,7.5-7.5h192.5c4.143,0,7.5,3.358,7.5,7.5S335.405,298.744,331.262,298.744z M331.262,263.116h-192.5
		c-4.142,0-7.5-3.358-7.5-7.5s3.358-7.5,7.5-7.5h192.5c4.143,0,7.5,3.358,7.5,7.5S335.405,263.116,331.262,263.116z
		 M331.262,227.488h-192.5c-4.142,0-7.5-3.358-7.5-7.5s3.358-7.5,7.5-7.5h192.5c4.143,0,7.5,3.358,7.5,7.5
		S335.405,227.488,331.262,227.488z M331.262,191.86h-192.5c-4.142,0-7.5-3.358-7.5-7.5s3.358-7.5,7.5-7.5h192.5
		c4.143,0,7.5,3.358,7.5,7.5S335.405,191.86,331.262,191.86z M131.262,148.732c0-4.142,3.358-7.5,7.5-7.5h96.25
		c4.143,0,7.5,3.358,7.5,7.5s-3.357,7.5-7.5,7.5h-96.25C134.62,156.232,131.262,152.875,131.262,148.732z M331.262,120.604h-192.5
		c-4.142,0-7.5-3.358-7.5-7.5s3.358-7.5,7.5-7.5h192.5c4.143,0,7.5,3.358,7.5,7.5S335.405,120.604,331.262,120.604z M331.262,69.977
		c4.143,0,7.5,3.358,7.5,7.5s-3.357,7.5-7.5,7.5h-192.5c-4.142,0-7.5-3.358-7.5-7.5s3.358-7.5,7.5-7.5H331.262z"/>
	<path style="fill:#185F8D;" d="M371.25,15H98.75c-12.407,0-22.5,10.093-22.5,22.5v395c0,12.407,10.093,22.5,22.5,22.5h272.5
		c12.406,0,22.5-10.093,22.5-22.5v-395C393.75,25.093,383.656,15,371.25,15z M250,440h-30c-4.142,0-7.5-3.358-7.5-7.5
		s3.358-7.5,7.5-7.5h30c4.143,0,7.5,3.358,7.5,7.5S254.143,440,250,440z M378.762,402.5c0,4.142-3.357,7.5-7.5,7.5H98.738
		c-1.989,0-3.897-0.79-5.304-2.197c-1.406-1.407-2.196-3.314-2.196-5.304l0.024-365.023c0-4.142,3.358-7.5,7.5-7.5h30
		c4.142,0,7.5,3.358,7.5,7.5c0,0.004,15,0.005,15,0.005c0-4.148,3.358-7.505,7.5-7.505c0.001,0,212.501,0.023,212.501,0.023
		c4.142,0,7.499,3.358,7.499,7.5V402.5z"/>
	<path style="fill:#082947;" d="M371.25,0H98.75c-20.678,0-37.5,16.822-37.5,37.5v395c0,20.678,16.822,37.5,37.5,37.5h272.5
		c20.678,0,37.5-16.822,37.5-37.5v-395C408.75,16.822,391.928,0,371.25,0z M393.75,432.5c0,12.407-10.094,22.5-22.5,22.5H98.75
		c-12.407,0-22.5-10.093-22.5-22.5v-395c0-12.407,10.093-22.5,22.5-22.5h272.5c12.406,0,22.5,10.093,22.5,22.5V432.5z"/>
	<path style="fill:#082947;" d="M371.263,30l-212.5-0.023c-4.143,0-7.5,3.357-7.501,7.499c0.003,4.146,3.359,7.5,7.499,7.501
		l205.001,0.022V395H106.239l0.023-350.023h22.5c4.141,0,7.498-3.356,7.5-7.496c0-4.146-3.358-7.504-7.5-7.504h-30
		c-4.142,0-7.5,3.357-7.5,7.5L91.238,402.5c0,1.989,0.79,3.897,2.196,5.304c1.407,1.407,3.314,2.197,5.304,2.197h272.524
		c4.143,0,7.5-3.358,7.5-7.5v-365C378.762,33.358,375.405,30,371.263,30z"/>
	<path style="fill:#082947;" d="M250,425h-30c-4.142,0-7.5,3.358-7.5,7.5s3.358,7.5,7.5,7.5h30c4.143,0,7.5-3.358,7.5-7.5
		S254.143,425,250,425z"/>
	<path style="fill:#082947;" d="M131.262,77.477c0,4.142,3.358,7.5,7.5,7.5h192.5c4.143,0,7.5-3.358,7.5-7.5s-3.357-7.5-7.5-7.5
		h-192.5C134.62,69.977,131.262,73.334,131.262,77.477z"/>
	<path style="fill:#082947;" d="M331.262,105.604h-192.5c-4.142,0-7.5,3.358-7.5,7.5s3.358,7.5,7.5,7.5h192.5
		c4.143,0,7.5-3.358,7.5-7.5S335.405,105.604,331.262,105.604z"/>
	<path style="fill:#082947;" d="M138.762,156.232h96.25c4.143,0,7.5-3.358,7.5-7.5s-3.357-7.5-7.5-7.5h-96.25
		c-4.142,0-7.5,3.358-7.5,7.5S134.62,156.232,138.762,156.232z"/>
	<path style="fill:#082947;" d="M331.262,176.86h-192.5c-4.142,0-7.5,3.358-7.5,7.5s3.358,7.5,7.5,7.5h192.5
		c4.143,0,7.5-3.358,7.5-7.5S335.405,176.86,331.262,176.86z"/>
	<path style="fill:#082947;" d="M331.262,212.488h-192.5c-4.142,0-7.5,3.358-7.5,7.5s3.358,7.5,7.5,7.5h192.5
		c4.143,0,7.5-3.358,7.5-7.5S335.405,212.488,331.262,212.488z"/>
	<path style="fill:#082947;" d="M331.262,248.116h-192.5c-4.142,0-7.5,3.358-7.5,7.5s3.358,7.5,7.5,7.5h192.5
		c4.143,0,7.5-3.358,7.5-7.5S335.405,248.116,331.262,248.116z"/>
	<path style="fill:#082947;" d="M331.262,283.744h-192.5c-4.142,0-7.5,3.358-7.5,7.5s3.358,7.5,7.5,7.5h192.5
		c4.143,0,7.5-3.358,7.5-7.5S335.405,283.744,331.262,283.744z"/>
	<path style="fill:#082947;" d="M331.262,319.372h-192.5c-4.142,0-7.5,3.358-7.5,7.5s3.358,7.5,7.5,7.5h192.5
		c4.143,0,7.5-3.358,7.5-7.5S335.405,319.372,331.262,319.372z"/>
	<path style="fill:#082947;" d="M235.012,355h-96.25c-4.142,0-7.5,3.358-7.5,7.5s3.358,7.5,7.5,7.5h96.25c4.143,0,7.5-3.358,7.5-7.5
		S239.155,355,235.012,355z"/>
</g>
<g>
</g>
<g>
</g>
<g>
</g>
<g>
</g>
<g>
</g>
<g>
</g>
<g>
</g>
<g>
</g>
<g>
</g>
<g>
</g>
<g>
</g>
<g>
</g>
<g>
</g>
<g>
</g>
<g>
</g>
</svg>
