<?xml version="1.0" encoding="iso-8859-1"?>
<!-- Generator: Adobe Illustrator 19.0.0, SVG Export Plug-In . SVG Version: 6.00 Build 0)  -->
<svg version="1.1" id="Capa_1" xmlns="http://www.w3.org/2000/svg" xmlns:xlink="http://www.w3.org/1999/xlink" x="0px" y="0px"
	 viewBox="0 0 470.008 470.008" style="enable-background:new 0 0 470.008 470.008;" xml:space="preserve">
<g>
	
		<rect x="111.725" y="396.239" transform="matrix(0.7071 -0.7071 0.7071 0.7071 -245.6188 229.5038)" style="fill:#185F8D;" width="85" height="30"/>
	<path style="fill:#185F8D;" d="M69.372,347.599l-19.446,19.445l21.213,21.214l60.104-60.104l-21.213-21.213l-19.445,19.445
		c-1.464,1.464-3.384,2.196-5.303,2.196s-3.839-0.732-5.303-2.196l-10.606,10.606C72.301,339.922,72.301,344.669,69.372,347.599z"/>
	
		<rect x="107.405" y="336.919" transform="matrix(0.7071 0.7071 -0.7071 0.7071 304.1389 24.5745)" style="fill:#274B6D;" width="30" height="85"/>
	<path style="fill:#274B6D;" d="M58.766,336.991c2.929-2.928,7.678-2.928,10.606,0c0,0.001,10.606-10.605,10.606-10.605
		c-2.929-2.93-2.929-7.678,0-10.607l19.445-19.445L78.21,275.12l-60.104,60.104l21.213,21.213L58.766,336.991z"/>
	<path style="fill:#F2484B;" d="M329.976,164.779c-2.929,2.928-7.678,2.928-10.606,0l-65.408-65.409L88.817,264.514l26.508,26.508
		c0.017,0.017,31.826,31.826,31.826,31.826c0.005,0.005,58.339,58.339,58.339,58.339l165.144-165.144l-30.052-30.052
		c-2.929-2.93-2.929-7.678,0-10.607C340.586,175.381,329.979,164.775,329.976,164.779z"/>
	<path style="fill:#F2EBD9;" d="M432.511,136.498c-0.005-0.004-99.001-99-99.001-99c-0.005-0.005-1.767-1.768-1.767-1.768
		L271.64,95.834l58.336,58.337c2.928,2.929,2.929,7.674,0.003,10.604l10.607,10.606c2.929-2.925,7.676-2.924,10.603,0.003
		l22.981,22.981l60.105-60.104L432.511,136.498z"/>
	<path style="fill:#FFFFFF;" d="M447.751,78.821l-56.569-56.567c-0.496-0.496-1.012-0.962-1.538-1.411
		c-0.072-0.061-0.142-0.125-0.214-0.186c-0.464-0.387-0.944-0.747-1.429-1.097c-0.159-0.114-0.317-0.231-0.479-0.342
		c-0.429-0.295-0.868-0.569-1.311-0.834c-0.23-0.137-0.461-0.273-0.695-0.403c-0.411-0.228-0.828-0.442-1.25-0.646
		c-0.263-0.127-0.528-0.248-0.795-0.365c-0.427-0.187-0.858-0.364-1.294-0.525c-0.245-0.091-0.492-0.174-0.739-0.256
		c-0.482-0.16-0.967-0.312-1.457-0.44c-0.178-0.047-0.357-0.085-0.535-0.128c-0.568-0.134-1.138-0.256-1.713-0.346
		c-0.078-0.012-0.157-0.02-0.235-0.031c-0.649-0.094-1.302-0.167-1.959-0.204c-0.561-0.033-1.074-0.026-1.586-0.018
		c-0.351,0.006-0.7,0.022-1.046,0.047c-0.26,0.018-0.519,0.041-0.776,0.068c-0.391,0.043-0.778,0.095-1.161,0.16
		c-0.202,0.034-0.401,0.074-0.6,0.114c-0.413,0.084-0.823,0.177-1.224,0.288c-0.164,0.045-0.326,0.097-0.488,0.147
		c-0.414,0.126-0.825,0.261-1.225,0.415c-0.152,0.059-0.299,0.126-0.449,0.189c-0.393,0.165-0.783,0.334-1.16,0.525
		c-0.168,0.085-0.328,0.183-0.492,0.273c-0.345,0.189-0.689,0.379-1.018,0.591c-0.222,0.144-0.431,0.305-0.646,0.459
		c-0.259,0.185-0.523,0.361-0.771,0.56c-0.404,0.326-0.79,0.675-1.163,1.04c-0.05,0.048-0.106,0.09-0.155,0.139l-12.157,12.157
		l88.389,88.388l12.158-12.157c3.303-3.304,4.971-7.704,5.068-12.344C455.159,90.117,452.686,83.756,447.751,78.821z"/>
	<path style="fill:#082947;" d="M458.358,68.214L401.79,11.647c-0.456-0.457-0.923-0.899-1.397-1.331
		c-0.054-0.049-0.111-0.095-0.165-0.145c-0.436-0.393-0.879-0.777-1.33-1.149c-6.481-5.357-14.361-8.511-22.562-8.963
		c-0.025-0.001-0.05-0.001-0.075-0.002c-0.154-0.008-0.308-0.008-0.462-0.014c-0.47-0.019-0.939-0.036-1.405-0.037
		c-0.017,0-0.035-0.001-0.052-0.001c-0.182,0-0.362,0.01-0.544,0.013c-5.988,0.083-11.627,1.641-16.514,4.529
		c-0.462,0.274-0.894,0.542-1.319,0.822c-0.055,0.036-0.108,0.074-0.163,0.111c-0.38,0.254-0.757,0.513-1.127,0.784
		c-0.115,0.084-0.226,0.172-0.339,0.258c-0.311,0.234-0.621,0.469-0.924,0.715c-0.196,0.159-0.386,0.328-0.579,0.492
		c-0.219,0.187-0.441,0.369-0.656,0.563c-0.41,0.37-0.813,0.75-1.205,1.142l-12.157,12.157l-1.768-1.768
		c-1.406-1.406-3.314-2.196-5.303-2.196s-3.897,0.79-5.303,2.196l-65.407,65.408l-1.768-1.768c-1.406-1.406-3.314-2.196-5.303-2.196
		s-3.897,0.79-5.303,2.196L72.911,259.207c-0.007,0.007-70.714,70.714-70.714,70.714C0.79,331.328,0,333.236,0,335.225
		s0.79,3.896,2.197,5.304l63.637,63.637c0.005,0.005,63.642,63.643,63.642,63.643c1.464,1.464,3.384,2.196,5.303,2.196
		s3.839-0.732,5.303-2.196l246.461-246.461c2.929-2.93,2.929-7.678,0-10.607l-1.767-1.768l65.407-65.407
		c2.929-2.93,2.929-7.678,0-10.607l-1.768-1.768l12.157-12.157C473.973,105.633,472.979,82.837,458.358,68.214z M141.85,338.761
		l21.213,21.213l-60.104,60.104l-21.213-21.213L141.85,338.761z M78.21,275.12l21.213,21.213l-19.445,19.445
		c-2.929,2.93-2.929,7.678,0,10.607c1.464,1.464,3.384,2.196,5.303,2.196s3.839-0.732,5.303-2.196l19.445-19.445l21.213,21.213
		L71.14,388.258l-21.213-21.214l19.446-19.445c2.929-2.93,2.929-7.677,0-10.606c-2.929-2.929-7.678-2.929-10.607-0.001
		l-19.446,19.446l-21.213-21.213L78.21,275.12z M113.566,430.685l60.104-60.104l21.213,21.213l-60.104,60.104L113.566,430.685z
		 M351.189,175.384c-2.928-2.927-7.674-2.928-10.603-0.003c-2.932,2.933-2.932,7.681-0.003,10.61l30.052,30.052L205.491,381.187
		l-58.335-58.334c-0.005-0.005-31.814-31.814-31.814-31.814c-0.017-0.017-26.525-26.524-26.525-26.524L253.961,99.369l65.408,65.409
		c2.928,2.928,7.677,2.928,10.606,0c2.929-2.934,2.928-7.679,0-10.607L271.64,95.834l60.104-60.104l1.763,1.763
		c0.005,0.005,99.001,99.001,99.001,99.001c0.005,0.004,1.768,1.768,1.768,1.768l-60.105,60.104L351.189,175.384z M437.81,120.583
		l-88.389-88.388l12.157-12.157c0.049-0.049,0.105-0.091,0.155-0.139c0.374-0.365,0.76-0.714,1.163-1.04
		c0.248-0.199,0.512-0.375,0.771-0.56c0.215-0.154,0.424-0.315,0.646-0.459c0.329-0.212,0.674-0.401,1.018-0.591
		c0.164-0.09,0.324-0.188,0.492-0.273c0.377-0.191,0.767-0.361,1.16-0.525c0.15-0.063,0.297-0.13,0.449-0.189
		c0.4-0.154,0.811-0.289,1.225-0.415c0.162-0.05,0.324-0.102,0.488-0.147c0.402-0.111,0.811-0.203,1.224-0.288
		c0.199-0.04,0.398-0.081,0.6-0.114c0.383-0.065,0.77-0.117,1.161-0.16c0.257-0.027,0.515-0.051,0.776-0.068
		c0.346-0.024,0.695-0.041,1.046-0.047c0.512-0.009,1.026-0.015,1.548,0.015c0.695,0.04,1.348,0.112,1.997,0.207
		c0.078,0.011,0.157,0.019,0.235,0.031c0.575,0.09,1.145,0.212,1.713,0.346c0.178,0.042,0.357,0.081,0.535,0.128
		c0.49,0.128,0.975,0.28,1.457,0.44c0.247,0.083,0.494,0.166,0.739,0.256c0.436,0.161,0.867,0.338,1.294,0.525
		c0.267,0.117,0.532,0.238,0.795,0.365c0.421,0.203,0.839,0.417,1.25,0.646c0.234,0.13,0.465,0.266,0.695,0.403
		c0.443,0.265,0.882,0.539,1.311,0.834c0.162,0.11,0.319,0.228,0.479,0.342c0.485,0.35,0.965,0.71,1.429,1.097
		c0.072,0.061,0.142,0.125,0.214,0.186c0.526,0.449,1.043,0.915,1.538,1.411l56.569,56.567c4.935,4.935,7.408,11.296,7.284,17.262
		c-0.097,4.64-1.765,9.04-5.068,12.344L437.81,120.583z"/>
</g>
<g>
</g>
<g>
</g>
<g>
</g>
<g>
</g>
<g>
</g>
<g>
</g>
<g>
</g>
<g>
</g>
<g>
</g>
<g>
</g>
<g>
</g>
<g>
</g>
<g>
</g>
<g>
</g>
<g>
</g>
</svg>
