<?xml version="1.0" encoding="iso-8859-1"?>
<!-- Generator: Adobe Illustrator 19.0.0, SVG Export Plug-In . SVG Version: 6.00 Build 0)  -->
<svg version="1.1" id="Capa_1" xmlns="http://www.w3.org/2000/svg" xmlns:xlink="http://www.w3.org/1999/xlink" x="0px" y="0px"
	 viewBox="0 0 470 470" style="enable-background:new 0 0 470 470;" xml:space="preserve">
<g>
	<rect x="267.5" y="415.257" style="fill:#F2484B;" width="145" height="47.243"/>
	<rect x="57.5" y="345.257" style="fill:#F2484B;" width="145" height="117.243"/>
	<rect x="277.5" y="375.257" style="fill:#98D9D5;" width="125" height="25"/>
	<rect x="67.5" y="305.257" style="fill:#98D9D5;" width="125" height="25"/>
	<path style="fill:#FFCC75;" d="M382.5,337.757V288.77c0-1.892,0.715-3.714,2.002-5.101c11.606-12.51,17.998-28.805,17.998-45.882
		V132.5c0-4.136-3.364-7.5-7.5-7.5s-7.5,3.364-7.5,7.5v66c0,4.142-3.357,7.5-7.5,7.5s-7.5-3.358-7.5-7.5v-86
		c0-4.136-3.364-7.5-7.5-7.5s-7.5,3.364-7.5,7.5v86c0,4.142-3.357,7.5-7.5,7.5s-7.5-3.358-7.5-7.5v-106c0-4.136-3.364-7.5-7.5-7.5
		s-7.5,3.364-7.5,7.5v106c0,4.142-3.357,7.5-7.5,7.5s-7.5-3.358-7.5-7.5v-86c0-4.136-3.364-7.5-7.5-7.5s-7.5,3.364-7.5,7.5v118.321
		c25.408,3.65,45,25.563,45,51.966c0,4.142-3.357,7.5-7.5,7.5s-7.5-3.358-7.5-7.5c0-20.678-16.822-37.5-37.5-37.5
		c-4.143,0-7.5-3.358-7.5-7.5V172.5c0-4.136-3.364-7.5-7.5-7.5s-7.5,3.364-7.5,7.5v65.287c0,28.564,18.084,54.147,44.998,63.661
		c3.905,1.38,5.953,5.666,4.572,9.571c-1.088,3.079-3.981,5.002-7.071,5.002c-0.829,0-1.673-0.139-2.499-0.431
		c-3.46-1.223-6.792-2.675-10-4.314v48.98H390v-15C385.857,345.257,382.5,341.899,382.5,337.757z"/>
	<path style="fill:#F2EBD9;" d="M172.5,267.757V218.77c0-1.892,0.715-3.714,2.002-5.101c11.606-12.51,17.998-28.805,17.998-45.882
		V62.5c0-4.136-3.364-7.5-7.5-7.5s-7.5,3.364-7.5,7.5v66c0,4.142-3.357,7.5-7.5,7.5s-7.5-3.358-7.5-7.5v-86
		c0-4.136-3.364-7.5-7.5-7.5s-7.5,3.364-7.5,7.5v86c0,4.142-3.357,7.5-7.5,7.5s-7.5-3.358-7.5-7.5v-106c0-4.136-3.364-7.5-7.5-7.5
		s-7.5,3.364-7.5,7.5v106c0,4.142-3.357,7.5-7.5,7.5s-7.5-3.358-7.5-7.5v-86c0-4.136-3.364-7.5-7.5-7.5s-7.5,3.364-7.5,7.5v118.321
		c25.408,3.65,45,25.563,45,51.966c0,4.142-3.357,7.5-7.5,7.5s-7.5-3.358-7.5-7.5c0-20.678-16.822-37.5-37.5-37.5
		c-4.143,0-7.5-3.358-7.5-7.5V102.5c0-4.136-3.364-7.5-7.5-7.5s-7.5,3.364-7.5,7.5v65.287c0,28.564,18.084,54.147,44.998,63.661
		c3.905,1.38,5.953,5.666,4.572,9.571c-1.088,3.079-3.981,5.002-7.071,5.002c-0.829,0-1.673-0.139-2.499-0.431
		c-3.46-1.223-6.792-2.675-10-4.314v48.98H180v-15C175.857,275.257,172.5,271.899,172.5,267.757z"/>
	<path style="fill:#082947;" d="M420,400.257h-2.5v-32.5c0-4.142-3.357-7.5-7.5-7.5H297.5v-48.98c3.208,1.639,6.54,3.091,10,4.314
		c0.826,0.292,1.67,0.431,2.499,0.431c3.09,0,5.983-1.924,7.071-5.002c1.381-3.905-0.667-8.19-4.572-9.571
		c-26.914-9.514-44.998-35.097-44.998-63.661V172.5c0-4.136,3.364-7.5,7.5-7.5s7.5,3.364,7.5,7.5v65.287c0,4.142,3.357,7.5,7.5,7.5
		c20.678,0,37.5,16.822,37.5,37.5c0,4.142,3.357,7.5,7.5,7.5s7.5-3.358,7.5-7.5c0-26.402-19.592-48.315-45-51.966V112.5
		c0-4.136,3.364-7.5,7.5-7.5s7.5,3.364,7.5,7.5v86c0,4.142,3.357,7.5,7.5,7.5s7.5-3.358,7.5-7.5v-106c0-4.136,3.364-7.5,7.5-7.5
		s7.5,3.364,7.5,7.5v106c0,4.142,3.357,7.5,7.5,7.5s7.5-3.358,7.5-7.5v-86c0-4.136,3.364-7.5,7.5-7.5s7.5,3.364,7.5,7.5v86
		c0,4.142,3.357,7.5,7.5,7.5s7.5-3.358,7.5-7.5v-66c0-4.136,3.364-7.5,7.5-7.5s7.5,3.364,7.5,7.5v105.287
		c0,17.077-6.392,33.372-17.998,45.882c-1.287,1.387-2.002,3.209-2.002,5.101v48.987c0,4.142,3.357,7.5,7.5,7.5s7.5-3.358,7.5-7.5
		v-46.123c12.919-14.973,20-33.978,20-53.847V132.5c0-12.407-10.094-22.5-22.5-22.5c-2.641,0-5.176,0.457-7.532,1.296
		C386.841,99.447,377.003,90,365,90c-2.641,0-5.176,0.457-7.532,1.296C356.841,79.447,347.003,70,335,70
		s-21.841,9.447-22.468,21.296C310.176,90.457,307.641,90,305,90c-12.406,0-22.5,10.093-22.5,22.5v38.79
		c-2.347-0.833-4.871-1.29-7.5-1.29c-12.406,0-22.5,10.093-22.5,22.5v65.287c0,25.065,11.396,48.251,30,63.64v58.83H270
		c-4.143,0-7.5,3.358-7.5,7.5v32.5H260c-4.143,0-7.5,3.358-7.5,7.5V462.5c0,4.142,3.357,7.5,7.5,7.5s7.5-3.358,7.5-7.5v-47.243h145
		V462.5c0,4.142,3.357,7.5,7.5,7.5s7.5-3.358,7.5-7.5v-54.743C427.5,403.615,424.143,400.257,420,400.257z M402.5,375.257v25h-125
		v-25H402.5z"/>
	<path style="fill:#082947;" d="M210,330.257h-2.5v-32.5c0-4.142-3.357-7.5-7.5-7.5H87.5v-48.98c3.208,1.639,6.54,3.091,10,4.314
		c0.826,0.292,1.67,0.431,2.499,0.431c3.09,0,5.983-1.924,7.071-5.002c1.381-3.905-0.667-8.19-4.572-9.571
		C75.584,221.934,57.5,196.351,57.5,167.787V102.5c0-4.136,3.364-7.5,7.5-7.5s7.5,3.364,7.5,7.5v65.287c0,4.142,3.357,7.5,7.5,7.5
		c20.678,0,37.5,16.822,37.5,37.5c0,4.142,3.357,7.5,7.5,7.5s7.5-3.358,7.5-7.5c0-26.402-19.592-48.315-45-51.966V42.5
		c0-4.136,3.364-7.5,7.5-7.5s7.5,3.364,7.5,7.5v86c0,4.142,3.357,7.5,7.5,7.5s7.5-3.358,7.5-7.5v-106c0-4.136,3.364-7.5,7.5-7.5
		s7.5,3.364,7.5,7.5v106c0,4.142,3.357,7.5,7.5,7.5s7.5-3.358,7.5-7.5v-86c0-4.136,3.364-7.5,7.5-7.5s7.5,3.364,7.5,7.5v86
		c0,4.142,3.357,7.5,7.5,7.5s7.5-3.358,7.5-7.5v-66c0-4.136,3.364-7.5,7.5-7.5s7.5,3.364,7.5,7.5v105.287
		c0,17.077-6.392,33.372-17.998,45.882c-1.287,1.387-2.002,3.209-2.002,5.101v48.987c0,4.142,3.357,7.5,7.5,7.5s7.5-3.358,7.5-7.5
		v-46.123c12.919-14.973,20-33.978,20-53.847V62.5c0-12.407-10.094-22.5-22.5-22.5c-2.641,0-5.176,0.457-7.532,1.296
		C176.841,29.447,167.003,20,155,20c-2.641,0-5.176,0.457-7.532,1.296C146.841,9.447,137.003,0,125,0s-21.841,9.447-22.468,21.296
		C100.176,20.457,97.641,20,95,20c-12.406,0-22.5,10.093-22.5,22.5v38.79C70.153,80.458,67.629,80,65,80
		c-12.406,0-22.5,10.093-22.5,22.5v65.287c0,25.065,11.396,48.251,30,63.64v58.83H60c-4.143,0-7.5,3.358-7.5,7.5v32.5H50
		c-4.143,0-7.5,3.358-7.5,7.5V462.5c0,4.142,3.357,7.5,7.5,7.5s7.5-3.358,7.5-7.5V345.257h145V462.5c0,4.142,3.357,7.5,7.5,7.5
		s7.5-3.358,7.5-7.5V337.757C217.5,333.615,214.143,330.257,210,330.257z M192.5,305.257v25h-125v-25H192.5z"/>
</g>
<g>
</g>
<g>
</g>
<g>
</g>
<g>
</g>
<g>
</g>
<g>
</g>
<g>
</g>
<g>
</g>
<g>
</g>
<g>
</g>
<g>
</g>
<g>
</g>
<g>
</g>
<g>
</g>
<g>
</g>
</svg>
