<?xml version="1.0" encoding="iso-8859-1"?>
<!-- Generator: Adobe Illustrator 19.0.0, SVG Export Plug-In . SVG Version: 6.00 Build 0)  -->
<svg version="1.1" id="Capa_1" xmlns="http://www.w3.org/2000/svg" xmlns:xlink="http://www.w3.org/1999/xlink" x="0px" y="0px"
	 viewBox="0 0 429.288 429.288" style="enable-background:new 0 0 429.288 429.288;" xml:space="preserve">
<g>
	<polygon style="fill:#FFFFFF;" points="199.878,180.843 244.298,155.196 199.878,129.55 	"/>
	<path style="fill:#FFCC75;" d="M228.091,224.379c32.99-6.429,56.935-35.524,56.935-69.183c0-38.874-31.626-70.5-70.5-70.5
		s-70.5,31.626-70.5,70.5c0,33.659,23.944,62.754,56.935,69.183c3.947,0.769,6.554,4.504,5.977,8.442
		c2.496,0.241,5.025,0.373,7.584,0.373c2.562,0,5.093-0.132,7.592-0.374C221.537,228.883,224.144,225.148,228.091,224.379z
		 M196.128,200.328c-1.16,0.67-2.455,1.005-3.75,1.005s-2.59-0.335-3.75-1.005c-2.32-1.34-3.75-3.815-3.75-6.495V116.56
		c0-2.68,1.43-5.155,3.75-6.495s5.18-1.34,7.5,0l66.92,38.636c2.32,1.34,3.75,3.815,3.75,6.495s-1.43,5.155-3.75,6.495
		L196.128,200.328z"/>
	<path style="fill:#185F8D;" d="M83.842,397.474V272.48c-13.811,3.376-24.093,15.85-24.093,30.686v63.622
		C59.749,381.624,70.031,394.098,83.842,397.474z"/>
	<path style="fill:#185F8D;" d="M345.446,272.48v21.593c0,4.142-3.358,7.5-7.5,7.5c-0.004,0-0.004,15-0.004,15
		c4.146,0,7.504,3.358,7.504,7.5v73.401c13.811-3.376,24.093-15.85,24.093-30.686v-63.622
		C369.539,288.33,359.257,275.856,345.446,272.48z"/>
	<path style="fill:#6DA8D6;" d="M136.342,256.573h-30c-4.136,0-7.5,3.365-7.5,7.5v142.715c0,4.136,3.364,7.5,7.5,7.5h30
		c4.136,0,7.5-3.364,7.5-7.5V264.073C143.842,259.938,140.478,256.573,136.342,256.573z"/>
	<path style="fill:#6DA8D6;" d="M330.446,294.073v-30c0-4.135-3.364-7.5-7.5-7.5h-30c-4.136,0-7.5,3.365-7.5,7.5v142.715
		c0,4.136,3.364,7.5,7.5,7.5h30c4.136,0,7.5-3.364,7.5-7.5v-82.715c0-4.141,3.356-7.498,7.496-7.5v-15
		C333.801,301.57,330.446,298.213,330.446,294.073z"/>
	<path style="fill:#6DA8D6;" d="M214.644,29.696c69.356,0,130.782,34.575,167.968,87.388l12.135-8.497
		c-7.326-10.386-15.582-20.193-24.539-29.15C328.655,37.884,273.408,15,214.644,15S100.633,37.884,59.081,79.437
		c-8.956,8.957-17.212,18.764-24.538,29.149l12.133,8.499C83.862,64.272,145.288,29.696,214.644,29.696z"/>
	<path style="fill:#082947;" d="M266.798,155.196c0-2.68-1.43-5.155-3.75-6.495l-66.92-38.636c-2.32-1.34-5.18-1.34-7.5,0
		s-3.75,3.815-3.75,6.495v77.273c0,2.68,1.43,5.155,3.75,6.495c1.16,0.67,2.455,1.005,3.75,1.005s2.59-0.335,3.75-1.005
		l66.92-38.637C265.368,160.352,266.798,157.876,266.798,155.196z M199.878,180.843V129.55l44.42,25.646L199.878,180.843z"/>
	<path style="fill:#082947;" d="M382.612,117.084C345.426,64.271,284,29.696,214.644,29.696
		c-69.356,0-130.782,34.575-167.968,87.389C23.166,150.475,9.34,191.151,9.34,235c0,15.867,1.819,31.67,5.409,46.988v52.989
		c0,4.142,3.358,7.5,7.5,7.5s7.5-3.358,7.5-7.5v-53.865c0-0.587-0.069-1.172-0.206-1.743C26.091,264.922,24.34,249.994,24.34,235
		c0-104.934,85.37-190.304,190.304-190.304S404.948,130.066,404.948,235c0,14.994-1.75,29.922-5.203,44.369
		c-0.137,0.571-0.206,1.156-0.206,1.743v53.865c0,4.142,3.358,7.5,7.5,7.5s7.5-3.358,7.5-7.5v-52.989
		c3.589-15.317,5.409-31.121,5.409-46.988C419.948,191.151,406.122,150.474,382.612,117.084z"/>
	<path style="fill:#082947;" d="M136.342,241.573h-30c-9.943,0-18.394,6.485-21.361,15.445
		c-22.691,3.113-40.232,22.615-40.232,46.148v63.622c0,23.433,17.392,42.873,39.943,46.111c2.67,9.446,11.361,16.389,21.65,16.389
		h30c12.407,0,22.5-10.093,22.5-22.5V264.073C158.842,251.666,148.749,241.573,136.342,241.573z M143.842,406.788
		c0,4.136-3.364,7.5-7.5,7.5h-30c-4.136,0-7.5-3.364-7.5-7.5V264.073c0-4.135,3.364-7.5,7.5-7.5h30c4.136,0,7.5,3.365,7.5,7.5
		V406.788z M59.749,303.166c0-14.836,10.282-27.31,24.093-30.686v124.994c-13.811-3.376-24.093-15.85-24.093-30.686V303.166z"/>
	<path style="fill:#082947;" d="M344.307,257.018c-2.967-8.96-11.418-15.445-21.361-15.445h-30c-12.407,0-22.5,10.093-22.5,22.5
		v142.715c0,12.407,10.093,22.5,22.5,22.5h30c10.289,0,18.98-6.944,21.65-16.389c22.552-3.238,39.943-22.677,39.943-46.111v-63.622
		C384.539,279.633,366.998,260.131,344.307,257.018z M369.539,366.788c0,14.836-10.282,27.31-24.093,30.686v-73.401
		c0-4.142-3.358-7.5-7.5-7.5c-4.144,0.002-7.5,3.359-7.5,7.5v82.715c0,4.136-3.364,7.5-7.5,7.5h-30c-4.136,0-7.5-3.364-7.5-7.5
		V264.073c0-4.135,3.364-7.5,7.5-7.5h30c4.136,0,7.5,3.365,7.5,7.5v30c0,4.141,3.356,7.498,7.496,7.5c4.146,0,7.504-3.358,7.504-7.5
		V272.48c13.811,3.376,24.093,15.85,24.093,30.686V366.788z"/>
	<path style="fill:#082947;" d="M214.644,15c58.764,0,114.011,22.884,155.563,64.437c8.957,8.957,17.213,18.765,24.539,29.15
		c1.473,2.088,3.792,3.194,6.147,3.194c1.494,0,3.002-0.445,4.316-1.372c3.385-2.387,4.194-7.066,1.806-10.452
		c-7.821-11.089-16.637-21.563-26.202-31.128C336.428,24.444,277.415,0,214.644,0S92.86,24.444,48.474,68.83
		c-9.565,9.565-18.381,20.039-26.202,31.128c-2.388,3.385-1.579,8.064,1.806,10.452c3.385,2.388,8.065,1.579,10.452-1.806
		c7.339-10.403,15.594-20.21,24.551-29.167C100.633,37.884,155.88,15,214.644,15z"/>
	<path style="fill:#082947;" d="M300.025,155.196c0-47.145-38.355-85.5-85.5-85.5s-85.5,38.355-85.5,85.5
		c0,40.82,29.046,76.107,69.065,83.905c4.066,0.795,8.004-1.861,8.796-5.927c0.023-0.118,0.033-0.236,0.051-0.354
		c0.576-3.938-2.03-7.673-5.977-8.442c-32.99-6.429-56.935-35.524-56.935-69.183c0-38.874,31.626-70.5,70.5-70.5
		s70.5,31.626,70.5,70.5c0,33.659-23.944,62.754-56.935,69.183c-3.947,0.769-6.554,4.504-5.977,8.442
		c0.017,0.118,0.028,0.236,0.051,0.354c0.698,3.582,3.836,6.067,7.353,6.067c0.476,0,0.958-0.045,1.443-0.14
		C270.979,231.304,300.025,196.017,300.025,155.196z"/>
</g>
<g>
</g>
<g>
</g>
<g>
</g>
<g>
</g>
<g>
</g>
<g>
</g>
<g>
</g>
<g>
</g>
<g>
</g>
<g>
</g>
<g>
</g>
<g>
</g>
<g>
</g>
<g>
</g>
<g>
</g>
</svg>
