<?xml version="1.0" encoding="iso-8859-1"?>
<!-- Generator: Adobe Illustrator 19.0.0, SVG Export Plug-In . SVG Version: 6.00 Build 0)  -->
<svg version="1.1" id="Capa_1" xmlns="http://www.w3.org/2000/svg" xmlns:xlink="http://www.w3.org/1999/xlink" x="0px" y="0px"
	 viewBox="0 0 470 470" style="enable-background:new 0 0 470 470;" xml:space="preserve">
<g>
	<path style="fill:#FFFFFF;" d="M383.75,334.786H425V28.251H263.732c-9.056,0-17.462,4.514-22.485,12.074
		c-1.391,2.092-3.735,3.349-6.247,3.349s-4.856-1.257-6.246-3.349c-5.025-7.561-13.431-12.075-22.486-12.075H45v306.535h161.268
		c10.815,0,21.033,4.131,28.731,11.364c7.698-7.233,17.916-11.364,28.733-11.364h20.018c4.142,0,7.499,3.357,7.5,7.498h15V118.749
		c0-0.25,0.013-0.5,0.038-0.747c0.02-0.204,0.054-0.403,0.09-0.601c0.008-0.042,0.011-0.084,0.019-0.126
		c0.103-0.514,0.257-1.008,0.459-1.478l19.974-47.932c1.164-2.795,3.896-4.615,6.923-4.615c3.028,0,5.759,1.821,6.923,4.616
		l19.968,47.927c0.203,0.471,0.358,0.967,0.461,1.483c0.008,0.038,0.01,0.077,0.018,0.115c0.037,0.202,0.071,0.405,0.091,0.612
		c0.025,0.248,0.038,0.497,0.038,0.747v223.535h15C376.251,338.143,379.608,334.786,383.75,334.786z M192.465,309.786H77.5
		c-4.143,0-7.5-3.358-7.5-7.5v-63.395c0-4.142,3.357-7.5,7.5-7.5s7.5,3.358,7.5,7.5v55.895h16.655v-25.895
		c0-4.142,3.357-7.5,7.5-7.5s7.5,3.358,7.5,7.5v25.895h16.654v-55.895c0-4.142,3.357-7.5,7.5-7.5s7.5,3.358,7.5,7.5v55.895h16.655
		v-25.895c0-4.142,3.357-7.5,7.5-7.5s7.5,3.358,7.5,7.5v25.895h12.5c4.143,0,7.5,3.358,7.5,7.5S196.607,309.786,192.465,309.786z
		 M192.465,210.763H77.5c-4.143,0-7.5-3.358-7.5-7.5s3.357-7.5,7.5-7.5h114.965c4.143,0,7.5,3.358,7.5,7.5
		S196.607,210.763,192.465,210.763z M192.465,175.135H77.5c-4.143,0-7.5-3.358-7.5-7.5s3.357-7.5,7.5-7.5h114.965
		c4.143,0,7.5,3.358,7.5,7.5S196.607,175.135,192.465,175.135z M70,132.007c0-4.142,3.357-7.5,7.5-7.5h57.482
		c4.143,0,7.5,3.358,7.5,7.5s-3.357,7.5-7.5,7.5H77.5C73.357,139.507,70,136.149,70,132.007z M192.465,103.879H77.5
		c-4.143,0-7.5-3.358-7.5-7.5s3.357-7.5,7.5-7.5h114.965c4.143,0,7.5,3.358,7.5,7.5S196.607,103.879,192.465,103.879z
		 M192.465,68.251H77.5c-4.143,0-7.5-3.358-7.5-7.5s3.357-7.5,7.5-7.5h114.965c4.143,0,7.5,3.358,7.5,7.5
		S196.607,68.251,192.465,68.251z M242.5,319.023c0,4.142-3.357,7.5-7.5,7.5s-7.5-3.358-7.5-7.5V66.175c0-4.142,3.357-7.5,7.5-7.5
		s7.5,3.358,7.5,7.5V319.023z"/>
	<path style="fill:#C1E8E6;" d="M206.268,364.786c7.595,0,14.892,2.045,21.232,5.763v-10.42
		c-5.104-6.509-12.889-10.343-21.232-10.343H37.5v15H206.268z"/>
	<path style="fill:#C1E8E6;" d="M383.75,364.786h48.75v-15h-48.75c-4.143,0-7.5-3.358-7.5-7.5c0-0.002-15-0.002-15-0.002v30h15
		C376.251,368.143,379.608,364.786,383.75,364.786z"/>
	<path style="fill:#C1E8E6;" d="M291.25,342.286c0,4.142-3.357,7.5-7.5,7.5h-20.018c-8.345,0-16.13,3.834-21.232,10.343v10.419
		c6.34-3.718,13.636-5.762,21.232-5.762h20.018c4.142,0,7.499,3.357,7.5,7.498h15v-30C306.25,342.284,291.25,342.284,291.25,342.286
		z"/>
	<path style="fill:#98D9D5;" d="M291.25,372.286c0,4.142-3.357,7.5-7.5,7.5h-20.018c-9.059,0-17.465,4.509-22.487,12.062
		c-0.166,0.247-0.339,0.473-0.524,0.691c-0.051,0.06-0.105,0.115-0.158,0.174c-0.137,0.152-0.278,0.298-0.427,0.438
		c-0.068,0.064-0.136,0.127-0.207,0.188c-0.156,0.136-0.317,0.264-0.484,0.387c-0.059,0.043-0.115,0.089-0.175,0.131
		c-0.233,0.162-0.474,0.313-0.725,0.448c-0.256,0.136-0.509,0.25-0.766,0.353c-0.065,0.026-0.131,0.048-0.197,0.072
		c-0.201,0.074-0.406,0.14-0.615,0.197c-0.08,0.022-0.16,0.043-0.24,0.062c-0.206,0.048-0.414,0.087-0.626,0.118
		c-0.078,0.011-0.155,0.027-0.234,0.036c-0.283,0.033-0.57,0.053-0.862,0.054c-0.299,0-0.588-0.021-0.873-0.054
		c-0.076-0.009-0.15-0.023-0.225-0.034c-0.215-0.031-0.427-0.07-0.636-0.12c-0.078-0.019-0.156-0.039-0.233-0.06
		c-0.213-0.057-0.42-0.124-0.625-0.199c-0.063-0.023-0.126-0.044-0.189-0.069c-0.262-0.104-0.519-0.22-0.766-0.352
		c-0.254-0.136-0.497-0.288-0.731-0.451c-0.057-0.039-0.111-0.083-0.167-0.125c-0.169-0.125-0.334-0.255-0.492-0.394
		c-0.069-0.06-0.136-0.122-0.203-0.184c-0.151-0.142-0.294-0.29-0.433-0.444c-0.051-0.056-0.104-0.11-0.153-0.168
		c-0.186-0.219-0.361-0.447-0.521-0.686c-5.03-7.559-13.436-12.069-22.493-12.069H37.5c-4.143,0-7.5-3.358-7.5-7.5
		s3.357-7.5,7.5-7.5v-15c-4.143,0-7.5-3.358-7.5-7.5V88.251H15v306.535h191.268c3.835,0,7.411,1.825,9.676,4.909l6.432,7.502
		l25.254-0.002l6.429-7.502c2.261-3.083,5.836-4.907,9.675-4.907h42.518v-22.502C306.25,372.284,291.25,372.284,291.25,372.286z"/>
	<path style="fill:#98D9D5;" d="M440,342.286c0,4.142-3.357,7.5-7.5,7.5v15c4.143,0,7.5,3.358,7.5,7.5s-3.357,7.5-7.5,7.5h-48.75
		c-4.143,0-7.5-3.358-7.5-7.5c0-0.002-15-0.002-15-0.002v22.502H455V88.251h-15V342.286z"/>
	<path style="fill:#082947;" d="M192.465,294.786h-12.5v-25.895c0-4.142-3.357-7.5-7.5-7.5s-7.5,3.358-7.5,7.5v25.895H148.31
		v-55.895c0-4.142-3.357-7.5-7.5-7.5s-7.5,3.358-7.5,7.5v55.895h-16.654v-25.895c0-4.142-3.357-7.5-7.5-7.5s-7.5,3.358-7.5,7.5
		v25.895H85v-55.895c0-4.142-3.357-7.5-7.5-7.5s-7.5,3.358-7.5,7.5v63.395c0,4.142,3.357,7.5,7.5,7.5h114.965
		c4.143,0,7.5-3.358,7.5-7.5S196.607,294.786,192.465,294.786z"/>
	<path style="fill:#082947;" d="M192.465,53.251H77.5c-4.143,0-7.5,3.358-7.5,7.5s3.357,7.5,7.5,7.5h114.965
		c4.143,0,7.5-3.358,7.5-7.5S196.607,53.251,192.465,53.251z"/>
	<path style="fill:#082947;" d="M192.465,88.879H77.5c-4.143,0-7.5,3.358-7.5,7.5s3.357,7.5,7.5,7.5h114.965
		c4.143,0,7.5-3.358,7.5-7.5S196.607,88.879,192.465,88.879z"/>
	<path style="fill:#082947;" d="M77.5,139.507h57.482c4.143,0,7.5-3.358,7.5-7.5s-3.357-7.5-7.5-7.5H77.5
		c-4.143,0-7.5,3.358-7.5,7.5S73.357,139.507,77.5,139.507z"/>
	<path style="fill:#082947;" d="M192.465,160.135H77.5c-4.143,0-7.5,3.358-7.5,7.5s3.357,7.5,7.5,7.5h114.965
		c4.143,0,7.5-3.358,7.5-7.5S196.607,160.135,192.465,160.135z"/>
	<path style="fill:#082947;" d="M192.465,195.763H77.5c-4.143,0-7.5,3.358-7.5,7.5s3.357,7.5,7.5,7.5h114.965
		c4.143,0,7.5-3.358,7.5-7.5S196.607,195.763,192.465,195.763z"/>
	<path style="fill:#082947;" d="M235,58.675c-4.143,0-7.5,3.358-7.5,7.5v252.848c0,4.142,3.357,7.5,7.5,7.5s7.5-3.358,7.5-7.5
		V66.175C242.5,62.032,239.143,58.675,235,58.675z"/>
	<path style="fill:#082947;" d="M462.5,73.251H440v-52.5c0-4.142-3.357-7.5-7.5-7.5H263.732c-10.816,0-21.035,4.135-28.732,11.373
		c-7.698-7.238-17.917-11.373-28.732-11.373H37.5c-4.143,0-7.5,3.358-7.5,7.5v52.5H7.5c-4.143,0-7.5,3.358-7.5,7.5v321.535
		c0,4.142,3.357,7.5,7.5,7.5h197.337l8.396,9.793c1.425,1.662,3.505,2.618,5.694,2.618l32.152-0.003c2.189,0,4.27-0.957,5.694-2.62
		l8.389-9.789h41.087v27.463c0,10.752,8.748,19.5,19.502,19.5h16c10.751,0,19.498-8.748,19.498-19.5v-27.463H462.5
		c4.143,0,7.5-3.358,7.5-7.5V80.751C470,76.609,466.643,73.251,462.5,73.251z M455,394.786h-93.75V118.749
		c0-0.25-0.013-0.499-0.038-0.747c-0.021-0.207-0.054-0.41-0.091-0.612c-0.007-0.038-0.01-0.077-0.018-0.115
		c-0.103-0.515-0.258-1.011-0.461-1.483l-19.968-47.927c-1.164-2.795-3.895-4.616-6.923-4.616c-3.027,0-5.759,1.82-6.923,4.615
		l-19.974,47.932c-0.201,0.47-0.356,0.964-0.459,1.478c-0.008,0.042-0.011,0.084-0.019,0.126c-0.036,0.198-0.07,0.398-0.09,0.601
		c-0.025,0.248-0.038,0.497-0.038,0.747v276.037h-42.518c-3.839,0-7.414,1.824-9.675,4.907l-6.429,7.502l-25.254,0.002l-6.432-7.502
		c-2.265-3.084-5.841-4.909-9.676-4.909H15V88.251h15v254.035c0,4.142,3.357,7.5,7.5,7.5h168.768
		c8.344,0,16.128,3.834,21.232,10.343v10.42c-6.34-3.718-13.637-5.763-21.232-5.763H37.5c-4.143,0-7.5,3.358-7.5,7.5
		s3.357,7.5,7.5,7.5h168.768c9.057,0,17.463,4.51,22.488,12.063c0.165,0.246,0.339,0.473,0.525,0.692
		c0.049,0.058,0.102,0.112,0.153,0.168c0.139,0.154,0.282,0.302,0.433,0.444c0.067,0.063,0.134,0.124,0.203,0.184
		c0.158,0.138,0.323,0.269,0.492,0.394c0.056,0.041,0.11,0.085,0.167,0.125c0.234,0.163,0.477,0.314,0.73,0.45
		c0.248,0.133,0.505,0.248,0.767,0.353c0.062,0.025,0.126,0.046,0.189,0.069c0.205,0.075,0.412,0.142,0.625,0.199
		c0.077,0.021,0.155,0.042,0.233,0.06c0.209,0.049,0.421,0.088,0.636,0.12c0.075,0.011,0.149,0.025,0.225,0.034
		c0.285,0.033,0.574,0.054,0.868,0.054c0.297,0,0.583-0.021,0.867-0.054c0.079-0.009,0.156-0.024,0.234-0.036
		c0.211-0.031,0.42-0.07,0.626-0.118c0.081-0.019,0.16-0.04,0.24-0.062c0.209-0.057,0.414-0.123,0.615-0.197
		c0.066-0.024,0.132-0.046,0.197-0.072c0.258-0.103,0.51-0.217,0.753-0.346c0.265-0.141,0.506-0.292,0.739-0.454
		c0.06-0.041,0.116-0.087,0.175-0.131c0.167-0.123,0.328-0.251,0.484-0.387c0.07-0.061,0.139-0.124,0.207-0.188
		c0.149-0.14,0.291-0.286,0.427-0.438c0.053-0.058,0.107-0.114,0.158-0.174c0.185-0.218,0.358-0.444,0.517-0.682
		c5.029-7.561,13.435-12.071,22.494-12.071h20.018c4.143,0,7.5-3.358,7.5-7.5c-0.001-4.143-3.358-7.5-7.5-7.5h-20.018
		c-7.596,0-14.892,2.044-21.232,5.762v-10.419c5.102-6.508,12.887-10.343,21.232-10.343h20.018c4.143,0,7.5-3.358,7.5-7.5
		c-0.001-4.143-3.358-7.5-7.5-7.5h-20.018c-10.817,0-21.035,4.131-28.733,11.364c-7.698-7.232-17.916-11.364-28.731-11.364H45
		V28.251h161.268c9.056,0,17.461,4.514,22.486,12.075c1.39,2.092,3.734,3.349,6.246,3.349s4.856-1.257,6.247-3.349
		c5.023-7.561,13.43-12.074,22.485-12.074H425v306.535h-41.25c-4.142,0-7.499,3.357-7.5,7.498c0,4.144,3.357,7.502,7.5,7.502h48.75
		c4.143,0,7.5-3.358,7.5-7.5V88.251h15V394.786z M341.752,441.749h-16c-2.44,0-4.502-2.061-4.502-4.5v-13.5h25v13.5
		C346.25,439.688,344.19,441.749,341.752,441.749z M321.25,408.749v-15h25v15H321.25z M325,111.249l8.751-21l8.749,21H325z
		 M321.25,126.249h25v252.5h-25V126.249z"/>
	<path style="fill:#082947;" d="M376.25,372.284c0,4.144,3.357,7.502,7.5,7.502h48.75c4.143,0,7.5-3.358,7.5-7.5s-3.357-7.5-7.5-7.5
		h-48.75C379.608,364.786,376.251,368.143,376.25,372.284z"/>
	<path style="fill:#F2484B;" d="M321.25,423.749v13.5c0,2.439,2.062,4.5,4.502,4.5h16c2.438,0,4.498-2.061,4.498-4.5v-13.5H321.25z"
		/>
	<rect x="321.25" y="393.749" style="fill:#6DA8D6;" width="25" height="15"/>
	<rect x="321.25" y="126.249" style="fill:#FFCC75;" width="25" height="252.5"/>
	<polygon style="fill:#F2EBD9;" points="325,111.249 342.5,111.249 333.751,90.249 	"/>
</g>
<g>
</g>
<g>
</g>
<g>
</g>
<g>
</g>
<g>
</g>
<g>
</g>
<g>
</g>
<g>
</g>
<g>
</g>
<g>
</g>
<g>
</g>
<g>
</g>
<g>
</g>
<g>
</g>
<g>
</g>
</svg>
