<?xml version="1.0" encoding="iso-8859-1"?>
<!-- Generator: Adobe Illustrator 19.0.0, SVG Export Plug-In . SVG Version: 6.00 Build 0)  -->
<svg version="1.1" id="Capa_1" xmlns="http://www.w3.org/2000/svg" xmlns:xlink="http://www.w3.org/1999/xlink" x="0px" y="0px"
	 viewBox="0 0 470.004 470.004" style="enable-background:new 0 0 470.004 470.004;" xml:space="preserve">
<g>
	<rect x="412.928" y="360.382" style="fill:#BD1515;" width="32.072" height="15"/>
	<rect x="25" y="360.382" style="fill:#BD1515;" width="32.072" height="15"/>
	<path style="fill:#BD1515;" d="M235,60.26c5.57-11.637,13.395-19.953,20.484-25.638h-40.967
		C221.605,40.307,229.43,48.623,235,60.26z"/>
	<path style="fill:#F2484B;" d="M243.704,81.701l37.29-20.756l-2.082-23.382C267.644,42.765,248.638,55.275,243.704,81.701z"/>
	<path style="fill:#F2484B;" d="M265,420.382c-4.143,0-7.5-3.358-7.5-7.5h-15v22.5h82.162v-15H265z"/>
	<rect x="142.831" y="420.382" style="fill:#F2484B;" width="84.669" height="15"/>
	<rect x="142.831" y="390.382" style="fill:#BD1515;" width="84.669" height="15"/>
	<path style="fill:#BD1515;" d="M257.5,412.882c0-4.142,3.357-7.5,7.5-7.5h59.662v-15H242.5v22.5H257.5z"/>
	<path style="fill:#F2484B;" d="M226.296,81.701c-4.934-26.427-23.939-38.937-35.207-44.138l-2.082,23.382L226.296,81.701z"/>
	<path style="fill:#F2484B;" d="M292.169,323.139c0-4.142,3.357-7.5,7.5-7.5h37.5V189.945c-10.484-11.863-15-23.965-15-39.911
		V78.528l-31.943-5.555L242.5,99.538v55.591c0,4.142-3.357,7.5-7.5,7.5s-7.5-3.358-7.5-7.5V99.538l-47.726-26.565l-31.943,5.555
		v71.506c0,15.946-4.516,28.048-15,39.911v125.694h37.5c4.143,0,7.5,3.358,7.5,7.5s-3.357,7.5-7.5,7.5h-37.5v42.243
		c0,1.355,1.145,2.5,2.5,2.5H227.5V185.13c0-4.142,3.357-7.5,7.5-7.5s7.5,3.358,7.5,7.5v190.252h92.169c1.355,0,2.5-1.145,2.5-2.5
		v-42.243h-37.5C295.526,330.639,292.169,327.281,292.169,323.139z"/>
	<path style="fill:#F2EBD9;" d="M119.892,181.871c9.433-9.938,12.939-18.566,12.939-31.837V82.569
		c-4.756,2.238-9.49,5.361-12.275,8.336L15,203.675v139.207c0,1.355,1.145,2.5,2.5,2.5h47.072c1.355,0,2.5-1.145,2.5-2.5V200.712
		c0-4.142,3.357-7.5,7.5-7.5s7.5,3.358,7.5,7.5v21.004L119.892,181.871z"/>
	<path style="fill:#F2EBD9;" d="M387.932,200.712c0-4.142,3.357-7.5,7.5-7.5s7.5,3.358,7.5,7.5v142.169c0,1.355,1.145,2.5,2.5,2.5
		H452.5c1.357,0,2.504-1.145,2.504-2.5V203.675L349.448,90.905c-2.787-2.975-7.522-6.098-12.279-8.336v67.465
		c0,13.271,3.507,21.899,12.939,31.836l37.823,39.85V200.712z"/>
	<path style="fill:#082947;" d="M467.979,195.587L360.397,80.652c-6.716-7.168-19.552-14.101-29.222-15.783l-35.32-6.142
		l-2.874-32.271c-0.006-0.072-0.021-0.141-0.029-0.212c-0.013-0.114-0.028-0.228-0.047-0.343c-0.024-0.147-0.054-0.291-0.087-0.435
		c-0.014-0.061-0.021-0.121-0.036-0.181c-0.008-0.031-0.02-0.061-0.028-0.092c-0.042-0.158-0.091-0.312-0.143-0.465
		c-0.027-0.081-0.052-0.164-0.082-0.243c-0.054-0.145-0.116-0.285-0.179-0.426c-0.038-0.084-0.072-0.17-0.113-0.252
		c-0.06-0.121-0.128-0.238-0.194-0.355c-0.052-0.094-0.101-0.19-0.157-0.281c-0.053-0.085-0.113-0.165-0.168-0.247
		c-0.179-0.264-0.371-0.516-0.579-0.752c-0.03-0.034-0.057-0.071-0.087-0.104c-0.087-0.095-0.18-0.182-0.272-0.272
		c-0.077-0.076-0.151-0.155-0.231-0.227c-0.08-0.073-0.165-0.139-0.249-0.208c-0.099-0.083-0.198-0.167-0.301-0.244
		c-0.075-0.056-0.155-0.107-0.232-0.161c-0.118-0.081-0.236-0.163-0.358-0.238c-0.073-0.045-0.15-0.085-0.225-0.127
		c-0.131-0.074-0.263-0.146-0.398-0.213c-0.076-0.037-0.155-0.07-0.232-0.104c-0.137-0.061-0.274-0.12-0.416-0.173
		c-0.086-0.032-0.173-0.06-0.26-0.089c-0.134-0.045-0.268-0.088-0.405-0.125c-0.102-0.028-0.205-0.051-0.308-0.074
		c-0.124-0.028-0.247-0.054-0.373-0.076c-0.119-0.021-0.239-0.037-0.36-0.052c-0.114-0.014-0.227-0.027-0.343-0.036
		c-0.13-0.01-0.261-0.015-0.392-0.019c-0.063-0.001-0.123-0.009-0.186-0.009H184.489c-0.053,0-0.105,0.006-0.158,0.008
		c-0.146,0.003-0.292,0.009-0.437,0.021c-0.1,0.008-0.199,0.019-0.297,0.031c-0.133,0.016-0.266,0.034-0.398,0.057
		c-0.115,0.02-0.228,0.044-0.341,0.069c-0.111,0.025-0.221,0.05-0.33,0.08c-0.135,0.036-0.267,0.079-0.399,0.123
		c-0.084,0.028-0.169,0.055-0.253,0.087c-0.155,0.058-0.305,0.122-0.455,0.189c-0.059,0.026-0.118,0.051-0.176,0.079
		c-0.172,0.083-0.339,0.173-0.504,0.269c-0.035,0.02-0.07,0.038-0.105,0.059c-0.189,0.114-0.373,0.236-0.551,0.365
		c-1.711,1.254-2.869,3.175-3.067,5.399l-2.874,32.271l-35.32,6.142c-9.673,1.683-22.508,8.616-29.22,15.785L2.024,195.587
		C0.724,196.976,0,198.809,0,200.712v142.169c0,6.963,4.098,12.972,10,15.787v24.213c0,4.142,3.357,7.5,7.5,7.5h47.072
		c4.143,0,7.5-3.358,7.5-7.5v-24.213c5.902-2.816,10-8.824,10-15.787v-99.378l35.759-37.674v167.052c0,6.963,4.098,12.972,10,15.787
		v54.213c0,4.142,3.357,7.5,7.5,7.5h196.831c4.143,0,7.5-3.358,7.5-7.5v-53.235c7.223-2.155,12.507-8.851,12.507-16.765V205.83
		l35.763,37.678v99.374c0,6.961,4.096,12.969,9.996,15.786v24.214c0,4.142,3.357,7.5,7.5,7.5H452.5c4.143,0,7.5-3.358,7.5-7.5
		V358.67c5.904-2.815,10.004-8.824,10.004-15.788V200.712C470.004,198.809,469.28,196.976,467.979,195.587z M25,375.382v-15h32.072
		v15H25z M74.572,193.212c-4.143,0-7.5,3.358-7.5,7.5v142.169c0,1.355-1.145,2.5-2.5,2.5H17.5c-1.355,0-2.5-1.145-2.5-2.5V203.675
		L120.556,90.906c2.785-2.976,7.519-6.098,12.275-8.336v67.465c0,13.271-3.507,21.899-12.939,31.837l-37.819,39.845v-21.004
		C82.072,196.57,78.715,193.212,74.572,193.212z M280.994,60.945l-37.29,20.756c4.934-26.427,23.939-38.936,35.207-44.138
		L280.994,60.945z M235,60.26c-5.57-11.637-13.395-19.953-20.484-25.638h40.967C248.395,40.307,240.57,48.623,235,60.26z
		 M226.296,81.701l-37.29-20.756l2.082-23.382C202.356,42.765,221.362,55.275,226.296,81.701z M227.5,405.382h-84.669v-15H227.5
		V405.382z M142.831,420.382H227.5v15h-84.669V420.382z M242.5,435.382v-45h82.162v15H265c-4.143,0-7.5,3.358-7.5,7.5
		s3.357,7.5,7.5,7.5h59.662v15H242.5z M337.169,372.882c0,1.355-1.145,2.5-2.5,2.5H242.5V185.13c0-4.142-3.357-7.5-7.5-7.5
		s-7.5,3.358-7.5,7.5v190.252h-92.169c-1.355,0-2.5-1.145-2.5-2.5v-42.243h37.5c4.143,0,7.5-3.358,7.5-7.5s-3.357-7.5-7.5-7.5h-37.5
		V189.945c10.484-11.864,15-23.966,15-39.911V78.528l31.943-5.555L227.5,99.538v55.591c0,4.142,3.357,7.5,7.5,7.5s7.5-3.358,7.5-7.5
		V99.538l47.726-26.565l31.943,5.555v71.506c0,15.946,4.516,28.048,15,39.911v125.694h-37.5c-4.143,0-7.5,3.358-7.5,7.5
		s3.357,7.5,7.5,7.5h37.5V372.882z M350.108,181.87c-9.433-9.937-12.939-18.566-12.939-31.836V82.569
		c4.757,2.238,9.492,5.361,12.279,8.336l105.556,112.77v139.207c0,1.355-1.146,2.5-2.504,2.5h-47.068c-1.355,0-2.5-1.145-2.5-2.5
		V200.712c0-4.142-3.357-7.5-7.5-7.5s-7.5,3.358-7.5,7.5v21.008L350.108,181.87z M412.928,360.382H445v15h-32.072V360.382z"/>
</g>
<g>
</g>
<g>
</g>
<g>
</g>
<g>
</g>
<g>
</g>
<g>
</g>
<g>
</g>
<g>
</g>
<g>
</g>
<g>
</g>
<g>
</g>
<g>
</g>
<g>
</g>
<g>
</g>
<g>
</g>
</svg>
