<?xml version="1.0" encoding="iso-8859-1"?>
<!-- Generator: Adobe Illustrator 19.0.0, SVG Export Plug-In . SVG Version: 6.00 Build 0)  -->
<svg version="1.1" id="Capa_1" xmlns="http://www.w3.org/2000/svg" xmlns:xlink="http://www.w3.org/1999/xlink" x="0px" y="0px"
	 viewBox="0 0 470 470" style="enable-background:new 0 0 470 470;" xml:space="preserve">
<g>
	<path style="fill:#FFFFFF;" d="M392.5,392.5H425v-255H45v255h317.5c4.143,0,7.5,3.357,7.5,7.5h15
		C385,395.857,388.357,392.5,392.5,392.5z M332.5,190h60c4.143,0,7.5,3.357,7.5,7.5s-3.357,7.5-7.5,7.5h-60
		c-4.143,0-7.5-3.357-7.5-7.5S328.357,190,332.5,190z M332.5,235h60c4.143,0,7.5,3.357,7.5,7.5s-3.357,7.5-7.5,7.5h-60
		c-4.143,0-7.5-3.357-7.5-7.5S328.357,235,332.5,235z M332.5,280h60c4.143,0,7.5,3.357,7.5,7.5s-3.357,7.5-7.5,7.5h-60
		c-4.143,0-7.5-3.357-7.5-7.5S328.357,280,332.5,280z M300,350c0,4.143-3.357,7.5-7.5,7.5h-215c-4.143,0-7.5-3.357-7.5-7.5V180
		c0-4.143,3.357-7.5,7.5-7.5H205c4.143,0,7.5,3.357,7.5,7.5h15c0-4.143,3.357-7.5,7.5-7.5h57.5c4.143,0,7.5,3.357,7.5,7.5V350z
		 M332.5,340c-4.143,0-7.5-3.357-7.5-7.5s3.357-7.5,7.5-7.5h60c4.143,0,7.5,3.357,7.5,7.5s-3.357,7.5-7.5,7.5H332.5z"/>
	<path style="fill:#F2EBD9;" d="M205,187.5H85v155h200v-155h-50c-4.143,0-7.5-3.357-7.5-7.5h-15
		C212.5,184.143,209.143,187.5,205,187.5z M238.354,258.292c2.54,1.271,4.146,3.867,4.146,6.708s-1.605,5.438-4.146,6.708l-100,50
		c-1.059,0.529-2.208,0.792-3.354,0.792c-1.371,0-2.738-0.376-3.943-1.12c-2.211-1.366-3.557-3.78-3.557-6.38V215
		c0-2.6,1.346-5.014,3.557-6.38c2.212-1.367,4.973-1.491,7.298-0.328L238.354,258.292z"/>
	<path style="fill:#6DA8D6;" d="M455,92.5v-45H15v45H455z M430,62.5c0.043,0,0.085,0.006,0.128,0.006
		c3.875,0.065,7.03,3.065,7.341,6.875c0.017,0.205,0.031,0.41,0.031,0.618c0,0.188-0.015,0.374-0.028,0.559
		c-0.273,3.695-3.218,6.64-6.913,6.913c-0.185,0.014-0.37,0.028-0.559,0.028c-0.209,0-0.414-0.015-0.618-0.031
		c-3.648-0.298-6.552-3.203-6.851-6.851c-0.017-0.205-0.031-0.41-0.031-0.618c0-0.188,0.015-0.374,0.028-0.559
		C422.815,65.561,426.046,62.5,430,62.5z M395,62.5c0.043,0,0.085,0.006,0.128,0.006c3.875,0.065,7.03,3.065,7.341,6.875
		c0.017,0.205,0.031,0.41,0.031,0.618c0,0.188-0.015,0.374-0.028,0.559c-0.273,3.695-3.218,6.64-6.913,6.913
		c-0.185,0.014-0.37,0.028-0.559,0.028c-0.209,0-0.414-0.015-0.618-0.031c-3.648-0.298-6.552-3.203-6.851-6.851
		c-0.017-0.205-0.031-0.41-0.031-0.618c0-0.188,0.015-0.374,0.028-0.559C387.815,65.561,391.046,62.5,395,62.5z M360,62.5
		c0.043,0,0.085,0.006,0.128,0.006c3.875,0.065,7.03,3.065,7.341,6.875c0.017,0.205,0.031,0.41,0.031,0.618
		c0,0.188-0.015,0.374-0.028,0.559c-0.273,3.695-3.218,6.64-6.913,6.913c-0.185,0.014-0.37,0.028-0.559,0.028
		c-0.209,0-0.414-0.015-0.618-0.031c-3.648-0.298-6.552-3.203-6.851-6.851c-0.017-0.205-0.031-0.41-0.031-0.618
		c0-0.188,0.015-0.374,0.028-0.559C352.815,65.561,356.046,62.5,360,62.5z"/>
	<path style="fill:#98D9D5;" d="M15,107.5v315h440v-315H15z M440,400c0,4.143-3.357,7.5-7.5,7.5h-40c-4.143,0-7.5-3.357-7.5-7.5h-15
		c0,4.143-3.357,7.5-7.5,7.5h-325c-4.143,0-7.5-3.357-7.5-7.5V130c0-4.143,3.357-7.5,7.5-7.5h395c4.143,0,7.5,3.357,7.5,7.5V400z"/>
	<path style="fill:#082947;" d="M462.5,32.5H7.5C3.357,32.5,0,35.857,0,40v390c0,4.143,3.357,7.5,7.5,7.5h455
		c4.143,0,7.5-3.357,7.5-7.5V40C470,35.857,466.643,32.5,462.5,32.5z M455,47.5v45H15v-45H455z M15,422.5v-315h440v315H15z"/>
	<path style="fill:#082947;" d="M387.531,70.618c0.298,3.648,3.203,6.552,6.851,6.851c0.204,0.017,0.409,0.031,0.618,0.031
		c0.189,0,0.374-0.015,0.559-0.028c3.695-0.273,6.64-3.218,6.913-6.913c0.014-0.185,0.028-0.37,0.028-0.559
		c0-0.208-0.015-0.414-0.031-0.618c-0.312-3.81-3.466-6.81-7.341-6.875c-0.043,0-0.084-0.006-0.128-0.006
		c-3.954,0-7.185,3.061-7.472,6.941c-0.014,0.185-0.028,0.37-0.028,0.559C387.5,70.208,387.515,70.414,387.531,70.618z"/>
	<path style="fill:#082947;" d="M422.531,70.618c0.298,3.648,3.203,6.552,6.851,6.851c0.204,0.017,0.409,0.031,0.618,0.031
		c0.189,0,0.374-0.015,0.559-0.028c3.695-0.273,6.64-3.218,6.913-6.913c0.014-0.185,0.028-0.37,0.028-0.559
		c0-0.208-0.015-0.414-0.031-0.618c-0.312-3.81-3.466-6.81-7.341-6.875c-0.043,0-0.084-0.006-0.128-0.006
		c-3.954,0-7.185,3.061-7.472,6.941c-0.014,0.185-0.028,0.37-0.028,0.559C422.5,70.208,422.515,70.414,422.531,70.618z"/>
	<path style="fill:#082947;" d="M352.531,70.618c0.298,3.648,3.203,6.552,6.851,6.851c0.204,0.017,0.409,0.031,0.618,0.031
		c0.189,0,0.374-0.015,0.559-0.028c3.695-0.273,6.64-3.218,6.913-6.913c0.014-0.185,0.028-0.37,0.028-0.559
		c0-0.208-0.015-0.414-0.031-0.618c-0.312-3.81-3.466-6.81-7.341-6.875c-0.043,0-0.084-0.006-0.128-0.006
		c-3.954,0-7.185,3.061-7.472,6.941c-0.014,0.185-0.028,0.37-0.028,0.559C352.5,70.208,352.515,70.414,352.531,70.618z"/>
	<path style="fill:#082947;" d="M332.5,205h60c4.143,0,7.5-3.357,7.5-7.5s-3.357-7.5-7.5-7.5h-60c-4.143,0-7.5,3.357-7.5,7.5
		S328.357,205,332.5,205z"/>
	<path style="fill:#082947;" d="M332.5,250h60c4.143,0,7.5-3.357,7.5-7.5s-3.357-7.5-7.5-7.5h-60c-4.143,0-7.5,3.357-7.5,7.5
		S328.357,250,332.5,250z"/>
	<path style="fill:#082947;" d="M332.5,295h60c4.143,0,7.5-3.357,7.5-7.5s-3.357-7.5-7.5-7.5h-60c-4.143,0-7.5,3.357-7.5,7.5
		S328.357,295,332.5,295z"/>
	<path style="fill:#082947;" d="M400,332.5c0-4.143-3.357-7.5-7.5-7.5h-60c-4.143,0-7.5,3.357-7.5,7.5s3.357,7.5,7.5,7.5h60
		C396.643,340,400,336.643,400,332.5z"/>
	<polygon style="fill:#F2484B;" points="218.229,265 142.5,227.136 142.5,302.864 	"/>
	<path style="fill:#082947;" d="M131.057,208.62c-2.211,1.366-3.557,3.78-3.557,6.38v100c0,2.6,1.346,5.014,3.557,6.38
		c1.205,0.744,2.572,1.12,3.943,1.12c1.146,0,2.296-0.263,3.354-0.792l100-50c2.54-1.271,4.146-3.867,4.146-6.708
		s-1.605-5.438-4.146-6.708l-100-50C136.029,207.129,133.269,207.253,131.057,208.62z M218.229,265L142.5,302.864v-75.729
		L218.229,265z"/>
	<path style="fill:#082947;" d="M292.5,172.5H235c-4.143,0-7.5,3.357-7.5,7.5s3.357,7.5,7.5,7.5h50v155H85v-155h120
		c4.143,0,7.5-3.357,7.5-7.5s-3.357-7.5-7.5-7.5H77.5c-4.143,0-7.5,3.357-7.5,7.5v170c0,4.143,3.357,7.5,7.5,7.5h215
		c4.143,0,7.5-3.357,7.5-7.5V180C300,175.857,296.643,172.5,292.5,172.5z"/>
	<path style="fill:#082947;" d="M432.5,122.5h-395c-4.143,0-7.5,3.357-7.5,7.5v270c0,4.143,3.357,7.5,7.5,7.5h325
		c4.143,0,7.5-3.357,7.5-7.5s-3.357-7.5-7.5-7.5H45v-255h380v255h-32.5c-4.143,0-7.5,3.357-7.5,7.5s3.357,7.5,7.5,7.5h40
		c4.143,0,7.5-3.357,7.5-7.5V130C440,125.857,436.643,122.5,432.5,122.5z"/>
</g>
<g>
</g>
<g>
</g>
<g>
</g>
<g>
</g>
<g>
</g>
<g>
</g>
<g>
</g>
<g>
</g>
<g>
</g>
<g>
</g>
<g>
</g>
<g>
</g>
<g>
</g>
<g>
</g>
<g>
</g>
</svg>
