<?xml version="1.0" encoding="iso-8859-1"?>
<!-- Generator: Adobe Illustrator 19.0.0, SVG Export Plug-In . SVG Version: 6.00 Build 0)  -->
<svg version="1.1" id="Capa_1" xmlns="http://www.w3.org/2000/svg" xmlns:xlink="http://www.w3.org/1999/xlink" x="0px" y="0px"
	 viewBox="0 0 470 470" style="enable-background:new 0 0 470 470;" xml:space="preserve">
<g>
	<path style="fill:#C1E8E6;" d="M296.868,93.735c21.708,0,39.368-17.66,39.368-39.367c0-21.708-17.66-39.368-39.368-39.368
		c-21.707,0-39.367,17.66-39.367,39.368C257.501,76.075,275.161,93.735,296.868,93.735z"/>
	<path style="fill:#C1E8E6;" d="M133.766,54.368c0,21.707,17.66,39.367,39.368,39.367c21.707,0,39.367-17.66,39.367-39.367
		c0-21.708-17.66-39.368-39.367-39.368C151.426,15,133.766,32.66,133.766,54.368z"/>
	<path style="fill:#082947;" d="M173.134,108.735c27.378,0,50.083-20.345,53.817-46.708h16.1
		c3.735,26.363,26.44,46.708,53.817,46.708c29.979,0,54.368-24.389,54.368-54.367C351.236,24.389,326.847,0,296.868,0
		c-27.487,0-50.261,20.509-53.858,47.026h-16.019C223.394,20.509,200.621,0,173.134,0c-29.979,0-54.368,24.389-54.368,54.368
		C118.766,84.346,143.155,108.735,173.134,108.735z M212.501,54.368c0,21.707-17.66,39.367-39.367,39.367
		c-21.708,0-39.368-17.66-39.368-39.367c0-21.708,17.66-39.368,39.368-39.368C194.841,15,212.501,32.66,212.501,54.368z M296.868,15
		c21.708,0,39.368,17.66,39.368,39.368c0,21.707-17.66,39.367-39.368,39.367c-21.707,0-39.367-17.66-39.367-39.367
		C257.501,32.66,275.161,15,296.868,15z"/>
	<path style="fill:#FF6E1D;" d="M338.587,171.235c0-4.142,3.358-7.5,7.5-7.5s7.5,3.358,7.5,7.5h15c0-4.142,3.358-7.5,7.5-7.5
		s7.5,3.358,7.5,7.5V432.5c0,4.142-3.358,7.5-7.5,7.5s-7.5-3.358-7.5-7.5h-15c0,4.142-3.358,7.5-7.5,7.5s-7.5-3.358-7.5-7.5h-15.002
		V455h75V148.735h-52.5c-4.142,0-7.5-3.358-7.5-7.5h-15v30H338.587z"/>
	<rect x="353.587" y="171.235" style="fill:#98D9D5;" width="15" height="261.265"/>
	<path style="fill:#082947;" d="M376.087,440c4.142,0,7.5-3.358,7.5-7.5V171.235c0-4.142-3.358-7.5-7.5-7.5s-7.5,3.358-7.5,7.5
		V432.5C368.587,436.642,371.945,440,376.087,440z"/>
	<rect x="323.585" y="171.235" style="fill:#C1E8E6;" width="15.002" height="261.265"/>
	<path style="fill:#082947;" d="M346.087,440c4.142,0,7.5-3.358,7.5-7.5V171.235c0-4.142-3.358-7.5-7.5-7.5s-7.5,3.358-7.5,7.5
		V432.5C338.587,436.642,341.945,440,346.087,440z"/>
	<path style="fill:#F2EBD9;" d="M116.415,261.235v134.519c14.671,2.99,26.256,14.576,29.247,29.247h103.677
		c2.99-14.671,14.576-26.256,29.247-29.247V207.981c-14.671-2.99-26.256-14.576-29.247-29.247H145.662
		c-2.99,14.671-14.576,26.256-29.247,29.247v23.253c0,4.142-3.358,7.5-7.5,7.5l0,15
		C113.057,253.735,116.415,257.093,116.415,261.235z"/>
	<path style="fill:#FFCC75;" d="M71.415,156.235c0,4.136,3.364,7.5,7.5,7.5c4.142,0,7.5,3.358,7.5,7.5V432.5
		c0,4.142-3.358,7.5-7.5,7.5c-4.136,0-7.5,3.364-7.5,7.5s3.364,7.5,7.5,7.5h229.67V148.735H78.915
		C74.779,148.735,71.415,152.1,71.415,156.235z M101.415,261.235c0-4.142,3.358-7.5,7.5-7.5v-15c-4.142,0-7.5-3.358-7.5-7.5v-30
		c0-4.142,3.358-7.5,7.5-7.5c12.407,0,22.5-10.093,22.5-22.5c0-4.142,3.358-7.5,7.5-7.5h117.17c4.142,0,7.5,3.358,7.5,7.5
		c0,12.407,10.093,22.5,22.5,22.5c4.142,0,7.5,3.358,7.5,7.5V402.5c0,4.142-3.358,7.5-7.5,7.5c-12.407,0-22.5,10.093-22.5,22.5
		c0,4.142-3.358,7.5-7.5,7.5h-117.17c-4.142,0-7.5-3.358-7.5-7.5c0-12.407-10.093-22.5-22.5-22.5c-4.142,0-7.5-3.358-7.5-7.5
		V261.235z"/>
	<path style="fill:#082947;" d="M406.085,133.735h-60c-4.142,0-7.5,3.358-7.5,7.5c0,4.142,3.358,7.5,7.5,7.5h52.5V455h-75V141.235
		c0-4.142-3.358-7.5-7.5-7.5H78.915c-12.407,0-22.5,10.093-22.5,22.5c0,9.778,6.27,18.12,15,21.215v248.835
		c-8.73,3.095-15,11.437-15,21.215c0,12.407,10.093,22.5,22.5,22.5h327.17c4.142,0,7.5-3.358,7.5-7.5V141.235
		C413.585,137.093,410.227,133.735,406.085,133.735z M308.585,455H78.915c-4.136,0-7.5-3.364-7.5-7.5s3.364-7.5,7.5-7.5
		c4.142,0,7.5-3.358,7.5-7.5V171.235c0-4.142-3.358-7.5-7.5-7.5c-4.136,0-7.5-3.364-7.5-7.5c0-4.135,3.364-7.5,7.5-7.5h229.67V455z"
		/>
	<path style="fill:#082947;" d="M108.915,410c12.407,0,22.5,10.093,22.5,22.5c0,4.142,3.358,7.5,7.5,7.5h117.17
		c4.142,0,7.5-3.358,7.5-7.5c0-12.407,10.093-22.5,22.5-22.5c4.142,0,7.5-3.358,7.5-7.5V201.235c0-4.142-3.358-7.5-7.5-7.5
		c-12.407,0-22.5-10.093-22.5-22.5c0-4.142-3.358-7.5-7.5-7.5h-117.17c-4.142,0-7.5,3.358-7.5,7.5c0,12.407-10.093,22.5-22.5,22.5
		c-4.142,0-7.5,3.358-7.5,7.5v30c0,4.142,3.358,7.5,7.5,7.5c4.142,0,7.5-3.358,7.5-7.5v-23.253
		c14.671-2.99,26.256-14.576,29.247-29.247h103.677c2.99,14.671,14.576,26.256,29.247,29.247v187.772
		c-14.671,2.99-26.256,14.576-29.247,29.247H145.662c-2.99-14.671-14.576-26.256-29.247-29.247V261.235c0-4.142-3.358-7.5-7.5-7.5
		c-4.142,0-7.5,3.358-7.5,7.5V402.5C101.415,406.642,104.773,410,108.915,410z"/>
</g>
<g>
</g>
<g>
</g>
<g>
</g>
<g>
</g>
<g>
</g>
<g>
</g>
<g>
</g>
<g>
</g>
<g>
</g>
<g>
</g>
<g>
</g>
<g>
</g>
<g>
</g>
<g>
</g>
<g>
</g>
</svg>
