<?xml version="1.0" encoding="iso-8859-1"?>
<!-- Generator: Adobe Illustrator 19.0.0, SVG Export Plug-In . SVG Version: 6.00 Build 0)  -->
<svg version="1.1" id="Capa_1" xmlns="http://www.w3.org/2000/svg" xmlns:xlink="http://www.w3.org/1999/xlink" x="0px" y="0px"
	 viewBox="0 0 470 470" style="enable-background:new 0 0 470 470;" xml:space="preserve">
<g>
	<path style="fill:#FF6E1D;" d="M447.5,79.175c-4.136,0-7.5,3.364-7.5,7.5v214.5c0,4.14-3.354,7.497-7.495,7.5v15
		c4.14,0.003,7.495,3.36,7.495,7.5v30c0,4.136,3.364,7.5,7.5,7.5s7.5-3.364,7.5-7.5v-274.5C455,82.539,451.635,79.175,447.5,79.175z
		"/>
	<path style="fill:#F2EBD9;" d="M176.473,368.305l86.537,21.312c2.896,0.713,5.855,1.114,8.799,1.193
		c7.747,0.212,15.452-1.837,22.196-5.916c9.362-5.663,15.959-14.632,18.576-25.257l4.705-19.105l-14.565-3.586l-4.705,19.104
		c-1.657,6.732-5.839,12.417-11.773,16.007c-4.105,2.483-8.711,3.757-13.39,3.758c-2.083,0-4.18-0.252-6.255-0.763L180.06,353.74
		c-6.735-1.659-12.42-5.84-16.008-11.774c-2.883-4.768-4.146-10.204-3.651-15.719c0.371-4.125,4.014-7.167,8.141-6.8
		c0.31,0.028,0.612,0.08,0.909,0.144l3.591-14.572l-21.845-5.378l-4.702,19.094c-2.617,10.624-0.939,21.632,4.723,30.996
		C156.878,359.092,165.848,365.689,176.473,368.305z"/>
	<path style="fill:#F2EBD9;" d="M37.5,241.425c-4.142,0-7.5-3.358-7.5-7.5v-50c0-4.136-3.364-7.5-7.5-7.5
		c-4.135,0-7.5,3.364-7.5,7.5v80c0,4.136,3.365,7.5,7.5,7.5c4.136,0,7.5-3.364,7.5-7.5c0-2.305,1.06-4.481,2.874-5.903
		c1.335-1.046,2.969-1.593,4.631-1.592C37.505,256.429,37.505,241.425,37.5,241.425z"/>
	<path style="fill:#FFCC75;" d="M432.5,308.675c-4.143,0-7.5-3.358-7.5-7.5V96.245L45,189.802v44.123c0,4.141-3.355,7.497-7.495,7.5
		v15.005c0.597,0,1.197,0.067,1.788,0.212l259.729,63.946c0.008,0.002,29.13,7.172,29.13,7.172
		c0.007,0.001,96.847,23.844,96.847,23.844v-20.429c0-4.142,3.357-7.5,7.5-7.5C432.505,323.675,432.505,308.675,432.5,308.675z
		 M307.084,166.471L79.293,222.553c-0.602,0.148-1.206,0.219-1.799,0.219c-3.371,0-6.435-2.289-7.277-5.709
		c-0.99-4.022,1.468-8.085,5.49-9.076l227.792-56.083c4.018-0.987,8.085,1.468,9.075,5.49S311.107,165.481,307.084,166.471z
		 M394.292,145l-58.078,14.299c-0.602,0.148-1.205,0.219-1.799,0.219c-3.371,0-6.435-2.289-7.276-5.709
		c-0.99-4.022,1.467-8.085,5.489-9.076l58.078-14.299c4.017-0.987,8.085,1.468,9.075,5.49S398.315,144.01,394.292,145z"/>
	<path style="fill:#FFFFFF;" d="M303.499,151.906L75.707,207.988c-4.022,0.99-6.48,5.054-5.49,9.076
		c0.842,3.42,3.906,5.709,7.277,5.709c0.593,0,1.197-0.071,1.799-0.219l227.792-56.083c4.022-0.99,6.479-5.054,5.489-9.076
		S307.516,150.919,303.499,151.906z"/>
	<path style="fill:#FFFFFF;" d="M390.707,130.435l-58.078,14.299c-4.022,0.99-6.479,5.054-5.489,9.076
		c0.842,3.42,3.905,5.709,7.276,5.709c0.594,0,1.197-0.071,1.799-0.219L394.292,145c4.022-0.99,6.479-5.054,5.489-9.076
		S394.723,129.448,390.707,130.435z"/>
	<path style="fill:#082947;" d="M447.5,64.175c-10.297,0-18.995,6.956-21.657,16.415L43.078,174.827
		c-3.5-7.888-11.407-13.403-20.578-13.403c-12.407,0-22.5,10.093-22.5,22.5v80c0,12.407,10.093,22.5,22.5,22.5
		c9.171,0,17.078-5.515,20.578-13.403l93.552,23.033l-4.702,19.092c-3.575,14.515-1.284,29.553,6.453,42.345
		c7.736,12.791,19.99,21.804,34.505,25.378l86.537,21.312c3.937,0.97,7.969,1.516,11.984,1.624c0.494,0.013,0.987,0.02,1.48,0.02
		c10.145,0,20.1-2.786,28.879-8.096c12.791-7.735,21.805-19.99,25.379-34.505l4.706-19.106l93.992,23.141
		c2.662,9.459,11.359,16.415,21.657,16.415c12.406,0,22.5-10.093,22.5-22.5v-274.5C470,74.268,459.906,64.175,447.5,64.175z
		 M455,361.175c0,4.136-3.364,7.5-7.5,7.5s-7.5-3.364-7.5-7.5v-30c0-4.14-3.354-7.497-7.495-7.5c-4.148,0-7.505,3.358-7.505,7.5
		v20.429l-96.84-23.842c-0.007-0.001-29.13-7.172-29.13-7.172c-0.008-0.002-259.737-63.948-259.737-63.948
		c-0.592-0.146-1.192-0.212-1.788-0.212c-1.662-0.001-3.296,0.546-4.631,1.592C31.06,259.443,30,261.62,30,263.925
		c0,4.136-3.364,7.5-7.5,7.5c-4.135,0-7.5-3.364-7.5-7.5v-80c0-4.136,3.365-7.5,7.5-7.5c4.136,0,7.5,3.364,7.5,7.5v50
		c0,4.142,3.358,7.5,7.5,7.5c4.145-0.003,7.5-3.359,7.5-7.5v-44.123l380-93.557v204.929c0,4.142,3.357,7.5,7.5,7.5
		c4.146-0.003,7.5-3.36,7.5-7.5v-214.5c0-4.136,3.364-7.5,7.5-7.5s7.5,3.364,7.5,7.5V361.175z M146.493,318.734l4.702-19.094
		l21.845,5.378l115.116,28.342l-4.705,19.104c-0.7,2.842-2.466,5.242-4.973,6.759c-2.505,1.515-5.45,1.963-8.294,1.264
		l-86.537-21.312c-2.844-0.701-5.245-2.466-6.76-4.972c-1.219-2.016-1.753-4.304-1.546-6.616c0.342-3.815-2.238-7.213-5.891-7.997
		c-0.297-0.063-0.599-0.116-0.909-0.144c-4.127-0.367-7.77,2.674-8.141,6.8c-0.495,5.516,0.768,10.951,3.651,15.719
		c3.588,5.934,9.273,10.115,16.008,11.774l86.538,21.313c2.075,0.511,4.172,0.763,6.255,0.763c4.679,0,9.284-1.274,13.39-3.758
		c5.935-3.59,10.116-9.275,11.773-16.007l4.705-19.104l14.565,3.586l-4.705,19.105c-2.617,10.625-9.214,19.594-18.576,25.257
		c-6.744,4.079-14.449,6.128-22.196,5.916c-2.943-0.079-5.903-0.48-8.799-1.193l-86.537-21.312
		c-10.625-2.617-19.594-9.213-25.257-18.576C145.553,340.366,143.876,329.358,146.493,318.734z"/>
</g>
<g>
</g>
<g>
</g>
<g>
</g>
<g>
</g>
<g>
</g>
<g>
</g>
<g>
</g>
<g>
</g>
<g>
</g>
<g>
</g>
<g>
</g>
<g>
</g>
<g>
</g>
<g>
</g>
<g>
</g>
</svg>
