<?xml version="1.0" encoding="iso-8859-1"?>
<!-- Generator: Adobe Illustrator 19.0.0, SVG Export Plug-In . SVG Version: 6.00 Build 0)  -->
<svg version="1.1" id="Capa_1" xmlns="http://www.w3.org/2000/svg" xmlns:xlink="http://www.w3.org/1999/xlink" x="0px" y="0px"
	 viewBox="0 0 470.003 470.003" style="enable-background:new 0 0 470.003 470.003;" xml:space="preserve">
<g>
	<path style="fill:#FFCC75;" d="M143.287,264.378L41.051,372.262l63.753,63.753l237.245-224.83l-76.169-76.169L163.927,242.6
		c-1.476,1.556-3.459,2.341-5.445,2.341c-1.852,0-3.706-0.681-5.157-2.054l-10.32,10.889
		C146.009,256.626,146.136,261.372,143.287,264.378z"/>
	<polygon style="fill:#FFCC75;" points="435.69,21.055 413.93,42.815 434.25,63.135 446.728,50.657 	"/>
	<path style="fill:#F48205;" d="M352.659,221.796l-237.245,224.83l1.657,1.657c8.837,8.839,23.407,9.032,32.477,0.438
		L370.343,239.48L352.659,221.796z"/>
	<path style="fill:#F2EBD9;" d="M28.783,359.994l1.657,1.657L132.4,254.059c2.852-3.006,7.598-3.133,10.604-0.285
		c0.002,0.002,10.322-10.887,10.322-10.887c-3.007-2.851-3.135-7.598-0.286-10.605l102.229-107.877l-17.684-17.684L28.346,327.517
		C19.749,336.588,19.945,351.157,28.783,359.994z"/>
	<path style="fill:#274B6D;" d="M430.863,80.961l-1.897-1.897c-0.037-0.037-30.945-30.944-30.945-30.944
		c-0.001-0.001-1.917-1.917-1.917-1.917c-31.026,27.573-73.915,38.577-114.507,29.205l-11.145,11.146
		c-0.183,0.183-0.373,0.354-0.57,0.515c-1.375,1.121-3.055,1.682-4.734,1.682s-3.359-0.561-4.734-1.682
		c-0.197-0.16-0.387-0.332-0.57-0.515l-1.615-1.616l-10.321,10.892l133.328,133.328l10.891-10.321l-111.07-111.069
		c-2.929-2.93-2.929-7.678,0-10.607c2.93-2.928,7.678-2.928,10.607,0L395.816,201.31l5.841-5.841
		C392.289,154.874,403.289,111.987,430.863,80.961z"/>
	<path style="fill:#082947;" d="M462.466,49.932l-16.8-45.053c-0.892-2.392-2.938-4.166-5.433-4.708
		c-2.499-0.543-5.093,0.221-6.898,2.024l-30.012,30.012l-1.759-1.759c-2.93-2.928-7.678-2.928-10.607,0
		c-28.583,28.585-70.624,39.857-109.731,29.412c-0.045-0.012-0.091-0.016-0.136-0.027c-0.227-0.056-0.456-0.101-0.686-0.136
		c-0.085-0.013-0.169-0.027-0.254-0.037c-0.286-0.033-0.573-0.054-0.861-0.054c-0.04,0-0.08,0.005-0.12,0.006
		c-0.252,0.004-0.503,0.022-0.754,0.051c-0.092,0.011-0.184,0.025-0.275,0.04c-0.214,0.033-0.427,0.076-0.638,0.128
		c-0.075,0.019-0.151,0.034-0.225,0.055c-0.284,0.079-0.565,0.172-0.84,0.285c-0.298,0.126-0.549,0.252-0.795,0.389
		c-0.069,0.038-0.135,0.079-0.203,0.12c-0.195,0.117-0.384,0.243-0.57,0.379c-0.066,0.048-0.133,0.094-0.198,0.145
		c-0.236,0.185-0.466,0.381-0.684,0.598l-8.839,8.839l-1.76-1.76c-1.432-1.431-3.405-2.234-5.404-2.195
		c-2.024,0.027-3.951,0.871-5.344,2.34L17.458,317.199c-14.135,14.915-13.813,38.871,0.717,53.402l88.289,88.288
		c7.397,7.398,17.236,11.113,27.083,11.113c9.494-0.001,18.997-3.456,26.319-10.396l248.171-235.184
		c1.469-1.392,2.313-3.318,2.34-5.343c0.027-2.023-0.765-3.973-2.195-5.404l-1.76-1.759l8.839-8.839
		c1.893-1.893,2.633-4.651,1.942-7.237c-10.441-39.103,0.829-81.149,29.413-109.732c1.406-1.407,2.196-3.314,2.196-5.304
		s-0.79-3.896-2.196-5.304l-1.759-1.759l15.885-15.885C462.819,55.78,463.492,52.683,462.466,49.932z M117.072,448.283l-1.657-1.657
		l237.245-224.83l17.684,17.684L149.548,448.721C140.479,457.315,125.909,457.122,117.072,448.283z M237.585,106.721l17.684,17.684
		L153.039,232.282c-2.85,3.007-2.722,7.754,0.284,10.604c1.452,1.375,3.306,2.056,5.158,2.056c1.986,0,3.97-0.785,5.445-2.341
		L265.88,135.016l76.169,76.169l-237.245,224.83l-63.753-63.753l102.237-107.884c2.849-3.006,2.722-7.751-0.282-10.602
		c-3.008-2.85-7.754-2.723-10.605,0.283L30.439,361.651l-1.657-1.657c-8.838-8.837-9.033-23.406-0.437-32.477L237.585,106.721z
		 M291.664,97.159c-2.93-2.928-7.678-2.928-10.607,0c-2.929,2.93-2.929,7.678,0,10.607l111.07,111.069l-10.891,10.321
		L247.908,95.829l10.321-10.892l1.615,1.616c0.183,0.183,0.373,0.354,0.57,0.515c1.375,1.121,3.055,1.682,4.734,1.682
		s3.359-0.561,4.734-1.682c0.197-0.16,0.387-0.332,0.57-0.515l11.145-11.146c40.592,9.372,83.481-1.632,114.507-29.205l1.916,1.916
		c0.001,0.001,30.908,30.908,30.908,30.908c0.037,0.037,1.935,1.935,1.935,1.935c-27.573,31.026-38.573,73.913-29.206,114.509
		l-5.841,5.841L291.664,97.159z M413.93,42.815l21.759-21.76l11.038,29.602L434.25,63.135L413.93,42.815z"/>
</g>
<g>
</g>
<g>
</g>
<g>
</g>
<g>
</g>
<g>
</g>
<g>
</g>
<g>
</g>
<g>
</g>
<g>
</g>
<g>
</g>
<g>
</g>
<g>
</g>
<g>
</g>
<g>
</g>
<g>
</g>
</svg>
