<?xml version="1.0" encoding="iso-8859-1"?>
<!-- Generator: Adobe Illustrator 19.0.0, SVG Export Plug-In . SVG Version: 6.00 Build 0)  -->
<svg version="1.1" id="Capa_1" xmlns="http://www.w3.org/2000/svg" xmlns:xlink="http://www.w3.org/1999/xlink" x="0px" y="0px"
	 viewBox="0 0 470 470" style="enable-background:new 0 0 470 470;" xml:space="preserve">
<g>
	<path style="fill:#FFFFFF;" d="M152.962,355c21.166,0,38.385-17.22,38.385-38.386c0-8.326-2.62-16.246-7.577-22.902l-30.808-41.229
		l-30.815,41.239c-4.95,6.646-7.57,14.565-7.57,22.893C114.577,337.78,131.796,355,152.962,355z"/>
	<path style="fill:#98D9D5;" d="M273.452,402.5c0-4.143,3.357-7.5,7.5-7.5h126.576V207.452H280.952c-4.142,0-7.499-3.356-7.5-7.498
		h-15v202.55C258.452,402.504,273.452,402.504,273.452,402.5z"/>
	<path style="fill:#C1E8E6;" d="M62.472,395h180.98V207.452H62.472V395z M146.954,235.463c1.416-1.895,3.643-3.011,6.008-3.011
		s4.592,1.116,6.008,3.011l36.823,49.28c6.907,9.274,10.554,20.292,10.554,31.871c0,29.437-23.949,53.386-53.385,53.386
		s-53.385-23.949-53.385-53.386c0-11.579,3.647-22.597,10.547-31.861L146.954,235.463z"/>
	<path style="fill:#FFCC75;" d="M407.528,410H280.952c-4.141,0-7.497-3.355-7.5-7.496h-15V455h149.076V410z"/>
	<path style="fill:#FFCC75;" d="M273.452,199.952c0-4.143,3.357-7.5,7.5-7.5h126.576v-45H258.452v52.502
		C258.452,199.954,273.452,199.954,273.452,199.952z"/>
	<polygon style="fill:#FFCC75;" points="267.572,132.452 398.408,132.452 332.99,58.313 	"/>
	<path style="fill:#F2EBD9;" d="M167.01,39.478c4.141,0,7.498,3.356,7.5,7.497h15c0.002-4.141,3.359-7.497,7.5-7.497h128.48V15
		H144.51v24.478H167.01z"/>
	<path style="fill:#FFFFFF;" d="M174.51,46.978c0,4.143-3.358,7.5-7.5,7.5h-26.616l-68.802,77.975h175.976l68.802-77.975H197.01
		c-4.142,0-7.5-3.357-7.5-7.5C189.51,46.975,174.51,46.975,174.51,46.978z"/>
	<rect x="62.472" y="410" style="fill:#F2EBD9;" width="180.98" height="45"/>
	<rect x="62.472" y="147.452" style="fill:#F2EBD9;" width="180.98" height="45"/>
	<path style="fill:#082947;" d="M422.492,139.231c-0.01-0.103-0.028-0.203-0.042-0.305c-0.018-0.131-0.035-0.263-0.06-0.394
		c-0.023-0.123-0.054-0.243-0.084-0.363c-0.026-0.106-0.051-0.212-0.081-0.316c-0.037-0.126-0.079-0.25-0.122-0.374
		c-0.034-0.096-0.068-0.192-0.105-0.288c-0.048-0.122-0.101-0.242-0.155-0.36c-0.043-0.095-0.088-0.188-0.135-0.281
		c-0.057-0.112-0.117-0.223-0.18-0.332c-0.055-0.096-0.113-0.19-0.172-0.284c-0.064-0.101-0.129-0.201-0.198-0.298
		c-0.068-0.096-0.139-0.189-0.212-0.283c-0.07-0.09-0.14-0.18-0.214-0.266c-0.027-0.032-0.051-0.066-0.078-0.097L340.49,44.142V7.5
		c0-4.143-3.357-7.5-7.5-7.5H137.01c-4.142,0-7.5,3.357-7.5,7.5v36.642L49.348,134.99c-0.027,0.03-0.05,0.063-0.076,0.094
		c-0.077,0.089-0.149,0.182-0.221,0.275c-0.07,0.09-0.139,0.181-0.204,0.273c-0.071,0.101-0.138,0.204-0.205,0.308
		c-0.057,0.09-0.113,0.181-0.166,0.274c-0.065,0.112-0.126,0.225-0.185,0.341c-0.046,0.09-0.089,0.181-0.131,0.272
		c-0.056,0.121-0.109,0.243-0.158,0.367c-0.037,0.093-0.07,0.187-0.103,0.281c-0.044,0.125-0.087,0.251-0.124,0.379
		c-0.03,0.103-0.055,0.207-0.08,0.312c-0.03,0.122-0.061,0.243-0.084,0.367c-0.025,0.129-0.042,0.26-0.06,0.391
		c-0.014,0.103-0.032,0.204-0.042,0.308c-0.023,0.238-0.036,0.479-0.036,0.72V462.5c0,4.143,3.358,7.5,7.5,7.5h360.057
		c4.143,0,7.5-3.357,7.5-7.5V139.952C422.528,139.71,422.515,139.47,422.492,139.231z M243.452,147.452v45H62.472v-45H243.452z
		 M243.452,395H62.472V207.452h180.98V395z M267.572,132.452l65.418-74.139l65.418,74.139H267.572z M325.49,15v24.478H197.01
		c-4.141,0-7.498,3.356-7.5,7.497c0,4.146,3.358,7.503,7.5,7.503h119.36l-68.802,77.975H71.592l68.802-77.975h26.616
		c4.142,0,7.5-3.357,7.5-7.5c-0.002-4.144-3.359-7.5-7.5-7.5h-22.5V15H325.49z M62.472,410h180.98v45H62.472V410z M258.452,147.452
		h149.076v45H280.952c-4.143,0-7.5,3.357-7.5,7.5c0.001,4.144,3.358,7.5,7.5,7.5h126.576V395H280.952c-4.143,0-7.5,3.357-7.5,7.5
		c0.003,4.145,3.359,7.5,7.5,7.5h126.576v45H258.452V147.452z"/>
	<path style="fill:#082947;" d="M152.962,370c29.437,0,53.385-23.949,53.385-53.386c0-11.579-3.647-22.597-10.554-31.871
		l-36.823-49.28c-1.416-1.895-3.643-3.011-6.008-3.011s-4.592,1.116-6.008,3.011l-36.83,49.29
		c-6.9,9.265-10.547,20.282-10.547,31.861C99.577,346.051,123.525,370,152.962,370z M152.962,252.482l30.808,41.229
		c4.957,6.656,7.577,14.576,7.577,22.902c0,21.166-17.22,38.386-38.385,38.386s-38.385-17.22-38.385-38.386
		c0-8.327,2.62-16.246,7.57-22.893L152.962,252.482z"/>
</g>
<g>
</g>
<g>
</g>
<g>
</g>
<g>
</g>
<g>
</g>
<g>
</g>
<g>
</g>
<g>
</g>
<g>
</g>
<g>
</g>
<g>
</g>
<g>
</g>
<g>
</g>
<g>
</g>
<g>
</g>
</svg>
