<?xml version="1.0" encoding="iso-8859-1"?>
<!-- Generator: Adobe Illustrator 19.0.0, SVG Export Plug-In . SVG Version: 6.00 Build 0)  -->
<svg version="1.1" id="Capa_1" xmlns="http://www.w3.org/2000/svg" xmlns:xlink="http://www.w3.org/1999/xlink" x="0px" y="0px"
	 viewBox="0 0 470 470" style="enable-background:new 0 0 470 470;" xml:space="preserve">
<g>
	<path style="fill:#FFFFFF;" d="M130,137.5c0-4.143,3.357-7.5,7.5-7.5s7.5,3.357,7.5,7.5V455h140v-82.5c0-4.143,3.357-7.5,7.5-7.5
		H375V15H145v92.5c0,4.143-3.357,7.5-7.5,7.5s-7.5-3.357-7.5-7.5V15H55v77.5h17.5C84.906,92.5,95,102.594,95,115
		s-10.094,22.5-22.5,22.5H55v75h17.5c12.406,0,22.5,10.094,22.5,22.5s-10.094,22.5-22.5,22.5H55v75h17.5
		c12.406,0,22.5,10.094,22.5,22.5s-10.094,22.5-22.5,22.5H55V455h75V137.5z"/>
	<path style="fill:#98D9D5;" d="M452.5,455h2.5V15h-2.5c-4.143,0-7.5-3.357-7.5-7.5h-15v455h15C445,458.357,448.357,455,452.5,455z"
		/>
	<path style="fill:#C1E8E6;" d="M334.927,455H415V15h-2.5c-4.143,0-7.5-3.357-7.5-7.5h-15v365c0,0.251-0.013,0.501-0.038,0.749
		c-0.018,0.184-0.05,0.364-0.081,0.544c-0.011,0.061-0.016,0.123-0.028,0.184c-0.043,0.218-0.099,0.431-0.161,0.642
		c-0.006,0.021-0.01,0.045-0.017,0.066c-0.065,0.216-0.142,0.425-0.226,0.631c-0.008,0.02-0.013,0.04-0.021,0.059
		c-0.081,0.195-0.173,0.385-0.27,0.571c-0.016,0.03-0.029,0.063-0.045,0.093c-0.091,0.17-0.192,0.332-0.295,0.493
		c-0.029,0.046-0.054,0.094-0.084,0.139c-0.099,0.148-0.208,0.288-0.317,0.429c-0.042,0.054-0.078,0.11-0.121,0.162
		c-0.12,0.146-0.25,0.284-0.381,0.421c-0.038,0.04-0.071,0.083-0.11,0.122L303.107,462.5h24.319
		C327.427,458.357,330.784,455,334.927,455z"/>
	<polygon style="fill:#98D9D5;" points="300,380 300,444.394 364.394,380 	"/>
	<path style="fill:#F2484B;" d="M137.5,130c-4.143,0-7.5,3.357-7.5,7.5V455h15V137.5C145,133.357,141.643,130,137.5,130z"/>
	<path style="fill:#F2484B;" d="M137.5,115c4.143,0,7.5-3.357,7.5-7.5V15h-15v92.5C130,111.643,133.357,115,137.5,115z"/>
	<path style="fill:#082947;" d="M422.5,0h-10c-4.143,0-7.5,3.357-7.5,7.5s3.357,7.5,7.5,7.5h2.5v440h-80.073
		c-4.143,0-7.5,3.357-7.5,7.5s3.357,7.5,7.5,7.5H422.5c4.143,0,7.5-3.357,7.5-7.5V7.5C430,3.357,426.643,0,422.5,0z"/>
	<path style="fill:#082947;" d="M462.5,0h-10c-4.143,0-7.5,3.357-7.5,7.5s3.357,7.5,7.5,7.5h2.5v440h-2.5
		c-4.143,0-7.5,3.357-7.5,7.5s3.357,7.5,7.5,7.5h10c4.143,0,7.5-3.357,7.5-7.5V7.5C470,3.357,466.643,0,462.5,0z"/>
	<path style="fill:#FFCC75;" d="M47.403,362.5c0.032,0,0.064-0.005,0.097-0.005s0.064,0.005,0.097,0.005H72.5
		c4.136,0,7.5-3.364,7.5-7.5s-3.364-7.5-7.5-7.5h-50c-4.136,0-7.5,3.364-7.5,7.5s3.364,7.5,7.5,7.5H47.403z"/>
	<path style="fill:#FFCC75;" d="M72.5,242.5c4.136,0,7.5-3.364,7.5-7.5s-3.364-7.5-7.5-7.5h-50c-4.136,0-7.5,3.364-7.5,7.5
		s3.364,7.5,7.5,7.5H72.5z"/>
	<path style="fill:#FFCC75;" d="M72.5,122.5c4.136,0,7.5-3.364,7.5-7.5s-3.364-7.5-7.5-7.5H47.539c-0.077,0-25.039,0-25.039,0
		c-4.136,0-7.5,3.364-7.5,7.5s3.364,7.5,7.5,7.5H72.5z"/>
	<path style="fill:#082947;" d="M387.914,377.682c0.131-0.137,0.261-0.274,0.381-0.421c0.043-0.052,0.08-0.108,0.121-0.162
		c0.109-0.141,0.218-0.28,0.317-0.429c0.03-0.045,0.055-0.093,0.084-0.139c0.103-0.161,0.204-0.323,0.295-0.493
		c0.016-0.03,0.029-0.063,0.045-0.093c0.097-0.187,0.189-0.376,0.27-0.571c0.008-0.019,0.014-0.039,0.021-0.059
		c0.084-0.206,0.16-0.415,0.226-0.631c0.007-0.021,0.011-0.045,0.017-0.066c0.062-0.211,0.118-0.424,0.161-0.642
		c0.012-0.061,0.017-0.123,0.028-0.184c0.031-0.18,0.063-0.36,0.081-0.544c0.025-0.248,0.038-0.498,0.038-0.749V7.5
		c0-4.143-3.357-7.5-7.5-7.5h-335C43.357,0,40,3.357,40,7.5v85H22.5C10.094,92.5,0,102.594,0,115s10.094,22.5,22.5,22.5H40v75H22.5
		C10.094,212.5,0,222.594,0,235s10.094,22.5,22.5,22.5H40v75H22.5C10.094,332.5,0,342.594,0,355s10.094,22.5,22.5,22.5H40v85
		c0,4.143,3.357,7.5,7.5,7.5h245c0.251,0,0.501-0.013,0.749-0.038c0.189-0.019,0.374-0.051,0.558-0.083
		c0.056-0.01,0.113-0.015,0.169-0.025c0.218-0.044,0.432-0.1,0.643-0.162c0.022-0.006,0.044-0.01,0.066-0.017
		c0.214-0.065,0.422-0.142,0.627-0.225c0.021-0.009,0.042-0.015,0.063-0.023c0.195-0.081,0.384-0.173,0.57-0.269
		c0.031-0.017,0.063-0.029,0.094-0.046c0.171-0.092,0.335-0.193,0.498-0.298c0.044-0.028,0.09-0.052,0.133-0.081
		c0.149-0.1,0.29-0.209,0.431-0.318c0.053-0.041,0.109-0.077,0.16-0.12c0.146-0.12,0.284-0.25,0.421-0.381
		c0.04-0.038,0.083-0.071,0.122-0.11l90-90C387.843,377.765,387.876,377.722,387.914,377.682z M15,355c0-4.136,3.364-7.5,7.5-7.5h50
		c4.136,0,7.5,3.364,7.5,7.5s-3.364,7.5-7.5,7.5H47.597c-0.032,0-0.064-0.005-0.097-0.005s-0.064,0.005-0.097,0.005H22.5
		C18.364,362.5,15,359.136,15,355z M55,377.5h17.5c12.406,0,22.5-10.094,22.5-22.5s-10.094-22.5-22.5-22.5H55v-75h17.5
		c12.406,0,22.5-10.094,22.5-22.5s-10.094-22.5-22.5-22.5H55v-75h17.5c12.406,0,22.5-10.094,22.5-22.5S84.906,92.5,72.5,92.5H55V15
		h320v350h-82.5c-4.143,0-7.5,3.357-7.5,7.5V455H55V377.5z M15,235c0-4.136,3.364-7.5,7.5-7.5h50c4.136,0,7.5,3.364,7.5,7.5
		s-3.364,7.5-7.5,7.5h-50C18.364,242.5,15,239.136,15,235z M15,115c0-4.136,3.364-7.5,7.5-7.5h24.961c0.077,0,25.039,0,25.039,0
		c4.136,0,7.5,3.364,7.5,7.5s-3.364,7.5-7.5,7.5h-50C18.364,122.5,15,119.136,15,115z M300,380h64.394L300,444.394V380z"/>
</g>
<g>
</g>
<g>
</g>
<g>
</g>
<g>
</g>
<g>
</g>
<g>
</g>
<g>
</g>
<g>
</g>
<g>
</g>
<g>
</g>
<g>
</g>
<g>
</g>
<g>
</g>
<g>
</g>
<g>
</g>
</svg>
