<?xml version="1.0" encoding="iso-8859-1"?>
<!-- Generator: Adobe Illustrator 19.0.0, SVG Export Plug-In . SVG Version: 6.00 Build 0)  -->
<svg version="1.1" id="Capa_1" xmlns="http://www.w3.org/2000/svg" xmlns:xlink="http://www.w3.org/1999/xlink" x="0px" y="0px"
	 viewBox="0 0 470 470" style="enable-background:new 0 0 470 470;" xml:space="preserve">
<g>
	<path style="fill:#F2484B;" d="M390,37.5c0-4.143,3.357-7.5,7.5-7.5s7.5,3.357,7.5,7.5h15c0-4.143,3.357-7.5,7.5-7.5
		s7.5,3.357,7.5,7.5v395c0,4.143-3.357,7.5-7.5,7.5s-7.5-3.357-7.5-7.5h-15c0,4.143-3.357,7.5-7.5,7.5s-7.5-3.357-7.5-7.5h-15V455
		h75V15h-52.5c-4.143,0-7.5-3.357-7.5-7.5h-15v30H390z"/>
	<rect x="405" y="37.5" style="fill:#98D9D5;" width="15" height="395"/>
	<rect x="375" y="37.5" style="fill:#C1E8E6;" width="15" height="395"/>
	<path style="fill:#F2484B;" d="M360,15H60v17.5h17.5C89.906,32.5,100,42.594,100,55S89.906,77.5,77.5,77.5H60v75h17.5
		c12.406,0,22.5,10.094,22.5,22.5s-10.094,22.5-22.5,22.5H60v75h17.5c12.406,0,22.5,10.094,22.5,22.5s-10.094,22.5-22.5,22.5H60v75
		h17.5c12.406,0,22.5,10.094,22.5,22.5s-10.094,22.5-22.5,22.5H60V455h300V15z M292,424.5c-1.098,0-2.137-0.241-3.077-0.665
		c-1.711-0.772-3.083-2.162-3.822-3.892c-0.386-0.904-0.601-1.898-0.601-2.943c0-0.13,0.013-0.256,0.019-0.384
		c0.149-2.939,1.982-5.436,4.561-6.526c0.673-0.285,1.396-0.475,2.153-0.551c0.252-0.026,0.508-0.039,0.767-0.039
		c4.142,0,7.5,3.357,7.5,7.5S296.142,424.5,292,424.5z M329.461,387.767c-0.23,2.27-1.473,4.239-3.268,5.452
		c-0.399,0.27-0.825,0.502-1.274,0.691c-0.897,0.38-1.884,0.59-2.919,0.59c-4.142,0-7.5-3.357-7.5-7.5s3.358-7.5,7.5-7.5
		c0.916,0,1.789,0.172,2.6,0.473c1.933,0.715,3.493,2.197,4.3,4.084c0.386,0.903,0.601,1.898,0.601,2.943
		C329.5,387.259,329.487,387.515,329.461,387.767z"/>
	<path style="fill:#082947;" d="M299.5,417c0-4.143-3.358-7.5-7.5-7.5c-0.259,0-0.515,0.014-0.767,0.039
		c-0.756,0.076-1.479,0.266-2.153,0.551c-2.58,1.091-4.412,3.587-4.561,6.526c-0.006,0.128-0.019,0.255-0.019,0.384
		c0,1.045,0.215,2.039,0.601,2.943c0.739,1.729,2.11,3.119,3.822,3.892c0.94,0.424,1.979,0.665,3.077,0.665
		C296.142,424.5,299.5,421.143,299.5,417z"/>
	<path style="fill:#082947;" d="M329.5,387c0-1.045-0.215-2.04-0.601-2.943c-0.806-1.887-2.367-3.369-4.3-4.084
		c-0.811-0.301-1.684-0.473-2.6-0.473c-4.142,0-7.5,3.357-7.5,7.5s3.358,7.5,7.5,7.5c1.036,0,2.022-0.21,2.919-0.59
		c0.448-0.189,0.875-0.422,1.274-0.691c1.795-1.213,3.038-3.183,3.268-5.452C329.487,387.515,329.5,387.259,329.5,387z"/>
	<path style="fill:#082947;" d="M457.5,0h-60c-4.143,0-7.5,3.357-7.5,7.5s3.357,7.5,7.5,7.5H450v440h-75V7.5
		c0-4.143-3.357-7.5-7.5-7.5h-315C48.357,0,45,3.357,45,7.5v25H27.5C15.094,32.5,5,42.594,5,55s10.094,22.5,22.5,22.5H45v75H27.5
		C15.094,152.5,5,162.594,5,175s10.094,22.5,22.5,22.5H45v75H27.5C15.094,272.5,5,282.594,5,295s10.094,22.5,22.5,22.5H45v75H27.5
		C15.094,392.5,5,402.594,5,415s10.094,22.5,22.5,22.5H45v25c0,4.143,3.357,7.5,7.5,7.5h405c4.143,0,7.5-3.357,7.5-7.5V7.5
		C465,3.357,461.643,0,457.5,0z M20,415c0-4.136,3.364-7.5,7.5-7.5h50c4.136,0,7.5,3.364,7.5,7.5s-3.364,7.5-7.5,7.5h-50
		C23.364,422.5,20,419.136,20,415z M60,437.5h17.5c12.406,0,22.5-10.094,22.5-22.5s-10.094-22.5-22.5-22.5H60v-75h17.5
		c12.406,0,22.5-10.094,22.5-22.5s-10.094-22.5-22.5-22.5H60v-75h17.5c12.406,0,22.5-10.094,22.5-22.5s-10.094-22.5-22.5-22.5H60
		v-75h17.5C89.906,77.5,100,67.406,100,55S89.906,32.5,77.5,32.5H60V15h300v440H60V437.5z M20,295c0-4.136,3.364-7.5,7.5-7.5h50
		c4.136,0,7.5,3.364,7.5,7.5s-3.364,7.5-7.5,7.5h-50C23.364,302.5,20,299.136,20,295z M20,175c0-4.136,3.364-7.5,7.5-7.5h50
		c4.136,0,7.5,3.364,7.5,7.5s-3.364,7.5-7.5,7.5h-50C23.364,182.5,20,179.136,20,175z M20,55c0-4.136,3.364-7.5,7.5-7.5h50
		c4.136,0,7.5,3.364,7.5,7.5s-3.364,7.5-7.5,7.5h-50C23.364,62.5,20,59.136,20,55z"/>
	<path style="fill:#082947;" d="M397.5,440c4.143,0,7.5-3.357,7.5-7.5v-395c0-4.143-3.357-7.5-7.5-7.5s-7.5,3.357-7.5,7.5v395
		C390,436.643,393.357,440,397.5,440z"/>
	<path style="fill:#082947;" d="M427.5,440c4.143,0,7.5-3.357,7.5-7.5v-395c0-4.143-3.357-7.5-7.5-7.5s-7.5,3.357-7.5,7.5v395
		C420,436.643,423.357,440,427.5,440z"/>
	<path style="fill:#FFCC75;" d="M77.5,422.5c4.136,0,7.5-3.364,7.5-7.5s-3.364-7.5-7.5-7.5h-50c-4.136,0-7.5,3.364-7.5,7.5
		s3.364,7.5,7.5,7.5H77.5z"/>
	<path style="fill:#FFCC75;" d="M77.5,302.5c4.136,0,7.5-3.364,7.5-7.5s-3.364-7.5-7.5-7.5h-50c-4.136,0-7.5,3.364-7.5,7.5
		s3.364,7.5,7.5,7.5H77.5z"/>
	<path style="fill:#FFCC75;" d="M77.5,182.5c4.136,0,7.5-3.364,7.5-7.5s-3.364-7.5-7.5-7.5h-50c-4.136,0-7.5,3.364-7.5,7.5
		s3.364,7.5,7.5,7.5H77.5z"/>
	<path style="fill:#FFCC75;" d="M77.5,62.5c4.136,0,7.5-3.364,7.5-7.5s-3.364-7.5-7.5-7.5h-50c-4.136,0-7.5,3.364-7.5,7.5
		s3.364,7.5,7.5,7.5H77.5z"/>
</g>
<g>
</g>
<g>
</g>
<g>
</g>
<g>
</g>
<g>
</g>
<g>
</g>
<g>
</g>
<g>
</g>
<g>
</g>
<g>
</g>
<g>
</g>
<g>
</g>
<g>
</g>
<g>
</g>
<g>
</g>
</svg>
