<?xml version="1.0" encoding="iso-8859-1"?>
<!-- Generator: Adobe Illustrator 19.0.0, SVG Export Plug-In . SVG Version: 6.00 Build 0)  -->
<svg version="1.1" id="Capa_1" xmlns="http://www.w3.org/2000/svg" xmlns:xlink="http://www.w3.org/1999/xlink" x="0px" y="0px"
	 viewBox="0 0 470 470" style="enable-background:new 0 0 470 470;" xml:space="preserve">
<g>
	<path style="fill:#F2484B;" d="M115.528,421.736c25.394-30.139,39.715-68.501,39.715-109.236
		c0-53.923-25.081-103.697-67.743-135.727v271.453c9.942-7.464,18.916-15.903,26.853-25.123
		C114.693,422.592,115.091,422.138,115.528,421.736z"/>
	<path style="fill:#F2484B;" d="M382.5,448.227V176.773c-42.662,32.029-67.743,81.804-67.743,135.727
		c0,40.9,14.44,79.405,40.026,109.598c0.44,0.404,0.841,0.861,1.183,1.377C363.825,432.55,372.691,440.862,382.5,448.227z"/>
	<path style="fill:#F2EBD9;" d="M299.757,312.5c0-62.368,30.831-119.637,82.686-154.04c-1.385-51.245-29.038-96.044-69.949-121.409
		C270.516,63.081,242.5,109.58,242.5,162.5c0,4.143-3.357,7.5-7.5,7.5s-7.5-3.357-7.5-7.5c0-52.92-28.016-99.419-69.994-125.449
		c-40.911,25.364-68.564,70.164-69.949,121.409c51.855,34.403,82.686,91.672,82.686,154.04c0,41.482-13.648,80.699-38.039,112.441
		l26.259,14.004l22.465-12.299c0.713-0.586,1.537-1.041,2.435-1.333l9.295-5.089c2.218-1.213,4.899-1.229,7.131-0.038l35.222,18.784
		l35.22-18.784c2.205-1.179,4.854-1.178,7.059,0l10.609,5.658c0.002,0.001,24.61,13.126,24.61,13.126l25.577-13.644
		C313.51,393.517,299.757,354.148,299.757,312.5z M156.563,170c-24.813,0-45-20.187-45-45s20.187-45,45-45s45,20.187,45,45
		S181.376,170,156.563,170z M242.32,354.46c-2.847,0-5.326-1.589-6.596-3.929c-0.062-0.115-0.114-0.236-0.171-0.354
		c-0.048-0.1-0.101-0.197-0.144-0.299c-0.38-0.898-0.591-1.886-0.591-2.923c0-4.142,3.358-7.5,7.5-7.5
		c2.457,0,4.631,1.187,5.999,3.012c0.939,1.252,1.503,2.803,1.503,4.492C249.82,351.1,246.46,354.46,242.32,354.46z M272.32,384.46
		c-2.848,0-5.326-1.589-6.596-3.929c-0.042-0.077-0.076-0.16-0.115-0.239c-0.068-0.137-0.14-0.272-0.199-0.415
		c-0.38-0.898-0.591-1.885-0.591-2.922c0-4.142,3.358-7.5,7.5-7.5c2.475,0,4.664,1.205,6.03,3.054
		c0.92,1.245,1.471,2.78,1.471,4.451C279.82,381.1,276.46,384.46,272.32,384.46z M268.438,125c0-24.813,20.187-45,45-45
		s45,20.187,45,45s-20.187,45-45,45S268.438,149.813,268.438,125z"/>
	<path style="fill:#F2484B;" d="M382.5,94.355V15.188c-19.594,0.987-38.191,5.818-55.055,13.749
		C351.134,45.384,370.256,67.96,382.5,94.355z"/>
	<path style="fill:#F2484B;" d="M87.5,94.355c12.244-26.395,31.366-48.971,55.055-65.418c-16.864-7.93-35.461-12.762-55.055-13.749
		V94.355z"/>
	<path style="fill:#F2484B;" d="M172.456,28.938C201.733,49.267,224.043,78.96,235,113.65c10.957-34.69,33.267-64.383,62.544-84.713
		C278.545,20.005,257.347,15,235,15S191.455,20.005,172.456,28.938z"/>
	<path style="fill:#FFCC75;" d="M156.563,95c-16.542,0-30,13.458-30,30s13.458,30,30,30s30-13.458,30-30S173.105,95,156.563,95z
		 M156.563,132.5c-4.143,0-7.503-3.36-7.503-7.5s3.36-7.5,7.5-7.5c4.145,0,7.503,3.358,7.503,7.5S160.705,132.5,156.563,132.5z"/>
	<path style="fill:#FFCC75;" d="M313.438,155c16.542,0,30-13.458,30-30s-13.458-30-30-30s-30,13.458-30,30S296.896,155,313.438,155z
		 M313.437,117.5c4.143,0,7.503,3.36,7.503,7.5s-3.36,7.5-7.5,7.5c-4.145,0-7.503-3.358-7.503-7.5S309.295,117.5,313.437,117.5z"/>
	<path style="fill:#082947;" d="M156.563,80c-24.813,0-45,20.187-45,45s20.187,45,45,45s45-20.187,45-45S181.376,80,156.563,80z
		 M156.563,155c-16.542,0-30-13.458-30-30s13.458-30,30-30s30,13.458,30,30S173.105,155,156.563,155z"/>
	<circle style="fill:#082947;" cx="156.562" cy="125" r="7.5"/>
	<path style="fill:#082947;" d="M358.438,125c0-24.813-20.187-45-45-45s-45,20.187-45,45s20.187,45,45,45
		S358.438,149.813,358.438,125z M283.438,125c0-16.542,13.458-30,30-30s30,13.458,30,30s-13.458,30-30,30
		S283.438,141.542,283.438,125z"/>
	<circle style="fill:#082947;" cx="313.438" cy="125" r="7.5"/>
	<path style="fill:#082947;" d="M390,0c-28.043,0-54.447,7.146-77.495,19.704C289.455,7.144,263.046,0,235,0
		s-54.455,7.144-77.505,19.704C134.447,7.146,108.044,0,80,0c-4.143,0-7.5,3.357-7.5,7.5v154.871c-0.001,0.081-0.001,0.162,0,0.243
		V462.5c0,2.733,1.486,5.25,3.88,6.568c2.392,1.318,5.314,1.233,7.626-0.228c14.175-8.955,26.833-19.6,37.819-31.565V462.5
		c0,4.143,3.357,7.5,7.5,7.5s7.5-3.357,7.5-7.5v-18.094l13.182,7.029V462.5c0,4.143,3.357,7.5,7.5,7.5s7.5-3.357,7.5-7.5v-10.037
		l13.183-7.217V462.5c0,4.143,3.357,7.5,7.5,7.5s7.5-3.357,7.5-7.5v-25.466l3.117-1.707l35.175,18.76
		c2.205,1.178,4.854,1.178,7.059,0l35.22-18.784l3.064,1.634V462.5c0,4.143,3.357,7.5,7.5,7.5s7.5-3.357,7.5-7.5v-17.563
		l13.182,7.031V462.5c0,4.143,3.357,7.5,7.5,7.5s7.5-3.357,7.5-7.5v-10.53l13.182-7.031V462.5c0,4.143,3.357,7.5,7.5,7.5
		s7.5-3.357,7.5-7.5v-25.21c10.983,11.959,23.637,22.599,37.807,31.551c1.221,0.771,2.612,1.159,4.006,1.159
		c1.244,0,2.491-0.31,3.62-0.932c2.394-1.318,3.88-3.835,3.88-6.568V162.614c0.001-0.081,0.001-0.162,0-0.243V7.5
		C397.5,3.357,394.143,0,390,0z M312.508,438.97L287.9,425.845c-0.002-0.001-10.611-5.66-10.611-5.66
		c-2.205-1.178-4.854-1.179-7.059,0l-35.22,18.784l-35.222-18.784c-2.231-1.19-4.913-1.175-7.131,0.038l-9.295,5.089
		c-0.897,0.292-1.722,0.747-2.435,1.333l-22.465,12.299l-26.259-14.004c24.391-31.742,38.039-70.959,38.039-112.441
		c0-62.368-30.831-119.637-82.686-154.04c1.385-51.245,29.038-96.044,69.949-121.409C199.484,63.081,227.5,109.58,227.5,162.5
		c0,4.143,3.357,7.5,7.5,7.5s7.5-3.357,7.5-7.5c0-52.92,28.016-99.419,69.994-125.449c40.911,25.364,68.564,70.164,69.949,121.409
		c-51.855,34.403-82.686,91.672-82.686,154.04c0,41.648,13.753,81.017,38.328,112.826L312.508,438.97z M235,113.65
		c-10.957-34.69-33.267-64.383-62.544-84.713C191.455,20.005,212.653,15,235,15s43.545,5.005,62.544,13.938
		C268.267,49.267,245.957,78.96,235,113.65z M87.5,94.355V15.188c19.594,0.987,38.191,5.818,55.055,13.749
		C118.866,45.384,99.744,67.96,87.5,94.355z M87.5,448.227V176.773c42.662,32.029,67.743,81.804,67.743,135.727
		c0,40.735-14.322,79.098-39.715,109.236c-0.437,0.401-0.835,0.855-1.175,1.368C106.416,432.324,97.442,440.762,87.5,448.227z
		 M355.966,423.476c-0.342-0.517-0.742-0.973-1.183-1.377c-25.586-30.193-40.026-68.698-40.026-109.598
		c0-53.923,25.081-103.697,67.743-135.727v271.453C372.691,440.862,363.825,432.55,355.966,423.476z M382.5,94.355
		c-12.244-26.395-31.366-48.971-55.055-65.418c16.864-7.93,35.461-12.762,55.055-13.749V94.355z"/>
	<path style="fill:#082947;" d="M242.319,354.455c4.142,0,7.5-3.357,7.5-7.5c0-1.686-0.563-3.236-1.501-4.488
		c-1.368-1.826-3.542-3.012-5.999-3.012c-4.142,0-7.5,3.357-7.5,7.5c0,1.037,0.21,2.024,0.591,2.923
		c0.043,0.102,0.096,0.199,0.144,0.299c0.056,0.118,0.108,0.239,0.171,0.354C236.995,352.869,239.471,354.455,242.319,354.455z"/>
	<path style="fill:#082947;" d="M272.319,384.456c4.142,0,7.5-3.358,7.5-7.5c0-1.667-0.551-3.201-1.47-4.446
		c-1.366-1.849-3.555-3.054-6.03-3.054c-4.142,0-7.5,3.358-7.5,7.5c0,1.037,0.21,2.024,0.591,2.922
		c0.06,0.142,0.131,0.277,0.199,0.415c0.04,0.079,0.073,0.162,0.115,0.239C266.994,382.869,269.471,384.456,272.319,384.456z"/>
</g>
<g>
</g>
<g>
</g>
<g>
</g>
<g>
</g>
<g>
</g>
<g>
</g>
<g>
</g>
<g>
</g>
<g>
</g>
<g>
</g>
<g>
</g>
<g>
</g>
<g>
</g>
<g>
</g>
<g>
</g>
</svg>
