<?xml version="1.0" encoding="iso-8859-1"?>
<!-- Generator: Adobe Illustrator 19.0.0, SVG Export Plug-In . SVG Version: 6.00 Build 0)  -->
<svg version="1.1" id="Capa_1" xmlns="http://www.w3.org/2000/svg" xmlns:xlink="http://www.w3.org/1999/xlink" x="0px" y="0px"
	 viewBox="0 0 470.02 470.02" style="enable-background:new 0 0 470.02 470.02;" xml:space="preserve">
<g>
	<path style="fill:#FFFFFF;" d="M307.066,208.923l-43.199,43.198c-6.139,6.138-14.3,9.519-22.98,9.519
		c-6.123,0-11.983-1.688-17.061-4.833l-96.181,96.182c-1.464,1.464-3.384,2.196-5.303,2.196s-3.839-0.732-5.303-2.196
		l-10.606,10.605c2.929,2.931,2.929,7.678,0,10.607L76.38,404.253l24.749,24.749l213.008-213.009L307.066,208.923z"/>
	<path style="fill:#C1E8E6;" d="M117.039,342.381l96.188-96.188c-7.721-12.522-6.167-29.187,4.678-40.033l43.199-43.199l-7.071-7.07
		L41.025,368.897l24.748,24.748l30.052-30.052c2.929-2.928,7.678-2.928,10.606,0c0,0,10.607-10.605,10.607-10.605
		C114.109,350.059,114.11,345.311,117.039,342.381z"/>
	<path style="fill:#185F8D;" d="M60.472,409.559c-0.005-0.005-30.054-30.054-30.054-30.054l-8.839,8.839
		c-4.226,4.226-6.554,9.876-6.554,15.909s2.328,11.684,6.554,15.911l28.284,28.283c8.773,8.773,23.048,8.771,31.82,0l8.839-8.839
		L60.472,409.559z"/>
	<path style="fill:#185F8D;" d="M439.649,30.378C429.733,20.462,416.549,15,402.526,15s-27.207,5.462-37.122,15.377L257.568,138.211
		l14.143,14.142l66.402-66.402c2.93-2.928,7.678-2.928,10.607,0c2.929,2.93,2.929,7.678,0,10.607l-71.701,71.7
		c-0.011,0.012-48.508,48.508-48.508,48.508c-6.823,6.823-6.823,17.926,0,24.748c3.305,3.306,7.7,5.126,12.374,5.126
		c4.675,0,9.069-1.82,12.374-5.126l141.422-141.421c3.306-3.305,5.126-7.699,5.126-12.374s-1.82-9.069-5.126-12.374
		c-6.822-6.824-17.926-6.824-24.748,0c-2.93,2.928-7.678,2.928-10.607,0c-2.929-2.93-2.929-7.678,0-10.607
		c12.671-12.67,33.289-12.67,45.962,0c12.673,12.672,12.673,33.291,0.001,45.963l-87.616,87.615l14.142,14.143l107.833-107.835
		C460.118,84.153,460.118,50.848,439.649,30.378z"/>
	<path style="fill:#082947;" d="M450.256,19.771C437.506,7.021,420.556,0,402.526,0s-34.98,7.021-47.729,19.771L241.658,132.907
		c-1.406,1.407-2.196,3.314-2.196,5.304s0.79,3.896,2.196,5.304l1.768,1.768L25.119,363.59
		c-0.008,0.009-14.146,14.146-14.146,14.146c-7.06,7.06-10.947,16.477-10.947,26.517s3.888,19.457,10.947,26.518l28.284,28.284
		c7.311,7.311,16.912,10.966,26.516,10.965c9.602,0,19.207-3.655,26.517-10.965l232.455-232.454l1.768,1.768
		c1.407,1.406,3.314,2.196,5.304,2.196s3.896-0.79,5.304-2.196L450.256,115.23C476.573,88.912,476.573,46.089,450.256,19.771z
		 M331.816,212.458l-14.142-14.143l87.616-87.615c12.672-12.672,12.672-33.291-0.001-45.963c-12.673-12.67-33.291-12.67-45.962,0
		c-2.929,2.93-2.929,7.678,0,10.607c2.93,2.928,7.678,2.928,10.607,0c6.822-6.824,17.926-6.824,24.748,0
		c3.306,3.305,5.126,7.699,5.126,12.374s-1.82,9.069-5.126,12.374L253.26,241.514c-3.305,3.306-7.699,5.126-12.374,5.126
		c-4.674,0-9.069-1.82-12.374-5.126c-6.823-6.822-6.823-17.925,0-24.748l48.497-48.496c0.011-0.012,71.712-71.712,71.712-71.712
		c2.929-2.93,2.929-7.678,0-10.607c-2.93-2.928-7.678-2.928-10.607,0l-66.402,66.402l-14.143-14.142L365.403,30.377
		C375.318,20.462,388.502,15,402.526,15s27.207,5.462,37.123,15.378c20.47,20.47,20.47,53.775,0,74.245L331.816,212.458z
		 M49.863,448.447l-28.284-28.283c-4.226-4.228-6.554-9.878-6.554-15.911s2.328-11.684,6.554-15.909l8.839-8.839l30.049,30.049
		c0.005,0.005,30.054,30.055,30.054,30.055l-8.839,8.839C72.911,457.219,58.636,457.221,49.863,448.447z M101.129,429.002
		L76.38,404.253l30.052-30.052c2.929-2.93,2.929-7.677,0-10.607c-2.929-2.928-7.678-2.928-10.607,0l-30.052,30.052l-24.748-24.748
		L254.033,155.89l7.071,7.07l-43.199,43.199c-10.846,10.847-12.399,27.511-4.678,40.033l-96.188,96.188
		c-2.929,2.93-2.929,7.678,0,10.607c1.465,1.464,3.384,2.196,5.303,2.196s3.839-0.732,5.303-2.196l96.181-96.182
		c5.078,3.146,10.938,4.833,17.061,4.833c8.681,0,16.842-3.381,22.98-9.519l43.199-43.198l7.071,7.07L101.129,429.002z"/>
</g>
<g>
</g>
<g>
</g>
<g>
</g>
<g>
</g>
<g>
</g>
<g>
</g>
<g>
</g>
<g>
</g>
<g>
</g>
<g>
</g>
<g>
</g>
<g>
</g>
<g>
</g>
<g>
</g>
<g>
</g>
</svg>
