<?xml version="1.0" encoding="iso-8859-1"?>
<!-- Generator: Adobe Illustrator 19.0.0, SVG Export Plug-In . SVG Version: 6.00 Build 0)  -->
<svg version="1.1" id="Capa_1" xmlns="http://www.w3.org/2000/svg" xmlns:xlink="http://www.w3.org/1999/xlink" x="0px" y="0px"
	 viewBox="0 0 470 470" style="enable-background:new 0 0 470 470;" xml:space="preserve">
<g>
	<rect x="177.5" y="48" style="fill:#6DA8D6;" width="25" height="15"/>
	<path style="fill:#F2EBD9;" d="M341,215h-36c-4.143,0-7.5-3.358-7.5-7.5V185h-215v270h215v-52.5c0-4.142,3.357-7.5,7.5-7.5h36
		c25.641,0,46.5-20.86,46.5-46.5v-87C387.5,235.86,366.641,215,341,215z M122.5,422.5c0,4.142-3.358,7.5-7.5,7.5s-7.5-3.358-7.5-7.5
		v-145c0-4.142,3.358-7.5,7.5-7.5s7.5,3.358,7.5,7.5V422.5z M122.5,247.5c0,4.142-3.358,7.5-7.5,7.5s-7.5-3.358-7.5-7.5v-30
		c0-4.142,3.358-7.5,7.5-7.5s7.5,3.358,7.5,7.5V247.5z M362.5,348.5c0,11.855-9.645,21.5-21.5,21.5h-28.5v2.5
		c0,4.142-3.357,7.5-7.5,7.5s-7.5-3.358-7.5-7.5v-135c0-4.142,3.357-7.5,7.5-7.5s7.5,3.358,7.5,7.5v2.5H341
		c11.855,0,21.5,9.645,21.5,21.5V348.5z"/>
	<rect x="247.5" y="63" style="fill:#6DA8D6;" width="25" height="107"/>
	<polygon style="fill:#F2EBD9;" points="268.75,48 260,27 251.25,48 	"/>
	<polygon style="fill:#F2EBD9;" points="128.75,48 120,27 111.25,48 	"/>
	<rect x="107.5" y="63" style="fill:#FFCC75;" width="25" height="107"/>
	<rect x="177.5" y="78" style="fill:#FFCC75;" width="25" height="92"/>
	<path style="fill:#F2484B;" d="M202.5,33V19.5c0-2.439-2.061-4.5-4.5-4.5h-16c-2.439,0-4.5,2.061-4.5,4.5V33H202.5z"/>
	<path style="fill:#082947;" d="M341,200h-28.5v-22.5c0-4.142-3.357-7.5-7.5-7.5h-17.5V55.5c0-0.25-0.013-0.499-0.038-0.747
		c-0.02-0.204-0.054-0.403-0.09-0.602c-0.008-0.042-0.011-0.084-0.019-0.126c-0.103-0.514-0.258-1.01-0.46-1.48l-19.97-47.929
		C265.759,1.821,263.027,0,260,0s-5.759,1.821-6.923,4.615l-19.971,47.931c-0.202,0.47-0.356,0.964-0.459,1.478
		c-0.009,0.046-0.013,0.094-0.021,0.14c-0.035,0.194-0.068,0.389-0.088,0.588c-0.025,0.248-0.038,0.497-0.038,0.747V170h-15V19.5
		C217.5,8.748,208.752,0,198,0h-16c-10.752,0-19.5,8.748-19.5,19.5V170h-15V55.5c0-0.25-0.013-0.499-0.038-0.747
		c-0.02-0.199-0.053-0.394-0.088-0.588c-0.009-0.047-0.012-0.094-0.021-0.14c-0.103-0.514-0.257-1.008-0.459-1.478L126.923,4.615
		C125.758,1.821,123.028,0,120,0s-5.758,1.821-6.923,4.615L93.106,52.546c-0.202,0.47-0.356,0.964-0.459,1.478
		c-0.009,0.046-0.013,0.094-0.021,0.14c-0.035,0.194-0.068,0.389-0.088,0.588C92.513,55.001,92.5,55.25,92.5,55.5V170H75
		c-4.142,0-7.5,3.358-7.5,7.5v285c0,4.142,3.358,7.5,7.5,7.5h230c4.143,0,7.5-3.358,7.5-7.5V410H341c33.911,0,61.5-27.589,61.5-61.5
		v-87C402.5,227.589,374.911,200,341,200z M387.5,348.5c0,25.64-20.859,46.5-46.5,46.5h-36c-4.143,0-7.5,3.358-7.5,7.5V455h-215V185
		h215v22.5c0,4.142,3.357,7.5,7.5,7.5h36c25.641,0,46.5,20.86,46.5,46.5V348.5z M128.75,48h-17.5L120,27L128.75,48z M107.5,63h25
		v107h-25V63z M182,15h16c2.439,0,4.5,2.061,4.5,4.5V33h-25V19.5C177.5,17.061,179.561,15,182,15z M202.5,63h-25V48h25V63z
		 M177.5,78h25v92h-25V78z M268.75,48h-17.5L260,27L268.75,48z M247.5,63h25v107h-25V63z"/>
	<path style="fill:#FFFFFF;" d="M115,210c-4.142,0-7.5,3.358-7.5,7.5v30c0,4.142,3.358,7.5,7.5,7.5s7.5-3.358,7.5-7.5v-30
		C122.5,213.358,119.142,210,115,210z"/>
	<path style="fill:#FFFFFF;" d="M115,270c-4.142,0-7.5,3.358-7.5,7.5v145c0,4.142,3.358,7.5,7.5,7.5s7.5-3.358,7.5-7.5v-145
		C122.5,273.358,119.142,270,115,270z"/>
	<path style="fill:#082947;" d="M341,240h-28.5v-2.5c0-4.142-3.357-7.5-7.5-7.5s-7.5,3.358-7.5,7.5v135c0,4.142,3.357,7.5,7.5,7.5
		s7.5-3.358,7.5-7.5V370H341c11.855,0,21.5-9.645,21.5-21.5v-87C362.5,249.645,352.855,240,341,240z M347.5,348.5
		c0,3.584-2.916,6.5-6.5,6.5h-28.5V255H341c3.584,0,6.5,2.916,6.5,6.5V348.5z"/>
</g>
<g>
</g>
<g>
</g>
<g>
</g>
<g>
</g>
<g>
</g>
<g>
</g>
<g>
</g>
<g>
</g>
<g>
</g>
<g>
</g>
<g>
</g>
<g>
</g>
<g>
</g>
<g>
</g>
<g>
</g>
</svg>
