<?xml version="1.0" encoding="iso-8859-1"?>
<!-- Generator: Adobe Illustrator 19.0.0, SVG Export Plug-In . SVG Version: 6.00 Build 0)  -->
<svg version="1.1" id="Capa_1" xmlns="http://www.w3.org/2000/svg" xmlns:xlink="http://www.w3.org/1999/xlink" x="0px" y="0px"
	 viewBox="0 0 470.007 470.007" style="enable-background:new 0 0 470.007 470.007;" xml:space="preserve">
<g>
	<path style="fill:#F2484B;" d="M261.52,321.623L391.795,451.9l24.749-24.748l-59.565-59.565c-2.929-2.93-2.929-7.678,0-10.607
		c2.93-2.928,7.678-2.928,10.607,0l59.565,59.565l24.749-24.749L321.623,261.52c-2.929-2.93-2.929-7.678,0-10.607l-10.606-10.605
		l-70.71,70.711l10.606,10.605C253.842,318.696,258.59,318.696,261.52,321.623z M286.268,286.268c2.93-2.928,7.678-2.928,10.607,0
		l35.355,35.355c2.929,2.93,2.929,7.678,0,10.607c-1.465,1.464-3.385,2.196-5.304,2.196s-3.839-0.732-5.304-2.196l-35.355-35.355
		C283.339,293.946,283.339,289.198,286.268,286.268z"/>
	<path style="fill:#F2484B;" d="M219.094,148.383c-2.929,2.927-7.677,2.928-10.607,0l-78.192-78.191
		c-2.018,3.443-4.489,6.651-7.364,9.527c-5.88,5.88-13.012,9.975-20.571,12.035l81.378,81.377c2.929,2.93,2.929,7.678,0,10.607
		c-1.465,1.464-3.385,2.196-5.304,2.196s-3.839-0.732-5.304-2.196l-81.378-81.377c-2.06,7.558-6.155,14.689-12.034,20.569
		c-2.876,2.875-6.084,5.346-9.528,7.364l78.192,78.191c2.929,2.93,2.929,7.678,0,10.607l10.606,10.605l70.711-70.711
		L219.094,148.383z"/>
	<polygon style="fill:#F2484B;" points="44.328,30.776 21.289,21.289 30.776,44.328 	"/>
	<path style="fill:#FFCC75;" d="M118.14,61.169L59.355,36.964L36.964,59.355l24.206,58.785c2.888-1.496,5.576-3.449,7.942-5.816
		c7.088-7.087,10.371-16.71,8.784-25.743c-0.423-2.408,0.354-4.872,2.084-6.602c1.728-1.729,4.193-2.506,6.602-2.083
		c9.029,1.586,18.655-1.696,25.742-8.784C114.69,66.745,116.644,64.058,118.14,61.169z"/>
	<path style="fill:#082947;" d="M467.81,386.491L332.231,250.912c-2.93-2.928-7.678-2.928-10.607,0
		c-2.929,2.93-2.929,7.678,0,10.607L451.9,391.795l-24.749,24.749l-59.565-59.565c-2.93-2.928-7.678-2.928-10.607,0
		c-2.929,2.93-2.929,7.678,0,10.607l59.565,59.565L391.795,451.9L261.52,321.623c-2.93-2.928-7.678-2.928-10.607,0
		c-2.929,2.93-2.929,7.678,0,10.607L386.492,467.81c1.465,1.464,3.385,2.196,5.304,2.196s3.839-0.732,5.304-2.196l70.711-70.711
		C470.739,394.169,470.739,389.421,467.81,386.491z"/>
	<path style="fill:#082947;" d="M148.383,208.487l-78.192-78.191c3.443-2.019,6.652-4.489,9.528-7.364
		c5.879-5.88,9.974-13.012,12.034-20.569l81.378,81.377c1.465,1.464,3.385,2.196,5.304,2.196s3.839-0.732,5.304-2.196
		c2.929-2.93,2.929-7.678,0-10.607L102.36,91.754c7.558-2.061,14.69-6.155,20.571-12.035c2.875-2.876,5.346-6.084,7.364-9.527
		l78.192,78.191c2.931,2.928,7.679,2.927,10.607,0c2.929-2.93,2.929-7.678,0-10.607l-86.082-86.081
		c-0.014-0.014-0.029-0.025-0.042-0.038c-0.069-0.067-0.142-0.13-0.214-0.194c-0.645-0.588-1.383-1.065-2.192-1.399L60.441,21.189
		c-0.019-0.009-0.038-0.017-0.057-0.024l-50.028-20.6c-2.8-1.151-6.018-0.508-8.159,1.632c-2.141,2.142-2.784,5.359-1.632,8.159
		l20.596,50.019c0.01,0.025,0.021,0.051,0.032,0.077l28.87,70.112c0.352,0.854,0.863,1.63,1.497,2.3
		c0.03,0.032,0.058,0.066,0.089,0.098c0.016,0.017,0.03,0.034,0.046,0.051l86.081,86.082c1.465,1.464,3.384,2.196,5.304,2.196
		c1.919,0,3.839-0.732,5.304-2.196C151.312,216.164,151.312,211.416,148.383,208.487z M86.581,77.896
		c-2.408-0.423-4.874,0.354-6.602,2.083c-1.729,1.729-2.507,4.193-2.084,6.602c1.587,9.033-1.696,18.656-8.784,25.743
		c-2.366,2.367-5.054,4.32-7.942,5.816L36.964,59.355l22.392-22.391l58.784,24.205c-1.496,2.889-3.449,5.576-5.816,7.942
		C105.237,76.199,95.611,79.482,86.581,77.896z M44.328,30.776L30.776,44.328l-9.487-23.039L44.328,30.776z"/>
	<path style="fill:#082947;" d="M321.623,332.231c1.465,1.464,3.385,2.196,5.304,2.196s3.839-0.732,5.304-2.196
		c2.929-2.93,2.929-7.678,0-10.607l-35.355-35.355c-2.93-2.928-7.678-2.928-10.607,0c-2.929,2.93-2.929,7.678,0,10.607
		L321.623,332.231z"/>
	<path style="fill:#FF6E1D;" d="M390.288,122.931c-5.879-5.88-9.974-13.012-12.034-20.569L182.261,298.353
		c-1.465,1.464-3.385,2.196-5.304,2.196c-1.92,0-3.839-0.732-5.304-2.196c-2.929-2.93-2.929-7.678,0-10.607L367.646,91.754
		c-7.558-2.06-14.689-6.155-20.57-12.035c-2.875-2.876-5.345-6.084-7.364-9.528L18.107,391.795l24.749,24.749L143.37,316.03
		c2.93-2.928,7.678-2.928,10.607,0c2.929,2.93,2.929,7.678,0,10.607L53.463,427.152L78.211,451.9l321.604-321.604
		C396.372,128.277,393.163,125.807,390.288,122.931z"/>
	<polygon style="fill:#FF6E1D;" points="439.231,44.328 448.717,21.289 425.678,30.776 	"/>
	<path style="fill:#FFCC75;" d="M357.683,69.112c7.088,7.088,16.715,10.377,25.742,8.784c2.409-0.422,4.873,0.354,6.602,2.083
		c1.729,1.729,2.507,4.193,2.084,6.602c-1.587,9.033,1.696,18.656,8.784,25.743c2.366,2.367,5.054,4.32,7.942,5.816l24.206-58.785
		l-22.392-22.391l-58.784,24.205C353.363,64.058,355.317,66.746,357.683,69.112z"/>
	<path style="fill:#082947;" d="M418.312,133.012c0.016-0.017,0.03-0.034,0.046-0.051c0.031-0.031,0.059-0.065,0.089-0.099
		c0.634-0.669,1.145-1.445,1.496-2.299l28.868-70.104c0.012-0.03,0.025-0.061,0.038-0.092l20.594-50.012
		c1.152-2.8,0.509-6.018-1.632-8.159c-2.142-2.14-5.358-2.783-8.159-1.632L409.63,21.162c-0.024,0.01-0.048,0.02-0.072,0.029
		l-70.115,28.872c-0.809,0.333-1.547,0.811-2.192,1.398c-0.072,0.064-0.145,0.128-0.214,0.194c-0.013,0.014-0.028,0.024-0.042,0.038
		L229.7,158.989l-70.711,70.711L2.197,386.491C0.79,387.899,0,389.806,0,391.795s0.79,3.896,2.196,5.304l70.711,70.711
		c1.407,1.406,3.314,2.196,5.304,2.196s3.896-0.79,5.304-2.196l156.792-156.792l70.71-70.711L418.312,133.012z M53.463,427.152
		l100.514-100.515c2.929-2.93,2.929-7.678,0-10.607c-2.93-2.928-7.678-2.928-10.607,0L42.855,416.544l-24.749-24.749L339.712,70.191
		c2.018,3.444,4.489,6.652,7.364,9.528c5.881,5.88,13.012,9.976,20.57,12.035L171.654,287.745c-2.929,2.93-2.929,7.678,0,10.607
		c1.465,1.464,3.384,2.196,5.304,2.196c1.919,0,3.839-0.732,5.304-2.196l195.992-195.991c2.06,7.558,6.155,14.689,12.034,20.569
		c2.876,2.876,6.084,5.346,9.528,7.364L78.211,451.9L53.463,427.152z M410.651,36.964l22.392,22.391l-24.206,58.785
		c-2.888-1.496-5.576-3.449-7.942-5.816c-7.088-7.087-10.371-16.71-8.784-25.743c0.423-2.408-0.354-4.872-2.084-6.602
		c-1.729-1.729-4.192-2.505-6.602-2.083c-9.027,1.593-18.654-1.696-25.742-8.784c-2.366-2.365-4.32-5.054-5.816-7.942
		L410.651,36.964z M439.231,44.328l-13.552-13.553l23.039-9.486L439.231,44.328z"/>
</g>
<g>
</g>
<g>
</g>
<g>
</g>
<g>
</g>
<g>
</g>
<g>
</g>
<g>
</g>
<g>
</g>
<g>
</g>
<g>
</g>
<g>
</g>
<g>
</g>
<g>
</g>
<g>
</g>
<g>
</g>
</svg>
