<?xml version="1.0" encoding="iso-8859-1"?>
<!-- Generator: Adobe Illustrator 19.0.0, SVG Export Plug-In . SVG Version: 6.00 Build 0)  -->
<svg version="1.1" id="Capa_1" xmlns="http://www.w3.org/2000/svg" xmlns:xlink="http://www.w3.org/1999/xlink" x="0px" y="0px"
	 viewBox="0 0 470 470" style="enable-background:new 0 0 470 470;" xml:space="preserve">
<g>
	<path style="fill:#6DA8D6;" d="M341.25,455V292.653c-11.498,4.698-23.993,7.147-36.736,7.147c-23.5,0-45.529-8.22-62.014-22.61
		v68.041c0,4.143-3.357,7.5-7.5,7.5c-4.142,0-7.5-3.357-7.5-7.5V277.19c-16.484,14.391-38.513,22.61-62.014,22.61
		c-12.743,0-25.239-2.449-36.736-7.147V455h98.75v-79.769c0-4.143,3.358-7.5,7.5-7.5c4.143,0,7.5,3.357,7.5,7.5V455H341.25z"/>
	<polygon style="fill:#274B6D;" points="198.854,113.75 271.146,113.75 235,27 	"/>
	<path style="fill:#FFCC75;" d="M165.486,284.801c25.917,0,49.608-11.722,63.373-31.356c1.404-2.002,3.696-3.194,6.141-3.194
		s4.737,1.192,6.141,3.194c13.766,19.635,37.456,31.356,63.373,31.356c12.168,0,24.042-2.635,34.717-7.646L277.396,128.75h-84.792
		l-61.835,148.404C141.445,282.166,153.318,284.801,165.486,284.801z"/>
	<path style="fill:#082947;" d="M356.249,280.472c0-0.02-0.002-0.04-0.003-0.06c-0.011-0.961-0.203-1.91-0.573-2.797L289.329,118.39
		c-0.015-0.035-0.029-0.07-0.044-0.105L241.923,4.615C240.759,1.82,238.027,0,235,0c-3.028,0-5.758,1.82-6.923,4.615
		l-47.366,113.679c-0.012,0.027-0.023,0.056-0.035,0.084l-66.349,159.237c-0.371,0.89-0.563,1.842-0.573,2.805
		c-0.004,0.08-0.004,182.08-0.004,182.08c0,4.143,3.358,7.5,7.5,7.5h227.5c4.143,0,7.5-3.357,7.5-7.5
		C356.25,462.5,356.25,280.5,356.249,280.472z M235,367.731c-4.142,0-7.5,3.357-7.5,7.5V455h-98.75V292.653
		c11.498,4.698,23.993,7.147,36.736,7.147c23.501,0,45.53-8.22,62.014-22.61v68.041c0,4.143,3.358,7.5,7.5,7.5
		c4.143,0,7.5-3.357,7.5-7.5V277.19c16.485,14.391,38.514,22.61,62.014,22.61c12.743,0,25.239-2.449,36.736-7.147V455H242.5v-79.769
		C242.5,371.089,239.143,367.731,235,367.731z M192.604,128.75h84.792l61.835,148.404c-10.676,5.012-22.549,7.646-34.717,7.646
		c-25.917,0-49.607-11.722-63.373-31.356c-1.403-2.002-3.695-3.194-6.141-3.194s-4.737,1.192-6.141,3.194
		c-13.765,19.635-37.456,31.356-63.373,31.356c-12.168,0-24.041-2.635-34.717-7.646L192.604,128.75z M198.854,113.75L235,27
		l36.146,86.75H198.854z"/>
</g>
<g>
</g>
<g>
</g>
<g>
</g>
<g>
</g>
<g>
</g>
<g>
</g>
<g>
</g>
<g>
</g>
<g>
</g>
<g>
</g>
<g>
</g>
<g>
</g>
<g>
</g>
<g>
</g>
<g>
</g>
</svg>
