<?xml version="1.0" encoding="iso-8859-1"?>
<!-- Generator: Adobe Illustrator 19.0.0, SVG Export Plug-In . SVG Version: 6.00 Build 0)  -->
<svg version="1.1" id="Capa_1" xmlns="http://www.w3.org/2000/svg" xmlns:xlink="http://www.w3.org/1999/xlink" x="0px" y="0px"
	 viewBox="0 0 470.001 470.001" style="enable-background:new 0 0 470.001 470.001;" xml:space="preserve">
<g>
	<path style="fill:#FFCC75;" d="M242.737,343.129c-0.083,0.01-0.165,0.024-0.249,0.032c-2.458,0.341-4.955,0.528-7.486,0.528
		c-2.53,0-5.027-0.187-7.484-0.528c-0.089-0.008-0.176-0.023-0.265-0.034c-3.343-0.481-6.603-1.281-9.753-2.372v96.745
		c0,9.649,7.851,17.5,17.5,17.5s17.5-7.851,17.5-17.5v-96.743C249.347,341.849,246.084,342.648,242.737,343.129z"/>
	<path style="fill:#C1E8E6;" d="M280.274,17.289c-0.161,5.047-0.344,10.058-0.548,15.029c4.157,0.188,7.358,3.695,7.17,7.833
		c-2.027,44.52-5.81,85.984-10.938,119.91l-24.664,163.186l77.577-160.097c14.663-30.258,25.586-67.3,31.589-107.122
		c0.614-4.069,4.392-6.874,8.454-6.306c0.675-5.006,1.282-10.052,1.81-15.141C343.645,26.987,313.048,20.549,280.274,17.289z"/>
	<path style="fill:#C1E8E6;" d="M201.452,166.441c-3.646,0-6.845-2.664-7.406-6.38c-5.128-33.926-8.91-75.391-10.938-119.911
		c-0.188-4.138,3.013-7.645,7.151-7.833c-0.183-4.971-0.365-9.982-0.525-15.028c-32.777,3.261-63.376,9.699-90.458,17.294
		c0.529,5.089,1.137,10.135,1.813,15.142c4.063-0.572,7.84,2.237,8.454,6.306c6.003,39.821,16.927,76.863,31.589,107.12
		l77.578,160.098l-20.182-133.523c-0.619-4.095,2.199-7.917,6.294-8.536l-2.242-14.833
		C202.202,166.413,201.825,166.441,201.452,166.441z"/>
	<path style="fill:#98D9D5;" d="M15.935,64.894c8.158,41.195,27.729,79.048,56.818,109.787l117.423,124.077L127.635,169.69
		c-15.313-31.599-26.698-70.129-32.923-111.425c-0.617-4.096,2.202-7.917,6.298-8.534c0.027-0.004,0.053-0.004,0.08-0.008
		c-0.676-5.007-1.284-10.053-1.813-15.142C64.934,44.213,36.243,55.696,15.935,64.894z"/>
	<path style="fill:#98D9D5;" d="M235.001,15.001c-15.447,0-30.574,0.826-45.266,2.288c0.161,5.046,0.343,10.057,0.546,15.028
		c4.131-0.189,7.625,3.02,7.813,7.151c2.004,44.008,5.733,84.934,10.785,118.352c0.619,4.096-2.199,7.918-6.295,8.537
		c-0.002,0,2.24,14.833,2.24,14.833c4.096-0.625,7.919,2.198,8.538,6.294l21.342,141.199c0.1,0,0.199,0.007,0.299,0.007
		c0.1,0,0.2-0.007,0.3-0.007l25.824-170.862c5.052-33.418,8.781-74.343,10.785-118.351c0.188-4.131,3.692-7.337,7.814-7.151
		c0.204-4.971,0.386-9.982,0.548-15.029C265.58,15.827,250.451,15.001,235.001,15.001z"/>
	<path style="fill:#98D9D5;" d="M370.724,34.581c-0.528,5.089-1.135,10.135-1.81,15.141c0.027,0.003,0.054,0.004,0.08,0.008
		c4.096,0.617,6.915,4.438,6.298,8.534c-6.225,41.295-17.609,79.826-32.923,111.426l-62.54,129.065l117.42-124.074
		c29.092-30.741,48.661-68.595,56.816-109.789C433.758,55.695,405.067,44.212,370.724,34.581z"/>
	<path style="fill:#082947;" d="M465.669,53.717C422.629,33.655,335.43,0.001,235.001,0.001
		c-100.427,0-187.628,33.656-230.67,53.718c-3.064,1.429-4.795,4.732-4.223,8.065c7.94,46.308,29.294,88.912,61.75,123.208
		l134.37,141.984c1.964,2.074,4.062,3.965,6.271,5.672v104.853c0,17.92,14.579,32.5,32.5,32.5s32.5-14.58,32.5-32.5V332.652
		c2.208-1.707,4.305-3.596,6.267-5.668l134.377-141.992c32.458-34.298,53.811-76.904,61.749-123.21
		C470.464,58.449,468.734,55.146,465.669,53.717z M235,455.001c-9.649,0-17.5-7.851-17.5-17.5v-96.745
		c3.151,1.091,6.41,1.89,9.753,2.372c0.088,0.011,0.176,0.026,0.265,0.034c2.457,0.341,4.954,0.528,7.484,0.528
		c2.531,0,5.028-0.187,7.486-0.528c0.084-0.008,0.166-0.021,0.249-0.032c3.347-0.481,6.609-1.28,9.763-2.371v96.743
		C252.5,447.15,244.65,455.001,235,455.001z M279.829,298.755l62.54-129.065c15.313-31.6,26.698-70.131,32.923-111.426
		c0.617-4.096-2.202-7.917-6.298-8.534c-0.027-0.004-0.053-0.004-0.08-0.008c-4.061-0.568-7.84,2.237-8.454,6.306
		c-6.003,39.821-16.926,76.863-31.589,107.122l-77.577,160.097l24.664-163.186c5.128-33.925,8.91-75.39,10.938-119.91
		c0.188-4.138-3.013-7.645-7.151-7.833c-4.141-0.186-7.645,3.02-7.833,7.151c-2.004,44.008-5.733,84.933-10.785,118.351
		l-25.824,170.862c-0.1,0-0.2,0.007-0.3,0.007c-0.1,0-0.199-0.007-0.299-0.007l-21.342-141.199
		c-0.619-4.096-4.442-6.918-8.537-6.294c-4.096,0.62-6.914,4.441-6.295,8.537l20.182,133.523l-77.578-160.098
		c-14.662-30.257-25.586-67.299-31.589-107.12c-0.614-4.069-4.391-6.877-8.454-6.306c-0.027,0.003-0.053,0.004-0.08,0.008
		c-4.096,0.617-6.915,4.438-6.298,8.534c6.225,41.295,17.609,79.826,32.923,111.425l62.542,129.067L72.753,174.681
		c-29.09-30.739-48.66-68.591-56.818-109.787c20.308-9.198,48.999-20.681,83.342-30.312c27.082-7.595,57.681-14.033,90.458-17.294
		c14.692-1.461,29.819-2.288,45.266-2.288c15.45,0,30.579,0.827,45.272,2.288c32.775,3.261,63.371,9.699,90.45,17.292
		c34.343,9.631,63.034,21.114,83.342,30.312c-8.155,41.194-27.725,79.047-56.816,109.789L279.829,298.755z"/>
	<path style="fill:#082947;" d="M183.109,40.15c2.027,44.521,5.81,85.985,10.938,119.911c0.562,3.716,3.76,6.38,7.406,6.38
		c0.372,0,0.749-0.028,1.128-0.085c4.098-0.619,6.917-4.441,6.297-8.537c-5.052-33.418-8.781-74.343-10.785-118.352
		c-0.187-4.131-3.682-7.34-7.813-7.151C186.121,32.505,182.92,36.012,183.109,40.15z"/>
</g>
<g>
</g>
<g>
</g>
<g>
</g>
<g>
</g>
<g>
</g>
<g>
</g>
<g>
</g>
<g>
</g>
<g>
</g>
<g>
</g>
<g>
</g>
<g>
</g>
<g>
</g>
<g>
</g>
<g>
</g>
</svg>
