<?xml version="1.0" encoding="iso-8859-1"?>
<!-- Generator: Adobe Illustrator 19.0.0, SVG Export Plug-In . SVG Version: 6.00 Build 0)  -->
<svg version="1.1" id="Capa_1" xmlns="http://www.w3.org/2000/svg" xmlns:xlink="http://www.w3.org/1999/xlink" x="0px" y="0px"
	 viewBox="0 0 470 470" style="enable-background:new 0 0 470 470;" xml:space="preserve">
<g>
	<path style="fill:#98D9D5;" d="M330.408,182.25l35.354-35.355c1.407-1.407,3.314-2.197,5.304-2.197s3.896,0.79,5.304,2.196
		l15.866,15.867l59.657-59.658l-10.563-10.562l-15.91,15.91c-1.465,1.464-3.385,2.196-5.304,2.196s-3.839-0.732-5.304-2.196
		c-2.929-2.93-2.929-7.678,0-10.607l15.822-15.822c-9.886-9.316-20.409-17.729-31.473-25.192l-11.944,19.011
		c-1.425,2.268-3.863,3.511-6.357,3.511c-1.363,0-2.743-0.371-3.983-1.15c-3.507-2.203-4.564-6.833-2.36-10.341l11.955-19.029
		c-11.629-6.849-23.768-12.715-36.322-17.535l-7.435,21.252c-1.081,3.09-3.98,5.025-7.079,5.025c-0.821,0-1.657-0.136-2.477-0.423
		c-3.91-1.367-5.971-5.646-4.603-9.556l7.426-21.228c-12.779-4.022-25.922-7.006-39.33-8.9l-2.507,22.278
		c-0.432,3.831-3.678,6.662-7.443,6.662c-0.28,0-0.563-0.016-0.849-0.048c-4.116-0.463-7.077-4.176-6.614-8.292l2.503-22.249
		C275.088,15.284,268.382,15,261.632,15c-6.779,0-13.514,0.287-20.197,0.825l2.511,22.247c0.464,4.116-2.496,7.83-6.611,8.295
		c-0.286,0.032-0.57,0.048-0.852,0.048c-3.766,0-7.011-2.829-7.443-6.659l-2.515-22.278c-13.407,1.899-26.549,4.888-39.327,8.915
		l7.433,21.226c1.369,3.909-0.69,8.188-4.6,9.557c-0.82,0.288-1.656,0.424-2.479,0.424c-3.098,0-5.997-1.934-7.078-5.023
		l-7.441-21.25c-12.553,4.824-24.689,10.695-36.316,17.548l11.962,19.024c2.204,3.507,1.149,8.137-2.357,10.342
		c-1.24,0.779-2.621,1.151-3.985,1.151c-2.493,0-4.931-1.242-6.356-3.509l-11.95-19.004c-11.062,7.467-21.583,15.883-31.466,25.203
		l15.828,15.817c2.93,2.928,2.932,7.676,0.003,10.606c-1.464,1.465-3.385,2.198-5.305,2.198c-1.919,0-3.837-0.731-5.302-2.195
		L81.963,92.691c-9.313,9.89-17.724,20.416-25.184,31.483l19.015,11.938c3.509,2.202,4.567,6.831,2.364,10.339
		c-1.424,2.27-3.864,3.514-6.358,3.514c-1.363,0-2.741-0.371-3.98-1.149l-19.033-11.949c-6.845,11.631-12.707,23.773-17.522,36.329
		l21.253,7.426c3.91,1.366,5.973,5.644,4.606,9.554c-1.08,3.092-3.98,5.028-7.08,5.028c-0.82,0-1.655-0.136-2.474-0.422
		l-21.23-7.418c-4.018,12.78-6.996,25.925-8.886,39.333l22.278,2.499c4.116,0.462,7.079,4.173,6.617,8.289
		c-0.43,3.832-3.677,6.665-7.444,6.665c-0.279,0-0.561-0.016-0.845-0.048l-22.25-2.495C15.281,248.234,15,254.91,15,261.632
		c0,6.809,0.29,13.572,0.833,20.284l22.247-2.519c4.105-0.453,7.83,2.493,8.296,6.608c0.466,4.116-2.492,7.83-6.608,8.296
		l-22.278,2.522c1.904,13.406,4.898,26.547,8.929,39.323l21.223-7.44c3.909-1.367,8.188,0.688,9.56,4.597
		c1.37,3.909-0.688,8.188-4.597,9.56l-21.249,7.449c4.828,12.551,10.705,24.686,17.562,36.31l19.021-11.969
		c3.504-2.208,8.137-1.153,10.342,2.354c2.206,3.506,1.152,8.136-2.354,10.342l-19,11.956c7.471,11.059,15.889,21.578,25.213,31.458
		l15.813-15.834c2.928-2.932,7.677-2.935,10.606-0.007c2.931,2.927,2.934,7.676,0.007,10.606l-15.903,15.924l10.441,10.441
		l59.657-59.657l-15.866-15.865c-2.929-2.93-2.929-7.678,0-10.607l162.301-162.301c2.931-2.929,7.678-2.927,10.607,0l10.606-10.606
		C327.479,189.926,327.479,185.179,330.408,182.25z M319.757,100.979L171.689,249.046c-2.93,2.928-7.678,2.928-10.607,0
		l-24.748,24.747c2.929,2.93,2.929,7.678,0,10.607l-35.355,35.355c-1.424,1.423-3.339,2.196-5.304,2.196
		c-0.592,0-1.188-0.07-1.775-0.213c-2.545-0.62-4.581-2.522-5.373-5.019c-20.633-65.012-3.516-135.334,44.672-183.522
		c48.188-48.188,118.51-65.306,183.523-44.672c2.496,0.792,4.398,2.828,5.019,5.373C322.359,96.443,321.608,99.127,319.757,100.979z
		"/>
	<path style="fill:#082947;" d="M467.804,97.799L446.635,76.63C397.219,27.215,331.517,0,261.632,0
		C191.748,0,126.046,27.215,76.63,76.63c-0.02,0.02-0.039,0.04-0.059,0.06C27.189,126.11,0,191.782,0,261.632
		c0,69.885,27.215,135.587,76.63,185.003l21.169,21.169c1.465,1.464,3.384,2.196,5.304,2.196c1.919,0,3.839-0.732,5.304-2.196
		l70.264-70.264c2.929-2.93,2.929-7.678,0-10.607l-15.866-15.865L319.802,214.07c2.929-2.93,2.929-7.678,0-10.607
		c-2.929-2.927-7.677-2.929-10.607,0L146.894,365.764c-2.929,2.93-2.929,7.678,0,10.607l15.866,15.865l-59.657,59.657
		l-10.441-10.441l15.903-15.924c2.927-2.931,2.924-7.68-0.007-10.606c-2.93-2.928-7.679-2.925-10.606,0.007l-15.813,15.834
		c-9.323-9.88-17.742-20.399-25.213-31.458l19-11.956c3.506-2.206,4.56-6.836,2.354-10.342c-2.205-3.507-6.838-4.562-10.342-2.354
		l-19.021,11.969c-6.857-11.624-12.734-23.759-17.562-36.31l21.249-7.449c3.908-1.371,5.967-5.65,4.597-9.56
		c-1.371-3.909-5.65-5.964-9.56-4.597l-21.223,7.44c-4.031-12.776-7.025-25.917-8.929-39.323l22.278-2.522
		c4.116-0.466,7.074-4.18,6.608-8.296c-0.466-4.115-4.19-7.062-8.296-6.608l-22.247,2.519C15.29,275.204,15,268.441,15,261.632
		c0-6.722,0.281-13.398,0.811-20.025l22.25,2.495c0.284,0.032,0.565,0.048,0.845,0.048c3.768,0,7.015-2.833,7.444-6.665
		c0.462-4.116-2.501-7.827-6.617-8.289l-22.278-2.499c1.89-13.408,4.868-26.553,8.886-39.333l21.23,7.418
		c0.818,0.286,1.653,0.422,2.474,0.422c3.1,0,6-1.937,7.08-5.028c1.366-3.91-0.696-8.188-4.606-9.554l-21.253-7.426
		c4.815-12.556,10.677-24.698,17.522-36.329l19.033,11.949c1.239,0.778,2.617,1.149,3.98,1.149c2.494,0,4.935-1.244,6.358-3.514
		c2.203-3.508,1.145-8.137-2.364-10.339l-19.015-11.938c7.46-11.067,15.871-21.593,25.184-31.483l15.827,15.816
		c1.465,1.464,3.383,2.195,5.302,2.195c1.92,0,3.841-0.733,5.305-2.198c2.929-2.931,2.927-7.679-0.003-10.606L92.565,82.08
		c9.883-9.32,20.404-17.735,31.466-25.203l11.95,19.004c1.426,2.267,3.863,3.509,6.356,3.509c1.364,0,2.745-0.372,3.985-1.151
		c3.507-2.205,4.562-6.835,2.357-10.342l-11.962-19.024c11.627-6.853,23.763-12.725,36.316-17.548l7.441,21.25
		c1.081,3.09,3.98,5.023,7.078,5.023c0.822,0,1.658-0.136,2.479-0.424c3.909-1.368,5.969-5.647,4.6-9.557l-7.433-21.226
		c12.778-4.027,25.92-7.016,39.327-8.915l2.515,22.278c0.433,3.83,3.678,6.659,7.443,6.659c0.281,0,0.565-0.016,0.852-0.048
		c4.115-0.465,7.075-4.179,6.611-8.295l-2.511-22.247C248.118,15.287,254.853,15,261.632,15c6.75,0,13.457,0.284,20.112,0.818
		l-2.503,22.249c-0.463,4.116,2.498,7.829,6.614,8.292c0.285,0.032,0.568,0.048,0.849,0.048c3.766,0,7.012-2.831,7.443-6.662
		l2.507-22.278c13.408,1.895,26.551,4.878,39.33,8.9l-7.426,21.228c-1.368,3.91,0.692,8.188,4.603,9.556
		c0.819,0.287,1.655,0.423,2.477,0.423c3.099,0,5.998-1.936,7.079-5.025l7.435-21.252c12.555,4.819,24.693,10.686,36.322,17.535
		l-11.955,19.029c-2.204,3.508-1.146,8.138,2.36,10.341c1.24,0.779,2.62,1.15,3.983,1.15c2.494,0,4.933-1.243,6.357-3.511
		l11.944-19.011c11.064,7.464,21.587,15.876,31.473,25.192l-15.822,15.822c-2.929,2.93-2.929,7.678,0,10.607
		c1.465,1.464,3.385,2.196,5.304,2.196s3.839-0.732,5.304-2.196l15.91-15.91l10.563,10.562l-59.657,59.658l-15.866-15.867
		c-1.407-1.406-3.314-2.196-5.304-2.196s-3.896,0.79-5.304,2.197l-35.354,35.355c-2.929,2.929-2.929,7.676,0,10.606
		c2.93,2.928,7.678,2.928,10.608,0l30.051-30.053l15.866,15.867c1.407,1.406,3.314,2.196,5.304,2.196s3.896-0.79,5.304-2.196
		l70.264-70.265C470.732,105.477,470.732,100.729,467.804,97.799z"/>
	<path style="fill:#082947;" d="M316.722,88.526c-65.014-20.634-135.335-3.516-183.523,44.672
		c-48.188,48.188-65.305,118.511-44.672,183.522c0.792,2.496,2.828,4.398,5.373,5.019c0.588,0.143,1.184,0.213,1.775,0.213
		c1.965,0,3.88-0.773,5.304-2.196l35.355-35.355c2.929-2.93,2.929-7.678,0-10.607c-2.93-2.928-7.678-2.928-10.607,0l-26.263,26.264
		c-13.323-56.133,3.114-115.023,44.342-156.251c41.227-41.229,100.118-57.663,156.251-44.342L161.082,238.439
		c-2.929,2.93-2.929,7.678,0,10.607c2.93,2.928,7.678,2.928,10.608,0l148.067-148.067c1.852-1.852,2.603-4.535,1.983-7.079
		C321.12,91.355,319.218,89.318,316.722,88.526z"/>
</g>
<g>
</g>
<g>
</g>
<g>
</g>
<g>
</g>
<g>
</g>
<g>
</g>
<g>
</g>
<g>
</g>
<g>
</g>
<g>
</g>
<g>
</g>
<g>
</g>
<g>
</g>
<g>
</g>
<g>
</g>
</svg>
