<?xml version="1.0" encoding="iso-8859-1"?>
<!-- Generator: Adobe Illustrator 19.0.0, SVG Export Plug-In . SVG Version: 6.00 Build 0)  -->
<svg version="1.1" id="Capa_1" xmlns="http://www.w3.org/2000/svg" xmlns:xlink="http://www.w3.org/1999/xlink" x="0px" y="0px"
	 viewBox="0 0 470 470" style="enable-background:new 0 0 470 470;" xml:space="preserve">
<g>
	<path style="fill:#F2484B;" d="M166.356,75.142c-31.129,12.895-46.553,47.795-35.112,79.453
		c3.517,9.733,36.548,74.264,48.979,98.307c5.462,10.545,16.256,17.099,28.167,17.099c4.161,0,8.24-0.815,12.125-2.425
		c3.486-1.444,6.646-3.463,9.395-6.002c1.437-1.327,3.263-1.991,5.089-1.991s3.653,0.664,5.089,1.991
		c2.748,2.539,5.909,4.558,9.394,6.001c3.886,1.61,7.966,2.426,12.126,2.426c11.912,0,22.706-6.555,28.17-17.107
		c12.428-24.037,45.458-88.564,48.975-98.295c11.442-31.66-3.981-66.562-35.112-79.456c-7.699-3.188-15.787-4.806-24.041-4.806
		c-14.468,0-28.625,5.05-39.861,14.218c-0.014,0.011-0.029,0.019-0.043,0.029c-0.307,0.247-0.635,0.469-0.979,0.665
		c-0.032,0.019-0.063,0.04-0.095,0.058c-0.331,0.184-0.679,0.336-1.038,0.468c-0.062,0.022-0.122,0.047-0.184,0.067
		c-0.343,0.116-0.697,0.208-1.061,0.273c-0.073,0.014-0.146,0.022-0.219,0.034c-0.353,0.053-0.712,0.089-1.08,0.091
		c-0.029,0-0.058,0-0.087,0c-0.366-0.002-0.724-0.038-1.076-0.091c-0.076-0.011-0.15-0.021-0.226-0.034
		c-0.361-0.065-0.712-0.156-1.053-0.271c-0.066-0.022-0.13-0.048-0.195-0.071c-0.356-0.132-0.701-0.282-1.029-0.464
		c-0.035-0.02-0.068-0.043-0.103-0.063c-0.342-0.196-0.668-0.416-0.973-0.662c-0.014-0.011-0.03-0.018-0.043-0.029
		c-11.237-9.168-25.393-14.218-39.861-14.218C182.144,70.337,174.055,71.954,166.356,75.142z M168.391,145.248
		c-0.897,0.379-1.884,0.589-2.919,0.589s-2.022-0.21-2.919-0.589c-2.355-0.996-4.087-3.165-4.485-5.771
		c-0.057-0.373-0.096-0.751-0.096-1.14c0-0.259,0.013-0.515,0.039-0.767c0.23-2.27,1.473-4.239,3.268-5.452
		c0.399-0.27,0.825-0.502,1.274-0.691c0.897-0.38,1.884-0.59,2.919-0.59c4.142,0,7.5,3.357,7.5,7.5
		C172.971,141.444,171.082,144.109,168.391,145.248z M197.702,101.174c2.818,0.877,4.924,3.37,5.231,6.396
		c0.026,0.252,0.039,0.508,0.039,0.767c0,0.13-0.013,0.256-0.019,0.384c-0.149,2.939-1.982,5.436-4.561,6.527
		c-0.673,0.284-1.396,0.474-2.153,0.55c-0.252,0.026-0.508,0.039-0.767,0.039c-3.883,0-7.077-2.951-7.461-6.733
		c-0.026-0.252-0.039-0.508-0.039-0.767c0-4.143,3.358-7.5,7.5-7.5C196.248,100.837,196.997,100.955,197.702,101.174z"/>
	<path style="fill:#082947;" d="M165.471,130.837c-1.036,0-2.022,0.21-2.919,0.59c-0.449,0.189-0.875,0.422-1.274,0.691
		c-1.795,1.213-3.038,3.183-3.268,5.452c-0.026,0.252-0.039,0.508-0.039,0.767c0,0.389,0.039,0.767,0.096,1.14
		c0.398,2.606,2.13,4.775,4.485,5.771c0.897,0.379,1.884,0.589,2.919,0.589s2.022-0.21,2.919-0.589
		c2.692-1.139,4.581-3.805,4.581-6.911C172.971,134.195,169.613,130.837,165.471,130.837z"/>
	<path style="fill:#082947;" d="M187.971,108.337c0,0.259,0.013,0.515,0.039,0.767c0.384,3.782,3.578,6.733,7.461,6.733
		c0.259,0,0.515-0.013,0.767-0.039c0.756-0.076,1.48-0.266,2.153-0.55c2.58-1.092,4.412-3.588,4.561-6.527
		c0.006-0.128,0.019-0.254,0.019-0.384c0-0.259-0.013-0.515-0.039-0.767c-0.307-3.025-2.413-5.52-5.231-6.396
		c-0.705-0.219-1.454-0.337-2.23-0.337C191.329,100.837,187.971,104.195,187.971,108.337z"/>
	<path style="fill:#082947;" d="M166.902,259.796c8.053,15.547,23.95,25.205,41.488,25.205c6.141,0,12.151-1.2,17.865-3.566
		c3.097-1.283,6.021-2.876,8.744-4.762c2.723,1.886,5.647,3.479,8.744,4.761c5.714,2.367,11.725,3.567,17.866,3.567
		c17.539,0,33.438-9.66,41.492-25.214c4.621-8.937,45.27-87.665,49.76-100.091c14.172-39.215-4.926-82.442-43.479-98.411
		c-9.528-3.947-19.548-5.948-29.781-5.948c-13.325,0-26.43,3.47-37.996,9.912c-2.902-21.913-12.851-42.162-28.744-58.054
		c-2.93-2.928-7.678-2.929-10.607,0.001c-2.929,2.929-2.928,7.678,0,10.606c12.77,12.768,21.014,28.845,23.986,46.292
		c-11.028-5.7-23.338-8.758-35.844-8.758c-10.233,0-20.253,2.001-29.781,5.948c-38.551,15.968-57.65,59.194-43.479,98.408
		C121.626,172.12,162.279,250.854,166.902,259.796z M230.258,84.555c0.014,0.012,0.03,0.019,0.043,0.029
		c0.305,0.246,0.631,0.466,0.973,0.662c0.035,0.02,0.068,0.043,0.103,0.063c0.328,0.182,0.673,0.332,1.029,0.464
		c0.065,0.023,0.13,0.049,0.195,0.071c0.341,0.115,0.692,0.206,1.053,0.271c0.075,0.014,0.15,0.023,0.226,0.034
		c0.352,0.053,0.709,0.089,1.076,0.091c0.029,0,0.058,0,0.087,0c0.368-0.002,0.727-0.038,1.08-0.091
		c0.073-0.012,0.146-0.021,0.219-0.034c0.364-0.065,0.717-0.157,1.061-0.273c0.062-0.021,0.123-0.045,0.184-0.067
		c0.359-0.132,0.707-0.284,1.038-0.468c0.032-0.018,0.063-0.039,0.095-0.058c0.344-0.196,0.672-0.418,0.979-0.665
		c0.014-0.011,0.029-0.019,0.043-0.029c11.237-9.168,25.394-14.218,39.861-14.218c8.253,0,16.342,1.617,24.041,4.806
		c31.13,12.895,46.554,47.796,35.112,79.456c-3.517,9.73-36.547,74.258-48.975,98.295c-5.464,10.553-16.258,17.107-28.17,17.107
		c-4.161,0-8.241-0.815-12.126-2.426c-3.485-1.443-6.646-3.462-9.394-6.001c-1.437-1.327-3.263-1.991-5.089-1.991
		s-3.653,0.664-5.089,1.991c-2.748,2.539-5.909,4.558-9.395,6.002c-3.885,1.609-7.965,2.425-12.125,2.425
		c-11.911,0-22.704-6.554-28.167-17.099c-12.431-24.043-45.463-88.573-48.979-98.307c-11.44-31.658,3.983-66.559,35.112-79.453
		c7.699-3.188,15.788-4.806,24.041-4.806C204.865,70.337,219.021,75.387,230.258,84.555z"/>
	<rect x="15" y="315.001" style="fill:#6DA8D6;" width="45" height="135"/>
	<rect x="75" y="315.001" style="fill:#FFCC75;" width="15" height="135"/>
	<path style="fill:#6DA8D6;" d="M305,337.501v-22.5H105v135h200v-82.5c0-4.143,3.358-7.5,7.5-7.5v-15
		C308.358,345.001,305,341.643,305,337.501z M263.466,397.046c-1.476,1.938-3.711,2.955-5.971,2.955
		c-1.585,0.001-3.182-0.5-4.54-1.534l-21.707-16.537l-21.708,16.537c-2.685,2.046-6.405,2.044-9.09,0l-21.703-16.537l-21.701,16.537
		c-3.294,2.509-8.001,1.874-10.511-1.42c-2.511-3.295-1.875-8.001,1.419-10.512l26.248-20c2.685-2.045,6.406-2.045,9.091,0
		l21.704,16.537l21.707-16.537c2.685-2.045,6.406-2.045,9.09,0l26.252,20C265.34,389.045,265.976,393.751,263.466,397.046z"/>
	<path style="fill:#FFCC75;" d="M320,315.001v22.5c0,4.143-3.358,7.5-7.5,7.5v15c4.142,0,7.5,3.357,7.5,7.5v82.5h15v-135H320z"/>
	<path style="fill:#6DA8D6;" d="M410,437.501c0,4.143-3.358,7.5-7.5,7.5s-7.5-3.357-7.5-7.5v-110c0-4.143,3.358-7.5,7.5-7.5
		s7.5,3.357,7.5,7.5v2.5h45v-15H350v135h105v-15h-45V437.501z"/>
	<path style="fill:#082947;" d="M262.045,386.535l-26.252-20c-2.684-2.045-6.405-2.045-9.09,0l-21.707,16.537l-21.704-16.537
		c-2.685-2.045-6.406-2.045-9.091,0l-26.248,20c-3.294,2.511-3.93,7.217-1.419,10.512c2.51,3.294,7.217,3.929,10.511,1.42
		l21.701-16.537l21.703,16.537c2.685,2.044,6.405,2.046,9.09,0l21.708-16.537l21.707,16.537c1.357,1.034,2.955,1.535,4.54,1.534
		c2.26,0,4.496-1.018,5.971-2.955C265.976,393.751,265.34,389.045,262.045,386.535z"/>
	<path style="fill:#082947;" d="M462.5,345.001c4.142,0,7.5-3.357,7.5-7.5v-30c0-4.143-3.358-7.5-7.5-7.5H7.5
		c-4.142,0-7.5,3.357-7.5,7.5v150c0,4.143,3.358,7.5,7.5,7.5h455c4.142,0,7.5-3.357,7.5-7.5v-30c0-4.143-3.358-7.5-7.5-7.5H410v-15
		h52.5c4.142,0,7.5-3.357,7.5-7.5s-3.358-7.5-7.5-7.5H410v-15h52.5c4.142,0,7.5-3.357,7.5-7.5s-3.358-7.5-7.5-7.5H410v-15H462.5z
		 M320,450.001v-82.5c0-4.143-3.358-7.5-7.5-7.5s-7.5,3.357-7.5,7.5v82.5H105v-135h200v22.5c0,4.143,3.358,7.5,7.5,7.5
		s7.5-3.357,7.5-7.5v-22.5h15v135H320z M75,450.001v-135h15v135H75z M15,315.001h45v135H15V315.001z M455,450.001H350v-135h105v15
		h-45v-2.5c0-4.143-3.358-7.5-7.5-7.5s-7.5,3.357-7.5,7.5v110c0,4.143,3.358,7.5,7.5,7.5s7.5-3.357,7.5-7.5v-2.5h45V450.001z"/>
</g>
<g>
</g>
<g>
</g>
<g>
</g>
<g>
</g>
<g>
</g>
<g>
</g>
<g>
</g>
<g>
</g>
<g>
</g>
<g>
</g>
<g>
</g>
<g>
</g>
<g>
</g>
<g>
</g>
<g>
</g>
</svg>
