<?xml version="1.0" encoding="iso-8859-1"?>
<!-- Generator: Adobe Illustrator 19.0.0, SVG Export Plug-In . SVG Version: 6.00 Build 0)  -->
<svg version="1.1" id="Capa_1" xmlns="http://www.w3.org/2000/svg" xmlns:xlink="http://www.w3.org/1999/xlink" x="0px" y="0px"
	 viewBox="0 0 470 470" style="enable-background:new 0 0 470 470;" xml:space="preserve">
<g>
	<rect x="410" y="17.5" style="fill:#FF6E1D;" width="45" height="135"/>
	<rect x="380" y="17.5" style="fill:#FFCC75;" width="15" height="135"/>
	<path style="fill:#FF6E1D;" d="M165,130v22.5h200v-135H165V100c0,4.143-3.358,7.5-7.5,7.5v15C161.642,122.5,165,125.857,165,130z
		 M207.955,89.034l26.252-20c2.685-2.045,6.406-2.045,9.09,0l21.707,16.537l21.703-16.537c2.686-2.045,6.406-2.045,9.092,0
		l26.247,20c3.294,2.511,3.93,7.217,1.42,10.512s-7.215,3.931-10.512,1.42l-21.701-16.537l-21.703,16.537
		c-2.686,2.045-6.405,2.045-9.091,0l-21.707-16.537l-21.707,16.537c-1.357,1.034-2.955,1.534-4.54,1.534
		c-2.261,0-4.496-1.018-5.971-2.955C204.024,96.25,204.66,91.544,207.955,89.034z"/>
	<path style="fill:#FFCC75;" d="M135,17.5v135h15V130c0-4.143,3.358-7.5,7.5-7.5v-15c-4.142,0-7.5-3.357-7.5-7.5V17.5H135z"/>
	<path style="fill:#FF6E1D;" d="M120,152.5v-135H15v15h45V30c0-4.143,3.358-7.5,7.5-7.5S75,25.857,75,30v110
		c0,4.143-3.358,7.5-7.5,7.5S60,144.143,60,140v-2.5H15v15H120z"/>
	<path style="fill:#082947;" d="M212.505,102.5c1.584,0,3.182-0.5,4.54-1.534l21.707-16.537l21.707,16.537
		c2.686,2.045,6.405,2.045,9.091,0l21.703-16.537l21.701,16.537c3.297,2.511,8.002,1.875,10.512-1.42s1.874-8.001-1.42-10.512
		l-26.247-20c-2.686-2.045-6.406-2.045-9.092,0l-21.703,16.537l-21.707-16.537c-2.684-2.045-6.405-2.045-9.09,0l-26.252,20
		c-3.295,2.51-3.931,7.216-1.421,10.511C208.01,101.482,210.245,102.5,212.505,102.5z"/>
	<path style="fill:#082947;" d="M462.5,2.5H7.5C3.358,2.5,0,5.857,0,10v30c0,4.143,3.358,7.5,7.5,7.5H60v15H7.5
		C3.358,62.5,0,65.857,0,70s3.358,7.5,7.5,7.5H60v15H7.5C3.358,92.5,0,95.857,0,100s3.358,7.5,7.5,7.5H60v15H7.5
		c-4.142,0-7.5,3.357-7.5,7.5v210c0,4.143,3.358,7.5,7.5,7.5H60v15H7.5c-4.142,0-7.5,3.357-7.5,7.5s3.358,7.5,7.5,7.5H60v15H7.5
		c-4.142,0-7.5,3.357-7.5,7.5s3.358,7.5,7.5,7.5H60v15H7.5c-4.142,0-7.5,3.357-7.5,7.5v30c0,4.143,3.358,7.5,7.5,7.5h455
		c4.143,0,7.5-3.357,7.5-7.5V280c0-4.143-3.357-7.5-7.5-7.5H410v-15h52.5c4.143,0,7.5-3.357,7.5-7.5s-3.357-7.5-7.5-7.5H410v-15
		h52.5c4.143,0,7.5-3.357,7.5-7.5s-3.357-7.5-7.5-7.5H410v-15h52.5c4.143,0,7.5-3.357,7.5-7.5V10C470,5.857,466.643,2.5,462.5,2.5z
		 M455,182.5h-45V180c0-4.143-3.357-7.5-7.5-7.5s-7.5,3.357-7.5,7.5v110c0,4.143,3.357,7.5,7.5,7.5s7.5-3.357,7.5-7.5v-2.5h45v15
		H350V220c0-4.143-3.357-7.5-7.5-7.5s-7.5,3.357-7.5,7.5v82.5h-15v-135h15V190c0,4.143,3.357,7.5,7.5,7.5s7.5-3.357,7.5-7.5v-22.5
		h105V182.5z M455,452.5h-45v-135h45V452.5z M157.5,362.5c-4.142,0-7.5,3.357-7.5,7.5v82.5h-15v-135h15V340
		c0,4.143,3.358,7.5,7.5,7.5s7.5-3.357,7.5-7.5v-22.5h200v135H165V370C165,365.857,161.642,362.5,157.5,362.5z M15,437.5h45v2.5
		c0,4.143,3.358,7.5,7.5,7.5s7.5-3.357,7.5-7.5V330c0-4.143-3.358-7.5-7.5-7.5S60,325.857,60,330v2.5H15v-15h105v135H15V437.5z
		 M15,137.5h45v2.5c0,4.143,3.358,7.5,7.5,7.5s7.5-3.357,7.5-7.5V30c0-4.143-3.358-7.5-7.5-7.5S60,25.857,60,30v2.5H15v-15h105v135
		H15V137.5z M157.5,107.5c4.142,0,7.5-3.357,7.5-7.5V17.5h200v135H165V130c0-4.143-3.358-7.5-7.5-7.5s-7.5,3.357-7.5,7.5v22.5h-15
		v-135h15V100C150,104.143,153.358,107.5,157.5,107.5z M455,152.5h-45v-135h45V152.5z M15,167.5h45v135H15V167.5z M105,302.5v-135
		h200v135H105z M90,302.5H75v-135h15V302.5z M395,152.5h-15v-135h15V152.5z M380,317.5h15v135h-15V317.5z"/>
	<rect x="410" y="317.5" style="fill:#F2484B;" width="45" height="135"/>
	<rect x="380" y="317.5" style="fill:#FFCC75;" width="15" height="135"/>
	<path style="fill:#F2484B;" d="M365,452.5v-135H165V340c0,4.143-3.358,7.5-7.5,7.5v15c4.142,0,7.5,3.357,7.5,7.5v82.5H365z
		 M207.955,389.034l26.252-20c2.685-2.045,6.406-2.045,9.09,0l21.707,16.537l21.703-16.537c2.686-2.045,6.406-2.045,9.092,0
		l26.247,20c3.294,2.511,3.93,7.217,1.42,10.512s-7.215,3.93-10.512,1.42l-21.701-16.537l-21.703,16.537
		c-2.686,2.045-6.405,2.045-9.091,0l-21.707-16.537l-21.707,16.537c-1.357,1.034-2.955,1.534-4.54,1.534
		c-2.261,0-4.496-1.018-5.971-2.955C204.024,396.25,204.66,391.544,207.955,389.034z"/>
	<path style="fill:#FFCC75;" d="M150,340v-22.5h-15v135h15V370c0-4.143,3.358-7.5,7.5-7.5v-15C153.358,347.5,150,344.143,150,340z"
		/>
	<path style="fill:#F2484B;" d="M120,317.5H15v15h45V330c0-4.143,3.358-7.5,7.5-7.5s7.5,3.357,7.5,7.5v110
		c0,4.143-3.358,7.5-7.5,7.5S60,444.143,60,440v-2.5H15v15h105V317.5z"/>
	<path style="fill:#082947;" d="M212.505,402.5c1.584,0,3.182-0.5,4.54-1.534l21.707-16.537l21.707,16.537
		c2.686,2.045,6.405,2.045,9.091,0l21.703-16.537l21.701,16.537c3.297,2.51,8.002,1.875,10.512-1.42s1.874-8.001-1.42-10.512
		l-26.247-20c-2.686-2.045-6.406-2.045-9.092,0l-21.703,16.537l-21.707-16.537c-2.684-2.045-6.405-2.045-9.09,0l-26.252,20
		c-3.295,2.51-3.931,7.216-1.421,10.511C208.01,401.482,210.245,402.5,212.505,402.5z"/>
	<rect x="15" y="167.5" style="fill:#6DA8D6;" width="45" height="135"/>
	<rect x="75" y="167.5" style="fill:#FFCC75;" width="15" height="135"/>
	<path style="fill:#6DA8D6;" d="M305,167.5H105v135h200V167.5z M257.494,252.5c-1.584,0.001-3.182-0.5-4.539-1.534l-21.707-16.537
		l-21.708,16.537c-2.685,2.046-6.405,2.044-9.09,0l-21.703-16.537l-21.701,16.537c-3.294,2.509-8,1.875-10.511-1.42
		s-1.875-8.001,1.419-10.512l26.248-20c2.685-2.045,6.406-2.045,9.091,0l21.704,16.537l21.707-16.537
		c2.685-2.045,6.406-2.045,9.09,0l26.252,20c3.295,2.51,3.932,7.216,1.421,10.511C261.99,251.482,259.755,252.5,257.494,252.5z"/>
	<path style="fill:#FFCC75;" d="M335,190v-22.5h-15v135h15V220c0-4.143,3.357-7.5,7.5-7.5v-15C338.357,197.5,335,194.143,335,190z"
		/>
	<path style="fill:#6DA8D6;" d="M350,167.5V190c0,4.143-3.357,7.5-7.5,7.5v15c4.143,0,7.5,3.357,7.5,7.5v82.5h105v-15h-45v2.5
		c0,4.143-3.357,7.5-7.5,7.5s-7.5-3.357-7.5-7.5V180c0-4.143,3.357-7.5,7.5-7.5s7.5,3.357,7.5,7.5v2.5h45v-15H350z"/>
	<path style="fill:#082947;" d="M262.045,239.034l-26.252-20c-2.684-2.045-6.405-2.045-9.09,0l-21.707,16.537l-21.704-16.537
		c-2.685-2.045-6.406-2.045-9.091,0l-26.248,20c-3.294,2.511-3.93,7.217-1.419,10.512s7.217,3.929,10.511,1.42l21.701-16.537
		l21.703,16.537c2.685,2.044,6.405,2.046,9.09,0l21.708-16.537l21.707,16.537c1.357,1.034,2.955,1.535,4.539,1.534
		c2.261,0,4.496-1.018,5.972-2.955C265.977,246.25,265.34,241.544,262.045,239.034z"/>
</g>
<g>
</g>
<g>
</g>
<g>
</g>
<g>
</g>
<g>
</g>
<g>
</g>
<g>
</g>
<g>
</g>
<g>
</g>
<g>
</g>
<g>
</g>
<g>
</g>
<g>
</g>
<g>
</g>
<g>
</g>
</svg>
