<?xml version="1.0" encoding="iso-8859-1"?>
<!-- Generator: Adobe Illustrator 19.0.0, SVG Export Plug-In . SVG Version: 6.00 Build 0)  -->
<svg version="1.1" id="Capa_1" xmlns="http://www.w3.org/2000/svg" xmlns:xlink="http://www.w3.org/1999/xlink" x="0px" y="0px"
	 viewBox="0 0 473.023 473.023" style="enable-background:new 0 0 473.023 473.023;" xml:space="preserve">
<g>
	<path style="fill:#F2EBD9;" d="M419.175,144.889c0-13.172-10.461-23.939-23.503-24.43c5.317,6.725,8.503,15.209,8.503,24.43
		v260.199c0,4.143-3.358,7.5-7.5,7.5h-95.207c-4.142,0-7.5-3.357-7.5-7.5l0-250.225c0-18.736-15.066-34.013-33.734-34.409
		l-26.748,0.004c-13.472,0-24.432,10.96-24.432,24.431V318.16c0,0.309,0.031,0.61,0.091,0.901c0.418,2.037,2.225,3.574,4.383,3.574
		c4.142,0,7.5,3.357,7.5,7.5s-3.358,7.5-7.5,7.5c-10.738,0-19.474-8.736-19.474-19.475V45.436H53.848v282.699
		c0,13.172,10.461,23.939,23.503,24.43c-5.317-6.725-8.503-15.209-8.503-24.43V157.936c0-4.143,3.358-7.5,7.5-7.5l0-15
		c-4.142,0-7.5-3.357-7.5-7.5v-60c0-4.143,3.358-7.5,7.5-7.5h95.207c4.142,0,7.5,3.357,7.5,7.5c0,2.494,0,249.384,0,250.218
		c0,18.743,15.066,34.02,33.734,34.416l26.748-0.004c13.472,0,24.432-10.96,24.432-24.431V154.863c0-2.468-2.007-4.475-4.474-4.475
		c-4.142,0-7.5-3.357-7.5-7.5s3.358-7.5,7.5-7.5c10.738,0,19.474,8.736,19.474,19.475v272.725h140.207V144.889z"/>
	<path style="fill:#FFCC75;" d="M83.848,157.936v170.199c0,13.429,10.871,24.36,24.267,24.449l69.95-0.01
		c-8.661-8.907-14.01-21.045-14.01-34.414c0.007-0.231,0-0.471,0-0.718l0-242.007H83.848v52.5c0,4.143-3.358,7.5-7.5,7.5v15
		C80.491,150.436,83.848,153.793,83.848,157.936z"/>
	<path style="fill:#FFCC75;" d="M308.969,397.588h80.207V144.889c0-13.429-10.872-24.36-24.267-24.449l-69.95,0.01
		c8.661,8.907,14.01,21.045,14.01,34.414L308.969,397.588z"/>
	<path style="fill:#082947;" d="M394.743,105.436l-29.835,0.004c-0.055,0-0.109-0.004-0.164-0.004c-0.028,0-0.055,0.004-0.083,0.004
		l-104.428,0.014c-0.247-0.003-0.491-0.019-0.739-0.019c-0.126,0-0.25,0.013-0.374,0.019l-25.634,0.003
		c-9.222,0-17.708,3.191-24.431,8.515V7.5c0-4.143-3.358-7.5-7.5-7.5s-7.5,3.357-7.5,7.5v22.936h-23.802V7.5
		c0-4.143-3.358-7.5-7.5-7.5s-7.5,3.357-7.5,7.5v22.936h-23.801V7.5c0-4.143-3.358-7.5-7.5-7.5s-7.5,3.357-7.5,7.5v22.936H92.65V7.5
		c0-4.143-3.358-7.5-7.5-7.5s-7.5,3.357-7.5,7.5v22.936H53.848V7.5c0-4.143-3.358-7.5-7.5-7.5s-7.5,3.357-7.5,7.5v320.635
		c0,21.755,17.688,39.453,39.432,39.453l29.835-0.004c0.055,0,0.109,0.004,0.164,0.004c0.028,0,0.055-0.004,0.083-0.004
		l104.428-0.014c0.247,0.003,0.491,0.019,0.739,0.019c0.126,0,0.25-0.013,0.374-0.019l25.634-0.003
		c9.222,0,17.708-3.191,24.431-8.515v106.473c0,4.143,3.358,7.5,7.5,7.5s7.5-3.357,7.5-7.5v-22.936h23.802v22.936
		c0,4.143,3.358,7.5,7.5,7.5s7.5-3.357,7.5-7.5v-22.936h23.801v22.936c0,4.143,3.358,7.5,7.5,7.5s7.5-3.357,7.5-7.5v-22.936h23.802
		v22.936c0,4.143,3.358,7.5,7.5,7.5s7.5-3.357,7.5-7.5v-22.936h23.802v22.936c0,4.143,3.358,7.5,7.5,7.5s7.5-3.357,7.5-7.5V144.889
		C434.175,123.134,416.486,105.436,394.743,105.436z M278.969,427.588V154.863c0-10.738-8.736-19.475-19.474-19.475
		c-4.142,0-7.5,3.357-7.5,7.5s3.358,7.5,7.5,7.5c2.467,0,4.474,2.007,4.474,4.475v173.271c0,13.471-10.959,24.431-24.432,24.431
		l-26.748,0.004c-18.667-0.396-33.734-15.673-33.734-34.409c0-0.841,0-247.73,0-250.225c0-4.143-3.358-7.5-7.5-7.5H76.348
		c-4.142,0-7.5,3.357-7.5,7.5v60c0,4.143,3.358,7.5,7.5,7.5c4.142,0,7.5-3.357,7.5-7.5v-52.5h80.207l0,242.007
		c0,0.247,0.007,0.486,0.02,0.718c-0.02,13.369,5.329,25.507,13.99,34.414l-69.95,0.01c-13.396-0.089-24.267-11.021-24.267-24.449
		V157.936c0-4.143-3.358-7.5-7.5-7.5c-4.142,0-7.5,3.357-7.5,7.5v170.199c0,9.221,3.186,17.705,8.503,24.43
		c-13.042-0.491-23.503-11.258-23.503-24.43V45.436h140.207V318.16c0,10.738,8.736,19.475,19.474,19.475c4.142,0,7.5-3.357,7.5-7.5
		s-3.358-7.5-7.5-7.5c-2.158,0-3.965-1.537-4.383-3.574c-0.06-0.291-0.091-0.592-0.091-0.901V144.889
		c0-13.471,10.959-24.431,24.432-24.431l26.748-0.004c18.667,0.396,33.734,15.673,33.734,34.409l0,250.225
		c0,4.143,3.358,7.5,7.5,7.5h95.207c4.142,0,7.5-3.357,7.5-7.5V144.889c0-9.221-3.186-17.705-8.503-24.43
		c13.042,0.491,23.503,11.258,23.503,24.43v282.699H278.969z M364.908,120.439c13.396,0.089,24.267,11.021,24.267,24.449v252.699
		h-80.207l0-242.725c0-13.369-5.349-25.507-14.01-34.414L364.908,120.439z"/>
</g>
<g>
</g>
<g>
</g>
<g>
</g>
<g>
</g>
<g>
</g>
<g>
</g>
<g>
</g>
<g>
</g>
<g>
</g>
<g>
</g>
<g>
</g>
<g>
</g>
<g>
</g>
<g>
</g>
<g>
</g>
</svg>
