<?xml version="1.0" encoding="iso-8859-1"?>
<!-- Generator: Adobe Illustrator 19.0.0, SVG Export Plug-In . SVG Version: 6.00 Build 0)  -->
<svg version="1.1" id="Capa_1" xmlns="http://www.w3.org/2000/svg" xmlns:xlink="http://www.w3.org/1999/xlink" x="0px" y="0px"
	 viewBox="0 0 470 470" style="enable-background:new 0 0 470 470;" xml:space="preserve">
<g>
	<rect x="15" y="45" style="fill:#98D9D5;" width="440" height="35"/>
	<path style="fill:#F2EBD9;" d="M27.5,95v15c4.143,0,7.5,3.358,7.5,7.5v244h400v-244c0-4.142,3.357-7.5,7.5-7.5V95H27.5z M356.8,324
		c-4.142,0-7.5-3.358-7.5-7.5s3.358-7.5,7.5-7.5c4.142,0,7.5,3.358,7.5,7.5S360.942,324,356.8,324z M386.8,294
		c-4.142,0-7.5-3.358-7.5-7.5s3.358-7.5,7.5-7.5c4.142,0,7.5,3.358,7.5,7.5S390.942,294,386.8,294z"/>
	<circle style="fill:#082947;" cx="386.8" cy="286.5" r="7.5"/>
	<circle style="fill:#082947;" cx="356.8" cy="316.5" r="7.5"/>
	<path style="fill:#082947;" d="M462.5,95c4.143,0,7.5-3.358,7.5-7.5v-50c0-4.142-3.357-7.5-7.5-7.5H450V7.5
		c0-4.142-3.357-7.5-7.5-7.5S435,3.358,435,7.5V30H35V7.5C35,3.358,31.643,0,27.5,0S20,3.358,20,7.5V30H7.5
		C3.357,30,0,33.358,0,37.5v50C0,91.642,3.357,95,7.5,95H462.5z M15,45h440v35H15V45z"/>
	<path style="fill:#082947;" d="M435,117.5v244H35v-244c0-4.142-3.357-7.5-7.5-7.5s-7.5,3.358-7.5,7.5v244H7.5
		c-4.143,0-7.5,3.358-7.5,7.5s3.357,7.5,7.5,7.5h220v39.548c-11.528,3.274-20,13.889-20,26.452c0,15.164,12.337,27.5,27.5,27.5
		s27.5-12.336,27.5-27.5c0-12.563-8.472-23.178-20-26.452V376.5h220c4.143,0,7.5-3.358,7.5-7.5s-3.357-7.5-7.5-7.5H450v-244
		c0-4.142-3.357-7.5-7.5-7.5S435,113.358,435,117.5z M247.5,442.5c0,6.893-5.607,12.5-12.5,12.5s-12.5-5.607-12.5-12.5
		S228.107,430,235,430S247.5,435.607,247.5,442.5z"/>
</g>
<g>
</g>
<g>
</g>
<g>
</g>
<g>
</g>
<g>
</g>
<g>
</g>
<g>
</g>
<g>
</g>
<g>
</g>
<g>
</g>
<g>
</g>
<g>
</g>
<g>
</g>
<g>
</g>
<g>
</g>
</svg>
