<?xml version="1.0" encoding="iso-8859-1"?>
<!-- Generator: Adobe Illustrator 19.0.0, SVG Export Plug-In . SVG Version: 6.00 Build 0)  -->
<svg version="1.1" id="Capa_1" xmlns="http://www.w3.org/2000/svg" xmlns:xlink="http://www.w3.org/1999/xlink" x="0px" y="0px"
	 viewBox="0 0 470 470" style="enable-background:new 0 0 470 470;" xml:space="preserve">
<g>
	<path style="fill:#98D9D5;" d="M365.273,375.88L15,25.607V80h22.5c4.142,0,7.5,3.357,7.5,7.5S41.642,95,37.5,95H15v30h22.5
		c4.142,0,7.5,3.357,7.5,7.5s-3.358,7.5-7.5,7.5H15v30h22.5c4.142,0,7.5,3.357,7.5,7.5s-3.358,7.5-7.5,7.5H15v30h22.5
		c4.142,0,7.5,3.357,7.5,7.5s-3.358,7.5-7.5,7.5H15v30h22.5c4.142,0,7.5,3.357,7.5,7.5s-3.358,7.5-7.5,7.5H15v30h22.5
		c4.142,0,7.5,3.357,7.5,7.5s-3.358,7.5-7.5,7.5H15v30h22.5c4.142,0,7.5,3.357,7.5,7.5s-3.358,7.5-7.5,7.5H15v30h22.5
		c4.142,0,7.5,3.357,7.5,7.5s-3.358,7.5-7.5,7.5H15v45h429.394l-57.907-57.907c-2.929-2.93-2.929-7.678,0-10.606L375.88,375.88
		C372.951,378.808,368.202,378.808,365.273,375.88z M276.292,385.37c-1.161,2.803-3.896,4.63-6.929,4.63H87.5
		c-4.142,0-7.5-3.357-7.5-7.5V200.637c0-3.033,1.827-5.769,4.63-6.929c2.802-1.16,6.029-0.52,8.173,1.625l80.325,80.325
		c2.929,2.93,2.929,7.678,0,10.607l10.606,10.605c2.929-2.928,7.678-2.928,10.607,0l80.325,80.325
		C276.811,379.342,277.453,382.568,276.292,385.37z"/>
	<path style="fill:#082947;" d="M467.803,457.196l-70.71-70.711c-2.929-2.928-7.678-2.928-10.606,0
		c-2.929,2.93-2.929,7.678,0,10.607L444.394,455H15v-45h22.5c4.142,0,7.5-3.357,7.5-7.5s-3.358-7.5-7.5-7.5H15v-30h22.5
		c4.142,0,7.5-3.357,7.5-7.5s-3.358-7.5-7.5-7.5H15v-30h22.5c4.142,0,7.5-3.357,7.5-7.5s-3.358-7.5-7.5-7.5H15v-30h22.5
		c4.142,0,7.5-3.357,7.5-7.5s-3.358-7.5-7.5-7.5H15v-30h22.5c4.142,0,7.5-3.357,7.5-7.5s-3.358-7.5-7.5-7.5H15v-30h22.5
		c4.142,0,7.5-3.357,7.5-7.5s-3.358-7.5-7.5-7.5H15v-30h22.5c4.142,0,7.5-3.357,7.5-7.5s-3.358-7.5-7.5-7.5H15V95h22.5
		c4.142,0,7.5-3.357,7.5-7.5S41.642,80,37.5,80H15V25.607L365.273,375.88c2.929,2.928,7.678,2.928,10.606,0
		c2.929-2.93,2.929-7.678,0-10.607L12.803,2.196C10.659,0.052,7.432-0.59,4.63,0.571C1.827,1.732,0,4.467,0,7.5v455
		c0,4.143,3.358,7.5,7.5,7.5h455c3.034,0,5.768-1.827,6.929-4.63C470.59,462.568,469.948,459.342,467.803,457.196z"/>
	<path style="fill:#082947;" d="M194.341,296.871c-2.929-2.928-7.678-2.928-10.606,0c-2.929,2.93-2.929,7.678,0,10.607L251.256,375
		H95V218.743l67.521,67.522c2.929,2.928,7.678,2.928,10.606,0c2.929-2.93,2.929-7.678,0-10.607l-80.325-80.325
		c-2.145-2.145-5.371-2.785-8.173-1.625c-2.803,1.16-4.63,3.896-4.63,6.929V382.5c0,4.143,3.358,7.5,7.5,7.5h181.863
		c3.034,0,5.768-1.827,6.929-4.63c1.161-2.803,0.519-6.028-1.626-8.174L194.341,296.871z"/>
</g>
<g>
</g>
<g>
</g>
<g>
</g>
<g>
</g>
<g>
</g>
<g>
</g>
<g>
</g>
<g>
</g>
<g>
</g>
<g>
</g>
<g>
</g>
<g>
</g>
<g>
</g>
<g>
</g>
<g>
</g>
</svg>
