<?xml version="1.0" encoding="iso-8859-1"?>
<!-- Generator: Adobe Illustrator 19.0.0, SVG Export Plug-In . SVG Version: 6.00 Build 0)  -->
<svg version="1.1" id="Capa_1" xmlns="http://www.w3.org/2000/svg" xmlns:xlink="http://www.w3.org/1999/xlink" x="0px" y="0px"
	 viewBox="0 0 470 470" style="enable-background:new 0 0 470 470;" xml:space="preserve">
<g>
	<path style="fill:#F2484B;" d="M35,332.5v7.5c0,12.406,10.093,22.5,22.5,22.5h375c12.406,0,22.5-10.094,22.5-22.5v-7.5H35z"/>
	<path style="fill:#C1E8E6;" d="M217.5,302.5h-45c-20.678,0-37.5-16.822-37.5-37.5v-37.5H45v90h193.71
		C235.614,308.771,227.277,302.5,217.5,302.5z M90,280c-8.284,0-15-6.716-15-15s6.716-15,15-15s15,6.716,15,15S98.284,280,90,280z"
		/>
	<path style="fill:#98D9D5;" d="M312.5,227.5H150v30h275v-30h-82.5c-4.143,0-7.5-3.357-7.5-7.5h-15
		C320,224.143,316.643,227.5,312.5,227.5z"/>
	<path style="fill:#F2484B;" d="M312.5,212.5c4.143,0,7.5,3.357,7.5,7.5h15c0-4.143,3.357-7.5,7.5-7.5h112.253
		c-3.863-58.368-52.44-104.716-111.705-104.999L43.224,152.252C27.925,154.534,15,169.531,15,185v27.5H312.5z"/>
	<path style="fill:#082947;" d="M462.5,317.5H254.245c-3.484-17.096-18.635-30-36.745-30h-45c-9.777,0-18.114-6.271-21.21-15H425
		V295c0,4.143,3.357,7.5,7.5,7.5s7.5-3.357,7.5-7.5v-67.5h22.5c4.143,0,7.5-3.357,7.5-7.5c0-70.304-57.196-127.5-127.5-127.5
		c-0.37,0-0.74,0.027-1.107,0.082L41.01,137.416C18.397,140.79,0,162.137,0,185v35c0,4.143,3.358,7.5,7.5,7.5H30v25H7.5
		c-4.142,0-7.5,3.357-7.5,7.5s3.358,7.5,7.5,7.5H30v50h-2.5c-4.142,0-7.5,3.357-7.5,7.5v15c0,20.678,16.822,37.5,37.5,37.5h375
		c20.678,0,37.5-16.822,37.5-37.5v-15C470,320.857,466.643,317.5,462.5,317.5z M455,340c0,12.406-10.094,22.5-22.5,22.5h-375
		C45.093,362.5,35,352.406,35,340v-7.5h420V340z M15,185c0-15.469,12.925-30.466,28.224-32.748l299.824-44.751
		c59.265,0.283,107.842,46.631,111.705,104.999H342.5c-4.143,0-7.5,3.357-7.5,7.5s3.357,7.5,7.5,7.5H425v30H150v-30h162.5
		c4.143,0,7.5-3.357,7.5-7.5s-3.357-7.5-7.5-7.5H15V185z M45,227.5h90V265c0,20.678,16.822,37.5,37.5,37.5h45
		c9.777,0,18.114,6.271,21.21,15H45V227.5z"/>
	<circle style="fill:#082947;" cx="90" cy="265" r="15"/>
</g>
<g>
</g>
<g>
</g>
<g>
</g>
<g>
</g>
<g>
</g>
<g>
</g>
<g>
</g>
<g>
</g>
<g>
</g>
<g>
</g>
<g>
</g>
<g>
</g>
<g>
</g>
<g>
</g>
<g>
</g>
</svg>
