<?xml version="1.0" encoding="iso-8859-1"?>
<!-- Generator: Adobe Illustrator 19.0.0, SVG Export Plug-In . SVG Version: 6.00 Build 0)  -->
<svg version="1.1" id="Capa_1" xmlns="http://www.w3.org/2000/svg" xmlns:xlink="http://www.w3.org/1999/xlink" x="0px" y="0px"
	 viewBox="0 0 470.45 470.45" style="enable-background:new 0 0 470.45 470.45;" xml:space="preserve">
<g>
	<path style="fill:#BD1515;" d="M77.326,107.601c-5.724,1.462-11.665,2.204-17.656,2.204c-16.369,0-32.104-5.673-44.67-15.699
		v18.035c13.657,8.406,28.666,12.664,44.67,12.664c16.474,0,32.246-4.551,46.009-13.215C92.987,89.275,86.29,64.051,86.29,38.175
		c0-7.694,0.605-15.378,1.78-22.95H15v57.673c10.717,13.75,27.236,21.907,44.67,21.907c4.741,0,9.432-0.584,13.944-1.737
		c4.015-1.024,8.097,1.398,9.123,5.411C83.762,102.492,81.34,106.577,77.326,107.601z M68.69,78.816
		c-2.949,0.656-5.984,0.989-9.02,0.989c-10.041,0-19.75-3.643-27.338-10.256c-3.122-2.722-3.447-7.459-0.726-10.582
		c2.722-3.123,7.459-3.446,10.582-0.726c4.856,4.233,11.064,6.564,17.481,6.564c1.942,0,3.88-0.212,5.76-0.631
		c4.048-0.899,8.051,1.648,8.951,5.691C75.281,73.909,72.733,77.916,68.69,78.816z"/>
	<path style="fill:#BD1515;" d="M396.373,93.067c4.523,1.153,9.22,1.738,13.958,1.738c17.582,0,34.23-8.298,44.938-22.26
		l-0.237-57.32h-73.104c1.17,7.556,1.772,15.24,1.772,22.95c0,25.883-6.692,51.106-19.379,73.414
		c13.764,8.664,29.535,13.216,46.01,13.216c16.026,0,31.546-4.367,45.103-12.661l-0.076-18.319
		c-12.624,10.204-28.503,15.98-45.027,15.98c-5.987,0-11.93-0.741-17.663-2.203c-4.014-1.023-6.438-5.106-5.415-9.12
		C388.276,94.467,392.361,92.045,396.373,93.067z M395.619,69.865c0.9-4.043,4.909-6.588,8.951-5.691
		c1.88,0.418,3.818,0.631,5.761,0.631c6.417,0,12.625-2.331,17.481-6.564c3.122-2.722,7.859-2.396,10.581,0.726
		c2.722,3.123,2.397,7.86-0.726,10.582c-7.588,6.614-17.296,10.256-27.337,10.256c-3.037,0-6.071-0.333-9.021-0.989
		C397.267,77.916,394.719,73.909,395.619,69.865z"/>
	<path style="fill:#F2484B;" d="M36.84,440.038V251.345c0-4.142,3.358-7.5,7.5-7.5s7.5,3.358,7.5,7.5v188.693
		c7.357,1.677,11.967,5.662,15.838,9.025c2.154,1.871,3.94,3.42,6.001,4.498V160.455c0-4.142,3.358-7.5,7.5-7.5s7.5,3.358,7.5,7.5
		v293.103c2.057-1.078,3.841-2.625,5.991-4.493c3.872-3.364,8.481-7.35,15.839-9.026V163.045c0-4.142,3.358-7.5,7.5-7.5
		s7.5,3.358,7.5,7.5v276.994c7.358,1.677,11.968,5.663,15.839,9.026c2.15,1.869,3.933,3.417,5.991,4.495V158.321
		c-13.05-9.537-24.321-20.963-33.619-34.071c-16.168,10.197-34.698,15.555-54.052,15.555c-15.565,0-30.778-3.629-44.67-10.553
		v324.31c2.062-1.078,3.848-2.628,6.001-4.5C24.874,445.7,29.483,441.715,36.84,440.038z M36.84,161.345c0-4.142,3.358-7.5,7.5-7.5
		s7.5,3.358,7.5,7.5v60c0,4.142-3.358,7.5-7.5,7.5s-7.5-3.358-7.5-7.5V161.345z"/>
	<path style="fill:#F2484B;" d="M410.331,139.805c-19.354,0-37.885-5.359-54.054-15.557c-9.306,13.113-20.582,24.54-33.626,34.073
		v295.241c2.063-1.078,3.848-2.628,6.002-4.5c3.872-3.363,8.481-7.348,15.838-9.025V163.045c0-4.142,3.357-7.5,7.5-7.5
		s7.5,3.358,7.5,7.5v276.993c7.359,1.677,11.968,5.663,15.84,9.027c2.15,1.868,3.933,3.416,5.99,4.493v-50.833
		c0-4.142,3.357-7.5,7.5-7.5s7.5,3.358,7.5,7.5v50.835c2.062-1.078,3.848-2.627,6.002-4.498c3.872-3.363,8.481-7.348,15.838-9.025
		V161.345c0-4.142,3.357-7.5,7.5-7.5s7.5,3.358,7.5,7.5v278.693c7.357,1.677,11.967,5.662,15.839,9.025
		c2.154,1.871,3.939,3.422,6.002,4.5v-324.1C441.171,136.248,425.957,139.805,410.331,139.805z M396.32,372.725
		c0,4.142-3.357,7.5-7.5,7.5s-7.5-3.358-7.5-7.5v-212.27c0-4.142,3.357-7.5,7.5-7.5s7.5,3.358,7.5,7.5V372.725z"/>
	<path style="fill:#F2484B;" d="M311.147,148.1c14.781-10.273,27.162-23.167,36.792-38.327C361.521,88.398,368.7,63.64,368.7,38.175
		c0-7.725-0.669-15.418-1.97-22.95h-263.46c-1.307,7.551-1.979,15.244-1.979,22.95c0,25.455,7.182,50.212,20.77,71.597
		c9.621,15.16,22,28.052,36.792,38.333c0.152,0.096,0.298,0.198,0.442,0.305c22.319,15.354,48.493,23.475,75.706,23.475
		c27.202,0,53.367-8.117,75.689-23.469C310.838,148.305,310.99,148.2,311.147,148.1z M346.2,30.675c4.143,0,7.5,3.358,7.5,7.5
		c0,26.164-8.385,50.998-24.248,71.817c-1.476,1.937-3.711,2.955-5.972,2.955c-1.585,0-3.182-0.5-4.54-1.535
		c-3.294-2.511-3.93-7.217-1.42-10.511c13.855-18.185,21.18-39.875,21.18-62.727C338.7,34.033,342.057,30.675,346.2,30.675z
		 M153.79,30.675c4.142,0,7.5,3.358,7.5,7.5c0,14.901,4.454,29.273,12.879,41.562c2.342,3.417,1.472,8.084-1.944,10.427
		c-1.296,0.889-2.773,1.315-4.234,1.315c-2.39,0-4.739-1.14-6.192-3.259c-10.146-14.797-15.508-32.103-15.508-50.044
		C146.29,34.033,149.648,30.675,153.79,30.675z M227.432,149.377c-0.51,3.763-3.728,6.494-7.423,6.494
		c-0.335,0-0.674-0.022-1.016-0.069c-58.55-7.931-102.703-58.499-102.703-117.627c0-4.142,3.358-7.5,7.5-7.5s7.5,3.358,7.5,7.5
		c0,51.657,38.57,95.835,89.717,102.763C225.111,141.494,227.988,145.272,227.432,149.377z M184.956,111.377
		c-3.416-2.342-4.287-7.01-1.944-10.427c2.343-3.416,7.009-4.287,10.427-1.944c12.289,8.426,26.661,12.879,41.562,12.879
		c40.638,0,73.7-33.066,73.7-73.71c0-4.142,3.357-7.5,7.5-7.5s7.5,3.358,7.5,7.5c0,48.915-39.79,88.71-88.7,88.71
		C217.058,126.885,199.753,121.522,184.956,111.377z M306.821,132.627c-16.297,12.423-35.597,20.437-55.813,23.174
		c-0.342,0.046-0.682,0.069-1.017,0.069c-3.695,0-6.913-2.731-7.423-6.495c-0.556-4.104,2.321-7.883,6.426-8.438
		c17.647-2.39,34.499-9.389,48.733-20.24c3.296-2.511,8.001-1.875,10.512,1.418C310.75,125.41,310.115,130.116,306.821,132.627z"/>
	<path style="fill:#082947;" d="M65.43,64.174c-1.88,0.418-3.818,0.631-5.76,0.631c-6.417,0-12.625-2.331-17.481-6.564
		c-3.123-2.721-7.86-2.397-10.582,0.726c-2.722,3.123-2.396,7.86,0.726,10.582c7.588,6.614,17.297,10.256,27.338,10.256
		c3.036,0,6.071-0.333,9.02-0.989c4.043-0.9,6.591-4.907,5.691-8.951C73.481,65.823,69.478,63.275,65.43,64.174z"/>
	<path style="fill:#082947;" d="M470.45,116.194L470,7.694c-0.018-4.13-3.37-7.469-7.5-7.469h-89.657c-0.019,0-0.038,0-0.056,0
		H97.205c-0.029,0-89.705,0-89.705,0c-4.142,0-7.5,3.358-7.5,7.5v455c0,4.142,3.358,7.5,7.5,7.5c12.012,0,18.292-5.455,23.338-9.838
		c4.272-3.71,7.094-6.162,13.502-6.162c6.407,0,9.229,2.452,13.501,6.162c5.046,4.383,11.326,9.838,23.338,9.838
		c12.007,0,18.285-5.454,23.329-9.837c4.271-3.711,7.093-6.163,13.501-6.163s9.23,2.452,13.501,6.163
		c5.044,4.383,11.322,9.837,23.329,9.837c4.142,0,7.5-3.358,7.5-7.5V167.937c22.12,12.417,46.97,18.948,72.66,18.948
		c25.682,0,50.529-6.53,72.65-18.948v294.788c0,4.142,3.357,7.5,7.5,7.5c12.013,0,18.292-5.455,23.338-9.838
		c4.272-3.71,7.095-6.162,13.502-6.162c6.408,0,9.23,2.452,13.501,6.163c5.045,4.383,11.322,9.837,23.329,9.837
		c12.013,0,18.292-5.455,23.338-9.838c4.272-3.71,7.095-6.162,13.502-6.162c6.408,0,9.23,2.452,13.503,6.163
		c5.046,4.383,11.325,9.837,23.338,9.837c4.143,0,7.5-3.358,7.5-7.5V118.758C470.292,117.946,470.453,117.081,470.45,116.194z
		 M392.667,107.602c5.733,1.461,11.676,2.203,17.663,2.203c16.523,0,32.403-5.776,45.027-15.98l0.076,18.319
		c-13.557,8.294-29.076,12.661-45.103,12.661c-16.475,0-32.246-4.552-46.01-13.216C377.007,89.281,383.7,64.058,383.7,38.175
		c0-7.71-0.602-15.394-1.772-22.95h73.104l0.237,57.32c-10.709,13.962-27.356,22.26-44.938,22.26c-4.738,0-9.435-0.584-13.958-1.738
		c-4.012-1.022-8.097,1.4-9.12,5.415C386.229,102.496,388.654,106.579,392.667,107.602z M82.737,98.479
		c-1.025-4.013-5.108-6.435-9.123-5.411c-4.512,1.152-9.204,1.737-13.944,1.737c-17.434,0-33.953-8.158-44.67-21.907V15.225h73.07
		c-1.175,7.572-1.78,15.256-1.78,22.95c0,25.875,6.697,51.1,19.389,73.415c-13.763,8.664-29.534,13.215-46.009,13.215
		c-16.004,0-31.013-4.258-44.67-12.664V94.106c12.566,10.027,28.301,15.699,44.67,15.699c5.992,0,11.932-0.741,17.656-2.204
		C81.34,106.577,83.762,102.492,82.737,98.479z M15,129.252c13.892,6.924,29.105,10.553,44.67,10.553
		c19.354,0,37.883-5.358,54.052-15.555c9.297,13.108,20.569,24.534,33.619,34.071v295.238c-2.058-1.077-3.84-2.626-5.991-4.495
		c-3.872-3.364-8.481-7.35-15.839-9.026V163.045c0-4.142-3.358-7.5-7.5-7.5s-7.5,3.358-7.5,7.5v276.994
		c-7.358,1.677-11.968,5.663-15.839,9.026c-2.15,1.868-3.933,3.416-5.991,4.493V160.455c0-4.142-3.358-7.5-7.5-7.5
		s-7.5,3.358-7.5,7.5V453.56c-2.062-1.078-3.848-2.627-6.001-4.498c-3.872-3.363-8.481-7.348-15.838-9.025V251.345
		c0-4.142-3.358-7.5-7.5-7.5s-7.5,3.358-7.5,7.5v188.693c-7.357,1.677-11.967,5.662-15.839,9.025
		c-2.154,1.871-3.939,3.422-6.001,4.5V129.252z M159.294,148.411c-0.144-0.107-0.291-0.209-0.442-0.305
		c-14.792-10.281-27.17-23.173-36.792-38.333c-13.588-21.385-20.77-46.143-20.77-71.597c0-7.706,0.672-15.399,1.979-22.95h263.46
		c1.301,7.532,1.97,15.225,1.97,22.95c0,25.465-7.179,50.223-20.761,71.598c-9.63,15.16-22.011,28.053-36.792,38.327
		c-0.157,0.1-0.309,0.205-0.458,0.316c-22.322,15.352-48.487,23.469-75.689,23.469C207.787,171.885,181.613,163.765,159.294,148.411
		z M448.999,449.063c-3.872-3.363-8.481-7.348-15.839-9.025V161.345c0-4.142-3.357-7.5-7.5-7.5s-7.5,3.358-7.5,7.5v278.693
		c-7.357,1.677-11.966,5.662-15.838,9.025c-2.154,1.871-3.94,3.42-6.002,4.498v-50.835c0-4.142-3.357-7.5-7.5-7.5
		s-7.5,3.358-7.5,7.5v50.833c-2.057-1.078-3.841-2.625-5.99-4.493c-3.872-3.364-8.481-7.35-15.84-9.027V163.045
		c0-4.142-3.357-7.5-7.5-7.5s-7.5,3.358-7.5,7.5v276.993c-7.357,1.677-11.966,5.662-15.838,9.025
		c-2.154,1.871-3.939,3.422-6.002,4.5V158.322c13.045-9.533,24.32-20.96,33.626-34.073c16.169,10.198,34.7,15.557,54.054,15.557
		c15.627,0,30.84-3.557,44.67-10.343v324.1C452.938,452.485,451.153,450.934,448.999,449.063z"/>
	<path style="fill:#082947;" d="M401.31,78.816c2.949,0.656,5.983,0.989,9.021,0.989c10.041,0,19.749-3.643,27.337-10.256
		c3.123-2.722,3.447-7.459,0.726-10.582c-2.722-3.122-7.459-3.447-10.581-0.726c-4.856,4.233-11.064,6.564-17.481,6.564
		c-1.942,0-3.881-0.212-5.761-0.631c-4.042-0.897-8.051,1.648-8.951,5.691C394.719,73.909,397.267,77.916,401.31,78.816z"/>
	<path style="fill:#082947;" d="M44.34,228.845c4.142,0,7.5-3.358,7.5-7.5v-60c0-4.142-3.358-7.5-7.5-7.5s-7.5,3.358-7.5,7.5v60
		C36.84,225.487,40.198,228.845,44.34,228.845z"/>
	<path style="fill:#082947;" d="M388.82,152.955c-4.143,0-7.5,3.358-7.5,7.5v212.27c0,4.142,3.357,7.5,7.5,7.5s7.5-3.358,7.5-7.5
		v-212.27C396.32,156.313,392.962,152.955,388.82,152.955z"/>
	<path style="fill:#082947;" d="M167.991,91.479c1.461,0,2.938-0.426,4.234-1.315c3.416-2.342,4.287-7.01,1.944-10.427
		c-8.426-12.289-12.879-26.661-12.879-41.562c0-4.142-3.358-7.5-7.5-7.5s-7.5,3.358-7.5,7.5c0,17.942,5.363,35.247,15.508,50.044
		C163.251,90.339,165.601,91.479,167.991,91.479z"/>
	<path style="fill:#082947;" d="M323.7,38.175c0-4.142-3.357-7.5-7.5-7.5s-7.5,3.358-7.5,7.5c0,40.644-33.062,73.71-73.7,73.71
		c-14.901,0-29.273-4.454-41.562-12.879c-3.417-2.343-8.084-1.472-10.427,1.944c-2.342,3.417-1.472,8.084,1.944,10.427
		c14.797,10.146,32.103,15.508,50.044,15.508C283.91,126.885,323.7,87.09,323.7,38.175z"/>
	<path style="fill:#082947;" d="M221.007,140.938C169.86,134.01,131.29,89.832,131.29,38.175c0-4.142-3.358-7.5-7.5-7.5
		s-7.5,3.358-7.5,7.5c0,59.128,44.153,109.696,102.703,117.627c0.342,0.046,0.681,0.069,1.016,0.069
		c3.695,0,6.913-2.731,7.423-6.494C227.988,145.272,225.111,141.494,221.007,140.938z"/>
	<path style="fill:#082947;" d="M318.94,111.413c1.358,1.035,2.955,1.535,4.54,1.535c2.261,0,4.496-1.018,5.972-2.955
		C345.315,89.173,353.7,64.339,353.7,38.175c0-4.142-3.357-7.5-7.5-7.5s-7.5,3.358-7.5,7.5c0,22.852-7.324,44.542-21.18,62.727
		C315.01,104.196,315.646,108.902,318.94,111.413z"/>
	<path style="fill:#082947;" d="M308.239,122.116c-2.511-3.293-7.216-3.929-10.512-1.418c-14.234,10.851-31.086,17.85-48.733,20.24
		c-4.104,0.556-6.981,4.334-6.426,8.438c0.51,3.764,3.728,6.495,7.423,6.495c0.335,0,0.675-0.022,1.017-0.069
		c20.217-2.738,39.517-10.751,55.813-23.174C310.115,130.116,310.75,125.41,308.239,122.116z"/>
</g>
<g>
</g>
<g>
</g>
<g>
</g>
<g>
</g>
<g>
</g>
<g>
</g>
<g>
</g>
<g>
</g>
<g>
</g>
<g>
</g>
<g>
</g>
<g>
</g>
<g>
</g>
<g>
</g>
<g>
</g>
</svg>
