<?xml version="1.0" encoding="iso-8859-1"?>
<!-- Generator: Adobe Illustrator 19.0.0, SVG Export Plug-In . SVG Version: 6.00 Build 0)  -->
<svg version="1.1" id="Capa_1" xmlns="http://www.w3.org/2000/svg" xmlns:xlink="http://www.w3.org/1999/xlink" x="0px" y="0px"
	 viewBox="0 0 470 470" style="enable-background:new 0 0 470 470;" xml:space="preserve">
<g>
	<path style="fill:#FFFFFF;" d="M45,45.527v306.535h161.267c10.816,0,21.034,4.131,28.732,11.364
		c7.698-7.233,17.916-11.364,28.733-11.364H425V45.527H263.732c-9.056,0-17.462,4.514-22.485,12.074
		c-1.391,2.092-3.735,3.349-6.247,3.349c-2.512,0-4.856-1.257-6.247-3.349c-5.025-7.561-13.431-12.075-22.487-12.075H45z
		 M341.25,68.027c0-4.142,3.357-7.5,7.5-7.5h53.75c4.143,0,7.5,3.358,7.5,7.5v55.767c0,4.142-3.357,7.5-7.5,7.5h-53.75
		c-4.143,0-7.5-3.358-7.5-7.5V68.027z M348.75,146.294h53.75c4.143,0,7.5,3.358,7.5,7.5s-3.357,7.5-7.5,7.5h-53.75
		c-4.143,0-7.5-3.358-7.5-7.5S344.607,146.294,348.75,146.294z M348.75,176.294h26.875c4.143,0,7.5,3.358,7.5,7.5
		s-3.357,7.5-7.5,7.5H348.75c-4.143,0-7.5-3.358-7.5-7.5S344.607,176.294,348.75,176.294z M341.25,213.794
		c0-4.142,3.357-7.5,7.5-7.5h53.75c4.143,0,7.5,3.358,7.5,7.5v55.768c0,4.142-3.357,7.5-7.5,7.5h-53.75c-4.143,0-7.5-3.358-7.5-7.5
		V213.794z M348.75,292.062h53.75c4.143,0,7.5,3.358,7.5,7.5s-3.357,7.5-7.5,7.5h-53.75c-4.143,0-7.5-3.358-7.5-7.5
		S344.607,292.062,348.75,292.062z M348.75,322.062h26.875c4.143,0,7.5,3.358,7.5,7.5s-3.357,7.5-7.5,7.5H348.75
		c-4.143,0-7.5-3.358-7.5-7.5S344.607,322.062,348.75,322.062z M257.5,68.027c0-4.142,3.357-7.5,7.5-7.5h53.75
		c4.143,0,7.5,3.358,7.5,7.5v55.767c0,4.142-3.357,7.5-7.5,7.5H265c-4.143,0-7.5-3.358-7.5-7.5V68.027z M265,146.294h53.75
		c4.143,0,7.5,3.358,7.5,7.5s-3.357,7.5-7.5,7.5H265c-4.143,0-7.5-3.358-7.5-7.5S260.857,146.294,265,146.294z M265,176.294h26.875
		c4.143,0,7.5,3.358,7.5,7.5s-3.357,7.5-7.5,7.5H265c-4.143,0-7.5-3.358-7.5-7.5S260.857,176.294,265,176.294z M257.5,213.794
		c0-4.142,3.357-7.5,7.5-7.5h53.75c4.143,0,7.5,3.358,7.5,7.5v55.768c0,4.142-3.357,7.5-7.5,7.5H265c-4.143,0-7.5-3.358-7.5-7.5
		V213.794z M265,292.062h53.75c4.143,0,7.5,3.358,7.5,7.5s-3.357,7.5-7.5,7.5H265c-4.143,0-7.5-3.358-7.5-7.5
		S260.857,292.062,265,292.062z M265,322.062h26.875c4.143,0,7.5,3.358,7.5,7.5s-3.357,7.5-7.5,7.5H265c-4.143,0-7.5-3.358-7.5-7.5
		S260.857,322.062,265,322.062z M227.5,83.45c0-4.142,3.358-7.5,7.5-7.5s7.5,3.358,7.5,7.5v252.848c0,4.142-3.358,7.5-7.5,7.5
		s-7.5-3.358-7.5-7.5V83.45z M94.375,337.062H67.5c-4.142,0-7.5-3.358-7.5-7.5s3.358-7.5,7.5-7.5h26.875c4.142,0,7.5,3.358,7.5,7.5
		S98.517,337.062,94.375,337.062z M121.25,307.062H67.5c-4.142,0-7.5-3.358-7.5-7.5s3.358-7.5,7.5-7.5h53.75
		c4.142,0,7.5,3.358,7.5,7.5S125.392,307.062,121.25,307.062z M128.75,269.562c0,4.142-3.358,7.5-7.5,7.5H67.5
		c-4.142,0-7.5-3.358-7.5-7.5v-55.768c0-4.142,3.358-7.5,7.5-7.5h53.75c4.142,0,7.5,3.358,7.5,7.5V269.562z M60,183.794
		c0-4.142,3.358-7.5,7.5-7.5h26.875c4.142,0,7.5,3.358,7.5,7.5s-3.358,7.5-7.5,7.5H67.5C63.358,191.294,60,187.936,60,183.794z
		 M121.25,161.294H67.5c-4.142,0-7.5-3.358-7.5-7.5s3.358-7.5,7.5-7.5h53.75c4.142,0,7.5,3.358,7.5,7.5
		S125.392,161.294,121.25,161.294z M128.75,123.794c0,4.142-3.358,7.5-7.5,7.5H67.5c-4.142,0-7.5-3.358-7.5-7.5V68.027
		c0-4.142,3.358-7.5,7.5-7.5h53.75c4.142,0,7.5,3.358,7.5,7.5V123.794z M178.125,337.062H151.25c-4.142,0-7.5-3.358-7.5-7.5
		s3.358-7.5,7.5-7.5h26.875c4.142,0,7.5,3.358,7.5,7.5S182.267,337.062,178.125,337.062z M205,307.062h-53.75
		c-4.142,0-7.5-3.358-7.5-7.5s3.358-7.5,7.5-7.5H205c4.142,0,7.5,3.358,7.5,7.5S209.142,307.062,205,307.062z M212.5,269.562
		c0,4.142-3.358,7.5-7.5,7.5h-53.75c-4.142,0-7.5-3.358-7.5-7.5v-55.768c0-4.142,3.358-7.5,7.5-7.5H205c4.142,0,7.5,3.358,7.5,7.5
		V269.562z M143.75,183.794c0-4.142,3.358-7.5,7.5-7.5h26.875c4.142,0,7.5,3.358,7.5,7.5s-3.358,7.5-7.5,7.5H151.25
		C147.108,191.294,143.75,187.936,143.75,183.794z M205,161.294h-53.75c-4.142,0-7.5-3.358-7.5-7.5s3.358-7.5,7.5-7.5H205
		c4.142,0,7.5,3.358,7.5,7.5S209.142,161.294,205,161.294z M212.5,68.027v55.767c0,4.142-3.358,7.5-7.5,7.5h-53.75
		c-4.142,0-7.5-3.358-7.5-7.5V68.027c0-4.142,3.358-7.5,7.5-7.5H205C209.142,60.527,212.5,63.885,212.5,68.027z"/>
	<path style="fill:#C1E8E6;" d="M206.267,382.062c7.596,0,14.892,2.045,21.233,5.763v-10.42
		c-5.104-6.509-12.889-10.343-21.233-10.343H37.5v15H206.267z"/>
	<path style="fill:#C1E8E6;" d="M263.732,367.062c-8.345,0-16.13,3.834-21.232,10.343v10.419c6.34-3.718,13.636-5.762,21.232-5.762
		H432.5v-15H263.732z"/>
	<rect x="356.25" y="75.527" style="fill:#F2EBD9;" width="38.75" height="40.767"/>
	<rect x="272.5" y="75.527" style="fill:#F2EBD9;" width="38.75" height="40.767"/>
	<rect x="356.25" y="221.294" style="fill:#F2EBD9;" width="38.75" height="40.768"/>
	<rect x="272.5" y="221.294" style="fill:#F2EBD9;" width="38.75" height="40.768"/>
	<rect x="158.75" y="221.294" style="fill:#F2EBD9;" width="38.75" height="40.768"/>
	<rect x="75" y="221.294" style="fill:#F2EBD9;" width="38.75" height="40.768"/>
	<rect x="158.75" y="75.527" style="fill:#F2EBD9;" width="38.75" height="40.767"/>
	<rect x="75" y="75.527" style="fill:#F2EBD9;" width="38.75" height="40.767"/>
	<path style="fill:#6DA8D6;" d="M440,359.562c0,4.142-3.357,7.5-7.5,7.5v15c4.143,0,7.5,3.358,7.5,7.5s-3.357,7.5-7.5,7.5H263.732
		c-9.059,0-17.465,4.509-22.487,12.062c-0.166,0.247-0.339,0.473-0.524,0.691c-0.051,0.06-0.105,0.115-0.158,0.174
		c-0.137,0.152-0.279,0.298-0.427,0.438c-0.068,0.064-0.137,0.127-0.207,0.188c-0.156,0.136-0.317,0.264-0.484,0.387
		c-0.059,0.043-0.115,0.089-0.175,0.131c-0.233,0.162-0.474,0.313-0.726,0.448c-0.255,0.136-0.508,0.25-0.767,0.353
		c-0.064,0.026-0.13,0.048-0.195,0.072c-0.202,0.074-0.408,0.14-0.617,0.197c-0.079,0.021-0.158,0.042-0.239,0.061
		c-0.206,0.049-0.416,0.087-0.628,0.118c-0.078,0.011-0.154,0.026-0.232,0.035c-0.284,0.033-0.571,0.054-0.864,0.054
		c-0.296,0-0.585-0.021-0.87-0.054c-0.076-0.009-0.151-0.023-0.227-0.034c-0.214-0.031-0.425-0.07-0.633-0.119
		c-0.079-0.019-0.157-0.039-0.235-0.06c-0.211-0.057-0.419-0.124-0.622-0.198c-0.064-0.023-0.128-0.045-0.191-0.07
		c-0.261-0.104-0.517-0.219-0.762-0.351c-0.257-0.138-0.499-0.289-0.733-0.451c-0.058-0.04-0.113-0.085-0.17-0.127
		c-0.168-0.124-0.331-0.253-0.488-0.391c-0.07-0.061-0.138-0.124-0.206-0.187c-0.148-0.14-0.29-0.286-0.427-0.437
		c-0.053-0.059-0.108-0.115-0.16-0.176c-0.184-0.217-0.357-0.443-0.516-0.68c-5.032-7.563-13.439-12.073-22.496-12.073H37.5
		c-4.142,0-7.5-3.358-7.5-7.5s3.358-7.5,7.5-7.5v-15c-4.142,0-7.5-3.358-7.5-7.5V105.527H15v306.535h191.268
		c3.835,0,7.411,1.825,9.675,4.909l6.432,7.502l25.254-0.002l6.429-7.502c2.261-3.083,5.836-4.907,9.675-4.907H455V105.527h-15
		V359.562z"/>
	<path style="fill:#082947;" d="M235,343.798c4.142,0,7.5-3.358,7.5-7.5V83.45c0-4.142-3.358-7.5-7.5-7.5s-7.5,3.358-7.5,7.5
		v252.848C227.5,340.44,230.857,343.798,235,343.798z"/>
	<path style="fill:#082947;" d="M462.5,90.527H440v-52.5c0-4.142-3.357-7.5-7.5-7.5H263.732c-10.816,0-21.035,4.135-28.733,11.373
		c-7.698-7.238-17.917-11.373-28.732-11.373H37.5c-4.142,0-7.5,3.358-7.5,7.5v52.5H7.5c-4.142,0-7.5,3.358-7.5,7.5v321.535
		c0,4.142,3.358,7.5,7.5,7.5h197.336l8.396,9.793c1.425,1.663,3.505,2.619,5.694,2.619l32.153-0.003c2.189,0,4.27-0.957,5.694-2.62
		l8.389-9.789H462.5c4.143,0,7.5-3.358,7.5-7.5V98.027C470,93.885,466.643,90.527,462.5,90.527z M455,412.062H263.732
		c-3.839,0-7.414,1.824-9.675,4.907l-6.429,7.502l-25.254,0.002l-6.432-7.502c-2.264-3.084-5.84-4.909-9.675-4.909H15V105.527h15
		v254.035c0,4.142,3.358,7.5,7.5,7.5h168.767c8.344,0,16.129,3.835,21.233,10.343v10.42c-6.34-3.718-13.637-5.763-21.233-5.763H37.5
		c-4.142,0-7.5,3.358-7.5,7.5s3.358,7.5,7.5,7.5h168.767c9.057,0,17.464,4.51,22.488,12.063c0.166,0.247,0.34,0.473,0.523,0.69
		c0.051,0.061,0.107,0.117,0.16,0.176c0.137,0.151,0.278,0.297,0.427,0.437c0.068,0.064,0.136,0.126,0.206,0.187
		c0.157,0.137,0.32,0.267,0.488,0.391c0.057,0.042,0.112,0.087,0.17,0.127c0.234,0.163,0.476,0.314,0.728,0.449
		c0.25,0.134,0.506,0.249,0.767,0.353c0.063,0.025,0.127,0.047,0.191,0.07c0.203,0.075,0.411,0.141,0.622,0.198
		c0.078,0.021,0.156,0.042,0.235,0.06c0.208,0.049,0.419,0.088,0.633,0.119c0.076,0.011,0.151,0.026,0.227,0.034
		c0.285,0.033,0.574,0.054,0.867,0.054c0.295,0,0.583-0.021,0.867-0.054c0.078-0.009,0.154-0.024,0.232-0.035
		c0.212-0.031,0.422-0.07,0.628-0.118c0.08-0.019,0.159-0.04,0.239-0.061c0.21-0.057,0.415-0.123,0.617-0.197
		c0.065-0.024,0.131-0.046,0.195-0.072c0.259-0.103,0.511-0.217,0.755-0.347c0.263-0.141,0.504-0.292,0.737-0.454
		c0.06-0.042,0.116-0.087,0.175-0.131c0.167-0.123,0.328-0.251,0.484-0.387c0.07-0.061,0.139-0.124,0.207-0.188
		c0.149-0.14,0.29-0.286,0.427-0.438c0.053-0.058,0.107-0.114,0.158-0.174c0.185-0.218,0.358-0.444,0.517-0.682
		c5.029-7.561,13.435-12.071,22.494-12.071H432.5c4.143,0,7.5-3.358,7.5-7.5s-3.357-7.5-7.5-7.5H263.732
		c-7.596,0-14.893,2.044-21.232,5.762v-10.419c5.102-6.508,12.887-10.343,21.232-10.343H432.5c4.143,0,7.5-3.358,7.5-7.5V105.527h15
		V412.062z M228.754,57.602c1.39,2.092,3.735,3.349,6.247,3.349c2.511,0,4.856-1.257,6.247-3.349
		c5.023-7.561,13.43-12.074,22.485-12.074H425v306.535H263.732c-10.817,0-21.035,4.131-28.733,11.364
		c-7.699-7.232-17.917-11.364-28.732-11.364H45V45.527h161.267C215.323,45.527,223.729,50.041,228.754,57.602z"/>
	<path style="fill:#082947;" d="M151.25,60.527c-4.142,0-7.5,3.358-7.5,7.5v55.767c0,4.142,3.358,7.5,7.5,7.5H205
		c4.142,0,7.5-3.358,7.5-7.5V68.027c0-4.142-3.358-7.5-7.5-7.5H151.25z M197.5,116.294h-38.75V75.527h38.75V116.294z"/>
	<path style="fill:#082947;" d="M121.25,60.527H67.5c-4.142,0-7.5,3.358-7.5,7.5v55.767c0,4.142,3.358,7.5,7.5,7.5h53.75
		c4.142,0,7.5-3.358,7.5-7.5V68.027C128.75,63.885,125.392,60.527,121.25,60.527z M113.75,116.294H75V75.527h38.75V116.294z"/>
	<path style="fill:#082947;" d="M205,206.294h-53.75c-4.142,0-7.5,3.358-7.5,7.5v55.768c0,4.142,3.358,7.5,7.5,7.5H205
		c4.142,0,7.5-3.358,7.5-7.5v-55.768C212.5,209.652,209.142,206.294,205,206.294z M197.5,262.062h-38.75v-40.768h38.75V262.062z"/>
	<path style="fill:#082947;" d="M121.25,206.294H67.5c-4.142,0-7.5,3.358-7.5,7.5v55.768c0,4.142,3.358,7.5,7.5,7.5h53.75
		c4.142,0,7.5-3.358,7.5-7.5v-55.768C128.75,209.652,125.392,206.294,121.25,206.294z M113.75,262.062H75v-40.768h38.75V262.062z"/>
	<path style="fill:#082947;" d="M205,146.294h-53.75c-4.142,0-7.5,3.358-7.5,7.5s3.358,7.5,7.5,7.5H205c4.142,0,7.5-3.358,7.5-7.5
		S209.142,146.294,205,146.294z"/>
	<path style="fill:#082947;" d="M121.25,146.294H67.5c-4.142,0-7.5,3.358-7.5,7.5s3.358,7.5,7.5,7.5h53.75
		c4.142,0,7.5-3.358,7.5-7.5S125.392,146.294,121.25,146.294z"/>
	<path style="fill:#082947;" d="M205,292.062h-53.75c-4.142,0-7.5,3.358-7.5,7.5s3.358,7.5,7.5,7.5H205c4.142,0,7.5-3.358,7.5-7.5
		S209.142,292.062,205,292.062z"/>
	<path style="fill:#082947;" d="M121.25,292.062H67.5c-4.142,0-7.5,3.358-7.5,7.5s3.358,7.5,7.5,7.5h53.75
		c4.142,0,7.5-3.358,7.5-7.5S125.392,292.062,121.25,292.062z"/>
	<path style="fill:#082947;" d="M151.25,191.294h26.875c4.142,0,7.5-3.358,7.5-7.5s-3.358-7.5-7.5-7.5H151.25
		c-4.142,0-7.5,3.358-7.5,7.5S147.108,191.294,151.25,191.294z"/>
	<path style="fill:#082947;" d="M67.5,191.294h26.875c4.142,0,7.5-3.358,7.5-7.5s-3.358-7.5-7.5-7.5H67.5
		c-4.142,0-7.5,3.358-7.5,7.5S63.358,191.294,67.5,191.294z"/>
	<path style="fill:#082947;" d="M178.125,322.062H151.25c-4.142,0-7.5,3.358-7.5,7.5s3.358,7.5,7.5,7.5h26.875
		c4.142,0,7.5-3.358,7.5-7.5S182.267,322.062,178.125,322.062z"/>
	<path style="fill:#082947;" d="M94.375,322.062H67.5c-4.142,0-7.5,3.358-7.5,7.5s3.358,7.5,7.5,7.5h26.875
		c4.142,0,7.5-3.358,7.5-7.5S98.517,322.062,94.375,322.062z"/>
	<path style="fill:#082947;" d="M348.75,131.294h53.75c4.143,0,7.5-3.358,7.5-7.5V68.027c0-4.142-3.357-7.5-7.5-7.5h-53.75
		c-4.143,0-7.5,3.358-7.5,7.5v55.767C341.25,127.936,344.607,131.294,348.75,131.294z M356.25,75.527H395v40.767h-38.75V75.527z"/>
	<path style="fill:#082947;" d="M265,131.294h53.75c4.143,0,7.5-3.358,7.5-7.5V68.027c0-4.142-3.357-7.5-7.5-7.5H265
		c-4.143,0-7.5,3.358-7.5,7.5v55.767C257.5,127.936,260.857,131.294,265,131.294z M272.5,75.527h38.75v40.767H272.5V75.527z"/>
	<path style="fill:#082947;" d="M348.75,277.062h53.75c4.143,0,7.5-3.358,7.5-7.5v-55.768c0-4.142-3.357-7.5-7.5-7.5h-53.75
		c-4.143,0-7.5,3.358-7.5,7.5v55.768C341.25,273.704,344.607,277.062,348.75,277.062z M356.25,221.294H395v40.768h-38.75V221.294z"
		/>
	<path style="fill:#082947;" d="M265,277.062h53.75c4.143,0,7.5-3.358,7.5-7.5v-55.768c0-4.142-3.357-7.5-7.5-7.5H265
		c-4.143,0-7.5,3.358-7.5,7.5v55.768C257.5,273.704,260.857,277.062,265,277.062z M272.5,221.294h38.75v40.768H272.5V221.294z"/>
	<path style="fill:#082947;" d="M348.75,161.294h53.75c4.143,0,7.5-3.358,7.5-7.5s-3.357-7.5-7.5-7.5h-53.75
		c-4.143,0-7.5,3.358-7.5,7.5S344.607,161.294,348.75,161.294z"/>
	<path style="fill:#082947;" d="M265,161.294h53.75c4.143,0,7.5-3.358,7.5-7.5s-3.357-7.5-7.5-7.5H265c-4.143,0-7.5,3.358-7.5,7.5
		S260.857,161.294,265,161.294z"/>
	<path style="fill:#082947;" d="M348.75,307.062h53.75c4.143,0,7.5-3.358,7.5-7.5s-3.357-7.5-7.5-7.5h-53.75
		c-4.143,0-7.5,3.358-7.5,7.5S344.607,307.062,348.75,307.062z"/>
	<path style="fill:#082947;" d="M265,307.062h53.75c4.143,0,7.5-3.358,7.5-7.5s-3.357-7.5-7.5-7.5H265c-4.143,0-7.5,3.358-7.5,7.5
		S260.857,307.062,265,307.062z"/>
	<path style="fill:#082947;" d="M348.75,191.294h26.875c4.143,0,7.5-3.358,7.5-7.5s-3.357-7.5-7.5-7.5H348.75
		c-4.143,0-7.5,3.358-7.5,7.5S344.607,191.294,348.75,191.294z"/>
	<path style="fill:#082947;" d="M265,191.294h26.875c4.143,0,7.5-3.358,7.5-7.5s-3.357-7.5-7.5-7.5H265c-4.143,0-7.5,3.358-7.5,7.5
		S260.857,191.294,265,191.294z"/>
	<path style="fill:#082947;" d="M348.75,337.062h26.875c4.143,0,7.5-3.358,7.5-7.5s-3.357-7.5-7.5-7.5H348.75
		c-4.143,0-7.5,3.358-7.5,7.5S344.607,337.062,348.75,337.062z"/>
	<path style="fill:#082947;" d="M265,337.062h26.875c4.143,0,7.5-3.358,7.5-7.5s-3.357-7.5-7.5-7.5H265c-4.143,0-7.5,3.358-7.5,7.5
		S260.857,337.062,265,337.062z"/>
</g>
<g>
</g>
<g>
</g>
<g>
</g>
<g>
</g>
<g>
</g>
<g>
</g>
<g>
</g>
<g>
</g>
<g>
</g>
<g>
</g>
<g>
</g>
<g>
</g>
<g>
</g>
<g>
</g>
<g>
</g>
</svg>
